G04 #@! TF.GenerationSoftware,KiCad,Pcbnew,7.0.1*
G04 #@! TF.CreationDate,2024-07-12T16:59:09-07:00*
G04 #@! TF.ProjectId,air_foil_pcb,6169725f-666f-4696-9c5f-7063622e6b69,rev?*
G04 #@! TF.SameCoordinates,Original*
G04 #@! TF.FileFunction,Copper,L4,Bot*
G04 #@! TF.FilePolarity,Positive*
%FSLAX46Y46*%
G04 Gerber Fmt 4.6, Leading zero omitted, Abs format (unit mm)*
G04 Created by KiCad (PCBNEW 7.0.1) date 2024-07-12 16:59:09*
%MOMM*%
%LPD*%
G01*
G04 APERTURE LIST*
G04 Aperture macros list*
%AMFreePoly0*
4,1,6,1.000000,0.000000,0.500000,-0.750000,-0.500000,-0.750000,-0.500000,0.750000,0.500000,0.750000,1.000000,0.000000,1.000000,0.000000,$1*%
%AMFreePoly1*
4,1,6,0.500000,-0.750000,-0.650000,-0.750000,-0.150000,0.000000,-0.650000,0.750000,0.500000,0.750000,0.500000,-0.750000,0.500000,-0.750000,$1*%
G04 Aperture macros list end*
G04 #@! TA.AperFunction,ComponentPad*
%ADD10R,1.500000X1.500000*%
G04 #@! TD*
G04 #@! TA.AperFunction,ComponentPad*
%ADD11C,1.500000*%
G04 #@! TD*
G04 #@! TA.AperFunction,SMDPad,CuDef*
%ADD12FreePoly0,180.000000*%
G04 #@! TD*
G04 #@! TA.AperFunction,SMDPad,CuDef*
%ADD13FreePoly1,180.000000*%
G04 #@! TD*
G04 #@! TA.AperFunction,ComponentPad*
%ADD14O,1.700000X1.700000*%
G04 #@! TD*
G04 #@! TA.AperFunction,ComponentPad*
%ADD15R,1.700000X1.700000*%
G04 #@! TD*
G04 #@! TA.AperFunction,ViaPad*
%ADD16C,0.800000*%
G04 #@! TD*
G04 #@! TA.AperFunction,Conductor*
%ADD17C,0.250000*%
G04 #@! TD*
G04 APERTURE END LIST*
D10*
X83328600Y-42709600D03*
D11*
X83328600Y-40169600D03*
X83328600Y-37629600D03*
X83328600Y-35089600D03*
X70028600Y-35089600D03*
X70028600Y-37629600D03*
X70028600Y-40169600D03*
X70028600Y-42709600D03*
D10*
X35449600Y-42633400D03*
D11*
X35449600Y-40093400D03*
X35449600Y-37553400D03*
X35449600Y-35013400D03*
X22149600Y-35013400D03*
X22149600Y-37553400D03*
X22149600Y-40093400D03*
X22149600Y-42633400D03*
X38075400Y-42645600D03*
X38075400Y-40105600D03*
X38075400Y-37565600D03*
X38075400Y-35025600D03*
X51375400Y-35025600D03*
X51375400Y-37565600D03*
X51375400Y-40105600D03*
D10*
X51375400Y-42645600D03*
X67302000Y-42645600D03*
D11*
X67302000Y-40105600D03*
X67302000Y-37565600D03*
X67302000Y-35025600D03*
X54002000Y-35025600D03*
X54002000Y-37565600D03*
X54002000Y-40105600D03*
X54002000Y-42645600D03*
D10*
X38236600Y-53603350D03*
D11*
X38236600Y-51063350D03*
X38236600Y-48523350D03*
X38236600Y-45983350D03*
X51536600Y-45983350D03*
X51536600Y-48523350D03*
X51536600Y-51063350D03*
X51536600Y-53603350D03*
D10*
X54203600Y-53543200D03*
D11*
X54203600Y-51003200D03*
X54203600Y-48463200D03*
X54203600Y-45923200D03*
X67503600Y-45923200D03*
X67503600Y-48463200D03*
X67503600Y-51003200D03*
X67503600Y-53543200D03*
D10*
X70184200Y-53533350D03*
D11*
X70184200Y-50993350D03*
X70184200Y-48453350D03*
X70184200Y-45913350D03*
X83484200Y-45913350D03*
X83484200Y-48453350D03*
X83484200Y-50993350D03*
X83484200Y-53533350D03*
D10*
X22326600Y-53670200D03*
D11*
X22326600Y-51130200D03*
X22326600Y-48590200D03*
X22326600Y-46050200D03*
X35626600Y-46050200D03*
X35626600Y-48590200D03*
X35626600Y-51130200D03*
X35626600Y-53670200D03*
D10*
X87540600Y-64686800D03*
D11*
X87540600Y-62146800D03*
X87540600Y-59606800D03*
X87540600Y-57066800D03*
X74240600Y-57066800D03*
X74240600Y-59606800D03*
X74240600Y-62146800D03*
X74240600Y-64686800D03*
X22177400Y-64686800D03*
X22177400Y-62146800D03*
X22177400Y-59606800D03*
X22177400Y-57066800D03*
X35477400Y-57066800D03*
X35477400Y-59606800D03*
X35477400Y-62146800D03*
D10*
X35477400Y-64686800D03*
D11*
X39469200Y-64680600D03*
X39469200Y-62140600D03*
X39469200Y-59600600D03*
X39469200Y-57060600D03*
X52769200Y-57060600D03*
X52769200Y-59600600D03*
X52769200Y-62140600D03*
D10*
X52769200Y-64680600D03*
X70186200Y-64686800D03*
D11*
X70186200Y-62146800D03*
X70186200Y-59606800D03*
X70186200Y-57066800D03*
X56886200Y-57066800D03*
X56886200Y-59606800D03*
X56886200Y-62146800D03*
X56886200Y-64686800D03*
D10*
X39669200Y-75253200D03*
D11*
X39669200Y-72713200D03*
X39669200Y-70173200D03*
X39669200Y-67633200D03*
X52969200Y-67633200D03*
X52969200Y-70173200D03*
X52969200Y-72713200D03*
X52969200Y-75253200D03*
D10*
X57086200Y-75253200D03*
D11*
X57086200Y-72713200D03*
X57086200Y-70173200D03*
X57086200Y-67633200D03*
X70386200Y-67633200D03*
X70386200Y-70173200D03*
X70386200Y-72713200D03*
X70386200Y-75253200D03*
D10*
X74440600Y-75253200D03*
D11*
X74440600Y-72713200D03*
X74440600Y-70173200D03*
X74440600Y-67633200D03*
X87740600Y-67633200D03*
X87740600Y-70173200D03*
X87740600Y-72713200D03*
X87740600Y-75253200D03*
D10*
X22377400Y-75253200D03*
D11*
X22377400Y-72713200D03*
X22377400Y-70173200D03*
X22377400Y-67633200D03*
X35677400Y-67633200D03*
X35677400Y-70173200D03*
X35677400Y-72713200D03*
X35677400Y-75253200D03*
D10*
X87540600Y-123494800D03*
D11*
X87540600Y-120954800D03*
X87540600Y-118414800D03*
X87540600Y-115874800D03*
X74240600Y-115874800D03*
X74240600Y-118414800D03*
X74240600Y-120954800D03*
X74240600Y-123494800D03*
D10*
X35477400Y-123494800D03*
D11*
X35477400Y-120954800D03*
X35477400Y-118414800D03*
X35477400Y-115874800D03*
X22177400Y-115874800D03*
X22177400Y-118414800D03*
X22177400Y-120954800D03*
X22177400Y-123494800D03*
X39469200Y-123494800D03*
X39469200Y-120954800D03*
X39469200Y-118414800D03*
X39469200Y-115874800D03*
X52769200Y-115874800D03*
X52769200Y-118414800D03*
X52769200Y-120954800D03*
D10*
X52769200Y-123494800D03*
X70186200Y-123494800D03*
D11*
X70186200Y-120954800D03*
X70186200Y-118414800D03*
X70186200Y-115874800D03*
X56886200Y-115874800D03*
X56886200Y-118414800D03*
X56886200Y-120954800D03*
X56886200Y-123494800D03*
D10*
X39557400Y-134975600D03*
D11*
X39557400Y-132435600D03*
X39557400Y-129895600D03*
X39557400Y-127355600D03*
X52857400Y-127355600D03*
X52857400Y-129895600D03*
X52857400Y-132435600D03*
X52857400Y-134975600D03*
D10*
X57001600Y-134965750D03*
D11*
X57001600Y-132425750D03*
X57001600Y-129885750D03*
X57001600Y-127345750D03*
X70301600Y-127345750D03*
X70301600Y-129885750D03*
X70301600Y-132425750D03*
X70301600Y-134965750D03*
X87740600Y-134924800D03*
X87740600Y-132384800D03*
X87740600Y-129844800D03*
X87740600Y-127304800D03*
X74440600Y-127304800D03*
X74440600Y-129844800D03*
X74440600Y-132384800D03*
D10*
X74440600Y-134924800D03*
X22377400Y-134924800D03*
D11*
X22377400Y-132384800D03*
X22377400Y-129844800D03*
X22377400Y-127304800D03*
X35677400Y-127304800D03*
X35677400Y-129844800D03*
X35677400Y-132384800D03*
X35677400Y-134924800D03*
D10*
X35477400Y-146354800D03*
D11*
X35477400Y-143814800D03*
X35477400Y-141274800D03*
X35477400Y-138734800D03*
X22177400Y-138734800D03*
X22177400Y-141274800D03*
X22177400Y-143814800D03*
X22177400Y-146354800D03*
D10*
X52769200Y-146354800D03*
D11*
X52769200Y-143814800D03*
X52769200Y-141274800D03*
X52769200Y-138734800D03*
X39469200Y-138734800D03*
X39469200Y-141274800D03*
X39469200Y-143814800D03*
X39469200Y-146354800D03*
D10*
X70186200Y-146354800D03*
D11*
X70186200Y-143814800D03*
X70186200Y-141274800D03*
X70186200Y-138734800D03*
X56886200Y-138734800D03*
X56886200Y-141274800D03*
X56886200Y-143814800D03*
X56886200Y-146354800D03*
D10*
X87540600Y-146354800D03*
D11*
X87540600Y-143814800D03*
X87540600Y-141274800D03*
X87540600Y-138734800D03*
X74240600Y-138734800D03*
X74240600Y-141274800D03*
X74240600Y-143814800D03*
X74240600Y-146354800D03*
D10*
X22377400Y-157784800D03*
D11*
X22377400Y-155244800D03*
X22377400Y-152704800D03*
X22377400Y-150164800D03*
X35677400Y-150164800D03*
X35677400Y-152704800D03*
X35677400Y-155244800D03*
X35677400Y-157784800D03*
D10*
X39669200Y-157784800D03*
D11*
X39669200Y-155244800D03*
X39669200Y-152704800D03*
X39669200Y-150164800D03*
X52969200Y-150164800D03*
X52969200Y-152704800D03*
X52969200Y-155244800D03*
X52969200Y-157784800D03*
D10*
X57086200Y-157784800D03*
D11*
X57086200Y-155244800D03*
X57086200Y-152704800D03*
X57086200Y-150164800D03*
X70386200Y-150164800D03*
X70386200Y-152704800D03*
X70386200Y-155244800D03*
X70386200Y-157784800D03*
D10*
X74440600Y-157784800D03*
D11*
X74440600Y-155244800D03*
X74440600Y-152704800D03*
X74440600Y-150164800D03*
X87740600Y-150164800D03*
X87740600Y-152704800D03*
X87740600Y-155244800D03*
X87740600Y-157784800D03*
D12*
X78169600Y-34925000D03*
D13*
X76719600Y-34925000D03*
D12*
X30607000Y-35001200D03*
D13*
X29157000Y-35001200D03*
D12*
X46075600Y-34975800D03*
D13*
X44625600Y-34975800D03*
D12*
X61620400Y-35026600D03*
D13*
X60170400Y-35026600D03*
D12*
X78181200Y-37566600D03*
D13*
X76731200Y-37566600D03*
D12*
X30632400Y-37668200D03*
D13*
X29182400Y-37668200D03*
D12*
X46064000Y-37719000D03*
D13*
X44614000Y-37719000D03*
D12*
X61622600Y-37719000D03*
D13*
X60172600Y-37719000D03*
D12*
X82067400Y-59283600D03*
D13*
X80617400Y-59283600D03*
D12*
X30226000Y-59867800D03*
D13*
X28776000Y-59867800D03*
D12*
X47246200Y-58648600D03*
D13*
X45796200Y-58648600D03*
D12*
X64555200Y-58953400D03*
D13*
X63105200Y-58953400D03*
D12*
X82067400Y-62052200D03*
D13*
X80617400Y-62052200D03*
D12*
X30200600Y-62433200D03*
D13*
X28750600Y-62433200D03*
D12*
X47244000Y-61214000D03*
D13*
X45794000Y-61214000D03*
D12*
X64529800Y-61696600D03*
D13*
X63079800Y-61696600D03*
X77814000Y-116890800D03*
D12*
X79264000Y-116890800D03*
D13*
X26365200Y-117500400D03*
D12*
X27815200Y-117500400D03*
D13*
X43203200Y-117652800D03*
D12*
X44653200Y-117652800D03*
D13*
X60870000Y-117944200D03*
D12*
X62320000Y-117944200D03*
D13*
X81229200Y-116890800D03*
D12*
X82679200Y-116890800D03*
D13*
X29907400Y-117551200D03*
D12*
X31357400Y-117551200D03*
D13*
X46630000Y-117621400D03*
D12*
X48080000Y-117621400D03*
D13*
X64273600Y-117957600D03*
D12*
X65723600Y-117957600D03*
X29408800Y-141873800D03*
D13*
X27958800Y-141873800D03*
D12*
X32844400Y-141859000D03*
D13*
X31394400Y-141859000D03*
D12*
X47144600Y-142443200D03*
D13*
X45694600Y-142443200D03*
D12*
X50522800Y-142417800D03*
D13*
X49072800Y-142417800D03*
D12*
X64439800Y-142417800D03*
D13*
X62989800Y-142417800D03*
D12*
X67845600Y-142392400D03*
D13*
X66395600Y-142392400D03*
D12*
X81229200Y-142214600D03*
D13*
X79779200Y-142214600D03*
D12*
X84672000Y-142214600D03*
D13*
X83222000Y-142214600D03*
D14*
X72567800Y-185826400D03*
X75107800Y-185826400D03*
X77647800Y-185826400D03*
X80187800Y-185826400D03*
X82727800Y-185826400D03*
X85267800Y-185826400D03*
X87807800Y-185826400D03*
X90347800Y-185826400D03*
X92887800Y-185826400D03*
D15*
X95427800Y-185826400D03*
D16*
X94538800Y-53797200D03*
X88061800Y-52882800D03*
X88061800Y-51739800D03*
X91414600Y-39852600D03*
X91948000Y-40716200D03*
X89179400Y-44043600D03*
X90043000Y-44348400D03*
X24333200Y-45085000D03*
X73075800Y-45161200D03*
X72313800Y-43916600D03*
X87579200Y-39725600D03*
X88163400Y-38506400D03*
X92354400Y-36880800D03*
X93853000Y-36830000D03*
X94615000Y-38328600D03*
X92618900Y-39293800D03*
X92443300Y-46215300D03*
X93446600Y-46355000D03*
X94259400Y-47040800D03*
X92839911Y-44935511D03*
X79273400Y-45974000D03*
X74396600Y-46990000D03*
X87858600Y-45085000D03*
X86207600Y-43434000D03*
X73456800Y-39878000D03*
X27432000Y-52755800D03*
X30810200Y-52654200D03*
X43535600Y-52755800D03*
X46837600Y-53517800D03*
X61950600Y-52400200D03*
X59740800Y-52755800D03*
X79146400Y-51358800D03*
X76200000Y-51460400D03*
X73202800Y-34671000D03*
X73075800Y-37185600D03*
X76657200Y-37414200D03*
X76708000Y-34594800D03*
X60045600Y-35102800D03*
X60045600Y-37693600D03*
X56896000Y-37490400D03*
X56896000Y-34925000D03*
X40995600Y-35255200D03*
X40741600Y-38430200D03*
X44551600Y-37287200D03*
X44653200Y-34467800D03*
X28930600Y-34798000D03*
X28778200Y-37769800D03*
X25628600Y-37388800D03*
X25704800Y-35483800D03*
X28524200Y-62585600D03*
X28726500Y-59867800D03*
X45744500Y-61214000D03*
X45746700Y-58648600D03*
X63030300Y-61696600D03*
X63055700Y-58953400D03*
X80567900Y-62052200D03*
X80567900Y-59283600D03*
X48056800Y-115265200D03*
X42875200Y-117754400D03*
X46558200Y-117881400D03*
X72009000Y-120040400D03*
X66294000Y-105638600D03*
X65100200Y-105943400D03*
X81026000Y-116840000D03*
X77571600Y-116763800D03*
X60706000Y-117957600D03*
X64109600Y-118033800D03*
X29692600Y-117652800D03*
X26187400Y-117602000D03*
X87680800Y-40919400D03*
X95123000Y-40767000D03*
X95173800Y-44475400D03*
X92811600Y-50266600D03*
X95402400Y-50190400D03*
X35712400Y-77927200D03*
X35788600Y-78968600D03*
X58039000Y-79603600D03*
X58394600Y-81000600D03*
X49784000Y-76149200D03*
X50596800Y-77774800D03*
X56311800Y-77698600D03*
X56159400Y-76708000D03*
X36830000Y-79603600D03*
X40081200Y-79527400D03*
X54610000Y-64922400D03*
X68072000Y-76631800D03*
X66725800Y-77368400D03*
X55905400Y-81889600D03*
X55651400Y-80772000D03*
X62357000Y-73329800D03*
X64693800Y-73736200D03*
X70332600Y-80543400D03*
X71323200Y-81203800D03*
X56972200Y-84810600D03*
X58089800Y-84912200D03*
X77292200Y-60528200D03*
X77368400Y-57556400D03*
X59817000Y-60553600D03*
X59893200Y-57937400D03*
X41910000Y-60020200D03*
X42011600Y-57505600D03*
X24587200Y-59639200D03*
X24612600Y-57175400D03*
X28295600Y-67411600D03*
X31902400Y-67843400D03*
X48183800Y-67335400D03*
X44856400Y-67360800D03*
X82321400Y-67208400D03*
X78486000Y-67056000D03*
X65684400Y-67157600D03*
X61950600Y-67411600D03*
X50800000Y-108178600D03*
X50825400Y-109474000D03*
X33705800Y-114249200D03*
X31877000Y-129489200D03*
X55778400Y-119405400D03*
X54737000Y-119456200D03*
X56845200Y-109067600D03*
X55727600Y-109105700D03*
X58420000Y-109855000D03*
X57200800Y-110159800D03*
X45974000Y-134264400D03*
X48463200Y-134391400D03*
X42824400Y-121666000D03*
X46482000Y-121640600D03*
X26746200Y-121081800D03*
X29159200Y-120954800D03*
X27990800Y-134366000D03*
X30099000Y-133680200D03*
X61569600Y-108356400D03*
X62433200Y-107924600D03*
X64541400Y-134848600D03*
X62585600Y-134645400D03*
X64820800Y-121107200D03*
X60807600Y-121310400D03*
X62661800Y-116103400D03*
X64312800Y-105181400D03*
X63119000Y-105283000D03*
X62458600Y-138582400D03*
X66395600Y-138353800D03*
X58191400Y-112242600D03*
X79933800Y-133781800D03*
X83337400Y-133604000D03*
X82854800Y-114833400D03*
X76631800Y-115036600D03*
X83781900Y-109029500D03*
X85547200Y-108889800D03*
X81838800Y-102870000D03*
X81153000Y-104089200D03*
X52171600Y-85115400D03*
X52400200Y-87579200D03*
X61188600Y-86842600D03*
X62433200Y-86182200D03*
X59105800Y-78562200D03*
X84378800Y-86537800D03*
X93624400Y-89992200D03*
X88315800Y-87223600D03*
X93726000Y-86614000D03*
X85267800Y-106527600D03*
X93421200Y-111379000D03*
X88900000Y-108610400D03*
X93776800Y-108102400D03*
X84785200Y-168554400D03*
X78384400Y-168249600D03*
X75438000Y-174244000D03*
X61442600Y-113411000D03*
X64532228Y-113222795D03*
X52349400Y-113690400D03*
X52324000Y-111480600D03*
X61315600Y-105587800D03*
X58724800Y-165912800D03*
X59334400Y-167208200D03*
X46151800Y-158089600D03*
X44323000Y-157911800D03*
X30556200Y-157429200D03*
X27254200Y-157911800D03*
X31877000Y-138226800D03*
X29514800Y-138176000D03*
X27838400Y-141478000D03*
X31292800Y-141630400D03*
X68656200Y-169519600D03*
X73456800Y-170484800D03*
X72212200Y-166725600D03*
X47167800Y-138404600D03*
X49961800Y-138658600D03*
X45567600Y-142544800D03*
X48920400Y-142367000D03*
X72263000Y-163804600D03*
X72313800Y-165303200D03*
X62788800Y-142544800D03*
X66167000Y-142570200D03*
X69011800Y-162509200D03*
X68757800Y-163677600D03*
X72821800Y-162534600D03*
X72644000Y-161340800D03*
X83794600Y-138709400D03*
X82092800Y-138785600D03*
X82905600Y-142265400D03*
X79527400Y-142087600D03*
X28930600Y-173685200D03*
X78155800Y-162991800D03*
X78435200Y-161925000D03*
X77317600Y-161315400D03*
X47777400Y-157454600D03*
X47142400Y-156032200D03*
X66281300Y-154952700D03*
X67564000Y-157734000D03*
X83007200Y-166878000D03*
X83108800Y-165887400D03*
X63830200Y-158064200D03*
X60629800Y-157937200D03*
X82727800Y-157835600D03*
X78511400Y-157810200D03*
X83997800Y-174040800D03*
X84124800Y-176758600D03*
X74599800Y-168021000D03*
X74853800Y-168910000D03*
X71526400Y-171119800D03*
X71882000Y-168859200D03*
D17*
X41081150Y-48523350D02*
X38236600Y-48523350D01*
X45237400Y-52679600D02*
X41081150Y-48523350D01*
X45237400Y-54889400D02*
X45237400Y-52679600D01*
X47325316Y-54889400D02*
X45237400Y-54889400D01*
X47884116Y-55448200D02*
X47325316Y-54889400D01*
X82448400Y-55448200D02*
X47884116Y-55448200D01*
X82448400Y-55448200D02*
X82397600Y-55448200D01*
X84531200Y-55448200D02*
X82448400Y-55448200D01*
X42383250Y-45983350D02*
X38236600Y-45983350D01*
X42595800Y-45770800D02*
X42383250Y-45983350D01*
X47802800Y-46939200D02*
X43764200Y-46939200D01*
X47802800Y-52628800D02*
X47802800Y-46939200D01*
X84328000Y-54762400D02*
X49936400Y-54762400D01*
X43764200Y-46939200D02*
X42595800Y-45770800D01*
X85445600Y-52950809D02*
X85394800Y-53001609D01*
X85445600Y-48818800D02*
X85445600Y-52950809D01*
X85394800Y-53695600D02*
X84328000Y-54762400D01*
X49936400Y-54762400D02*
X47802800Y-52628800D01*
X85394800Y-53001609D02*
X85394800Y-53695600D01*
X89179400Y-44043600D02*
X89179400Y-45085000D01*
X89179400Y-45085000D02*
X85445600Y-48818800D01*
X82423000Y-55727600D02*
X82346800Y-55499000D01*
X85953600Y-54025800D02*
X84531200Y-55448200D01*
X85953600Y-49149000D02*
X85953600Y-54025800D01*
X90043000Y-45059600D02*
X85953600Y-49149000D01*
X82397600Y-55448200D02*
X82423000Y-55727600D01*
X90043000Y-44348400D02*
X90043000Y-45059600D01*
X91897200Y-40767000D02*
X91948000Y-40716200D01*
X91424600Y-45532200D02*
X91897200Y-45059600D01*
X91897200Y-45059600D02*
X91897200Y-40767000D01*
X89484200Y-52882800D02*
X91424600Y-50942400D01*
X91424600Y-50942400D02*
X91424600Y-45532200D01*
X88061800Y-52882800D02*
X89484200Y-52882800D01*
X90668000Y-46507400D02*
X90668000Y-49260600D01*
X90881200Y-46294200D02*
X90668000Y-46507400D01*
X90668000Y-43500200D02*
X90881200Y-43713400D01*
X90881200Y-43713400D02*
X90881200Y-46294200D01*
X90668000Y-49260600D02*
X88061800Y-51739800D01*
X90668000Y-40599200D02*
X90668000Y-43500200D01*
X90668000Y-40599200D02*
X91414600Y-39852600D01*
X92786200Y-37363400D02*
X92354400Y-36880800D01*
X93243400Y-38354000D02*
X93192600Y-38354000D01*
X93192600Y-38354000D02*
X92786200Y-37947600D01*
X93624400Y-44399200D02*
X93624400Y-40995600D01*
X93726000Y-44500800D02*
X93624400Y-44399200D01*
X93624400Y-40995600D02*
X93243400Y-40614600D01*
X93726000Y-44932600D02*
X93726000Y-44500800D01*
X92443300Y-46215300D02*
X93726000Y-44932600D01*
X93243400Y-40614600D02*
X93243400Y-38354000D01*
X92786200Y-37947600D02*
X92786200Y-37363400D01*
X92618900Y-44714500D02*
X92618900Y-39293800D01*
X92839911Y-44935511D02*
X92618900Y-44714500D01*
X24333200Y-46583600D02*
X22326600Y-48590200D01*
X24333200Y-45085000D02*
X24333200Y-46583600D01*
X78968600Y-41452800D02*
X85852000Y-41452800D01*
X75260200Y-45161200D02*
X78968600Y-41452800D01*
X73075800Y-45161200D02*
X75260200Y-45161200D01*
X85852000Y-41452800D02*
X87579200Y-39725600D01*
X74549000Y-43916600D02*
X72313800Y-43916600D01*
X85902800Y-39065200D02*
X79400400Y-39065200D01*
X86363400Y-38604600D02*
X85902800Y-39065200D01*
X88163400Y-38506400D02*
X88065200Y-38604600D01*
X88065200Y-38604600D02*
X86363400Y-38604600D01*
X79400400Y-39065200D02*
X74549000Y-43916600D01*
X84556600Y-44780200D02*
X83058000Y-44780200D01*
X84861400Y-45085000D02*
X84556600Y-44780200D01*
X83058000Y-44780200D02*
X80848200Y-46990000D01*
X80848200Y-46990000D02*
X74396600Y-46990000D01*
X87858600Y-45085000D02*
X84861400Y-45085000D01*
X80619600Y-46126400D02*
X79375000Y-46126400D01*
X85394800Y-44246800D02*
X82499200Y-44246800D01*
X79375000Y-46126400D02*
X79273400Y-45974000D01*
X82499200Y-44246800D02*
X80619600Y-46126400D01*
X86207600Y-43434000D02*
X85394800Y-44246800D01*
X96151700Y-39865300D02*
X96151700Y-45021500D01*
X96151700Y-45021500D02*
X96215200Y-45085000D01*
X96215200Y-45085000D02*
X94259400Y-47040800D01*
X94615000Y-38328600D02*
X96151700Y-39865300D01*
X93853000Y-39979600D02*
X93853000Y-36830000D01*
X94386400Y-40513000D02*
X93853000Y-39979600D01*
X94386400Y-45415200D02*
X94386400Y-40513000D01*
X93446600Y-46355000D02*
X94386400Y-45415200D01*
X79273400Y-45974000D02*
X79349600Y-46151800D01*
X71094600Y-33426400D02*
X68901200Y-33426400D01*
X71755000Y-34086800D02*
X71094600Y-33426400D01*
X71755000Y-38176200D02*
X71755000Y-34086800D01*
X73456800Y-39878000D02*
X71755000Y-38176200D01*
X68901200Y-33426400D02*
X67302000Y-35025600D01*
X30747200Y-37553400D02*
X35449600Y-37553400D01*
X30619200Y-35013400D02*
X35449600Y-35013400D01*
X46217400Y-37565600D02*
X51375400Y-37565600D01*
X46125400Y-35025600D02*
X51375400Y-35025600D01*
X61776000Y-37565600D02*
X67302000Y-37565600D01*
X61621400Y-35025600D02*
X67302000Y-35025600D01*
X78244200Y-37629600D02*
X83328600Y-37629600D01*
X78334200Y-35089600D02*
X83328600Y-35089600D01*
X32651000Y-62433200D02*
X35477400Y-59606800D01*
X30200600Y-62433200D02*
X32651000Y-62433200D01*
X34098800Y-58445400D02*
X35477400Y-57066800D01*
X32562800Y-59867800D02*
X33985200Y-58445400D01*
X30226000Y-59867800D02*
X32562800Y-59867800D01*
X33985200Y-58445400D02*
X34098800Y-58445400D01*
X86011400Y-59606800D02*
X87540600Y-59606800D01*
X83566000Y-62052200D02*
X86011400Y-59606800D01*
X82067400Y-62052200D02*
X83566000Y-62052200D01*
X86113000Y-57066800D02*
X87540600Y-57066800D01*
X83896200Y-59283600D02*
X86113000Y-57066800D01*
X82067400Y-59283600D02*
X83896200Y-59283600D01*
X68299600Y-58953400D02*
X70186200Y-57066800D01*
X64555200Y-58953400D02*
X68299600Y-58953400D01*
X66319400Y-61696600D02*
X68409200Y-59606800D01*
X64529800Y-61696600D02*
X66319400Y-61696600D01*
X68409200Y-59606800D02*
X70186200Y-59606800D01*
X51270400Y-59600600D02*
X52769200Y-59600600D01*
X49657000Y-61214000D02*
X51270400Y-59600600D01*
X47244000Y-61214000D02*
X49657000Y-61214000D01*
X48828000Y-57066800D02*
X52769200Y-57066800D01*
X47246200Y-58648600D02*
X48828000Y-57066800D01*
X48031400Y-115290600D02*
X48056800Y-115265200D01*
X46101000Y-115290600D02*
X48031400Y-115290600D01*
X44653200Y-117652800D02*
X44653200Y-116738400D01*
X44653200Y-116738400D02*
X46101000Y-115290600D01*
X51975800Y-117621400D02*
X52769200Y-118414800D01*
X48080000Y-117621400D02*
X51975800Y-117621400D01*
X67081400Y-114655600D02*
X71323200Y-114655600D01*
X72009000Y-115341400D02*
X72009000Y-120040400D01*
X65100200Y-112674400D02*
X67081400Y-114655600D01*
X71323200Y-114655600D02*
X72009000Y-115341400D01*
X65100200Y-105943400D02*
X65100200Y-112674400D01*
X71958200Y-113944400D02*
X72821800Y-114808000D01*
X67995800Y-113944400D02*
X71958200Y-113944400D01*
X66280400Y-112229000D02*
X67995800Y-113944400D01*
X72821800Y-114808000D02*
X72821800Y-128226000D01*
X72821800Y-128226000D02*
X74440600Y-129844800D01*
X66280400Y-105652200D02*
X66280400Y-112229000D01*
X66294000Y-105638600D02*
X66280400Y-105652200D01*
X85813900Y-114261900D02*
X85927700Y-114261900D01*
X85927700Y-114261900D02*
X87540600Y-115874800D01*
X85064600Y-113512600D02*
X85813900Y-114261900D01*
X80086200Y-113944400D02*
X80518000Y-113512600D01*
X80518000Y-113512600D02*
X85064600Y-113512600D01*
X80086200Y-116068600D02*
X80086200Y-113944400D01*
X79264000Y-116890800D02*
X80086200Y-116068600D01*
X82679200Y-116890800D02*
X84203200Y-118414800D01*
X84203200Y-118414800D02*
X87540600Y-118414800D01*
X62320000Y-117944200D02*
X62320000Y-116445200D01*
X62320000Y-116445200D02*
X62661800Y-116103400D01*
X66180800Y-118414800D02*
X65723600Y-117957600D01*
X70186200Y-118414800D02*
X66180800Y-118414800D01*
X65723600Y-117957600D02*
X65723600Y-115298052D01*
X63907228Y-113481679D02*
X65723600Y-115298052D01*
X35477400Y-114456000D02*
X35477400Y-115874800D01*
X32915700Y-113007300D02*
X34876900Y-113007300D01*
X35052000Y-113182400D02*
X35052000Y-114030600D01*
X30530800Y-115392200D02*
X32915700Y-113007300D01*
X34876900Y-113007300D02*
X35052000Y-113182400D01*
X27815200Y-116406000D02*
X28829000Y-115392200D01*
X27815200Y-117500400D02*
X27815200Y-116406000D01*
X28829000Y-115392200D02*
X30530800Y-115392200D01*
X35052000Y-114030600D02*
X35477400Y-114456000D01*
X34613800Y-117551200D02*
X35477400Y-118414800D01*
X31357400Y-117551200D02*
X34613800Y-117551200D01*
X36042600Y-78714600D02*
X35788600Y-78968600D01*
X41097200Y-78714600D02*
X36042600Y-78714600D01*
X57429400Y-80035400D02*
X42418000Y-80035400D01*
X58394600Y-81000600D02*
X57429400Y-80035400D01*
X42418000Y-80035400D02*
X41097200Y-78714600D01*
X41706800Y-78130400D02*
X35712400Y-77927200D01*
X43180000Y-79603600D02*
X41706800Y-78130400D01*
X58039000Y-79603600D02*
X43180000Y-79603600D01*
X50673000Y-77698600D02*
X56311800Y-77698600D01*
X50596800Y-77774800D02*
X50673000Y-77698600D01*
X50896484Y-76708000D02*
X56159400Y-76708000D01*
X49784000Y-76149200D02*
X50337684Y-76149200D01*
X50337684Y-76149200D02*
X50896484Y-76708000D01*
X40081200Y-79527400D02*
X36830000Y-79603600D01*
X54559200Y-64871600D02*
X54610000Y-64922400D01*
X54559200Y-58856800D02*
X54559200Y-64871600D01*
X52769200Y-57066800D02*
X54559200Y-58856800D01*
X68072000Y-76631800D02*
X67995800Y-76784200D01*
X66751200Y-77393800D02*
X66725800Y-77368400D01*
X66751200Y-78892400D02*
X66751200Y-77393800D01*
X62560200Y-83083400D02*
X66751200Y-78892400D01*
X58572400Y-83083400D02*
X62560200Y-83083400D01*
X56261000Y-80772000D02*
X58572400Y-83083400D01*
X55651400Y-80772000D02*
X56261000Y-80772000D01*
X67919600Y-76860400D02*
X68072000Y-76631800D01*
X62636400Y-83820000D02*
X67919600Y-78536800D01*
X57835800Y-83820000D02*
X62636400Y-83820000D01*
X67919600Y-78536800D02*
X67919600Y-76860400D01*
X55905400Y-81889600D02*
X57835800Y-83820000D01*
X62738000Y-73736200D02*
X62357000Y-73329800D01*
X64693800Y-73736200D02*
X62738000Y-73736200D01*
X70332600Y-80543400D02*
X70205600Y-80822800D01*
X71272400Y-81432400D02*
X71043800Y-81432400D01*
X71323200Y-81203800D02*
X71272400Y-81432400D01*
X70815200Y-81432400D02*
X71323200Y-81203800D01*
X63068200Y-85547200D02*
X67183000Y-81432400D01*
X67183000Y-81432400D02*
X70815200Y-81432400D01*
X57708800Y-85547200D02*
X63068200Y-85547200D01*
X56972200Y-84810600D02*
X57708800Y-85547200D01*
X70180200Y-80848200D02*
X70332600Y-80543400D01*
X66802000Y-80848200D02*
X70180200Y-80848200D01*
X62738000Y-84912200D02*
X66802000Y-80848200D01*
X58089800Y-84912200D02*
X62738000Y-84912200D01*
X49631600Y-115277200D02*
X52769200Y-118414800D01*
X49631600Y-109347000D02*
X49631600Y-115277200D01*
X50800000Y-108178600D02*
X49631600Y-109347000D01*
X50825400Y-113931000D02*
X52769200Y-115874800D01*
X50825400Y-109474000D02*
X50825400Y-113931000D01*
X33705800Y-116643200D02*
X35477400Y-118414800D01*
X33705800Y-114249200D02*
X33705800Y-116643200D01*
X31521400Y-129844800D02*
X22377400Y-129844800D01*
X31877000Y-129489200D02*
X31521400Y-129844800D01*
X55092600Y-119024400D02*
X54737000Y-119380000D01*
X55727600Y-109397800D02*
X55092600Y-110032800D01*
X55727600Y-109105700D02*
X55727600Y-109397800D01*
X55092600Y-110032800D02*
X55092600Y-119024400D01*
X54737000Y-119380000D02*
X54737000Y-119456200D01*
X55702200Y-110210600D02*
X55778400Y-119405400D01*
X56845200Y-109067600D02*
X55702200Y-110210600D01*
X58115200Y-123825000D02*
X58115200Y-113690400D01*
X56896000Y-125044200D02*
X58115200Y-123825000D01*
X41868800Y-125044200D02*
X56896000Y-125044200D01*
X57200800Y-112776000D02*
X57200800Y-110159800D01*
X39557400Y-127355600D02*
X41868800Y-125044200D01*
X58115200Y-113690400D02*
X57200800Y-112776000D01*
X58420000Y-110820200D02*
X58420000Y-109855000D01*
X58572400Y-112745484D02*
X59004200Y-112313684D01*
X59004200Y-112313684D02*
X59004200Y-111404400D01*
X43723000Y-125730000D02*
X57226200Y-125730000D01*
X57226200Y-125730000D02*
X58572400Y-124383800D01*
X59004200Y-111404400D02*
X58420000Y-110820200D01*
X39557400Y-129895600D02*
X43723000Y-125730000D01*
X58572400Y-124383800D02*
X58572400Y-112745484D01*
X59029600Y-125317750D02*
X57001600Y-127345750D01*
X61569600Y-111760000D02*
X59029600Y-114300000D01*
X59029600Y-114300000D02*
X59029600Y-125317750D01*
X61569600Y-108356400D02*
X61569600Y-111760000D01*
X58162741Y-129885750D02*
X57001600Y-129885750D01*
X59766200Y-128282291D02*
X58162741Y-129885750D01*
X59766200Y-116636800D02*
X59766200Y-128282291D01*
X62255400Y-108554484D02*
X62255400Y-114147600D01*
X62433200Y-108376684D02*
X62255400Y-108554484D01*
X62255400Y-114147600D02*
X59766200Y-116636800D01*
X62433200Y-107924600D02*
X62433200Y-108376684D01*
X64008000Y-105486200D02*
X64312800Y-105181400D01*
X64008000Y-111302800D02*
X64008000Y-105486200D01*
X63907228Y-111403572D02*
X64008000Y-111302800D01*
X63907228Y-113481679D02*
X63907228Y-111403572D01*
X63119000Y-115646200D02*
X62661800Y-116103400D01*
X63119000Y-105283000D02*
X63119000Y-115646200D01*
X81153000Y-106400600D02*
X83781900Y-109029500D01*
X82473800Y-103505000D02*
X81838800Y-102870000D01*
X82473800Y-105816400D02*
X82473800Y-103505000D01*
X85547200Y-108889800D02*
X82473800Y-105816400D01*
X81153000Y-106400600D02*
X81153000Y-104089200D01*
X87833200Y-89992200D02*
X84378800Y-86537800D01*
X93624400Y-89992200D02*
X87833200Y-89992200D01*
X88925400Y-86614000D02*
X88315800Y-87223600D01*
X93726000Y-86614000D02*
X88925400Y-86614000D01*
X87528400Y-108788200D02*
X85267800Y-106527600D01*
X90378316Y-110972600D02*
X87528400Y-110972600D01*
X87528400Y-110972600D02*
X87528400Y-108788200D01*
X90784716Y-111379000D02*
X90378316Y-110972600D01*
X93421200Y-111379000D02*
X90784716Y-111379000D01*
X89408000Y-108102400D02*
X93776800Y-108102400D01*
X88900000Y-108610400D02*
X89408000Y-108102400D01*
X84709000Y-168554400D02*
X84785200Y-168554400D01*
X83108800Y-170154600D02*
X84709000Y-168554400D01*
X83108800Y-170180000D02*
X83108800Y-170154600D01*
X77647800Y-175641000D02*
X83108800Y-170180000D01*
X77647800Y-185826400D02*
X77647800Y-175641000D01*
X78384400Y-168249600D02*
X78384400Y-171297600D01*
X78384400Y-171297600D02*
X75438000Y-174244000D01*
X29337000Y-143713200D02*
X29337000Y-141945600D01*
X33528000Y-147904200D02*
X29337000Y-143713200D01*
X36525200Y-147904200D02*
X33528000Y-147904200D01*
X37211000Y-148590000D02*
X36525200Y-147904200D01*
X37211000Y-161417000D02*
X37211000Y-148590000D01*
X38150800Y-162356800D02*
X37211000Y-161417000D01*
X53390800Y-162356800D02*
X38150800Y-162356800D01*
X58242200Y-167208200D02*
X53390800Y-162356800D01*
X59334400Y-167208200D02*
X58242200Y-167208200D01*
X37795200Y-160324800D02*
X37795200Y-143592600D01*
X54305200Y-161493200D02*
X38963600Y-161493200D01*
X58724800Y-165912800D02*
X54305200Y-161493200D01*
X38963600Y-161493200D02*
X37795200Y-160324800D01*
X37795200Y-143592600D02*
X35477400Y-141274800D01*
X33172400Y-177546000D02*
X75209400Y-177546000D01*
X81534000Y-165049200D02*
X81534000Y-171221400D01*
X32547800Y-138734800D02*
X35477400Y-138734800D01*
X29408800Y-141873800D02*
X32547800Y-138734800D01*
X33428600Y-141274800D02*
X35477400Y-141274800D01*
X32844400Y-141859000D02*
X33428600Y-141274800D01*
X51665800Y-141274800D02*
X50522800Y-142417800D01*
X52769200Y-141274800D02*
X51665800Y-141274800D01*
X50762600Y-140741400D02*
X52769200Y-138734800D01*
X47144600Y-142443200D02*
X47144600Y-141806000D01*
X47144600Y-141806000D02*
X48209200Y-140741400D01*
X48209200Y-140741400D02*
X50762600Y-140741400D01*
X47144600Y-144375800D02*
X47144600Y-142443200D01*
X50774600Y-148005800D02*
X47144600Y-144375800D01*
X54025800Y-148005800D02*
X50774600Y-148005800D01*
X54686200Y-148666200D02*
X54025800Y-148005800D01*
X54686200Y-158877000D02*
X54686200Y-148666200D01*
X60858400Y-165049200D02*
X54686200Y-158877000D01*
X71932800Y-165049200D02*
X60858400Y-165049200D01*
X72186800Y-165303200D02*
X71932800Y-165049200D01*
X72313800Y-165303200D02*
X72186800Y-165303200D01*
X55321200Y-158648400D02*
X55321200Y-143826800D01*
X61163200Y-164490400D02*
X55321200Y-158648400D01*
X55321200Y-143826800D02*
X52769200Y-141274800D01*
X72212200Y-163804600D02*
X71526400Y-164490400D01*
X71526400Y-164490400D02*
X61163200Y-164490400D01*
X72263000Y-163804600D02*
X72212200Y-163804600D01*
X68122800Y-138734800D02*
X70186200Y-138734800D01*
X64439800Y-142417800D02*
X68122800Y-138734800D01*
X68963200Y-141274800D02*
X70186200Y-141274800D01*
X67845600Y-142392400D02*
X68963200Y-141274800D01*
X68326000Y-161645600D02*
X68122800Y-161848800D01*
X68122800Y-163042600D02*
X68757800Y-163677600D01*
X68326000Y-146304000D02*
X68326000Y-161645600D01*
X67094100Y-145072100D02*
X68326000Y-146304000D01*
X66078100Y-145072100D02*
X67094100Y-145072100D01*
X68122800Y-161848800D02*
X68122800Y-163042600D01*
X64439800Y-143433800D02*
X66078100Y-145072100D01*
X64439800Y-142417800D02*
X64439800Y-143433800D01*
X69011800Y-143558600D02*
X67845600Y-142392400D01*
X69011800Y-162509200D02*
X69011800Y-143558600D01*
X77934299Y-145777699D02*
X81229200Y-142482798D01*
X77934299Y-145992101D02*
X77934299Y-145777699D01*
X76377800Y-147548600D02*
X77934299Y-145992101D01*
X73619000Y-147548600D02*
X76377800Y-147548600D01*
X71755000Y-149412600D02*
X73619000Y-147548600D01*
X71755000Y-161467800D02*
X71755000Y-149412600D01*
X72821800Y-162534600D02*
X71755000Y-161467800D01*
X76962000Y-148031200D02*
X80721200Y-144272000D01*
X83769200Y-144272000D02*
X84672000Y-143369200D01*
X84672000Y-143369200D02*
X84672000Y-142214600D01*
X74523600Y-148031200D02*
X76962000Y-148031200D01*
X74523600Y-148056600D02*
X74523600Y-148031200D01*
X80721200Y-144272000D02*
X83769200Y-144272000D01*
X72644000Y-149936200D02*
X74523600Y-148056600D01*
X72644000Y-161340800D02*
X72644000Y-149936200D01*
X84709000Y-138734800D02*
X87540600Y-138734800D01*
X81229200Y-142214600D02*
X84709000Y-138734800D01*
X85611800Y-141274800D02*
X84672000Y-142214600D01*
X87540600Y-141274800D02*
X85611800Y-141274800D01*
X33172400Y-177546000D02*
X28930600Y-173685200D01*
X81534000Y-171221400D02*
X75209400Y-177546000D01*
X81483200Y-164998400D02*
X81534000Y-165049200D01*
X81325200Y-164840400D02*
X81483200Y-164998400D01*
X81325200Y-164815000D02*
X81325200Y-164840400D01*
X78435200Y-161925000D02*
X81325200Y-164815000D01*
X80975200Y-165811200D02*
X78155800Y-162991800D01*
X80975200Y-170891200D02*
X80975200Y-165811200D01*
X75031600Y-176834800D02*
X80975200Y-170891200D01*
X24384000Y-167208200D02*
X34010600Y-176834800D01*
X24384000Y-154711400D02*
X24384000Y-167208200D01*
X22377400Y-152704800D02*
X24384000Y-154711400D01*
X34010600Y-176834800D02*
X75031600Y-176834800D01*
X43815000Y-152704800D02*
X39669200Y-152704800D01*
X47142400Y-156032200D02*
X43815000Y-152704800D01*
X45745400Y-150164800D02*
X39669200Y-150164800D01*
X48514000Y-152933400D02*
X45745400Y-150164800D01*
X48514000Y-156667200D02*
X48514000Y-152933400D01*
X47777400Y-157403800D02*
X48514000Y-156667200D01*
X47777400Y-157454600D02*
X47777400Y-157403800D01*
X62585600Y-150164800D02*
X57086200Y-150164800D01*
X67564000Y-155143200D02*
X62585600Y-150164800D01*
X67564000Y-157734000D02*
X67564000Y-155143200D01*
X66281300Y-154952700D02*
X64033400Y-152704800D01*
X64033400Y-152704800D02*
X57086200Y-152704800D01*
X80365600Y-152704800D02*
X74440600Y-152704800D01*
X82102800Y-166131400D02*
X82102800Y-154442000D01*
X82092800Y-166141400D02*
X82102800Y-166131400D01*
X82102800Y-154442000D02*
X80365600Y-152704800D01*
X82829400Y-166878000D02*
X82092800Y-166141400D01*
X83007200Y-166878000D02*
X82829400Y-166878000D01*
X80518000Y-150164800D02*
X74440600Y-150164800D01*
X83352800Y-152999600D02*
X80518000Y-150164800D01*
X83352800Y-165643400D02*
X83352800Y-152999600D01*
X83108800Y-165887400D02*
X83352800Y-165643400D01*
M02*
