G04 #@! TF.GenerationSoftware,KiCad,Pcbnew,7.0.1*
G04 #@! TF.CreationDate,2024-07-12T16:59:09-07:00*
G04 #@! TF.ProjectId,air_foil_pcb,6169725f-666f-4696-9c5f-7063622e6b69,rev?*
G04 #@! TF.SameCoordinates,Original*
G04 #@! TF.FileFunction,Copper,L1,Top*
G04 #@! TF.FilePolarity,Positive*
%FSLAX46Y46*%
G04 Gerber Fmt 4.6, Leading zero omitted, Abs format (unit mm)*
G04 Created by KiCad (PCBNEW 7.0.1) date 2024-07-12 16:59:09*
%MOMM*%
%LPD*%
G01*
G04 APERTURE LIST*
G04 Aperture macros list*
%AMRoundRect*
0 Rectangle with rounded corners*
0 $1 Rounding radius*
0 $2 $3 $4 $5 $6 $7 $8 $9 X,Y pos of 4 corners*
0 Add a 4 corners polygon primitive as box body*
4,1,4,$2,$3,$4,$5,$6,$7,$8,$9,$2,$3,0*
0 Add four circle primitives for the rounded corners*
1,1,$1+$1,$2,$3*
1,1,$1+$1,$4,$5*
1,1,$1+$1,$6,$7*
1,1,$1+$1,$8,$9*
0 Add four rect primitives between the rounded corners*
20,1,$1+$1,$2,$3,$4,$5,0*
20,1,$1+$1,$4,$5,$6,$7,0*
20,1,$1+$1,$6,$7,$8,$9,0*
20,1,$1+$1,$8,$9,$2,$3,0*%
%AMFreePoly0*
4,1,6,1.000000,0.000000,0.500000,-0.750000,-0.500000,-0.750000,-0.500000,0.750000,0.500000,0.750000,1.000000,0.000000,1.000000,0.000000,$1*%
%AMFreePoly1*
4,1,6,0.500000,-0.750000,-0.650000,-0.750000,-0.150000,0.000000,-0.650000,0.750000,0.500000,0.750000,0.500000,-0.750000,0.500000,-0.750000,$1*%
G04 Aperture macros list end*
G04 #@! TA.AperFunction,ComponentPad*
%ADD10R,1.500000X1.500000*%
G04 #@! TD*
G04 #@! TA.AperFunction,ComponentPad*
%ADD11C,1.500000*%
G04 #@! TD*
G04 #@! TA.AperFunction,SMDPad,CuDef*
%ADD12RoundRect,0.075000X-0.125000X-0.075000X0.125000X-0.075000X0.125000X0.075000X-0.125000X0.075000X0*%
G04 #@! TD*
G04 #@! TA.AperFunction,SMDPad,CuDef*
%ADD13RoundRect,0.075000X0.075000X-0.125000X0.075000X0.125000X-0.075000X0.125000X-0.075000X-0.125000X0*%
G04 #@! TD*
G04 #@! TA.AperFunction,SMDPad,CuDef*
%ADD14RoundRect,0.075000X-0.075000X0.125000X-0.075000X-0.125000X0.075000X-0.125000X0.075000X0.125000X0*%
G04 #@! TD*
G04 #@! TA.AperFunction,SMDPad,CuDef*
%ADD15RoundRect,0.075000X0.125000X0.075000X-0.125000X0.075000X-0.125000X-0.075000X0.125000X-0.075000X0*%
G04 #@! TD*
G04 #@! TA.AperFunction,SMDPad,CuDef*
%ADD16FreePoly0,0.000000*%
G04 #@! TD*
G04 #@! TA.AperFunction,SMDPad,CuDef*
%ADD17FreePoly1,0.000000*%
G04 #@! TD*
G04 #@! TA.AperFunction,SMDPad,CuDef*
%ADD18RoundRect,0.100000X-0.100000X0.130000X-0.100000X-0.130000X0.100000X-0.130000X0.100000X0.130000X0*%
G04 #@! TD*
G04 #@! TA.AperFunction,SMDPad,CuDef*
%ADD19RoundRect,0.100000X0.100000X-0.130000X0.100000X0.130000X-0.100000X0.130000X-0.100000X-0.130000X0*%
G04 #@! TD*
G04 #@! TA.AperFunction,SMDPad,CuDef*
%ADD20RoundRect,0.100000X0.130000X0.100000X-0.130000X0.100000X-0.130000X-0.100000X0.130000X-0.100000X0*%
G04 #@! TD*
G04 #@! TA.AperFunction,SMDPad,CuDef*
%ADD21RoundRect,0.100000X-0.130000X-0.100000X0.130000X-0.100000X0.130000X0.100000X-0.130000X0.100000X0*%
G04 #@! TD*
G04 #@! TA.AperFunction,ComponentPad*
%ADD22O,1.700000X1.700000*%
G04 #@! TD*
G04 #@! TA.AperFunction,ComponentPad*
%ADD23R,1.700000X1.700000*%
G04 #@! TD*
G04 #@! TA.AperFunction,SMDPad,CuDef*
%ADD24RoundRect,0.100000X0.637500X0.100000X-0.637500X0.100000X-0.637500X-0.100000X0.637500X-0.100000X0*%
G04 #@! TD*
G04 #@! TA.AperFunction,SMDPad,CuDef*
%ADD25RoundRect,0.100000X-0.100000X0.637500X-0.100000X-0.637500X0.100000X-0.637500X0.100000X0.637500X0*%
G04 #@! TD*
G04 #@! TA.AperFunction,ViaPad*
%ADD26C,0.800000*%
G04 #@! TD*
G04 #@! TA.AperFunction,Conductor*
%ADD27C,0.250000*%
G04 #@! TD*
G04 APERTURE END LIST*
D10*
X83328600Y-42709600D03*
D11*
X83328600Y-40169600D03*
X83328600Y-37629600D03*
X83328600Y-35089600D03*
X70028600Y-35089600D03*
X70028600Y-37629600D03*
X70028600Y-40169600D03*
X70028600Y-42709600D03*
D10*
X35449600Y-42633400D03*
D11*
X35449600Y-40093400D03*
X35449600Y-37553400D03*
X35449600Y-35013400D03*
X22149600Y-35013400D03*
X22149600Y-37553400D03*
X22149600Y-40093400D03*
X22149600Y-42633400D03*
X38075400Y-42645600D03*
X38075400Y-40105600D03*
X38075400Y-37565600D03*
X38075400Y-35025600D03*
X51375400Y-35025600D03*
X51375400Y-37565600D03*
X51375400Y-40105600D03*
D10*
X51375400Y-42645600D03*
X67302000Y-42645600D03*
D11*
X67302000Y-40105600D03*
X67302000Y-37565600D03*
X67302000Y-35025600D03*
X54002000Y-35025600D03*
X54002000Y-37565600D03*
X54002000Y-40105600D03*
X54002000Y-42645600D03*
D10*
X38236600Y-53603350D03*
D11*
X38236600Y-51063350D03*
X38236600Y-48523350D03*
X38236600Y-45983350D03*
X51536600Y-45983350D03*
X51536600Y-48523350D03*
X51536600Y-51063350D03*
X51536600Y-53603350D03*
D10*
X54203600Y-53543200D03*
D11*
X54203600Y-51003200D03*
X54203600Y-48463200D03*
X54203600Y-45923200D03*
X67503600Y-45923200D03*
X67503600Y-48463200D03*
X67503600Y-51003200D03*
X67503600Y-53543200D03*
D10*
X70184200Y-53533350D03*
D11*
X70184200Y-50993350D03*
X70184200Y-48453350D03*
X70184200Y-45913350D03*
X83484200Y-45913350D03*
X83484200Y-48453350D03*
X83484200Y-50993350D03*
X83484200Y-53533350D03*
D10*
X22326600Y-53670200D03*
D11*
X22326600Y-51130200D03*
X22326600Y-48590200D03*
X22326600Y-46050200D03*
X35626600Y-46050200D03*
X35626600Y-48590200D03*
X35626600Y-51130200D03*
X35626600Y-53670200D03*
D10*
X87540600Y-64686800D03*
D11*
X87540600Y-62146800D03*
X87540600Y-59606800D03*
X87540600Y-57066800D03*
X74240600Y-57066800D03*
X74240600Y-59606800D03*
X74240600Y-62146800D03*
X74240600Y-64686800D03*
X22177400Y-64686800D03*
X22177400Y-62146800D03*
X22177400Y-59606800D03*
X22177400Y-57066800D03*
X35477400Y-57066800D03*
X35477400Y-59606800D03*
X35477400Y-62146800D03*
D10*
X35477400Y-64686800D03*
D11*
X39469200Y-64680600D03*
X39469200Y-62140600D03*
X39469200Y-59600600D03*
X39469200Y-57060600D03*
X52769200Y-57060600D03*
X52769200Y-59600600D03*
X52769200Y-62140600D03*
D10*
X52769200Y-64680600D03*
X70186200Y-64686800D03*
D11*
X70186200Y-62146800D03*
X70186200Y-59606800D03*
X70186200Y-57066800D03*
X56886200Y-57066800D03*
X56886200Y-59606800D03*
X56886200Y-62146800D03*
X56886200Y-64686800D03*
D10*
X39669200Y-75253200D03*
D11*
X39669200Y-72713200D03*
X39669200Y-70173200D03*
X39669200Y-67633200D03*
X52969200Y-67633200D03*
X52969200Y-70173200D03*
X52969200Y-72713200D03*
X52969200Y-75253200D03*
D10*
X57086200Y-75253200D03*
D11*
X57086200Y-72713200D03*
X57086200Y-70173200D03*
X57086200Y-67633200D03*
X70386200Y-67633200D03*
X70386200Y-70173200D03*
X70386200Y-72713200D03*
X70386200Y-75253200D03*
D10*
X74440600Y-75253200D03*
D11*
X74440600Y-72713200D03*
X74440600Y-70173200D03*
X74440600Y-67633200D03*
X87740600Y-67633200D03*
X87740600Y-70173200D03*
X87740600Y-72713200D03*
X87740600Y-75253200D03*
D10*
X22377400Y-75253200D03*
D11*
X22377400Y-72713200D03*
X22377400Y-70173200D03*
X22377400Y-67633200D03*
X35677400Y-67633200D03*
X35677400Y-70173200D03*
X35677400Y-72713200D03*
X35677400Y-75253200D03*
D10*
X87540600Y-123494800D03*
D11*
X87540600Y-120954800D03*
X87540600Y-118414800D03*
X87540600Y-115874800D03*
X74240600Y-115874800D03*
X74240600Y-118414800D03*
X74240600Y-120954800D03*
X74240600Y-123494800D03*
D10*
X35477400Y-123494800D03*
D11*
X35477400Y-120954800D03*
X35477400Y-118414800D03*
X35477400Y-115874800D03*
X22177400Y-115874800D03*
X22177400Y-118414800D03*
X22177400Y-120954800D03*
X22177400Y-123494800D03*
X39469200Y-123494800D03*
X39469200Y-120954800D03*
X39469200Y-118414800D03*
X39469200Y-115874800D03*
X52769200Y-115874800D03*
X52769200Y-118414800D03*
X52769200Y-120954800D03*
D10*
X52769200Y-123494800D03*
X70186200Y-123494800D03*
D11*
X70186200Y-120954800D03*
X70186200Y-118414800D03*
X70186200Y-115874800D03*
X56886200Y-115874800D03*
X56886200Y-118414800D03*
X56886200Y-120954800D03*
X56886200Y-123494800D03*
D10*
X39557400Y-134975600D03*
D11*
X39557400Y-132435600D03*
X39557400Y-129895600D03*
X39557400Y-127355600D03*
X52857400Y-127355600D03*
X52857400Y-129895600D03*
X52857400Y-132435600D03*
X52857400Y-134975600D03*
D10*
X57001600Y-134965750D03*
D11*
X57001600Y-132425750D03*
X57001600Y-129885750D03*
X57001600Y-127345750D03*
X70301600Y-127345750D03*
X70301600Y-129885750D03*
X70301600Y-132425750D03*
X70301600Y-134965750D03*
X87740600Y-134924800D03*
X87740600Y-132384800D03*
X87740600Y-129844800D03*
X87740600Y-127304800D03*
X74440600Y-127304800D03*
X74440600Y-129844800D03*
X74440600Y-132384800D03*
D10*
X74440600Y-134924800D03*
X22377400Y-134924800D03*
D11*
X22377400Y-132384800D03*
X22377400Y-129844800D03*
X22377400Y-127304800D03*
X35677400Y-127304800D03*
X35677400Y-129844800D03*
X35677400Y-132384800D03*
X35677400Y-134924800D03*
D10*
X35477400Y-146354800D03*
D11*
X35477400Y-143814800D03*
X35477400Y-141274800D03*
X35477400Y-138734800D03*
X22177400Y-138734800D03*
X22177400Y-141274800D03*
X22177400Y-143814800D03*
X22177400Y-146354800D03*
D10*
X52769200Y-146354800D03*
D11*
X52769200Y-143814800D03*
X52769200Y-141274800D03*
X52769200Y-138734800D03*
X39469200Y-138734800D03*
X39469200Y-141274800D03*
X39469200Y-143814800D03*
X39469200Y-146354800D03*
D10*
X70186200Y-146354800D03*
D11*
X70186200Y-143814800D03*
X70186200Y-141274800D03*
X70186200Y-138734800D03*
X56886200Y-138734800D03*
X56886200Y-141274800D03*
X56886200Y-143814800D03*
X56886200Y-146354800D03*
D10*
X87540600Y-146354800D03*
D11*
X87540600Y-143814800D03*
X87540600Y-141274800D03*
X87540600Y-138734800D03*
X74240600Y-138734800D03*
X74240600Y-141274800D03*
X74240600Y-143814800D03*
X74240600Y-146354800D03*
D10*
X22377400Y-157784800D03*
D11*
X22377400Y-155244800D03*
X22377400Y-152704800D03*
X22377400Y-150164800D03*
X35677400Y-150164800D03*
X35677400Y-152704800D03*
X35677400Y-155244800D03*
X35677400Y-157784800D03*
D10*
X39669200Y-157784800D03*
D11*
X39669200Y-155244800D03*
X39669200Y-152704800D03*
X39669200Y-150164800D03*
X52969200Y-150164800D03*
X52969200Y-152704800D03*
X52969200Y-155244800D03*
X52969200Y-157784800D03*
D10*
X57086200Y-157784800D03*
D11*
X57086200Y-155244800D03*
X57086200Y-152704800D03*
X57086200Y-150164800D03*
X70386200Y-150164800D03*
X70386200Y-152704800D03*
X70386200Y-155244800D03*
X70386200Y-157784800D03*
D10*
X74440600Y-157784800D03*
D11*
X74440600Y-155244800D03*
X74440600Y-152704800D03*
X74440600Y-150164800D03*
X87740600Y-150164800D03*
X87740600Y-152704800D03*
X87740600Y-155244800D03*
X87740600Y-157784800D03*
D12*
X74451400Y-35077400D03*
X74951400Y-35077400D03*
X26881600Y-35687000D03*
X27381600Y-35687000D03*
X42168000Y-35229800D03*
X42668000Y-35229800D03*
X57971200Y-35229800D03*
X58471200Y-35229800D03*
X74349800Y-37769800D03*
X74849800Y-37769800D03*
X26906600Y-37820600D03*
X27406600Y-37820600D03*
X42045400Y-38125400D03*
X42545400Y-38125400D03*
X58170000Y-37947600D03*
X58670000Y-37947600D03*
D13*
X46384800Y-51837400D03*
X46384800Y-51337400D03*
X61544200Y-51608800D03*
X61544200Y-51108800D03*
X77876400Y-51939000D03*
X77876400Y-51439000D03*
X30480000Y-51608800D03*
X30480000Y-51108800D03*
X42748200Y-51604400D03*
X42748200Y-51104400D03*
X58521600Y-51685000D03*
X58521600Y-51185000D03*
X75006200Y-51833000D03*
X75006200Y-51333000D03*
X26873200Y-51405600D03*
X26873200Y-50905600D03*
D12*
X78739600Y-57937400D03*
X79239600Y-57937400D03*
X25585800Y-57124600D03*
X26085800Y-57124600D03*
X43213800Y-57277000D03*
X43713800Y-57277000D03*
X61197000Y-57708800D03*
X61697000Y-57708800D03*
X78469000Y-60299600D03*
X78969000Y-60299600D03*
X25734200Y-59867800D03*
X26234200Y-59867800D03*
X43188400Y-59867800D03*
X43688400Y-59867800D03*
X61120800Y-60325000D03*
X61620800Y-60325000D03*
D14*
X47853600Y-68326000D03*
X47853600Y-68826000D03*
X65176400Y-68304600D03*
X65176400Y-68804600D03*
X82067400Y-68355400D03*
X82067400Y-68855400D03*
X31957600Y-68888800D03*
X31957600Y-69388800D03*
X44348400Y-68355400D03*
X44348400Y-68855400D03*
X61468000Y-68355400D03*
X61468000Y-68855400D03*
X78460600Y-68025200D03*
X78460600Y-68525200D03*
X28117800Y-68359400D03*
X28117800Y-68859400D03*
X77825600Y-114405600D03*
X77825600Y-114905600D03*
D13*
X26441400Y-119884000D03*
X26441400Y-119384000D03*
X43641200Y-120163400D03*
X43641200Y-119663400D03*
D12*
X61222400Y-120192800D03*
X61722400Y-120192800D03*
D14*
X81102200Y-114502800D03*
X81102200Y-115002800D03*
D13*
X29667200Y-119837600D03*
X29667200Y-119337600D03*
X46761400Y-120235600D03*
X46761400Y-119735600D03*
D15*
X64588200Y-119811800D03*
X64088200Y-119811800D03*
D13*
X48412400Y-132838000D03*
X48412400Y-132338000D03*
X65582800Y-133676200D03*
X65582800Y-133176200D03*
X82727800Y-132609400D03*
X82727800Y-132109400D03*
X29845000Y-132681600D03*
X29845000Y-132181600D03*
X45339000Y-132939600D03*
X45339000Y-132439600D03*
X62026800Y-133650800D03*
X62026800Y-133150800D03*
X79324200Y-132660200D03*
X79324200Y-132160200D03*
X27207800Y-132584000D03*
X27207800Y-132084000D03*
D14*
X28981400Y-139369400D03*
X28981400Y-139869400D03*
X31318200Y-138912200D03*
X31318200Y-139412200D03*
X46761400Y-139471000D03*
X46761400Y-139971000D03*
X49123600Y-139653200D03*
X49123600Y-140153200D03*
X63195200Y-139682600D03*
X63195200Y-140182600D03*
X65303400Y-139733800D03*
X65303400Y-140233800D03*
X80873600Y-139750800D03*
X80873600Y-140250800D03*
X84226400Y-139632200D03*
X84226400Y-140132200D03*
D13*
X29362400Y-156989000D03*
X29362400Y-156489000D03*
X27712400Y-156989000D03*
X27712400Y-156489000D03*
X46228000Y-156506400D03*
X46228000Y-156006400D03*
X44578000Y-156506400D03*
X44578000Y-156006400D03*
X64693800Y-156912800D03*
X64693800Y-156412800D03*
X61239400Y-156938200D03*
X61239400Y-156438200D03*
X83261200Y-157116000D03*
X83261200Y-156616000D03*
X79100000Y-157069600D03*
X79100000Y-156569600D03*
D15*
X82825400Y-176758600D03*
X82325400Y-176758600D03*
X82804000Y-174015400D03*
X82304000Y-174015400D03*
D16*
X44653200Y-48971200D03*
D17*
X46103200Y-48971200D03*
D16*
X60057200Y-48971200D03*
D17*
X61507200Y-48971200D03*
D16*
X76350200Y-48920400D03*
D17*
X77800200Y-48920400D03*
D16*
X28852200Y-49022000D03*
D17*
X30302200Y-49022000D03*
D16*
X41097200Y-48971200D03*
D17*
X42547200Y-48971200D03*
D16*
X56628200Y-48945800D03*
D17*
X58078200Y-48945800D03*
D16*
X72946600Y-48920400D03*
D17*
X74396600Y-48920400D03*
D16*
X25386200Y-49047400D03*
D17*
X26836200Y-49047400D03*
D16*
X46380400Y-71196200D03*
D17*
X47830400Y-71196200D03*
D16*
X63601600Y-71399400D03*
D17*
X65051600Y-71399400D03*
D16*
X80645000Y-71170800D03*
D17*
X82095000Y-71170800D03*
D16*
X30644000Y-71297800D03*
D17*
X32094000Y-71297800D03*
D16*
X42861400Y-71196200D03*
D17*
X44311400Y-71196200D03*
D16*
X60071000Y-71424800D03*
D17*
X61521000Y-71424800D03*
D16*
X77137600Y-71196200D03*
D17*
X78587600Y-71196200D03*
D16*
X27226600Y-71297800D03*
D17*
X28676600Y-71297800D03*
X48719400Y-130225800D03*
D16*
X47269400Y-130225800D03*
X64172000Y-131265800D03*
D17*
X65622000Y-131265800D03*
D16*
X81432400Y-130251200D03*
D17*
X82882400Y-130251200D03*
D16*
X28434200Y-130058600D03*
D17*
X29884200Y-130058600D03*
X45265000Y-130251200D03*
D16*
X43815000Y-130251200D03*
X60602200Y-131191000D03*
D17*
X62052200Y-131191000D03*
D16*
X78001200Y-130276600D03*
D17*
X79451200Y-130276600D03*
D16*
X24991400Y-130073400D03*
D17*
X26441400Y-130073400D03*
D16*
X30480000Y-154254200D03*
D17*
X31930000Y-154254200D03*
D16*
X25958800Y-154228800D03*
D17*
X27408800Y-154228800D03*
X47500200Y-153873200D03*
D16*
X46050200Y-153873200D03*
X42609600Y-153873200D03*
D17*
X44059600Y-153873200D03*
D16*
X63283000Y-154457400D03*
D17*
X64733000Y-154457400D03*
D16*
X59817000Y-154508200D03*
D17*
X61267000Y-154508200D03*
D16*
X81735000Y-154178000D03*
D17*
X83185000Y-154178000D03*
D16*
X78255200Y-154178000D03*
D17*
X79705200Y-154178000D03*
D16*
X79132600Y-173964600D03*
D17*
X80582600Y-173964600D03*
D16*
X79222600Y-176733200D03*
D17*
X80672600Y-176733200D03*
D18*
X95732600Y-51815600D03*
X95732600Y-52455600D03*
X63601600Y-86105600D03*
X63601600Y-86745600D03*
D19*
X62611000Y-113513000D03*
X62611000Y-112873000D03*
D20*
X70347800Y-170027600D03*
X69707800Y-170027600D03*
D18*
X33020000Y-41005800D03*
X33020000Y-41645800D03*
X49631600Y-40970200D03*
X49631600Y-41610200D03*
X65709800Y-40929600D03*
X65709800Y-41569600D03*
X81686400Y-41046000D03*
X81686400Y-41686000D03*
X24028400Y-51993800D03*
X24028400Y-52633800D03*
X39954200Y-51927800D03*
X39954200Y-52567800D03*
X55905400Y-51942600D03*
X55905400Y-52582600D03*
X72034400Y-51917200D03*
X72034400Y-52557200D03*
X33418600Y-62991600D03*
X33418600Y-63631600D03*
X50596800Y-63089000D03*
X50596800Y-63729000D03*
X68503800Y-63053000D03*
X68503800Y-63693000D03*
X85420200Y-63078400D03*
X85420200Y-63718400D03*
X76022200Y-73741200D03*
X76022200Y-74381200D03*
X59486800Y-73884000D03*
X59486800Y-74524000D03*
X41270600Y-73746400D03*
X41270600Y-74386400D03*
X23749000Y-73761200D03*
X23749000Y-74401200D03*
X75890000Y-133461400D03*
X75890000Y-134101400D03*
X58597800Y-133284000D03*
X58597800Y-133924000D03*
X41148000Y-133095600D03*
X41148000Y-133735600D03*
X23926800Y-133319600D03*
X23926800Y-133959600D03*
X85725000Y-121843800D03*
X85725000Y-122483800D03*
X68447800Y-122487600D03*
X68447800Y-121847600D03*
X50774600Y-121868800D03*
X50774600Y-122508800D03*
X32890600Y-121853650D03*
X32890600Y-122493650D03*
X33477200Y-144678000D03*
X33477200Y-145318000D03*
X51358800Y-144652600D03*
X51358800Y-145292600D03*
X68554600Y-144678400D03*
X68554600Y-145318400D03*
X85877400Y-144673800D03*
X85877400Y-145313800D03*
X24079200Y-156154200D03*
X24079200Y-156794200D03*
X41122600Y-156184600D03*
X41122600Y-156824600D03*
X58572400Y-156347200D03*
X58572400Y-156987200D03*
X75844400Y-156489000D03*
X75844400Y-157129000D03*
X31927800Y-40965600D03*
X31927800Y-41605600D03*
X48590200Y-40965600D03*
X48590200Y-41605600D03*
X64795400Y-40940200D03*
X64795400Y-41580200D03*
X80543400Y-41031200D03*
X80543400Y-41671200D03*
X24942800Y-51963800D03*
X24942800Y-52603800D03*
X40919400Y-51902400D03*
X40919400Y-52542400D03*
X56718200Y-51942600D03*
X56718200Y-52582600D03*
X72872600Y-51917200D03*
X72872600Y-52557200D03*
X32512000Y-62987400D03*
X32512000Y-63627400D03*
X49707800Y-63089000D03*
X49707800Y-63729000D03*
X67614800Y-63042400D03*
X67614800Y-63682400D03*
X84455000Y-63073800D03*
X84455000Y-63713800D03*
X77089000Y-73710800D03*
X77089000Y-74350800D03*
X60530000Y-73909400D03*
X60530000Y-74549400D03*
X42113200Y-73771800D03*
X42113200Y-74411800D03*
X24638000Y-73655400D03*
X24638000Y-74295400D03*
X76733400Y-133446600D03*
X76733400Y-134086600D03*
X59441200Y-133269200D03*
X59441200Y-133909200D03*
X41991400Y-133080800D03*
X41991400Y-133720800D03*
X24770200Y-133304800D03*
X24770200Y-133944800D03*
X84886800Y-121829000D03*
X84886800Y-122469000D03*
X67589400Y-121843400D03*
X67589400Y-122483400D03*
X49890800Y-121879400D03*
X49890800Y-122519400D03*
X33756600Y-121843400D03*
X33756600Y-122483400D03*
X32562800Y-144688600D03*
X32562800Y-145328600D03*
X50419000Y-144678000D03*
X50419000Y-145318000D03*
X67538600Y-144678000D03*
X67538600Y-145318000D03*
X84480400Y-144678000D03*
X84480400Y-145318000D03*
X25171400Y-156245600D03*
X25171400Y-156885600D03*
X42164000Y-156184200D03*
X42164000Y-156824200D03*
X59385200Y-156321800D03*
X59385200Y-156961800D03*
X76835000Y-156489000D03*
X76835000Y-157129000D03*
X94894400Y-51800800D03*
X94894400Y-52440800D03*
X64820800Y-86131000D03*
X64820800Y-86771000D03*
D19*
X63601600Y-113538400D03*
X63601600Y-112898400D03*
D21*
X71653000Y-170103800D03*
X72293000Y-170103800D03*
D22*
X72567800Y-185826400D03*
X75107800Y-185826400D03*
X77647800Y-185826400D03*
X80187800Y-185826400D03*
X82727800Y-185826400D03*
X85267800Y-185826400D03*
X87807800Y-185826400D03*
X90347800Y-185826400D03*
X92887800Y-185826400D03*
D23*
X95427800Y-185826400D03*
D24*
X59776200Y-113411000D03*
X59776200Y-112761000D03*
X59776200Y-112111000D03*
X59776200Y-111461000D03*
X59776200Y-110811000D03*
X59776200Y-110161000D03*
X59776200Y-109511000D03*
X59776200Y-108861000D03*
X59776200Y-108211000D03*
X59776200Y-107561000D03*
X59776200Y-106911000D03*
X59776200Y-106261000D03*
X54051200Y-106261000D03*
X54051200Y-106911000D03*
X54051200Y-107561000D03*
X54051200Y-108211000D03*
X54051200Y-108861000D03*
X54051200Y-109511000D03*
X54051200Y-110161000D03*
X54051200Y-110811000D03*
X54051200Y-111461000D03*
X54051200Y-112111000D03*
X54051200Y-112761000D03*
X54051200Y-113411000D03*
X76268500Y-168852800D03*
X76268500Y-168202800D03*
X76268500Y-167552800D03*
X76268500Y-166902800D03*
X76268500Y-166252800D03*
X76268500Y-165602800D03*
X76268500Y-164952800D03*
X76268500Y-164302800D03*
X76268500Y-163652800D03*
X76268500Y-163002800D03*
X76268500Y-162352800D03*
X76268500Y-161702800D03*
X70543500Y-161702800D03*
X70543500Y-162352800D03*
X70543500Y-163002800D03*
X70543500Y-163652800D03*
X70543500Y-164302800D03*
X70543500Y-164952800D03*
X70543500Y-165602800D03*
X70543500Y-166252800D03*
X70543500Y-166902800D03*
X70543500Y-167552800D03*
X70543500Y-168202800D03*
X70543500Y-168852800D03*
X59740800Y-86527400D03*
X59740800Y-85877400D03*
X59740800Y-85227400D03*
X59740800Y-84577400D03*
X59740800Y-83927400D03*
X59740800Y-83277400D03*
X59740800Y-82627400D03*
X59740800Y-81977400D03*
X59740800Y-81327400D03*
X59740800Y-80677400D03*
X59740800Y-80027400D03*
X59740800Y-79377400D03*
X54015800Y-79377400D03*
X54015800Y-80027400D03*
X54015800Y-80677400D03*
X54015800Y-81327400D03*
X54015800Y-81977400D03*
X54015800Y-82627400D03*
X54015800Y-83277400D03*
X54015800Y-83927400D03*
X54015800Y-84577400D03*
X54015800Y-85227400D03*
X54015800Y-85877400D03*
X54015800Y-86527400D03*
D25*
X95021400Y-42646600D03*
X94371400Y-42646600D03*
X93721400Y-42646600D03*
X93071400Y-42646600D03*
X92421400Y-42646600D03*
X91771400Y-42646600D03*
X91121400Y-42646600D03*
X90471400Y-42646600D03*
X89821400Y-42646600D03*
X89171400Y-42646600D03*
X88521400Y-42646600D03*
X87871400Y-42646600D03*
X87871400Y-48371600D03*
X88521400Y-48371600D03*
X89171400Y-48371600D03*
X89821400Y-48371600D03*
X90471400Y-48371600D03*
X91121400Y-48371600D03*
X91771400Y-48371600D03*
X92421400Y-48371600D03*
X93071400Y-48371600D03*
X93721400Y-48371600D03*
X94371400Y-48371600D03*
X95021400Y-48371600D03*
D26*
X94538800Y-53797200D03*
X88061800Y-52882800D03*
X88061800Y-51739800D03*
X91414600Y-39852600D03*
X91948000Y-40716200D03*
X89179400Y-44043600D03*
X90043000Y-44348400D03*
X24333200Y-45085000D03*
X73075800Y-45161200D03*
X72313800Y-43916600D03*
X87579200Y-39725600D03*
X88163400Y-38506400D03*
X92354400Y-36880800D03*
X93853000Y-36830000D03*
X94615000Y-38328600D03*
X92618900Y-39293800D03*
X92443300Y-46215300D03*
X93446600Y-46355000D03*
X94259400Y-47040800D03*
X92839911Y-44935511D03*
X79273400Y-45974000D03*
X74396600Y-46990000D03*
X87858600Y-45085000D03*
X86207600Y-43434000D03*
X73456800Y-39878000D03*
X27432000Y-52755800D03*
X30810200Y-52654200D03*
X43535600Y-52755800D03*
X46837600Y-53517800D03*
X61950600Y-52400200D03*
X59740800Y-52755800D03*
X79146400Y-51358800D03*
X76200000Y-51460400D03*
X73202800Y-34671000D03*
X73075800Y-37185600D03*
X76657200Y-37414200D03*
X76708000Y-34594800D03*
X60045600Y-35102800D03*
X60045600Y-37693600D03*
X56896000Y-37490400D03*
X56896000Y-34925000D03*
X40995600Y-35255200D03*
X40741600Y-38430200D03*
X44551600Y-37287200D03*
X44653200Y-34467800D03*
X28930600Y-34798000D03*
X28778200Y-37769800D03*
X25628600Y-37388800D03*
X25704800Y-35483800D03*
X28524200Y-62585600D03*
X28726500Y-59867800D03*
X45744500Y-61214000D03*
X45746700Y-58648600D03*
X63030300Y-61696600D03*
X63055700Y-58953400D03*
X80567900Y-62052200D03*
X80567900Y-59283600D03*
X48056800Y-115265200D03*
X42875200Y-117754400D03*
X46558200Y-117881400D03*
X72009000Y-120040400D03*
X66294000Y-105638600D03*
X65100200Y-105943400D03*
X81026000Y-116840000D03*
X77571600Y-116763800D03*
X60706000Y-117957600D03*
X64109600Y-118033800D03*
X29692600Y-117652800D03*
X26187400Y-117602000D03*
X87680800Y-40919400D03*
X95123000Y-40767000D03*
X95173800Y-44475400D03*
X92811600Y-50266600D03*
X95402400Y-50190400D03*
X35712400Y-77927200D03*
X35788600Y-78968600D03*
X58039000Y-79603600D03*
X58394600Y-81000600D03*
X49784000Y-76149200D03*
X50596800Y-77774800D03*
X56311800Y-77698600D03*
X56159400Y-76708000D03*
X36830000Y-79603600D03*
X40081200Y-79527400D03*
X54610000Y-64922400D03*
X68072000Y-76631800D03*
X66725800Y-77368400D03*
X55905400Y-81889600D03*
X55651400Y-80772000D03*
X62357000Y-73329800D03*
X64693800Y-73736200D03*
X70332600Y-80543400D03*
X71323200Y-81203800D03*
X56972200Y-84810600D03*
X58089800Y-84912200D03*
X77292200Y-60528200D03*
X77368400Y-57556400D03*
X59817000Y-60553600D03*
X59893200Y-57937400D03*
X41910000Y-60020200D03*
X42011600Y-57505600D03*
X24587200Y-59639200D03*
X24612600Y-57175400D03*
X28295600Y-67411600D03*
X31902400Y-67843400D03*
X48183800Y-67335400D03*
X44856400Y-67360800D03*
X82321400Y-67208400D03*
X78486000Y-67056000D03*
X65684400Y-67157600D03*
X61950600Y-67411600D03*
X50800000Y-108178600D03*
X50825400Y-109474000D03*
X33705800Y-114249200D03*
X31877000Y-129489200D03*
X55778400Y-119405400D03*
X54737000Y-119456200D03*
X56845200Y-109067600D03*
X55727600Y-109105700D03*
X58420000Y-109855000D03*
X57200800Y-110159800D03*
X45974000Y-134264400D03*
X48463200Y-134391400D03*
X42824400Y-121666000D03*
X46482000Y-121640600D03*
X26746200Y-121081800D03*
X29159200Y-120954800D03*
X27990800Y-134366000D03*
X30099000Y-133680200D03*
X61569600Y-108356400D03*
X62433200Y-107924600D03*
X64541400Y-134848600D03*
X62585600Y-134645400D03*
X64820800Y-121107200D03*
X60807600Y-121310400D03*
X62661800Y-116103400D03*
X64312800Y-105181400D03*
X63119000Y-105283000D03*
X62458600Y-138582400D03*
X66395600Y-138353800D03*
X58191400Y-112242600D03*
X79933800Y-133781800D03*
X83337400Y-133604000D03*
X82854800Y-114833400D03*
X76631800Y-115036600D03*
X83781900Y-109029500D03*
X85547200Y-108889800D03*
X81838800Y-102870000D03*
X81153000Y-104089200D03*
X52171600Y-85115400D03*
X52400200Y-87579200D03*
X61188600Y-86842600D03*
X62433200Y-86182200D03*
X59105800Y-78562200D03*
X84378800Y-86537800D03*
X93624400Y-89992200D03*
X88315800Y-87223600D03*
X93726000Y-86614000D03*
X85267800Y-106527600D03*
X93421200Y-111379000D03*
X88900000Y-108610400D03*
X93776800Y-108102400D03*
X84785200Y-168554400D03*
X78384400Y-168249600D03*
X75438000Y-174244000D03*
X61442600Y-113411000D03*
X64532228Y-113222795D03*
X52349400Y-113690400D03*
X52324000Y-111480600D03*
X61315600Y-105587800D03*
X58724800Y-165912800D03*
X59334400Y-167208200D03*
X46151800Y-158089600D03*
X44323000Y-157911800D03*
X30556200Y-157429200D03*
X27254200Y-157911800D03*
X31877000Y-138226800D03*
X29514800Y-138176000D03*
X27838400Y-141478000D03*
X31292800Y-141630400D03*
X68656200Y-169519600D03*
X73456800Y-170484800D03*
X72212200Y-166725600D03*
X47167800Y-138404600D03*
X49961800Y-138658600D03*
X45567600Y-142544800D03*
X48920400Y-142367000D03*
X72263000Y-163804600D03*
X72313800Y-165303200D03*
X62788800Y-142544800D03*
X66167000Y-142570200D03*
X69011800Y-162509200D03*
X68757800Y-163677600D03*
X72821800Y-162534600D03*
X72644000Y-161340800D03*
X83794600Y-138709400D03*
X82092800Y-138785600D03*
X82905600Y-142265400D03*
X79527400Y-142087600D03*
X28930600Y-173685200D03*
X78155800Y-162991800D03*
X78435200Y-161925000D03*
X77317600Y-161315400D03*
X47777400Y-157454600D03*
X47142400Y-156032200D03*
X66281300Y-154952700D03*
X67564000Y-157734000D03*
X83007200Y-166878000D03*
X83108800Y-165887400D03*
X63830200Y-158064200D03*
X60629800Y-157937200D03*
X82727800Y-157835600D03*
X78511400Y-157810200D03*
X83997800Y-174040800D03*
X84124800Y-176758600D03*
X74599800Y-168021000D03*
X74853800Y-168910000D03*
X71526400Y-171119800D03*
X71882000Y-168859200D03*
D27*
X26390600Y-150164800D02*
X22377400Y-150164800D01*
X30480000Y-154254200D02*
X26390600Y-150164800D01*
X24434800Y-152704800D02*
X22377400Y-152704800D01*
X25958800Y-154228800D02*
X24434800Y-152704800D01*
X46050200Y-152679400D02*
X43535600Y-150164800D01*
X43535600Y-150164800D02*
X39669200Y-150164800D01*
X46050200Y-153873200D02*
X46050200Y-152679400D01*
X41709398Y-152704800D02*
X39669200Y-152704800D01*
X42609600Y-153605002D02*
X41709398Y-152704800D01*
X42609600Y-153873200D02*
X42609600Y-153605002D01*
X61570000Y-113538400D02*
X61442600Y-113411000D01*
X63601600Y-113538400D02*
X61570000Y-113538400D01*
X94538800Y-53797200D02*
X94462600Y-53644800D01*
X95651800Y-52455600D02*
X94538800Y-53568600D01*
X94538800Y-53568600D02*
X94538800Y-53797200D01*
X94894400Y-53213000D02*
X94538800Y-53568600D01*
X95732600Y-52455600D02*
X95651800Y-52455600D01*
X94894400Y-52440800D02*
X94894400Y-53213000D01*
X94894400Y-50698400D02*
X95402400Y-50190400D01*
X94894400Y-51800800D02*
X94894400Y-50698400D01*
X95732600Y-50520600D02*
X95402400Y-50190400D01*
X95732600Y-51815600D02*
X95732600Y-50520600D01*
X56667400Y-50723800D02*
X56628200Y-50723800D01*
X57810400Y-51866800D02*
X56667400Y-50723800D01*
X57810400Y-52908200D02*
X57810400Y-51866800D01*
X57861200Y-52908200D02*
X57810400Y-52908200D01*
X59893200Y-54940200D02*
X57861200Y-52908200D01*
X66243200Y-54940200D02*
X59893200Y-54940200D01*
X66573400Y-55270400D02*
X66243200Y-54940200D01*
X73812400Y-55270400D02*
X66573400Y-55270400D01*
X75158600Y-54940200D02*
X74142600Y-54940200D01*
X80543400Y-52501800D02*
X78409800Y-54635400D01*
X56628200Y-50723800D02*
X56628200Y-48945800D01*
X78409800Y-54635400D02*
X75463400Y-54635400D01*
X75463400Y-54635400D02*
X75158600Y-54940200D01*
X87680800Y-52501800D02*
X80543400Y-52501800D01*
X74142600Y-54940200D02*
X73812400Y-55270400D01*
X88061800Y-52882800D02*
X87680800Y-52501800D01*
X60057200Y-47867400D02*
X60057200Y-48971200D01*
X61341000Y-46583600D02*
X60057200Y-47867400D01*
X62636400Y-46583600D02*
X61341000Y-46583600D01*
X63677800Y-47625000D02*
X62636400Y-46583600D01*
X63677800Y-51612800D02*
X63677800Y-47625000D01*
X66655200Y-54590200D02*
X63677800Y-51612800D01*
X73685400Y-54590200D02*
X66655200Y-54590200D01*
X75011800Y-53263800D02*
X73685400Y-54590200D01*
X78638400Y-53263800D02*
X75011800Y-53263800D01*
X82194400Y-49707800D02*
X78638400Y-53263800D01*
X86055200Y-49707800D02*
X82194400Y-49707800D01*
X86340350Y-49992950D02*
X86055200Y-49707800D01*
X88061800Y-51739800D02*
X86340350Y-50018350D01*
X86340350Y-50018350D02*
X86340350Y-49992950D01*
X91121400Y-47537200D02*
X92443300Y-46215300D01*
X91121400Y-47537200D02*
X91121400Y-48371600D01*
X90471400Y-47304022D02*
X90471400Y-48371600D01*
X92839911Y-44935511D02*
X90471400Y-47304022D01*
X87858600Y-45313600D02*
X87858600Y-45085000D01*
X93071400Y-43733000D02*
X90728800Y-46075600D01*
X90728800Y-46075600D02*
X88620600Y-46075600D01*
X93071400Y-42646600D02*
X93071400Y-43733000D01*
X88620600Y-46075600D02*
X87858600Y-45313600D01*
X90471400Y-43920000D02*
X90471400Y-42646600D01*
X90043000Y-44348400D02*
X90471400Y-43920000D01*
X89821400Y-43401600D02*
X89821400Y-42646600D01*
X89179400Y-44043600D02*
X89821400Y-43401600D01*
X91948000Y-40716200D02*
X91846400Y-40843200D01*
X90982800Y-45161200D02*
X92421400Y-43722600D01*
X89382600Y-45161200D02*
X90982800Y-45161200D01*
X87020400Y-44246800D02*
X88468200Y-44246800D01*
X88468200Y-44246800D02*
X89382600Y-45161200D01*
X92421400Y-43722600D02*
X92421400Y-42646600D01*
X86207600Y-43434000D02*
X87020400Y-44246800D01*
X91121400Y-40349000D02*
X91414600Y-39852600D01*
X91121400Y-42646600D02*
X91121400Y-40349000D01*
X91771400Y-40918200D02*
X91948000Y-40716200D01*
X91771400Y-42646600D02*
X91771400Y-40918200D01*
X25501600Y-43916600D02*
X24333200Y-45085000D01*
X72313800Y-43916600D02*
X25501600Y-43916600D01*
X70891400Y-44653200D02*
X32952802Y-44653200D01*
X71176550Y-44938350D02*
X70891400Y-44653200D01*
X72852950Y-44938350D02*
X71176550Y-44938350D01*
X32952802Y-44653200D02*
X28852200Y-48753802D01*
X73075800Y-45161200D02*
X72852950Y-44938350D01*
X89171400Y-39285800D02*
X88163400Y-38506400D01*
X89171400Y-42646600D02*
X89171400Y-39285800D01*
X88521400Y-40490000D02*
X87579200Y-39725600D01*
X88521400Y-42646600D02*
X88521400Y-40490000D01*
X85445600Y-43764200D02*
X85445600Y-37206600D01*
X88417400Y-46736000D02*
X85445600Y-43764200D01*
X88521400Y-46736000D02*
X88417400Y-46736000D01*
X88521400Y-48371600D02*
X88521400Y-46736000D01*
X85445600Y-37206600D02*
X83328600Y-35089600D01*
X87871400Y-46977400D02*
X87871400Y-48371600D01*
X83328600Y-37629600D02*
X84876300Y-39177300D01*
X84876300Y-39177300D02*
X84876300Y-43982300D01*
X84876300Y-43982300D02*
X87871400Y-46977400D01*
X52052400Y-36888600D02*
X51375400Y-37565600D01*
X52857400Y-33807400D02*
X52857400Y-36068000D01*
X53238400Y-33426400D02*
X52857400Y-33807400D01*
X86588600Y-33426400D02*
X53238400Y-33426400D01*
X92456000Y-39293800D02*
X86588600Y-33426400D01*
X52052400Y-36873000D02*
X52052400Y-36888600D01*
X92618900Y-39293800D02*
X92456000Y-39293800D01*
X52857400Y-36068000D02*
X52052400Y-36873000D01*
X95123000Y-42545000D02*
X95021400Y-42646600D01*
X95123000Y-40767000D02*
X95123000Y-42545000D01*
X93240881Y-46355000D02*
X91771400Y-47824481D01*
X93446600Y-46355000D02*
X93240881Y-46355000D01*
X93205081Y-47040800D02*
X92421400Y-47824481D01*
X94259400Y-47040800D02*
X93205081Y-47040800D01*
X93071400Y-50006800D02*
X93071400Y-48371600D01*
X92811600Y-50266600D02*
X93071400Y-50006800D01*
X38941600Y-31521400D02*
X35449600Y-35013400D01*
X90754200Y-31521400D02*
X38941600Y-31521400D01*
X94615000Y-35382200D02*
X90754200Y-31521400D01*
X94615000Y-38328600D02*
X94615000Y-35382200D01*
X37084000Y-35919000D02*
X35449600Y-37553400D01*
X37084000Y-34061400D02*
X37084000Y-35919000D01*
X37922200Y-33223200D02*
X37084000Y-34061400D01*
X45313600Y-33223200D02*
X37922200Y-33223200D01*
X46431200Y-32105600D02*
X45313600Y-33223200D01*
X89103200Y-32105600D02*
X46431200Y-32105600D01*
X89362800Y-32365200D02*
X89103200Y-32105600D01*
X89388200Y-32365200D02*
X89362800Y-32365200D01*
X93853000Y-36830000D02*
X89388200Y-32365200D01*
X51375400Y-33964940D02*
X51375400Y-35025600D01*
X88188800Y-32715200D02*
X52625140Y-32715200D01*
X52625140Y-32715200D02*
X51375400Y-33964940D01*
X92354400Y-36880800D02*
X88188800Y-32715200D01*
X72946600Y-47648200D02*
X72946600Y-48920400D01*
X73558400Y-46990000D02*
X72923400Y-47625000D01*
X72923400Y-47625000D02*
X72946600Y-47648200D01*
X74396600Y-46990000D02*
X73558400Y-46990000D01*
X79028402Y-45974000D02*
X76350200Y-48652202D01*
X79273400Y-45974000D02*
X79028402Y-45974000D01*
X73456800Y-39878000D02*
X75971400Y-39878000D01*
X80848200Y-44754800D02*
X75971400Y-39878000D01*
X84023200Y-44754800D02*
X80848200Y-44754800D01*
X84632800Y-45364400D02*
X84023200Y-44754800D01*
X84683600Y-47345600D02*
X84683600Y-45364400D01*
X89865200Y-50520600D02*
X87858600Y-50520600D01*
X87858600Y-50520600D02*
X84683600Y-47345600D01*
X84683600Y-45364400D02*
X84632800Y-45364400D01*
X89821400Y-49840175D02*
X89865200Y-49883975D01*
X89865200Y-49883975D02*
X89865200Y-50520600D01*
X89821400Y-48371600D02*
X89821400Y-49840175D01*
X84455000Y-44348400D02*
X81610200Y-44348400D01*
X85140800Y-45034200D02*
X84455000Y-44348400D01*
X85140800Y-46838119D02*
X85140800Y-45034200D01*
X68649200Y-38912800D02*
X67302000Y-37565600D01*
X76174600Y-38912800D02*
X68649200Y-38912800D01*
X81610200Y-44348400D02*
X76174600Y-38912800D01*
X88315281Y-50012600D02*
X85140800Y-46838119D01*
X89154000Y-50012600D02*
X88315281Y-50012600D01*
X89154000Y-48936119D02*
X89154000Y-50012600D01*
X60045600Y-35102800D02*
X59817000Y-35077400D01*
X60045600Y-37693600D02*
X60020200Y-37846000D01*
X56896000Y-37490400D02*
X56972200Y-37795200D01*
X56896000Y-34925000D02*
X56845200Y-35179000D01*
X40741600Y-38430200D02*
X40868600Y-38277800D01*
X28727400Y-37820600D02*
X28778200Y-37769800D01*
X25908000Y-35687000D02*
X25704800Y-35483800D01*
X26881600Y-35687000D02*
X25908000Y-35687000D01*
X26187400Y-37820600D02*
X25628600Y-37388800D01*
X26906600Y-37820600D02*
X26187400Y-37820600D01*
X27406600Y-37820600D02*
X28727400Y-37820600D01*
X28270200Y-35687000D02*
X28930600Y-34798000D01*
X27381600Y-35687000D02*
X28270200Y-35687000D01*
X41021000Y-38125400D02*
X40741600Y-38430200D01*
X42045400Y-38125400D02*
X41021000Y-38125400D01*
X42168000Y-35229800D02*
X40995600Y-35255200D01*
X43942000Y-38125400D02*
X44551600Y-37287200D01*
X42545400Y-38125400D02*
X43942000Y-38125400D01*
X44170600Y-35229800D02*
X44653200Y-34467800D01*
X42668000Y-35229800D02*
X44170600Y-35229800D01*
X57124600Y-37947600D02*
X56896000Y-37490400D01*
X58170000Y-37947600D02*
X57124600Y-37947600D01*
X56896000Y-35229800D02*
X56896000Y-34925000D01*
X57971200Y-35229800D02*
X56896000Y-35229800D01*
X59664600Y-35229800D02*
X60045600Y-35102800D01*
X58471200Y-35229800D02*
X59664600Y-35229800D01*
X59918600Y-37947600D02*
X60045600Y-37693600D01*
X58670000Y-37947600D02*
X59918600Y-37947600D01*
X73202800Y-34671000D02*
X73609200Y-35077400D01*
X74451400Y-35077400D02*
X73609200Y-35077400D01*
X73482200Y-37769800D02*
X73075800Y-37185600D01*
X74349800Y-37769800D02*
X73482200Y-37769800D01*
X76250800Y-37769800D02*
X76657200Y-37414200D01*
X74849800Y-37769800D02*
X76250800Y-37769800D01*
X76250800Y-35077400D02*
X76708000Y-34594800D01*
X74951400Y-35077400D02*
X76250800Y-35077400D01*
X72479550Y-48453350D02*
X70184200Y-48453350D01*
X72946600Y-48920400D02*
X72479550Y-48453350D01*
X76350200Y-47394200D02*
X74869350Y-45913350D01*
X76350200Y-48920400D02*
X76350200Y-47394200D01*
X74869350Y-45913350D02*
X70184200Y-45913350D01*
X75878200Y-51833000D02*
X76200000Y-51460400D01*
X75006200Y-51833000D02*
X75878200Y-51833000D01*
X78617000Y-51939000D02*
X79146400Y-51358800D01*
X77876400Y-51939000D02*
X78617000Y-51939000D01*
X77876400Y-48996600D02*
X77876400Y-51439000D01*
X75006200Y-49530000D02*
X75006200Y-51333000D01*
X74396600Y-48920400D02*
X75006200Y-49530000D01*
X61544200Y-51108800D02*
X61544200Y-49008200D01*
X61544200Y-51917600D02*
X61950600Y-52400200D01*
X61544200Y-51608800D02*
X61544200Y-51917600D01*
X58521600Y-52171600D02*
X59740800Y-52755800D01*
X58521600Y-51685000D02*
X58521600Y-52171600D01*
X58078200Y-50741600D02*
X58521600Y-51185000D01*
X58078200Y-48945800D02*
X58078200Y-50741600D01*
X57009200Y-45923200D02*
X60057200Y-48971200D01*
X54203600Y-45923200D02*
X57009200Y-45923200D01*
X56145600Y-48463200D02*
X56628200Y-48945800D01*
X54203600Y-48463200D02*
X56145600Y-48463200D01*
X46384800Y-53141200D02*
X46837600Y-53517800D01*
X46384800Y-51837400D02*
X46384800Y-53141200D01*
X46103200Y-51055800D02*
X46384800Y-51337400D01*
X46103200Y-48971200D02*
X46103200Y-51055800D01*
X43138550Y-45983350D02*
X38236600Y-45983350D01*
X43865800Y-46710600D02*
X43138550Y-45983350D01*
X43865800Y-48183800D02*
X43865800Y-46710600D01*
X44653200Y-48971200D02*
X43865800Y-48183800D01*
X42748200Y-52070000D02*
X43535600Y-52755800D01*
X42748200Y-51604400D02*
X42748200Y-52070000D01*
X42547200Y-48971200D02*
X42547200Y-50903400D01*
X42547200Y-50903400D02*
X42748200Y-51104400D01*
X40649350Y-48523350D02*
X38236600Y-48523350D01*
X41097200Y-48971200D02*
X40649350Y-48523350D01*
X25880400Y-46050200D02*
X22326600Y-46050200D01*
X28852200Y-49022000D02*
X25880400Y-46050200D01*
X24929000Y-48590200D02*
X22326600Y-48590200D01*
X25386200Y-49047400D02*
X24929000Y-48590200D01*
X30480000Y-52324000D02*
X30810200Y-52654200D01*
X30480000Y-51608800D02*
X30480000Y-52324000D01*
X30302200Y-50931000D02*
X30480000Y-51108800D01*
X30302200Y-49022000D02*
X30302200Y-50931000D01*
X26873200Y-52273200D02*
X27432000Y-52755800D01*
X26873200Y-51405600D02*
X26873200Y-52273200D01*
X26836200Y-50868600D02*
X26873200Y-50905600D01*
X26836200Y-49047400D02*
X26836200Y-50868600D01*
X23160200Y-51963800D02*
X22326600Y-51130200D01*
X24942800Y-51963800D02*
X23160200Y-51963800D01*
X23363000Y-52633800D02*
X22326600Y-53670200D01*
X24028400Y-52633800D02*
X23363000Y-52633800D01*
X23876400Y-53670200D02*
X22326600Y-53670200D01*
X24942800Y-52603800D02*
X23876400Y-53670200D01*
X39075650Y-51902400D02*
X38236600Y-51063350D01*
X40919400Y-51902400D02*
X39075650Y-51902400D01*
X39272150Y-52567800D02*
X38236600Y-53603350D01*
X39954200Y-52567800D02*
X39272150Y-52567800D01*
X39858450Y-53603350D02*
X38236600Y-53603350D01*
X40919400Y-52542400D02*
X39858450Y-53603350D01*
X55164200Y-52582600D02*
X54203600Y-53543200D01*
X55905400Y-52582600D02*
X55164200Y-52582600D01*
X55757600Y-53543200D02*
X54203600Y-53543200D01*
X56718200Y-52582600D02*
X55757600Y-53543200D01*
X55143000Y-51942600D02*
X54203600Y-51003200D01*
X56718200Y-51942600D02*
X55143000Y-51942600D01*
X71108050Y-51917200D02*
X70184200Y-50993350D01*
X72872600Y-51917200D02*
X71108050Y-51917200D01*
X72034400Y-52557200D02*
X71160350Y-52557200D01*
X71160350Y-52557200D02*
X70184200Y-53533350D01*
X71896450Y-53533350D02*
X70184200Y-53533350D01*
X72872600Y-52557200D02*
X71896450Y-53533350D01*
X82467000Y-41031200D02*
X83328600Y-40169600D01*
X80543400Y-41031200D02*
X82467000Y-41031200D01*
X82305000Y-41686000D02*
X83328600Y-42709600D01*
X81686400Y-41686000D02*
X82305000Y-41686000D01*
X81581800Y-42709600D02*
X83328600Y-42709600D01*
X80543400Y-41671200D02*
X81581800Y-42709600D01*
X66467400Y-40940200D02*
X67302000Y-40105600D01*
X64795400Y-40940200D02*
X66467400Y-40940200D01*
X66226000Y-41569600D02*
X67302000Y-42645600D01*
X65709800Y-41569600D02*
X66226000Y-41569600D01*
X65860800Y-42645600D02*
X67302000Y-42645600D01*
X64795400Y-41580200D02*
X65860800Y-42645600D01*
X50515400Y-40965600D02*
X51375400Y-40105600D01*
X48590200Y-40965600D02*
X50515400Y-40965600D01*
X49631600Y-41610200D02*
X50340000Y-41610200D01*
X50340000Y-41610200D02*
X51375400Y-42645600D01*
X49630200Y-42645600D02*
X51375400Y-42645600D01*
X48590200Y-41605600D02*
X49630200Y-42645600D01*
X34577400Y-40965600D02*
X35449600Y-40093400D01*
X31927800Y-40965600D02*
X34577400Y-40965600D01*
X34007600Y-42633400D02*
X35449600Y-42633400D01*
X33020000Y-41645800D02*
X34007600Y-42633400D01*
X31927800Y-41605600D02*
X32979800Y-41605600D01*
X78358600Y-57556400D02*
X77368400Y-57556400D01*
X78739600Y-57937400D02*
X78358600Y-57556400D01*
X80567900Y-59283600D02*
X79324200Y-58039900D01*
X80567900Y-61898500D02*
X78969000Y-60299600D01*
X80567900Y-62052200D02*
X80567900Y-61898500D01*
X61811100Y-57708800D02*
X61697000Y-57708800D01*
X63055700Y-58953400D02*
X61811100Y-57708800D01*
X62992400Y-61696600D02*
X61620800Y-60325000D01*
X63030300Y-61696600D02*
X62992400Y-61696600D01*
X44349700Y-57251600D02*
X43739200Y-57251600D01*
X45746700Y-58648600D02*
X44349700Y-57251600D01*
X43739200Y-57251600D02*
X43713800Y-57277000D01*
X43739200Y-59918600D02*
X43688400Y-59867800D01*
X44449100Y-59918600D02*
X43739200Y-59918600D01*
X45744500Y-61214000D02*
X44449100Y-59918600D01*
X28726500Y-59867800D02*
X28726500Y-59765300D01*
X28726500Y-59765300D02*
X26085800Y-57124600D01*
X28524200Y-62585600D02*
X28498800Y-62132400D01*
X28498800Y-62132400D02*
X26234200Y-59867800D01*
X68434600Y-59606800D02*
X70186200Y-59606800D01*
X65519300Y-63461900D02*
X65519300Y-62522100D01*
X67437000Y-74371200D02*
X67437000Y-65379600D01*
X65519300Y-62522100D02*
X68434600Y-59606800D01*
X66725800Y-77368400D02*
X66725800Y-75082400D01*
X66725800Y-75082400D02*
X67437000Y-74371200D01*
X67437000Y-65379600D02*
X65519300Y-63461900D01*
X48666400Y-115874800D02*
X48056800Y-115265200D01*
X52769200Y-115874800D02*
X48666400Y-115874800D01*
X46761400Y-118084600D02*
X46558200Y-117881400D01*
X46761400Y-119735600D02*
X46761400Y-118084600D01*
X43641200Y-118520400D02*
X42875200Y-117754400D01*
X43641200Y-119663400D02*
X43641200Y-118520400D01*
X29667200Y-117678200D02*
X29692600Y-117652800D01*
X29667200Y-119337600D02*
X29667200Y-117678200D01*
X26441400Y-119384000D02*
X26441400Y-117856000D01*
X26441400Y-117856000D02*
X26187400Y-117602000D01*
X72009000Y-124873200D02*
X74440600Y-127304800D01*
X72009000Y-120040400D02*
X72009000Y-124873200D01*
X65151000Y-105994200D02*
X65100200Y-105943400D01*
X66192400Y-106629200D02*
X66294000Y-105638600D01*
X61360600Y-111461000D02*
X66192400Y-106629200D01*
X59776200Y-111461000D02*
X61360600Y-111461000D01*
X65151000Y-106934000D02*
X65151000Y-105994200D01*
X61264800Y-110820200D02*
X65151000Y-106934000D01*
X61117774Y-110820200D02*
X61264800Y-110820200D01*
X61108574Y-110811000D02*
X61117774Y-110820200D01*
X59776200Y-110811000D02*
X61108574Y-110811000D01*
X77825600Y-116509800D02*
X77571600Y-116763800D01*
X77825600Y-114905600D02*
X77825600Y-116509800D01*
X81102200Y-116763800D02*
X81026000Y-116840000D01*
X81102200Y-115002800D02*
X81102200Y-116763800D01*
X60706000Y-118491000D02*
X60706000Y-117957600D01*
X61722400Y-119507400D02*
X60706000Y-118491000D01*
X61722400Y-120192800D02*
X61722400Y-119507400D01*
X64088200Y-118055200D02*
X64109600Y-118033800D01*
X64088200Y-119811800D02*
X64088200Y-118055200D01*
X87871400Y-41110000D02*
X87680800Y-40919400D01*
X87871400Y-42646600D02*
X87871400Y-41110000D01*
X94371400Y-43673000D02*
X95173800Y-44475400D01*
X94371400Y-42646600D02*
X94371400Y-43673000D01*
X96342200Y-47167800D02*
X93751400Y-44577000D01*
X95351600Y-58547000D02*
X96342200Y-57556400D01*
X93751400Y-44577000D02*
X93751400Y-42676600D01*
X95351600Y-180822600D02*
X95351600Y-58547000D01*
X96342200Y-57556400D02*
X96342200Y-47167800D01*
X90347800Y-185826400D02*
X95351600Y-180822600D01*
X95021400Y-49809400D02*
X95402400Y-50190400D01*
X95021400Y-48371600D02*
X95021400Y-49809400D01*
X91922600Y-52349400D02*
X93721400Y-50550600D01*
X93721400Y-50550600D02*
X93721400Y-48371600D01*
X91922600Y-87884000D02*
X91922600Y-52349400D01*
X92532200Y-52959000D02*
X94371400Y-51119800D01*
X94371400Y-51119800D02*
X94371400Y-48371600D01*
X92532200Y-88519000D02*
X92532200Y-52959000D01*
X27226600Y-73251400D02*
X27226600Y-71297800D01*
X35788600Y-78968600D02*
X32943800Y-78968600D01*
X32943800Y-78968600D02*
X27226600Y-73251400D01*
X30644000Y-73087400D02*
X35483800Y-77927200D01*
X30644000Y-71297800D02*
X30644000Y-73087400D01*
X35483800Y-77927200D02*
X35712400Y-77927200D01*
X58462800Y-80027400D02*
X59740800Y-80027400D01*
X58039000Y-79603600D02*
X58462800Y-80027400D01*
X58717800Y-80677400D02*
X58394600Y-81000600D01*
X59740800Y-80677400D02*
X58717800Y-80677400D01*
X50596800Y-75717400D02*
X50596800Y-77774800D01*
X48552100Y-73672700D02*
X50596800Y-75717400D01*
X47840900Y-73672700D02*
X48552100Y-73672700D01*
X46380400Y-72212200D02*
X47840900Y-73672700D01*
X46380400Y-71196200D02*
X46380400Y-72212200D01*
X47546202Y-76149200D02*
X42861400Y-71464398D01*
X49784000Y-76149200D02*
X47546202Y-76149200D01*
X45542200Y-66370200D02*
X40932200Y-66370200D01*
X46380400Y-67208400D02*
X45542200Y-66370200D01*
X46380400Y-71196200D02*
X46380400Y-67208400D01*
X40932200Y-66370200D02*
X39669200Y-67633200D01*
X40692200Y-71196200D02*
X39669200Y-70173200D01*
X42861400Y-71196200D02*
X40692200Y-71196200D01*
X61950600Y-78333600D02*
X61950600Y-80162400D01*
X60785600Y-81327400D02*
X59740800Y-81327400D01*
X61315600Y-77698600D02*
X61950600Y-78333600D01*
X56311800Y-77698600D02*
X61315600Y-77698600D01*
X61950600Y-80162400D02*
X60785600Y-81327400D01*
X56311800Y-76860400D02*
X56159400Y-76708000D01*
X62636400Y-76860400D02*
X56311800Y-76860400D01*
X62763400Y-80238600D02*
X62763400Y-76987400D01*
X61024600Y-81977400D02*
X62763400Y-80238600D01*
X62763400Y-76987400D02*
X62636400Y-76860400D01*
X59740800Y-81977400D02*
X61024600Y-81977400D01*
X37261800Y-61391200D02*
X35477400Y-59606800D01*
X37261800Y-77724000D02*
X37261800Y-61391200D01*
X36830000Y-78155800D02*
X37261800Y-77724000D01*
X36830000Y-79603600D02*
X36830000Y-78155800D01*
X38049200Y-79171800D02*
X38049200Y-59638600D01*
X47218600Y-80391000D02*
X39268400Y-80391000D01*
X38049200Y-59638600D02*
X35477400Y-57066800D01*
X50755000Y-83927400D02*
X47218600Y-80391000D01*
X39268400Y-80391000D02*
X38049200Y-79171800D01*
X54015800Y-83927400D02*
X50755000Y-83927400D01*
X48006000Y-79578200D02*
X40081200Y-79527400D01*
X51705200Y-83277400D02*
X48006000Y-79578200D01*
X54015800Y-83277400D02*
X51705200Y-83277400D01*
X54610000Y-75488800D02*
X54610000Y-64922400D01*
X52197000Y-77901800D02*
X54610000Y-75488800D01*
X55524400Y-75793600D02*
X52705000Y-78613000D01*
X55524400Y-62357000D02*
X55524400Y-75793600D01*
X54353500Y-61191100D02*
X54358500Y-61191100D01*
X54358500Y-61191100D02*
X55524400Y-62357000D01*
X52705000Y-78613000D02*
X52705000Y-81213719D01*
X52769200Y-59606800D02*
X54353500Y-61191100D01*
X52705000Y-81213719D02*
X53468681Y-81977400D01*
X52197000Y-81355719D02*
X52197000Y-77901800D01*
X53468681Y-82627400D02*
X52197000Y-81355719D01*
X72110600Y-58991200D02*
X70186200Y-57066800D01*
X70164800Y-66658200D02*
X72110600Y-64712400D01*
X69003200Y-66658200D02*
X70164800Y-66658200D01*
X68630800Y-67030600D02*
X69003200Y-66658200D01*
X68072000Y-76631800D02*
X68630800Y-76073000D01*
X68630800Y-76073000D02*
X68630800Y-67030600D01*
X72110600Y-64712400D02*
X72110600Y-58991200D01*
X55651400Y-80772000D02*
X55448200Y-80695800D01*
X52709600Y-84577400D02*
X54015800Y-84577400D01*
X52171600Y-85115400D02*
X52709600Y-84577400D01*
X55190800Y-81327400D02*
X55905400Y-81889600D01*
X54015800Y-81327400D02*
X55190800Y-81327400D01*
X55429800Y-80677400D02*
X55651400Y-80772000D01*
X54015800Y-80677400D02*
X55429800Y-80677400D01*
X60426600Y-73126600D02*
X60121800Y-72821800D01*
X62204600Y-73177400D02*
X60426600Y-73177400D01*
X60426600Y-73177400D02*
X60426600Y-73126600D01*
X62357000Y-73329800D02*
X62204600Y-73177400D01*
X60121800Y-71743798D02*
X60121800Y-72821800D01*
X65303400Y-74345800D02*
X64693800Y-73736200D01*
X65303400Y-80441800D02*
X65303400Y-74345800D01*
X62467800Y-83277400D02*
X65303400Y-80441800D01*
X59740800Y-83277400D02*
X62467800Y-83277400D01*
X63601600Y-81203800D02*
X63601600Y-71399400D01*
X62178000Y-82627400D02*
X63601600Y-81203800D01*
X59740800Y-82627400D02*
X62178000Y-82627400D01*
X90017600Y-62083800D02*
X87540600Y-59606800D01*
X90017600Y-76962000D02*
X90017600Y-62083800D01*
X86436200Y-80543400D02*
X90017600Y-76962000D01*
X70332600Y-80543400D02*
X86436200Y-80543400D01*
X89324800Y-57066800D02*
X87540600Y-57066800D01*
X91059000Y-78359000D02*
X91059000Y-58801000D01*
X71323200Y-81203800D02*
X88214200Y-81203800D01*
X88214200Y-81203800D02*
X91059000Y-78359000D01*
X91059000Y-58801000D02*
X89324800Y-57066800D01*
X56024174Y-79375000D02*
X56692800Y-79375000D01*
X57581800Y-80264000D02*
X57581800Y-84404200D01*
X56021774Y-79377400D02*
X56024174Y-79375000D01*
X56692800Y-79375000D02*
X57581800Y-80264000D01*
X54015800Y-79377400D02*
X56021774Y-79377400D01*
X57581800Y-84404200D02*
X58089800Y-84912200D01*
X56616600Y-84404200D02*
X56972200Y-84810600D01*
X56616600Y-80467200D02*
X56616600Y-84404200D01*
X56176800Y-80027400D02*
X56616600Y-80467200D01*
X54015800Y-80027400D02*
X56176800Y-80027400D01*
X70713600Y-78435200D02*
X72872600Y-76276200D01*
X72872600Y-69201200D02*
X74440600Y-67633200D01*
X68732400Y-78435200D02*
X70713600Y-78435200D01*
X63240200Y-83927400D02*
X68732400Y-78435200D01*
X59740800Y-83927400D02*
X63240200Y-83927400D01*
X72872600Y-76276200D02*
X72872600Y-69201200D01*
X78663800Y-73075800D02*
X77137600Y-71549600D01*
X79629000Y-73075800D02*
X78663800Y-73075800D01*
X80695800Y-74142600D02*
X79629000Y-73075800D01*
X80695800Y-78181200D02*
X80695800Y-74142600D01*
X79781400Y-79095600D02*
X80695800Y-78181200D01*
X69037200Y-79095600D02*
X79781400Y-79095600D01*
X63555400Y-84577400D02*
X69037200Y-79095600D01*
X59740800Y-84577400D02*
X63555400Y-84577400D01*
X77292200Y-60528200D02*
X77444600Y-60401200D01*
X59817000Y-60553600D02*
X59766200Y-60375800D01*
X59893200Y-57937400D02*
X60020200Y-57785000D01*
X41910000Y-60020200D02*
X42189400Y-59791600D01*
X42011600Y-57505600D02*
X42240200Y-57353200D01*
X24587200Y-59639200D02*
X24511000Y-59791600D01*
X24663400Y-57124600D02*
X24612600Y-57175400D01*
X28295600Y-67411600D02*
X28168600Y-67360800D01*
X23502000Y-71297800D02*
X22377400Y-70173200D01*
X27226600Y-71297800D02*
X23502000Y-71297800D01*
X23386400Y-66624200D02*
X22377400Y-67633200D01*
X29489400Y-66624200D02*
X23386400Y-66624200D01*
X30644000Y-67778800D02*
X29489400Y-66624200D01*
X30644000Y-71297800D02*
X30644000Y-67778800D01*
X58337800Y-71424800D02*
X57086200Y-70173200D01*
X60071000Y-71424800D02*
X58337800Y-71424800D01*
X62560200Y-65938400D02*
X59918600Y-65938400D01*
X59918600Y-65938400D02*
X58223800Y-67633200D01*
X63601600Y-66979800D02*
X62560200Y-65938400D01*
X58223800Y-67633200D02*
X57086200Y-67633200D01*
X63601600Y-71399400D02*
X63601600Y-66979800D01*
X76059200Y-66014600D02*
X74440600Y-67633200D01*
X79527400Y-66014600D02*
X76059200Y-66014600D01*
X80645000Y-67132200D02*
X79527400Y-66014600D01*
X80645000Y-71170800D02*
X80645000Y-67132200D01*
X75463600Y-71196200D02*
X74440600Y-70173200D01*
X77137600Y-71196200D02*
X75463600Y-71196200D01*
X24587200Y-59867800D02*
X24587200Y-59639200D01*
X25734200Y-59867800D02*
X24587200Y-59867800D01*
X25585800Y-57124600D02*
X24663400Y-57124600D01*
X42265600Y-59867800D02*
X41910000Y-60020200D01*
X43188400Y-59867800D02*
X42265600Y-59867800D01*
X42316400Y-57277000D02*
X42011600Y-57505600D01*
X43213800Y-57277000D02*
X42316400Y-57277000D01*
X60096400Y-57708800D02*
X59893200Y-57937400D01*
X61197000Y-57708800D02*
X60096400Y-57708800D01*
X59817000Y-60325000D02*
X59817000Y-60553600D01*
X61120800Y-60325000D02*
X59817000Y-60325000D01*
X77546200Y-60299600D02*
X77292200Y-60528200D01*
X78469000Y-60299600D02*
X77546200Y-60299600D01*
X78460600Y-68025200D02*
X78486000Y-67056000D01*
X78587600Y-68652200D02*
X78460600Y-68525200D01*
X78587600Y-71196200D02*
X78587600Y-68652200D01*
X82067400Y-68355400D02*
X82321400Y-67208400D01*
X82095000Y-68883000D02*
X82067400Y-68855400D01*
X82095000Y-71170800D02*
X82095000Y-68883000D01*
X61468000Y-67614800D02*
X61950600Y-67411600D01*
X61468000Y-68355400D02*
X61468000Y-67614800D01*
X61521000Y-68908400D02*
X61468000Y-68855400D01*
X61521000Y-71424800D02*
X61521000Y-68908400D01*
X65176400Y-67665600D02*
X65684400Y-67157600D01*
X65176400Y-68304600D02*
X65176400Y-67665600D01*
X65051600Y-68929400D02*
X65176400Y-68804600D01*
X65051600Y-71399400D02*
X65051600Y-68929400D01*
X44348400Y-67894200D02*
X44856400Y-67360800D01*
X44348400Y-68355400D02*
X44348400Y-67894200D01*
X47853600Y-67640200D02*
X48183800Y-67335400D01*
X47853600Y-68326000D02*
X47853600Y-67640200D01*
X47830400Y-71196200D02*
X47830400Y-68849200D01*
X44311400Y-68892400D02*
X44348400Y-68855400D01*
X44311400Y-71196200D02*
X44311400Y-68892400D01*
X31957600Y-68888800D02*
X31902400Y-67843400D01*
X28117800Y-67411600D02*
X28295600Y-67411600D01*
X28117800Y-68359400D02*
X28117800Y-67411600D01*
X28676600Y-71297800D02*
X28676600Y-69418200D01*
X28676600Y-69418200D02*
X28117800Y-68859400D01*
X32094000Y-69525200D02*
X31957600Y-69388800D01*
X32094000Y-71297800D02*
X32094000Y-69525200D01*
X34636800Y-62987400D02*
X35477400Y-62146800D01*
X32512000Y-62987400D02*
X34636800Y-62987400D01*
X34422200Y-63631600D02*
X35477400Y-64686800D01*
X33418600Y-63631600D02*
X34422200Y-63631600D01*
X33571400Y-64686800D02*
X35477400Y-64686800D01*
X32512000Y-63627400D02*
X33571400Y-64686800D01*
X51827000Y-63089000D02*
X52769200Y-62146800D01*
X49707800Y-63089000D02*
X51827000Y-63089000D01*
X51554600Y-64686800D02*
X52769200Y-64686800D01*
X50596800Y-63729000D02*
X51554600Y-64686800D01*
X50665600Y-64686800D02*
X52769200Y-64686800D01*
X49707800Y-63729000D02*
X50665600Y-64686800D01*
X69290600Y-63042400D02*
X70186200Y-62146800D01*
X67614800Y-63042400D02*
X69290600Y-63042400D01*
X69192400Y-63693000D02*
X70186200Y-64686800D01*
X68503800Y-63693000D02*
X69192400Y-63693000D01*
X67614800Y-63682400D02*
X68619200Y-64686800D01*
X68619200Y-64686800D02*
X70186200Y-64686800D01*
X86613600Y-63073800D02*
X87540600Y-62146800D01*
X84455000Y-63073800D02*
X86613600Y-63073800D01*
X86388600Y-64686800D02*
X87540600Y-64686800D01*
X85420200Y-63718400D02*
X86388600Y-64686800D01*
X84455000Y-63713800D02*
X85428000Y-64686800D01*
X85428000Y-64686800D02*
X87540600Y-64686800D01*
X23319600Y-73655400D02*
X22377400Y-72713200D01*
X24638000Y-73655400D02*
X23319600Y-73655400D01*
X23229400Y-74401200D02*
X22377400Y-75253200D01*
X23749000Y-74401200D02*
X23229400Y-74401200D01*
X23680200Y-75253200D02*
X22377400Y-75253200D01*
X24638000Y-74295400D02*
X23680200Y-75253200D01*
X40727800Y-73771800D02*
X39669200Y-72713200D01*
X42113200Y-73771800D02*
X40727800Y-73771800D01*
X41270600Y-74386400D02*
X40536000Y-74386400D01*
X40536000Y-74386400D02*
X39669200Y-75253200D01*
X41271800Y-75253200D02*
X39669200Y-75253200D01*
X42113200Y-74411800D02*
X41271800Y-75253200D01*
X58282400Y-73909400D02*
X57086200Y-72713200D01*
X60530000Y-73909400D02*
X58282400Y-73909400D01*
X58757600Y-75253200D02*
X57086200Y-75253200D01*
X59486800Y-74524000D02*
X58757600Y-75253200D01*
X59826200Y-75253200D02*
X57086200Y-75253200D01*
X60530000Y-74549400D02*
X59826200Y-75253200D01*
X77089000Y-73710800D02*
X76052600Y-73710800D01*
X75468600Y-73741200D02*
X74440600Y-72713200D01*
X76022200Y-73741200D02*
X75468600Y-73741200D01*
X75312600Y-74381200D02*
X74440600Y-75253200D01*
X76022200Y-74381200D02*
X75312600Y-74381200D01*
X76186600Y-75253200D02*
X74440600Y-75253200D01*
X77089000Y-74350800D02*
X76186600Y-75253200D01*
X50862400Y-109511000D02*
X50825400Y-109474000D01*
X54051200Y-109511000D02*
X50862400Y-109511000D01*
X51584000Y-108861000D02*
X50800000Y-108178600D01*
X54051200Y-108861000D02*
X51584000Y-108861000D01*
X34442400Y-113411000D02*
X33705800Y-114249200D01*
X51205200Y-110161000D02*
X47955200Y-113411000D01*
X47955200Y-113411000D02*
X34442400Y-113411000D01*
X54051200Y-110161000D02*
X51205200Y-110161000D01*
X48463200Y-114071400D02*
X37280800Y-114071400D01*
X51739800Y-110794800D02*
X48463200Y-114071400D01*
X51756000Y-110811000D02*
X51739800Y-110794800D01*
X37280800Y-114071400D02*
X35477400Y-115874800D01*
X54051200Y-110811000D02*
X51756000Y-110811000D01*
X53093600Y-125120400D02*
X31115000Y-125120400D01*
X54737000Y-123477000D02*
X53093600Y-125120400D01*
X31115000Y-125120400D02*
X28930600Y-127304800D01*
X54737000Y-119456200D02*
X54737000Y-123477000D01*
X28930600Y-127304800D02*
X26619200Y-127304800D01*
X26619200Y-127304800D02*
X22377400Y-127304800D01*
X28434200Y-129119800D02*
X26619200Y-127304800D01*
X28434200Y-130058600D02*
X28434200Y-129119800D01*
X24762800Y-129844800D02*
X22377400Y-129844800D01*
X35255200Y-125882400D02*
X31877000Y-129489200D01*
X53924200Y-125882400D02*
X35255200Y-125882400D01*
X55778400Y-124028200D02*
X53924200Y-125882400D01*
X55778400Y-119405400D02*
X55778400Y-124028200D01*
X57909600Y-106911000D02*
X55727600Y-109093000D01*
X55727600Y-109093000D02*
X55727600Y-109105700D01*
X59776200Y-106911000D02*
X57909600Y-106911000D01*
X58199400Y-107561000D02*
X56845200Y-109067600D01*
X59776200Y-107561000D02*
X58199400Y-107561000D01*
X57200800Y-110159800D02*
X57175400Y-109931200D01*
X58794000Y-108211000D02*
X57175400Y-109829600D01*
X57175400Y-109829600D02*
X57200800Y-110159800D01*
X59776200Y-108211000D02*
X58794000Y-108211000D01*
X59109200Y-108861000D02*
X58420000Y-109855000D01*
X59776200Y-108861000D02*
X59109200Y-108861000D01*
X44399200Y-127355600D02*
X39557400Y-127355600D01*
X47269400Y-130225800D02*
X44399200Y-127355600D01*
X43459400Y-129895600D02*
X39557400Y-129895600D01*
X48463200Y-134391400D02*
X48514000Y-134213600D01*
X46482000Y-121640600D02*
X46634400Y-121666000D01*
X43641200Y-120900000D02*
X42824400Y-121666000D01*
X43641200Y-120163400D02*
X43641200Y-120900000D01*
X46761400Y-121539000D02*
X46482000Y-121640600D01*
X46761400Y-120235600D02*
X46761400Y-121539000D01*
X26746200Y-121081800D02*
X26593800Y-121107200D01*
X29667200Y-120446800D02*
X29159200Y-120954800D01*
X29667200Y-119837600D02*
X29667200Y-120446800D01*
X26441400Y-120954800D02*
X26746200Y-121081800D01*
X26441400Y-119884000D02*
X26441400Y-120954800D01*
X30099000Y-133680200D02*
X29946600Y-133654800D01*
X51783200Y-122508800D02*
X52769200Y-123494800D01*
X50774600Y-122508800D02*
X51783200Y-122508800D01*
X50866200Y-123494800D02*
X52769200Y-123494800D01*
X49890800Y-122519400D02*
X50866200Y-123494800D01*
X51844600Y-121879400D02*
X52769200Y-120954800D01*
X49890800Y-121879400D02*
X51844600Y-121879400D01*
X34578550Y-121853650D02*
X35477400Y-120954800D01*
X32890600Y-121853650D02*
X34578550Y-121853650D01*
X34466000Y-122483400D02*
X35477400Y-123494800D01*
X33756600Y-122483400D02*
X34466000Y-122483400D01*
X33891750Y-123494800D02*
X35477400Y-123494800D01*
X32890600Y-122493650D02*
X33891750Y-123494800D01*
X29845000Y-133553200D02*
X30099000Y-133680200D01*
X29845000Y-132681600D02*
X29845000Y-133553200D01*
X29884200Y-132142400D02*
X29845000Y-132181600D01*
X29884200Y-130058600D02*
X29884200Y-132142400D01*
X27207800Y-133735400D02*
X27990800Y-134366000D01*
X27207800Y-132584000D02*
X27207800Y-133735400D01*
X26441400Y-131317600D02*
X27207800Y-132084000D01*
X26441400Y-130073400D02*
X26441400Y-131317600D01*
X23297400Y-133304800D02*
X22377400Y-132384800D01*
X24770200Y-133304800D02*
X23297400Y-133304800D01*
X23342600Y-133959600D02*
X22377400Y-134924800D01*
X23926800Y-133959600D02*
X23342600Y-133959600D01*
X23790200Y-134924800D02*
X22377400Y-134924800D01*
X24770200Y-133944800D02*
X23790200Y-134924800D01*
X45339000Y-133756400D02*
X45974000Y-134264400D01*
X45339000Y-132939600D02*
X45339000Y-133756400D01*
X48412400Y-134112000D02*
X48463200Y-134391400D01*
X48412400Y-132838000D02*
X48412400Y-134112000D01*
X48719400Y-132031000D02*
X48412400Y-132338000D01*
X48719400Y-130225800D02*
X48719400Y-132031000D01*
X45339000Y-132439600D02*
X45339000Y-130325200D01*
X40797400Y-133735600D02*
X39557400Y-134975600D01*
X41148000Y-133735600D02*
X40797400Y-133735600D01*
X40736600Y-134975600D02*
X39557400Y-134975600D01*
X41991400Y-133720800D02*
X40736600Y-134975600D01*
X41346200Y-132435600D02*
X39557400Y-132435600D01*
X41991400Y-133080800D02*
X41346200Y-132435600D01*
X40217400Y-133095600D02*
X39557400Y-132435600D01*
X41148000Y-133095600D02*
X40217400Y-133095600D01*
X62560200Y-108864400D02*
X62433200Y-107924600D01*
X61263600Y-110161000D02*
X62560200Y-108864400D01*
X59776200Y-110161000D02*
X61263600Y-110161000D01*
X61747400Y-108966000D02*
X61569600Y-108356400D01*
X61202400Y-109511000D02*
X61747400Y-108966000D01*
X59776200Y-109511000D02*
X61202400Y-109511000D01*
X60251950Y-127345750D02*
X64172000Y-131265800D01*
X57001600Y-127345750D02*
X60251950Y-127345750D01*
X58306850Y-131191000D02*
X57001600Y-129885750D01*
X60602200Y-131191000D02*
X58306850Y-131191000D01*
X62026800Y-134086600D02*
X62585600Y-134645400D01*
X62026800Y-133650800D02*
X62026800Y-134086600D01*
X65582800Y-133934200D02*
X64541400Y-134848600D01*
X65582800Y-133676200D02*
X65582800Y-133934200D01*
X65582800Y-131305000D02*
X65622000Y-131265800D01*
X65582800Y-133176200D02*
X65582800Y-131305000D01*
X62026800Y-133150800D02*
X62026800Y-131216400D01*
X57845050Y-133269200D02*
X57001600Y-132425750D01*
X59441200Y-133269200D02*
X57845050Y-133269200D01*
X58597800Y-133924000D02*
X58043350Y-133924000D01*
X58043350Y-133924000D02*
X57001600Y-134965750D01*
X58384650Y-134965750D02*
X57001600Y-134965750D01*
X59441200Y-133909200D02*
X58384650Y-134965750D01*
X69179000Y-122487600D02*
X70186200Y-123494800D01*
X68447800Y-122487600D02*
X69179000Y-122487600D01*
X68600800Y-123494800D02*
X70186200Y-123494800D01*
X67589400Y-122483400D02*
X68600800Y-123494800D01*
X69340600Y-120954800D02*
X68447800Y-121847600D01*
X70186200Y-120954800D02*
X69340600Y-120954800D01*
X70186200Y-120954800D02*
X68478000Y-120954800D01*
X68478000Y-120954800D02*
X67589400Y-121843400D01*
X67564000Y-115874800D02*
X70186200Y-115874800D01*
X67259200Y-115570000D02*
X67564000Y-115874800D01*
X63195200Y-115570000D02*
X67259200Y-115570000D01*
X62661800Y-116103400D02*
X63195200Y-115570000D01*
X64820800Y-121107200D02*
X64693800Y-121081800D01*
X61222400Y-120895600D02*
X60807600Y-121310400D01*
X61222400Y-120192800D02*
X61222400Y-120895600D01*
X64588200Y-120976200D02*
X64820800Y-121107200D01*
X64588200Y-119811800D02*
X64588200Y-120976200D01*
X59309000Y-104673400D02*
X62738000Y-104673400D01*
X62738000Y-104673400D02*
X63119000Y-105283000D01*
X55771400Y-108211000D02*
X59309000Y-104673400D01*
X54051200Y-108211000D02*
X55771400Y-108211000D01*
X63804800Y-104089200D02*
X64287400Y-104571800D01*
X63779400Y-104114600D02*
X63804800Y-104089200D01*
X59029600Y-104114600D02*
X63779400Y-104114600D01*
X55583200Y-107561000D02*
X59029600Y-104114600D01*
X64287400Y-104571800D02*
X64312800Y-105181400D01*
X54051200Y-107561000D02*
X55583200Y-107561000D01*
X65303400Y-139446000D02*
X66395600Y-138353800D01*
X65303400Y-139733800D02*
X65303400Y-139446000D01*
X63195200Y-139166600D02*
X62458600Y-138582400D01*
X63195200Y-139682600D02*
X63195200Y-139166600D01*
X77262800Y-114405600D02*
X77825600Y-114405600D01*
X76631800Y-115036600D02*
X77262800Y-114405600D01*
X62031000Y-112902600D02*
X61889400Y-112761000D01*
X64212033Y-112902600D02*
X62031000Y-112902600D01*
X64532228Y-113222795D02*
X64212033Y-112902600D01*
X61889400Y-112761000D02*
X59776200Y-112761000D01*
X61442600Y-113411000D02*
X61645800Y-113411000D01*
X58709800Y-112761000D02*
X58191400Y-112242600D01*
X59776200Y-112761000D02*
X58709800Y-112761000D01*
X75264000Y-134101400D02*
X74440600Y-134924800D01*
X75890000Y-134101400D02*
X75264000Y-134101400D01*
X75895200Y-134924800D02*
X74440600Y-134924800D01*
X76733400Y-134086600D02*
X75895200Y-134924800D01*
X75502400Y-133446600D02*
X74440600Y-132384800D01*
X76733400Y-133446600D02*
X75502400Y-133446600D01*
X82727800Y-133096000D02*
X83337400Y-133604000D01*
X82727800Y-132609400D02*
X82727800Y-133096000D01*
X79324200Y-133324600D02*
X79933800Y-133781800D01*
X79324200Y-132660200D02*
X79324200Y-133324600D01*
X79324200Y-132160200D02*
X79324200Y-130403600D01*
X79324200Y-130403600D02*
X79451200Y-130276600D01*
X82727800Y-130405800D02*
X82882400Y-130251200D01*
X82727800Y-132109400D02*
X82727800Y-130405800D01*
X78486000Y-127304800D02*
X74440600Y-127304800D01*
X81432400Y-130251200D02*
X78486000Y-127304800D01*
X77569400Y-129844800D02*
X74440600Y-129844800D01*
X78001200Y-130276600D02*
X77569400Y-129844800D01*
X84886800Y-121829000D02*
X86666400Y-121829000D01*
X86666400Y-121829000D02*
X87540600Y-120954800D01*
X85725000Y-121843800D02*
X86651600Y-121843800D01*
X86651600Y-121843800D02*
X87540600Y-120954800D01*
X85912600Y-123494800D02*
X87540600Y-123494800D01*
X84886800Y-122469000D02*
X85912600Y-123494800D01*
X86529600Y-122483800D02*
X87540600Y-123494800D01*
X85725000Y-122483800D02*
X86529600Y-122483800D01*
X82194000Y-114502800D02*
X82854800Y-114833400D01*
X81102200Y-114502800D02*
X82194000Y-114502800D01*
X83781900Y-109029500D02*
X87540600Y-112788200D01*
X87540600Y-112788200D02*
X87540600Y-115874800D01*
X88849200Y-117106200D02*
X87540600Y-118414800D01*
X85547200Y-108889800D02*
X85547200Y-109702600D01*
X85547200Y-109702600D02*
X88849200Y-113004600D01*
X88849200Y-113004600D02*
X88849200Y-117106200D01*
X81838800Y-102870000D02*
X81838800Y-102997000D01*
X80645000Y-103581200D02*
X81153000Y-104089200D01*
X58851800Y-103581200D02*
X80645000Y-103581200D01*
X55522000Y-106911000D02*
X58851800Y-103581200D01*
X54051200Y-106911000D02*
X55522000Y-106911000D01*
X58674000Y-103073200D02*
X81762600Y-103073200D01*
X81762600Y-103073200D02*
X81838800Y-102870000D01*
X55486200Y-106261000D02*
X58674000Y-103073200D01*
X54051200Y-106261000D02*
X55486200Y-106261000D01*
X62128400Y-85877400D02*
X59740800Y-85877400D01*
X62484400Y-86131000D02*
X64820800Y-86131000D01*
X62433200Y-86182200D02*
X62484400Y-86131000D01*
X62433200Y-86182200D02*
X62128400Y-85877400D01*
X63276000Y-87071200D02*
X61417200Y-87071200D01*
X61417200Y-87071200D02*
X61188600Y-86842600D01*
X63601600Y-86745600D02*
X63276000Y-87071200D01*
X64820800Y-86771000D02*
X63627000Y-86771000D01*
X67414126Y-107477900D02*
X89037500Y-107477900D01*
X65322613Y-109569413D02*
X67414126Y-107477900D01*
X65328800Y-109575600D02*
X65322613Y-109569413D01*
X65328800Y-113309400D02*
X65328800Y-109575600D01*
X89037500Y-107477900D02*
X91922600Y-110363000D01*
X64084200Y-114554000D02*
X65328800Y-113309400D01*
X59537600Y-114554000D02*
X64084200Y-114554000D01*
X57094600Y-112111000D02*
X59537600Y-114554000D01*
X54051200Y-112111000D02*
X57094600Y-112111000D01*
X88468200Y-108178600D02*
X88900000Y-108610400D01*
X67919600Y-108178600D02*
X88468200Y-108178600D01*
X66090559Y-110007641D02*
X67919600Y-108178600D01*
X66090559Y-113741441D02*
X66090559Y-110007641D01*
X59486800Y-115087400D02*
X64744600Y-115087400D01*
X64744600Y-115087400D02*
X66090559Y-113741441D01*
X55397400Y-112761000D02*
X55397400Y-113030000D01*
X56997600Y-114630200D02*
X59029600Y-114630200D01*
X55397400Y-113030000D02*
X56997600Y-114630200D01*
X59029600Y-114630200D02*
X59486800Y-115087400D01*
X54051200Y-112761000D02*
X55397400Y-112761000D01*
X59740800Y-79197200D02*
X59105800Y-78562200D01*
X59740800Y-79377400D02*
X59740800Y-79197200D01*
X60594000Y-86527400D02*
X61188600Y-86842600D01*
X59740800Y-86527400D02*
X60594000Y-86527400D01*
X53274200Y-86527400D02*
X52400200Y-87579200D01*
X54015800Y-86527400D02*
X53274200Y-86527400D01*
X83068400Y-85227400D02*
X84378800Y-86537800D01*
X59740800Y-85227400D02*
X83068400Y-85227400D01*
X56474600Y-85227400D02*
X54015800Y-85227400D01*
X58851800Y-87604600D02*
X56474600Y-85227400D01*
X89916000Y-85877400D02*
X87858600Y-85877400D01*
X87858600Y-85877400D02*
X86106000Y-87630000D01*
X68732400Y-87630000D02*
X68707000Y-87604600D01*
X68707000Y-87604600D02*
X58851800Y-87604600D01*
X91922600Y-87884000D02*
X89916000Y-85877400D01*
X91922600Y-110363000D02*
X91922600Y-87884000D01*
X86106000Y-87630000D02*
X68732400Y-87630000D01*
X93954600Y-89992200D02*
X93624400Y-89992200D01*
X94742000Y-90779600D02*
X93954600Y-89992200D01*
X86664800Y-88138000D02*
X87579200Y-87223600D01*
X58648600Y-88138000D02*
X86664800Y-88138000D01*
X56388000Y-85877400D02*
X58648600Y-88138000D01*
X54015800Y-85877400D02*
X56388000Y-85877400D01*
X87579200Y-87223600D02*
X88315800Y-87223600D01*
X92532200Y-88519000D02*
X92532200Y-87807800D01*
X92532200Y-87807800D02*
X93726000Y-86614000D01*
X92532200Y-109804200D02*
X92532200Y-88519000D01*
X61548800Y-112111000D02*
X59776200Y-112111000D01*
X67132200Y-106527600D02*
X61548800Y-112111000D01*
X85267800Y-106527600D02*
X67132200Y-106527600D01*
X93472000Y-111429800D02*
X93421200Y-111379000D01*
X94742000Y-178892200D02*
X94742000Y-90779600D01*
X87807800Y-185826400D02*
X94742000Y-178892200D01*
X93472000Y-177622200D02*
X93472000Y-111429800D01*
X85267800Y-185826400D02*
X93472000Y-177622200D01*
X92532200Y-109804200D02*
X92532200Y-109245400D01*
X92532200Y-109245400D02*
X93776800Y-108102400D01*
X92532200Y-167157400D02*
X92532200Y-109804200D01*
X91922600Y-161417000D02*
X91922600Y-110363000D01*
X84785200Y-168554400D02*
X91922600Y-161417000D01*
X77687600Y-167552800D02*
X78384400Y-168249600D01*
X76268500Y-167552800D02*
X77687600Y-167552800D01*
X71069200Y-178612800D02*
X75438000Y-174244000D01*
X73279000Y-188366400D02*
X71069200Y-186156600D01*
X82092800Y-188366400D02*
X73279000Y-188366400D01*
X82727800Y-187731400D02*
X82092800Y-188366400D01*
X71069200Y-186156600D02*
X71069200Y-178612800D01*
X82727800Y-185826400D02*
X82727800Y-187731400D01*
X52343600Y-111461000D02*
X52324000Y-111480600D01*
X60642400Y-106261000D02*
X61315600Y-105587800D01*
X59776200Y-106261000D02*
X60642400Y-106261000D01*
X54051200Y-111461000D02*
X52343600Y-111461000D01*
X60629800Y-113411000D02*
X61645800Y-113411000D01*
X59776200Y-113411000D02*
X60629800Y-113411000D01*
X52882800Y-113741200D02*
X52349400Y-113690400D01*
X54051200Y-113411000D02*
X53213000Y-113411000D01*
X53213000Y-113411000D02*
X52882800Y-113741200D01*
X85928200Y-173761400D02*
X92532200Y-167157400D01*
X59334400Y-167208200D02*
X60289800Y-166252800D01*
X58724800Y-165912800D02*
X59034800Y-165602800D01*
X59034800Y-165602800D02*
X70543500Y-165602800D01*
X60289800Y-166252800D02*
X70543500Y-166252800D01*
X44578000Y-154391600D02*
X44059600Y-153873200D01*
X44578000Y-156006400D02*
X44578000Y-154391600D01*
X47500200Y-154734200D02*
X47500200Y-153873200D01*
X46228000Y-156006400D02*
X47500200Y-154734200D01*
X46228000Y-157759400D02*
X46151800Y-158089600D01*
X46228000Y-156506400D02*
X46228000Y-157759400D01*
X44323000Y-157810200D02*
X44323000Y-157911800D01*
X44578000Y-157555200D02*
X44323000Y-157810200D01*
X44578000Y-156506400D02*
X44578000Y-157555200D01*
X42164000Y-156184200D02*
X40608600Y-156184200D01*
X40608600Y-156184200D02*
X39669200Y-155244800D01*
X41122600Y-156184600D02*
X40609000Y-156184600D01*
X40609000Y-156184600D02*
X39669200Y-155244800D01*
X41041400Y-156824600D02*
X40081200Y-157784800D01*
X41122600Y-156824600D02*
X41041400Y-156824600D01*
X41203400Y-157784800D02*
X39669200Y-157784800D01*
X42164000Y-156824200D02*
X41203400Y-157784800D01*
X41122600Y-156824600D02*
X42163600Y-156824600D01*
X27712400Y-157555200D02*
X27254200Y-157911800D01*
X27712400Y-156989000D02*
X27712400Y-157555200D01*
X29862000Y-156989000D02*
X30556200Y-157429200D01*
X29362400Y-156989000D02*
X29862000Y-156989000D01*
X29813398Y-156489000D02*
X31930000Y-154372398D01*
X29362400Y-156489000D02*
X29813398Y-156489000D01*
X27712400Y-156489000D02*
X27712400Y-154532400D01*
X23378200Y-156245600D02*
X22377400Y-155244800D01*
X25171400Y-156245600D02*
X23378200Y-156245600D01*
X23286800Y-156154200D02*
X22377400Y-155244800D01*
X24079200Y-156154200D02*
X23286800Y-156154200D01*
X25171400Y-156885600D02*
X24272200Y-157784800D01*
X24272200Y-157784800D02*
X22377400Y-157784800D01*
X24079200Y-156794200D02*
X23368000Y-156794200D01*
X23368000Y-156794200D02*
X22377400Y-157784800D01*
X34514000Y-146354800D02*
X33477200Y-145318000D01*
X35477400Y-146354800D02*
X34514000Y-146354800D01*
X33589000Y-146354800D02*
X32562800Y-145328600D01*
X35477400Y-146354800D02*
X33589000Y-146354800D01*
X34603600Y-144688600D02*
X35477400Y-143814800D01*
X32562800Y-144688600D02*
X34603600Y-144688600D01*
X51906000Y-144678000D02*
X52769200Y-143814800D01*
X50419000Y-144678000D02*
X51906000Y-144678000D01*
X51931400Y-144652600D02*
X52769200Y-143814800D01*
X51358800Y-144652600D02*
X51931400Y-144652600D01*
X51707000Y-145292600D02*
X52769200Y-146354800D01*
X51358800Y-145292600D02*
X51707000Y-145292600D01*
X51455800Y-146354800D02*
X52769200Y-146354800D01*
X50419000Y-145318000D02*
X51455800Y-146354800D01*
X31318200Y-141605000D02*
X31292800Y-141630400D01*
X31318200Y-139412200D02*
X31318200Y-141605000D01*
X31318200Y-138607800D02*
X31877000Y-138226800D01*
X31318200Y-138912200D02*
X31318200Y-138607800D01*
X28981400Y-138709400D02*
X29514800Y-138176000D01*
X28981400Y-139369400D02*
X28981400Y-138709400D01*
X28981400Y-139869400D02*
X27863800Y-140987000D01*
X27863800Y-140987000D02*
X27838400Y-141478000D01*
X73456800Y-170484800D02*
X73075800Y-170103800D01*
X73075800Y-170103800D02*
X72293000Y-170103800D01*
X69062600Y-170027600D02*
X68656200Y-169519600D01*
X69707800Y-170027600D02*
X69062600Y-170027600D01*
X72035000Y-166902800D02*
X72212200Y-166725600D01*
X70543500Y-166902800D02*
X72035000Y-166902800D01*
X49123600Y-139496800D02*
X49961800Y-138658600D01*
X49123600Y-139653200D02*
X49123600Y-139496800D01*
X49123600Y-142163800D02*
X48920400Y-142367000D01*
X49123600Y-140153200D02*
X49123600Y-142163800D01*
X46761400Y-138607800D02*
X47167800Y-138404600D01*
X46761400Y-139471000D02*
X46761400Y-138607800D01*
X46761400Y-141351000D02*
X45567600Y-142544800D01*
X46761400Y-139971000D02*
X46761400Y-141351000D01*
X71963400Y-164952800D02*
X72313800Y-165303200D01*
X70543500Y-164952800D02*
X71963400Y-164952800D01*
X71790200Y-164302800D02*
X72263000Y-163804600D01*
X70543500Y-164302800D02*
X71790200Y-164302800D01*
X65303400Y-140233800D02*
X65303400Y-141706600D01*
X65303400Y-141706600D02*
X66167000Y-142570200D01*
X63195200Y-142138400D02*
X62788800Y-142544800D01*
X63195200Y-140182600D02*
X63195200Y-142138400D01*
X67538600Y-144678000D02*
X69323000Y-144678000D01*
X69323000Y-144678000D02*
X70186200Y-143814800D01*
X69322600Y-144678400D02*
X70186200Y-143814800D01*
X68554600Y-144678400D02*
X69322600Y-144678400D01*
X67538600Y-145318000D02*
X68575400Y-146354800D01*
X68575400Y-146354800D02*
X70186200Y-146354800D01*
X69149800Y-145318400D02*
X70186200Y-146354800D01*
X68554600Y-145318400D02*
X69149800Y-145318400D01*
X68782600Y-163652800D02*
X68757800Y-163677600D01*
X70543500Y-163652800D02*
X68782600Y-163652800D01*
X69378400Y-163002800D02*
X69011800Y-162509200D01*
X70543500Y-163002800D02*
X69378400Y-163002800D01*
X72640000Y-162352800D02*
X72821800Y-162534600D01*
X70543500Y-162352800D02*
X72640000Y-162352800D01*
X72282000Y-161702800D02*
X72644000Y-161340800D01*
X70543500Y-161702800D02*
X72282000Y-161702800D01*
X81838800Y-138785600D02*
X82092800Y-138785600D01*
X80873600Y-139750800D02*
X81838800Y-138785600D01*
X82905600Y-141325600D02*
X82905600Y-142265400D01*
X84099000Y-140132200D02*
X82905600Y-141325600D01*
X84226400Y-140132200D02*
X84099000Y-140132200D01*
X79476600Y-141071600D02*
X79527400Y-142087600D01*
X80873600Y-140250800D02*
X80297400Y-140250800D01*
X80297400Y-140250800D02*
X79476600Y-141071600D01*
X84226400Y-139141200D02*
X83794600Y-138709400D01*
X84226400Y-139632200D02*
X84226400Y-139141200D01*
X86677400Y-144678000D02*
X87540600Y-143814800D01*
X84480400Y-144678000D02*
X86677400Y-144678000D01*
X86681600Y-144673800D02*
X87540600Y-143814800D01*
X85877400Y-144673800D02*
X86681600Y-144673800D01*
X85517200Y-146354800D02*
X87540600Y-146354800D01*
X84480400Y-145318000D02*
X85517200Y-146354800D01*
X86499600Y-145313800D02*
X87540600Y-146354800D01*
X85877400Y-145313800D02*
X86499600Y-145313800D01*
X28930600Y-173685200D02*
X28930600Y-156296536D01*
X28930600Y-156296536D02*
X30480000Y-154747136D01*
X78144800Y-163002800D02*
X78155800Y-162991800D01*
X76930200Y-161702800D02*
X77317600Y-161315400D01*
X76268500Y-161702800D02*
X76930200Y-161702800D01*
X77982000Y-162352800D02*
X78435200Y-161925000D01*
X76268500Y-162352800D02*
X77982000Y-162352800D01*
X76268500Y-163002800D02*
X78144800Y-163002800D01*
X66281300Y-155058759D02*
X66281300Y-154952700D01*
X68831771Y-157609229D02*
X66281300Y-155058759D01*
X68831771Y-158544571D02*
X68831771Y-157609229D01*
X81051400Y-160578800D02*
X79679800Y-159207200D01*
X81026000Y-160604200D02*
X81051400Y-160578800D01*
X69494400Y-159207200D02*
X68831771Y-158544571D01*
X81026000Y-164795200D02*
X81026000Y-160604200D01*
X80218400Y-165602800D02*
X81026000Y-164795200D01*
X76268500Y-165602800D02*
X80218400Y-165602800D01*
X79679800Y-159207200D02*
X69494400Y-159207200D01*
X48387000Y-157454600D02*
X47777400Y-157454600D01*
X47828200Y-156032200D02*
X47142400Y-156032200D01*
X49022000Y-157226000D02*
X47828200Y-156032200D01*
X51531000Y-160598600D02*
X48387000Y-157454600D01*
X78714600Y-160598600D02*
X51531000Y-160598600D01*
X78714600Y-160629600D02*
X78714600Y-160598600D01*
X79248000Y-161163000D02*
X78714600Y-160629600D01*
X78943200Y-163703000D02*
X79248000Y-163398200D01*
X79248000Y-163398200D02*
X79248000Y-161163000D01*
X76268500Y-163652800D02*
X78893000Y-163652800D01*
X78893000Y-163652800D02*
X78943200Y-163703000D01*
X49022000Y-157327600D02*
X49022000Y-157226000D01*
X51257200Y-159562800D02*
X49022000Y-157327600D01*
X60223400Y-159562800D02*
X51257200Y-159562800D01*
X60909200Y-160248600D02*
X60223400Y-159562800D01*
X79324200Y-160248600D02*
X60909200Y-160248600D01*
X79730600Y-160655000D02*
X79324200Y-160248600D01*
X79730600Y-163957000D02*
X79730600Y-160655000D01*
X79384800Y-164302800D02*
X79730600Y-163957000D01*
X76268500Y-164302800D02*
X79384800Y-164302800D01*
X80004800Y-164952800D02*
X76268500Y-164952800D01*
X80365600Y-164592000D02*
X80004800Y-164952800D01*
X80365600Y-160680400D02*
X80365600Y-164592000D01*
X79400400Y-159715200D02*
X80365600Y-160680400D01*
X67564000Y-157734000D02*
X67564000Y-158800800D01*
X67564000Y-158800800D02*
X68478400Y-159715200D01*
X68478400Y-159715200D02*
X79400400Y-159715200D01*
X82982400Y-166902800D02*
X76268500Y-166902800D01*
X83007200Y-166878000D02*
X82982400Y-166902800D01*
X82743400Y-166252800D02*
X76268500Y-166252800D01*
X83108800Y-165887400D02*
X82743400Y-166252800D01*
X77721800Y-150164800D02*
X74440600Y-150164800D01*
X81735000Y-154178000D02*
X77721800Y-150164800D01*
X75913800Y-154178000D02*
X74440600Y-152704800D01*
X78255200Y-154178000D02*
X75913800Y-154178000D01*
X64693800Y-157200600D02*
X63830200Y-158064200D01*
X64693800Y-156912800D02*
X64693800Y-157200600D01*
X58562200Y-157784800D02*
X57086200Y-157784800D01*
X59385200Y-156961800D02*
X58562200Y-157784800D01*
X58572400Y-156987200D02*
X57883800Y-156987200D01*
X57883800Y-156987200D02*
X57086200Y-157784800D01*
X58163200Y-156321800D02*
X57086200Y-155244800D01*
X59385200Y-156321800D02*
X58163200Y-156321800D01*
X58188600Y-156347200D02*
X57086200Y-155244800D01*
X58572400Y-156347200D02*
X58188600Y-156347200D01*
X63283000Y-153707000D02*
X59740800Y-150164800D01*
X59740800Y-150164800D02*
X57086200Y-150164800D01*
X63283000Y-154457400D02*
X63283000Y-153707000D01*
X58889600Y-154508200D02*
X57086200Y-152704800D01*
X59817000Y-154508200D02*
X58889600Y-154508200D01*
X61239400Y-156438200D02*
X61239400Y-154535800D01*
X64693800Y-154496600D02*
X64733000Y-154457400D01*
X64693800Y-156412800D02*
X64693800Y-154496600D01*
X61239400Y-157454600D02*
X60629800Y-157937200D01*
X61239400Y-156938200D02*
X61239400Y-157454600D01*
X79705200Y-155964400D02*
X79705200Y-154178000D01*
X79100000Y-156569600D02*
X79705200Y-155964400D01*
X83261200Y-156616000D02*
X83261200Y-154254200D01*
X83261200Y-157302200D02*
X82727800Y-157835600D01*
X83261200Y-157116000D02*
X83261200Y-157302200D01*
X75684800Y-156489000D02*
X74440600Y-155244800D01*
X75844400Y-156489000D02*
X75684800Y-156489000D01*
X75590800Y-155244800D02*
X74440600Y-155244800D01*
X76835000Y-156489000D02*
X75590800Y-155244800D01*
X79100000Y-157120000D02*
X78511400Y-157810200D01*
X76179200Y-157784800D02*
X74440600Y-157784800D01*
X76835000Y-157129000D02*
X76179200Y-157784800D01*
X75096400Y-157129000D02*
X74440600Y-157784800D01*
X75844400Y-157129000D02*
X75096400Y-157129000D01*
X72593200Y-168148000D02*
X70598300Y-168148000D01*
X75514200Y-171069000D02*
X72593200Y-168148000D01*
X84353400Y-171069000D02*
X75514200Y-171069000D01*
X84353400Y-171094400D02*
X84353400Y-171069000D01*
X85928200Y-172669200D02*
X84353400Y-171094400D01*
X85928200Y-173761400D02*
X85928200Y-172669200D01*
X84099400Y-175590200D02*
X85928200Y-173761400D01*
X80097402Y-175590200D02*
X84099400Y-175590200D01*
X79222600Y-176465002D02*
X80097402Y-175590200D01*
X67564000Y-168300400D02*
X68311600Y-167552800D01*
X67640200Y-170281600D02*
X67640200Y-168376600D01*
X67640200Y-168376600D02*
X67564000Y-168300400D01*
X78192800Y-173024800D02*
X70383400Y-173024800D01*
X68311600Y-167552800D02*
X70543500Y-167552800D01*
X79132600Y-173964600D02*
X78192800Y-173024800D01*
X70383400Y-173024800D02*
X67640200Y-170281600D01*
X77851000Y-177723800D02*
X77647800Y-177927000D01*
X77647800Y-177927000D02*
X77647800Y-185826400D01*
X77851000Y-175246200D02*
X77851000Y-177723800D01*
X79132600Y-173964600D02*
X77851000Y-175246200D01*
X79222600Y-184861200D02*
X80187800Y-185826400D01*
X79222600Y-176733200D02*
X79222600Y-184861200D01*
X82325400Y-176758600D02*
X80698000Y-176758600D01*
X82304000Y-174015400D02*
X80633400Y-174015400D01*
X82804000Y-174015400D02*
X83997800Y-174040800D01*
X82825400Y-176758600D02*
X84124800Y-176758600D01*
X74599800Y-168021000D02*
X74781600Y-168202800D01*
X74599800Y-168021000D02*
X74617200Y-168021000D01*
X74781600Y-168202800D02*
X76268500Y-168202800D01*
X74617200Y-168021000D02*
X74799000Y-168202800D01*
X74911000Y-168852800D02*
X74853800Y-168910000D01*
X76268500Y-168852800D02*
X74911000Y-168852800D01*
X71653000Y-170993200D02*
X71526400Y-171119800D01*
X71653000Y-170103800D02*
X71653000Y-170993200D01*
X70347800Y-170027600D02*
X71576800Y-170027600D01*
X70347800Y-169048500D02*
X70543500Y-168852800D01*
X70347800Y-170027600D02*
X70347800Y-169048500D01*
X71653000Y-169088200D02*
X71882000Y-168859200D01*
X71653000Y-170103800D02*
X71653000Y-169088200D01*
X71875600Y-168852800D02*
X71882000Y-168859200D01*
X70543500Y-168852800D02*
X71875600Y-168852800D01*
M02*
