%TF.GenerationSoftware,KiCad,Pcbnew,7.0.1*%
%TF.CreationDate,2024-07-12T17:00:14-07:00*%
%TF.ProjectId,air_foil_pcb,6169725f-666f-4696-9c5f-7063622e6b69,rev?*%
%TF.SameCoordinates,Original*%
%TF.FileFunction,Drillmap*%
%TF.FilePolarity,Positive*%
%FSLAX45Y45*%
G04 Gerber Fmt 4.5, Leading zero omitted, Abs format (unit mm)*
G04 Created by KiCad (PCBNEW 7.0.1) date 2024-07-12 17:00:14*
%MOMM*%
%LPD*%
G01*
G04 APERTURE LIST*
%ADD10C,0.100000*%
%ADD11C,0.200000*%
%ADD12C,0.040000*%
%ADD13C,0.080000*%
G04 APERTURE END LIST*
D10*
X9723120Y-1983740D02*
X2103120Y-1983740D01*
X2103120Y-19001740D01*
X9723120Y-19001740D01*
X9723120Y-1983740D01*
D11*
D12*
X2413320Y-4488500D02*
X2453320Y-4528500D01*
X2453320Y-4488500D02*
X2413320Y-4528500D01*
X2438720Y-5943920D02*
X2478720Y-5983920D01*
X2478720Y-5943920D02*
X2438720Y-5983920D01*
X2441260Y-5697540D02*
X2481260Y-5737540D01*
X2481260Y-5697540D02*
X2441260Y-5737540D01*
X2542860Y-3718880D02*
X2582860Y-3758880D01*
X2582860Y-3718880D02*
X2542860Y-3758880D01*
X2550480Y-3528380D02*
X2590480Y-3568380D01*
X2590480Y-3528380D02*
X2550480Y-3568380D01*
X2598740Y-11740200D02*
X2638740Y-11780200D01*
X2638740Y-11740200D02*
X2598740Y-11780200D01*
X2654620Y-12088180D02*
X2694620Y-12128180D01*
X2694620Y-12088180D02*
X2654620Y-12128180D01*
X2705420Y-15771180D02*
X2745420Y-15811180D01*
X2745420Y-15771180D02*
X2705420Y-15811180D01*
X2723200Y-5255580D02*
X2763200Y-5295580D01*
X2763200Y-5255580D02*
X2723200Y-5295580D01*
X2763840Y-14127800D02*
X2803840Y-14167800D01*
X2803840Y-14127800D02*
X2763840Y-14167800D01*
X2779080Y-13416600D02*
X2819080Y-13456600D01*
X2819080Y-13416600D02*
X2779080Y-13456600D01*
X2809560Y-6721160D02*
X2849560Y-6761160D01*
X2849560Y-6721160D02*
X2809560Y-6761160D01*
X2832420Y-6238560D02*
X2872420Y-6278560D01*
X2872420Y-6238560D02*
X2832420Y-6278560D01*
X2852650Y-5966780D02*
X2892650Y-6006780D01*
X2892650Y-5966780D02*
X2852650Y-6006780D01*
X2857820Y-3756980D02*
X2897820Y-3796980D01*
X2897820Y-3756980D02*
X2857820Y-3796980D01*
X2873060Y-3459800D02*
X2913060Y-3499800D01*
X2913060Y-3459800D02*
X2873060Y-3499800D01*
X2873060Y-17348520D02*
X2913060Y-17388520D01*
X2913060Y-17348520D02*
X2873060Y-17388520D01*
X2895920Y-12075480D02*
X2935920Y-12115480D01*
X2935920Y-12075480D02*
X2895920Y-12115480D01*
X2931480Y-13797600D02*
X2971480Y-13837600D01*
X2971480Y-13797600D02*
X2931480Y-13837600D01*
X2949260Y-11745280D02*
X2989260Y-11785280D01*
X2989260Y-11745280D02*
X2949260Y-11785280D01*
X2989900Y-13348020D02*
X3029900Y-13388020D01*
X3029900Y-13348020D02*
X2989900Y-13388020D01*
X3035620Y-15722920D02*
X3075620Y-15762920D01*
X3075620Y-15722920D02*
X3035620Y-15762920D01*
X3061020Y-5245420D02*
X3101020Y-5285420D01*
X3101020Y-5245420D02*
X3061020Y-5285420D01*
X3109280Y-14143040D02*
X3149280Y-14183040D01*
X3149280Y-14143040D02*
X3109280Y-14183040D01*
X3167700Y-12928920D02*
X3207700Y-12968920D01*
X3207700Y-12928920D02*
X3167700Y-12968920D01*
X3167700Y-13802680D02*
X3207700Y-13842680D01*
X3207700Y-13802680D02*
X3167700Y-13842680D01*
X3170240Y-6764340D02*
X3210240Y-6804340D01*
X3210240Y-6764340D02*
X3170240Y-6804340D01*
X3350580Y-11404920D02*
X3390580Y-11444920D01*
X3390580Y-11404920D02*
X3350580Y-11444920D01*
X3551240Y-7772720D02*
X3591240Y-7812720D01*
X3591240Y-7772720D02*
X3551240Y-7812720D01*
X3558860Y-7876860D02*
X3598860Y-7916860D01*
X3598860Y-7876860D02*
X3558860Y-7916860D01*
X3663000Y-7940360D02*
X3703000Y-7980360D01*
X3703000Y-7940360D02*
X3663000Y-7980360D01*
X3988120Y-7932740D02*
X4028120Y-7972740D01*
X4028120Y-7932740D02*
X3988120Y-7972740D01*
X4054160Y-3823020D02*
X4094160Y-3863020D01*
X4094160Y-3823020D02*
X4054160Y-3863020D01*
X4079560Y-3505520D02*
X4119560Y-3545520D01*
X4119560Y-3505520D02*
X4079560Y-3545520D01*
X4171000Y-5982020D02*
X4211000Y-6022020D01*
X4211000Y-5982020D02*
X4171000Y-6022020D01*
X4181160Y-5730560D02*
X4221160Y-5770560D01*
X4221160Y-5730560D02*
X4181160Y-5770560D01*
X4262440Y-12146600D02*
X4302440Y-12186600D01*
X4302440Y-12146600D02*
X4262440Y-12186600D01*
X4267520Y-11755440D02*
X4307520Y-11795440D01*
X4307520Y-11755440D02*
X4267520Y-11795440D01*
X4333560Y-5255580D02*
X4373560Y-5295580D01*
X4373560Y-5255580D02*
X4333560Y-5295580D01*
X4412300Y-15771180D02*
X4452300Y-15811180D01*
X4452300Y-15771180D02*
X4412300Y-15811180D01*
X4435160Y-3708720D02*
X4475160Y-3748720D01*
X4475160Y-3708720D02*
X4435160Y-3748720D01*
X4445320Y-3426780D02*
X4485320Y-3466780D01*
X4485320Y-3426780D02*
X4445320Y-3466780D01*
X4465640Y-6716080D02*
X4505640Y-6756080D01*
X4505640Y-6716080D02*
X4465640Y-6756080D01*
X4536760Y-14234480D02*
X4576760Y-14274480D01*
X4576760Y-14234480D02*
X4536760Y-14274480D01*
X4554450Y-6101400D02*
X4594450Y-6141400D01*
X4594450Y-6101400D02*
X4554450Y-6141400D01*
X4554670Y-5844860D02*
X4594670Y-5884860D01*
X4594670Y-5844860D02*
X4554670Y-5884860D01*
X4577400Y-13406440D02*
X4617400Y-13446440D01*
X4617400Y-13406440D02*
X4577400Y-13446440D01*
X4595180Y-15788960D02*
X4635180Y-15828960D01*
X4635180Y-15788960D02*
X4595180Y-15828960D01*
X4628200Y-12144060D02*
X4668200Y-12184060D01*
X4668200Y-12144060D02*
X4628200Y-12184060D01*
X4635820Y-11768140D02*
X4675820Y-11808140D01*
X4675820Y-11768140D02*
X4635820Y-11808140D01*
X4663760Y-5331780D02*
X4703760Y-5371780D01*
X4703760Y-5331780D02*
X4663760Y-5371780D01*
X4694240Y-15583220D02*
X4734240Y-15623220D01*
X4734240Y-15583220D02*
X4694240Y-15623220D01*
X4696780Y-13820460D02*
X4736780Y-13860460D01*
X4736780Y-13820460D02*
X4696780Y-13860460D01*
X4757740Y-15725460D02*
X4797740Y-15765460D01*
X4797740Y-15725460D02*
X4757740Y-15765460D01*
X4785680Y-11506520D02*
X4825680Y-11546520D01*
X4825680Y-11506520D02*
X4785680Y-11546520D01*
X4798380Y-6713540D02*
X4838380Y-6753540D01*
X4838380Y-6713540D02*
X4798380Y-6753540D01*
X4826320Y-13419140D02*
X4866320Y-13459140D01*
X4866320Y-13419140D02*
X4826320Y-13459140D01*
X4872040Y-14216700D02*
X4912040Y-14256700D01*
X4912040Y-14216700D02*
X4872040Y-14256700D01*
X4958400Y-7594920D02*
X4998400Y-7634920D01*
X4998400Y-7594920D02*
X4958400Y-7634920D01*
X4976180Y-13845860D02*
X5016180Y-13885860D01*
X5016180Y-13845860D02*
X4976180Y-13885860D01*
X5039680Y-7757480D02*
X5079680Y-7797480D01*
X5079680Y-7757480D02*
X5039680Y-7797480D01*
X5060000Y-10797860D02*
X5100000Y-10837860D01*
X5100000Y-10797860D02*
X5060000Y-10837860D01*
X5062540Y-10927400D02*
X5102540Y-10967400D01*
X5102540Y-10927400D02*
X5062540Y-10967400D01*
X5197160Y-8491540D02*
X5237160Y-8531540D01*
X5237160Y-8491540D02*
X5197160Y-8531540D01*
X5212400Y-11128060D02*
X5252400Y-11168060D01*
X5252400Y-11128060D02*
X5212400Y-11168060D01*
X5214940Y-11349040D02*
X5254940Y-11389040D01*
X5254940Y-11349040D02*
X5214940Y-11389040D01*
X5220020Y-8737920D02*
X5260020Y-8777920D01*
X5260020Y-8737920D02*
X5220020Y-8777920D01*
X5441000Y-6472240D02*
X5481000Y-6512240D01*
X5481000Y-6472240D02*
X5441000Y-6512240D01*
X5453700Y-11925620D02*
X5493700Y-11965620D01*
X5493700Y-11925620D02*
X5453700Y-11965620D01*
X5545140Y-8057200D02*
X5585140Y-8097200D01*
X5585140Y-8057200D02*
X5545140Y-8097200D01*
X5552760Y-10890570D02*
X5592760Y-10930570D01*
X5592760Y-10890570D02*
X5552760Y-10930570D01*
X5557840Y-11920540D02*
X5597840Y-11960540D01*
X5597840Y-11920540D02*
X5557840Y-11960540D01*
X5570540Y-8168960D02*
X5610540Y-8208960D01*
X5610540Y-8168960D02*
X5570540Y-8208960D01*
X5595940Y-7650800D02*
X5635940Y-7690800D01*
X5635940Y-7650800D02*
X5595940Y-7690800D01*
X5611180Y-7749860D02*
X5651180Y-7789860D01*
X5651180Y-7749860D02*
X5611180Y-7789860D01*
X5664520Y-10886760D02*
X5704520Y-10926760D01*
X5704520Y-10886760D02*
X5664520Y-10926760D01*
X5669600Y-3472500D02*
X5709600Y-3512500D01*
X5709600Y-3472500D02*
X5669600Y-3512500D01*
X5669600Y-3729040D02*
X5709600Y-3769040D01*
X5709600Y-3729040D02*
X5669600Y-3769040D01*
X5677220Y-8461060D02*
X5717220Y-8501060D01*
X5717220Y-8461060D02*
X5677220Y-8501060D01*
X5700080Y-10995980D02*
X5740080Y-11035980D01*
X5740080Y-10995980D02*
X5700080Y-11035980D01*
X5783900Y-7940360D02*
X5823900Y-7980360D01*
X5823900Y-7940360D02*
X5783900Y-7980360D01*
X5788980Y-8471220D02*
X5828980Y-8511220D01*
X5828980Y-8471220D02*
X5788980Y-8511220D01*
X5799140Y-11204260D02*
X5839140Y-11244260D01*
X5839140Y-11204260D02*
X5799140Y-11244260D01*
X5819460Y-8080060D02*
X5859460Y-8120060D01*
X5859460Y-8080060D02*
X5819460Y-8120060D01*
X5822000Y-10965500D02*
X5862000Y-11005500D01*
X5862000Y-10965500D02*
X5822000Y-11005500D01*
X5852480Y-16571280D02*
X5892480Y-16611280D01*
X5892480Y-16571280D02*
X5852480Y-16611280D01*
X5890580Y-7836220D02*
X5930580Y-7876220D01*
X5930580Y-7836220D02*
X5890580Y-7876220D01*
X5913440Y-16700820D02*
X5953440Y-16740820D01*
X5953440Y-16700820D02*
X5913440Y-16740820D01*
X5954080Y-5255580D02*
X5994080Y-5295580D01*
X5994080Y-5255580D02*
X5954080Y-5295580D01*
X5961700Y-6035360D02*
X6001700Y-6075360D01*
X6001700Y-6035360D02*
X5961700Y-6075360D01*
X5969320Y-5773740D02*
X6009320Y-5813740D01*
X6009320Y-5773740D02*
X5969320Y-5813740D01*
X5984560Y-3490280D02*
X6024560Y-3530280D01*
X6024560Y-3490280D02*
X5984560Y-3530280D01*
X5984560Y-3749360D02*
X6024560Y-3789360D01*
X6024560Y-3749360D02*
X5984560Y-3789360D01*
X6042980Y-15773720D02*
X6082980Y-15813720D01*
X6082980Y-15773720D02*
X6042980Y-15813720D01*
X6050600Y-11775760D02*
X6090600Y-11815760D01*
X6090600Y-11775760D02*
X6050600Y-11815760D01*
X6060760Y-12111040D02*
X6100760Y-12151040D01*
X6100760Y-12111040D02*
X6060760Y-12151040D01*
X6098860Y-8664260D02*
X6138860Y-8704260D01*
X6138860Y-8664260D02*
X6098860Y-8704260D01*
X6111560Y-10538780D02*
X6151560Y-10578780D01*
X6151560Y-10538780D02*
X6111560Y-10578780D01*
X6124260Y-11321100D02*
X6164260Y-11361100D01*
X6164260Y-11321100D02*
X6124260Y-11361100D01*
X6136960Y-10815640D02*
X6176960Y-10855640D01*
X6176960Y-10815640D02*
X6136960Y-10855640D01*
X6175060Y-5220020D02*
X6215060Y-5260020D01*
X6215060Y-5220020D02*
X6175060Y-5260020D01*
X6175060Y-6721160D02*
X6215060Y-6761160D01*
X6215060Y-6721160D02*
X6175060Y-6761160D01*
X6215700Y-7312980D02*
X6255700Y-7352980D01*
X6255700Y-7312980D02*
X6215700Y-7352980D01*
X6223320Y-8598220D02*
X6263320Y-8638220D01*
X6263320Y-8598220D02*
X6223320Y-8638220D01*
X6223320Y-10772460D02*
X6263320Y-10812460D01*
X6263320Y-10772460D02*
X6223320Y-10812460D01*
X6225860Y-13838240D02*
X6265860Y-13878240D01*
X6265860Y-13838240D02*
X6225860Y-13878240D01*
X6238560Y-13444540D02*
X6278560Y-13484540D01*
X6278560Y-13444540D02*
X6238560Y-13484540D01*
X6246180Y-11590340D02*
X6286180Y-11630340D01*
X6286180Y-11590340D02*
X6246180Y-11630340D01*
X6258880Y-14234480D02*
X6298880Y-14274480D01*
X6298880Y-14234480D02*
X6258880Y-14274480D01*
X6283030Y-6149660D02*
X6323030Y-6189660D01*
X6323030Y-6149660D02*
X6283030Y-6189660D01*
X6285570Y-5875340D02*
X6325570Y-5915340D01*
X6325570Y-5875340D02*
X6285570Y-5915340D01*
X6291900Y-10508300D02*
X6331900Y-10548300D01*
X6331900Y-10508300D02*
X6291900Y-10548300D01*
X6363020Y-15786420D02*
X6403020Y-15826420D01*
X6403020Y-15786420D02*
X6363020Y-15826420D01*
X6390960Y-11783380D02*
X6430960Y-11823380D01*
X6430960Y-11783380D02*
X6390960Y-11823380D01*
X6411280Y-10498140D02*
X6451280Y-10538140D01*
X6451280Y-10498140D02*
X6411280Y-10538140D01*
X6433223Y-11302279D02*
X6473223Y-11342279D01*
X6473223Y-11302279D02*
X6433223Y-11342279D01*
X6434140Y-13464860D02*
X6474140Y-13504860D01*
X6474140Y-13464860D02*
X6434140Y-13504860D01*
X6449380Y-7353620D02*
X6489380Y-7393620D01*
X6489380Y-7353620D02*
X6449380Y-7393620D01*
X6462080Y-12090720D02*
X6502080Y-12130720D01*
X6502080Y-12090720D02*
X6462080Y-12130720D01*
X6490020Y-10574340D02*
X6530020Y-10614340D01*
X6530020Y-10574340D02*
X6490020Y-10614340D01*
X6548440Y-6695760D02*
X6588440Y-6735760D01*
X6588440Y-6695760D02*
X6548440Y-6735760D01*
X6596700Y-14237020D02*
X6636700Y-14277020D01*
X6636700Y-14237020D02*
X6596700Y-14277020D01*
X6608130Y-15475270D02*
X6648130Y-15515270D01*
X6648130Y-15475270D02*
X6608130Y-15515270D01*
X6609400Y-10543860D02*
X6649400Y-10583860D01*
X6649400Y-10543860D02*
X6609400Y-10583860D01*
X6619560Y-13815380D02*
X6659560Y-13855380D01*
X6659560Y-13815380D02*
X6619560Y-13855380D01*
X6652580Y-7716840D02*
X6692580Y-7756840D01*
X6692580Y-7716840D02*
X6652580Y-7756840D01*
X6736400Y-15753400D02*
X6776400Y-15793400D01*
X6776400Y-15753400D02*
X6736400Y-15793400D01*
X6787200Y-7643180D02*
X6827200Y-7683180D01*
X6827200Y-7643180D02*
X6787200Y-7683180D01*
X6845620Y-16931960D02*
X6885620Y-16971960D01*
X6885620Y-16931960D02*
X6845620Y-16971960D01*
X6855780Y-16347760D02*
X6895780Y-16387760D01*
X6895780Y-16347760D02*
X6855780Y-16387760D01*
X6881180Y-16230920D02*
X6921180Y-16270920D01*
X6921180Y-16230920D02*
X6881180Y-16270920D01*
X7013260Y-8034340D02*
X7053260Y-8074340D01*
X7053260Y-8034340D02*
X7013260Y-8074340D01*
X7112320Y-8100380D02*
X7152320Y-8140380D01*
X7152320Y-8100380D02*
X7112320Y-8140380D01*
X7132640Y-17091980D02*
X7172640Y-17131980D01*
X7172640Y-17091980D02*
X7132640Y-17131980D01*
X7168200Y-16865920D02*
X7208200Y-16905920D01*
X7208200Y-16865920D02*
X7168200Y-16905920D01*
X7180900Y-11984040D02*
X7220900Y-12024040D01*
X7220900Y-11984040D02*
X7180900Y-12024040D01*
X7201220Y-16652560D02*
X7241220Y-16692560D01*
X7241220Y-16652560D02*
X7201220Y-16692560D01*
X7206300Y-16360460D02*
X7246300Y-16400460D01*
X7246300Y-16360460D02*
X7206300Y-16400460D01*
X7211380Y-4371660D02*
X7251380Y-4411660D01*
X7251380Y-4371660D02*
X7211380Y-4411660D01*
X7211380Y-16510320D02*
X7251380Y-16550320D01*
X7251380Y-16510320D02*
X7211380Y-16550320D01*
X7244400Y-16114080D02*
X7284400Y-16154080D01*
X7284400Y-16114080D02*
X7244400Y-16154080D01*
X7262180Y-16233460D02*
X7302180Y-16273460D01*
X7302180Y-16233460D02*
X7262180Y-16273460D01*
X7287580Y-3698560D02*
X7327580Y-3738560D01*
X7327580Y-3698560D02*
X7287580Y-3738560D01*
X7287580Y-4496120D02*
X7327580Y-4536120D01*
X7327580Y-4496120D02*
X7287580Y-4536120D01*
X7300280Y-3447100D02*
X7340280Y-3487100D01*
X7340280Y-3447100D02*
X7300280Y-3487100D01*
X7325680Y-3967800D02*
X7365680Y-4007800D01*
X7365680Y-3967800D02*
X7325680Y-4007800D01*
X7325680Y-17028480D02*
X7365680Y-17068480D01*
X7365680Y-17028480D02*
X7325680Y-17068480D01*
X7419660Y-4679000D02*
X7459660Y-4719000D01*
X7459660Y-4679000D02*
X7419660Y-4719000D01*
X7439980Y-16782100D02*
X7479980Y-16822100D01*
X7479980Y-16782100D02*
X7439980Y-16822100D01*
X7465380Y-16871000D02*
X7505380Y-16911000D01*
X7505380Y-16871000D02*
X7465380Y-16911000D01*
X7523800Y-17404400D02*
X7563800Y-17444400D01*
X7563800Y-17404400D02*
X7523800Y-17444400D01*
X7600000Y-5126040D02*
X7640000Y-5166040D01*
X7640000Y-5126040D02*
X7600000Y-5166040D01*
X7643180Y-11483660D02*
X7683180Y-11523660D01*
X7683180Y-11483660D02*
X7643180Y-11523660D01*
X7645720Y-3721420D02*
X7685720Y-3761420D01*
X7685720Y-3721420D02*
X7645720Y-3761420D01*
X7650800Y-3439480D02*
X7690800Y-3479480D01*
X7690800Y-3439480D02*
X7650800Y-3479480D01*
X7709220Y-6032820D02*
X7749220Y-6072820D01*
X7749220Y-6032820D02*
X7709220Y-6072820D01*
X7711760Y-16111540D02*
X7751760Y-16151540D01*
X7751760Y-16111540D02*
X7711760Y-16151540D01*
X7716840Y-5735640D02*
X7756840Y-5775640D01*
X7756840Y-5735640D02*
X7716840Y-5775640D01*
X7737160Y-11656380D02*
X7777160Y-11696380D01*
X7777160Y-11656380D02*
X7737160Y-11696380D01*
X7795580Y-16279180D02*
X7835580Y-16319180D01*
X7835580Y-16279180D02*
X7795580Y-16319180D01*
X7818440Y-16804960D02*
X7858440Y-16844960D01*
X7858440Y-16804960D02*
X7818440Y-16844960D01*
X7823520Y-16172500D02*
X7863520Y-16212500D01*
X7863520Y-16172500D02*
X7823520Y-16212500D01*
X7828600Y-6685600D02*
X7868600Y-6725600D01*
X7868600Y-6685600D02*
X7828600Y-6725600D01*
X7831140Y-15761020D02*
X7871140Y-15801020D01*
X7871140Y-15761020D02*
X7831140Y-15801020D01*
X7894640Y-5115880D02*
X7934640Y-5155880D01*
X7934640Y-5115880D02*
X7894640Y-5155880D01*
X7907340Y-4577400D02*
X7947340Y-4617400D01*
X7947340Y-4577400D02*
X7907340Y-4617400D01*
X7932740Y-14188760D02*
X7972740Y-14228760D01*
X7972740Y-14188760D02*
X7932740Y-14228760D01*
X7973380Y-13358180D02*
X8013380Y-13398180D01*
X8013380Y-13358180D02*
X7973380Y-13398180D01*
X8036790Y-5908360D02*
X8076790Y-5948360D01*
X8076790Y-5908360D02*
X8036790Y-5948360D01*
X8036790Y-6185220D02*
X8076790Y-6225220D01*
X8076790Y-6185220D02*
X8036790Y-6225220D01*
X8082600Y-11664000D02*
X8122600Y-11704000D01*
X8122600Y-11664000D02*
X8082600Y-11704000D01*
X8095300Y-10388920D02*
X8135300Y-10428920D01*
X8135300Y-10388920D02*
X8095300Y-10428920D01*
X8163880Y-10267000D02*
X8203880Y-10307000D01*
X8203880Y-10267000D02*
X8163880Y-10307000D01*
X8189280Y-13858560D02*
X8229280Y-13898560D01*
X8229280Y-13858560D02*
X8189280Y-13898560D01*
X8212140Y-6700840D02*
X8252140Y-6740840D01*
X8252140Y-6700840D02*
X8212140Y-6740840D01*
X8252780Y-15763560D02*
X8292780Y-15803560D01*
X8292780Y-15763560D02*
X8252780Y-15803560D01*
X8265480Y-11463340D02*
X8305480Y-11503340D01*
X8305480Y-11463340D02*
X8265480Y-11503340D01*
X8270560Y-14206540D02*
X8310560Y-14246540D01*
X8310560Y-14206540D02*
X8270560Y-14246540D01*
X8280720Y-16667800D02*
X8320720Y-16707800D01*
X8320720Y-16667800D02*
X8280720Y-16707800D01*
X8290880Y-16568740D02*
X8330880Y-16608740D01*
X8330880Y-16568740D02*
X8290880Y-16608740D01*
X8313740Y-13340400D02*
X8353740Y-13380400D01*
X8353740Y-13340400D02*
X8313740Y-13380400D01*
X8358190Y-10882950D02*
X8398190Y-10922950D01*
X8398190Y-10882950D02*
X8358190Y-10922950D01*
X8359460Y-13850940D02*
X8399460Y-13890940D01*
X8399460Y-13850940D02*
X8359460Y-13890940D01*
X8379780Y-17384080D02*
X8419780Y-17424080D01*
X8419780Y-17384080D02*
X8379780Y-17424080D01*
X8392480Y-17655860D02*
X8432480Y-17695860D01*
X8432480Y-17655860D02*
X8392480Y-17695860D01*
X8417880Y-8633780D02*
X8457880Y-8673780D01*
X8457880Y-8633780D02*
X8417880Y-8673780D01*
X8458520Y-16835440D02*
X8498520Y-16875440D01*
X8498520Y-16835440D02*
X8458520Y-16875440D01*
X8506780Y-10632760D02*
X8546780Y-10672760D01*
X8546780Y-10632760D02*
X8506780Y-10672760D01*
X8534720Y-10868980D02*
X8574720Y-10908980D01*
X8574720Y-10868980D02*
X8534720Y-10908980D01*
X8600760Y-4323400D02*
X8640760Y-4363400D01*
X8640760Y-4323400D02*
X8600760Y-4363400D01*
X8737920Y-3952560D02*
X8777920Y-3992560D01*
X8777920Y-3952560D02*
X8737920Y-3992560D01*
X8748080Y-4071940D02*
X8788080Y-4111940D01*
X8788080Y-4071940D02*
X8748080Y-4111940D01*
X8765860Y-4488500D02*
X8805860Y-4528500D01*
X8805860Y-4488500D02*
X8765860Y-4528500D01*
X8786180Y-5153980D02*
X8826180Y-5193980D01*
X8826180Y-5153980D02*
X8786180Y-5193980D01*
X8786180Y-5268280D02*
X8826180Y-5308280D01*
X8826180Y-5268280D02*
X8786180Y-5308280D01*
X8796340Y-3830640D02*
X8836340Y-3870640D01*
X8836340Y-3830640D02*
X8796340Y-3870640D01*
X8811580Y-8702360D02*
X8851580Y-8742360D01*
X8851580Y-8702360D02*
X8811580Y-8742360D01*
X8870000Y-10841040D02*
X8910000Y-10881040D01*
X8910000Y-10841040D02*
X8870000Y-10881040D01*
X8897940Y-4384360D02*
X8937940Y-4424360D01*
X8937940Y-4384360D02*
X8897940Y-4424360D01*
X8984300Y-4414840D02*
X9024300Y-4454840D01*
X9024300Y-4414840D02*
X8984300Y-4454840D01*
X9121460Y-3965260D02*
X9161460Y-4005260D01*
X9161460Y-3965260D02*
X9121460Y-4005260D01*
X9174800Y-4051620D02*
X9214800Y-4091620D01*
X9214800Y-4051620D02*
X9174800Y-4091620D01*
X9215440Y-3668080D02*
X9255440Y-3708080D01*
X9255440Y-3668080D02*
X9215440Y-3708080D01*
X9224330Y-4601530D02*
X9264330Y-4641530D01*
X9264330Y-4601530D02*
X9224330Y-4641530D01*
X9241890Y-3909380D02*
X9281890Y-3949380D01*
X9281890Y-3909380D02*
X9241890Y-3949380D01*
X9261160Y-5006660D02*
X9301160Y-5046660D01*
X9301160Y-5006660D02*
X9261160Y-5046660D01*
X9263991Y-4473551D02*
X9303991Y-4513551D01*
X9303991Y-4473551D02*
X9263991Y-4513551D01*
X9322120Y-11117900D02*
X9362120Y-11157900D01*
X9362120Y-11117900D02*
X9322120Y-11157900D01*
X9324660Y-4615500D02*
X9364660Y-4655500D01*
X9364660Y-4615500D02*
X9324660Y-4655500D01*
X9342440Y-8979220D02*
X9382440Y-9019220D01*
X9382440Y-8979220D02*
X9342440Y-9019220D01*
X9352600Y-8641400D02*
X9392600Y-8681400D01*
X9392600Y-8641400D02*
X9352600Y-8681400D01*
X9357680Y-10790240D02*
X9397680Y-10830240D01*
X9397680Y-10790240D02*
X9357680Y-10830240D01*
X9365300Y-3663000D02*
X9405300Y-3703000D01*
X9405300Y-3663000D02*
X9365300Y-3703000D01*
X9405940Y-4684080D02*
X9445940Y-4724080D01*
X9445940Y-4684080D02*
X9405940Y-4724080D01*
X9433880Y-5359720D02*
X9473880Y-5399720D01*
X9473880Y-5359720D02*
X9433880Y-5399720D01*
X9441500Y-3812860D02*
X9481500Y-3852860D01*
X9481500Y-3812860D02*
X9441500Y-3852860D01*
X9492300Y-4056700D02*
X9532300Y-4096700D01*
X9532300Y-4056700D02*
X9492300Y-4096700D01*
X9497380Y-4427540D02*
X9537380Y-4467540D01*
X9537380Y-4427540D02*
X9497380Y-4467540D01*
X9520240Y-4999040D02*
X9560240Y-5039040D01*
X9560240Y-4999040D02*
X9520240Y-5039040D01*
D13*
X2254960Y-3501340D02*
G75*
G03*
X2254960Y-3501340I-40000J0D01*
G01*
X2254960Y-3755340D02*
G75*
G03*
X2254960Y-3755340I-40000J0D01*
G01*
X2254960Y-4009340D02*
G75*
G03*
X2254960Y-4009340I-40000J0D01*
G01*
X2254960Y-4263340D02*
G75*
G03*
X2254960Y-4263340I-40000J0D01*
G01*
X2257740Y-5706680D02*
G75*
G03*
X2257740Y-5706680I-40000J0D01*
G01*
X2257740Y-5960680D02*
G75*
G03*
X2257740Y-5960680I-40000J0D01*
G01*
X2257740Y-6214680D02*
G75*
G03*
X2257740Y-6214680I-40000J0D01*
G01*
X2257740Y-6468680D02*
G75*
G03*
X2257740Y-6468680I-40000J0D01*
G01*
X2257740Y-11587480D02*
G75*
G03*
X2257740Y-11587480I-40000J0D01*
G01*
X2257740Y-11841480D02*
G75*
G03*
X2257740Y-11841480I-40000J0D01*
G01*
X2257740Y-12095480D02*
G75*
G03*
X2257740Y-12095480I-40000J0D01*
G01*
X2257740Y-12349480D02*
G75*
G03*
X2257740Y-12349480I-40000J0D01*
G01*
X2257740Y-13873480D02*
G75*
G03*
X2257740Y-13873480I-40000J0D01*
G01*
X2257740Y-14127480D02*
G75*
G03*
X2257740Y-14127480I-40000J0D01*
G01*
X2257740Y-14381480D02*
G75*
G03*
X2257740Y-14381480I-40000J0D01*
G01*
X2257740Y-14635480D02*
G75*
G03*
X2257740Y-14635480I-40000J0D01*
G01*
X2272660Y-4605020D02*
G75*
G03*
X2272660Y-4605020I-40000J0D01*
G01*
X2272660Y-4859020D02*
G75*
G03*
X2272660Y-4859020I-40000J0D01*
G01*
X2272660Y-5113020D02*
G75*
G03*
X2272660Y-5113020I-40000J0D01*
G01*
X2272660Y-5367020D02*
G75*
G03*
X2272660Y-5367020I-40000J0D01*
G01*
X2277740Y-6763320D02*
G75*
G03*
X2277740Y-6763320I-40000J0D01*
G01*
X2277740Y-7017320D02*
G75*
G03*
X2277740Y-7017320I-40000J0D01*
G01*
X2277740Y-7271320D02*
G75*
G03*
X2277740Y-7271320I-40000J0D01*
G01*
X2277740Y-7525320D02*
G75*
G03*
X2277740Y-7525320I-40000J0D01*
G01*
X2277740Y-12730480D02*
G75*
G03*
X2277740Y-12730480I-40000J0D01*
G01*
X2277740Y-12984480D02*
G75*
G03*
X2277740Y-12984480I-40000J0D01*
G01*
X2277740Y-13238480D02*
G75*
G03*
X2277740Y-13238480I-40000J0D01*
G01*
X2277740Y-13492480D02*
G75*
G03*
X2277740Y-13492480I-40000J0D01*
G01*
X2277740Y-15016480D02*
G75*
G03*
X2277740Y-15016480I-40000J0D01*
G01*
X2277740Y-15270480D02*
G75*
G03*
X2277740Y-15270480I-40000J0D01*
G01*
X2277740Y-15524480D02*
G75*
G03*
X2277740Y-15524480I-40000J0D01*
G01*
X2277740Y-15778480D02*
G75*
G03*
X2277740Y-15778480I-40000J0D01*
G01*
X3584960Y-3501340D02*
G75*
G03*
X3584960Y-3501340I-40000J0D01*
G01*
X3584960Y-3755340D02*
G75*
G03*
X3584960Y-3755340I-40000J0D01*
G01*
X3584960Y-4009340D02*
G75*
G03*
X3584960Y-4009340I-40000J0D01*
G01*
X3584960Y-4263340D02*
G75*
G03*
X3584960Y-4263340I-40000J0D01*
G01*
X3587740Y-5706680D02*
G75*
G03*
X3587740Y-5706680I-40000J0D01*
G01*
X3587740Y-5960680D02*
G75*
G03*
X3587740Y-5960680I-40000J0D01*
G01*
X3587740Y-6214680D02*
G75*
G03*
X3587740Y-6214680I-40000J0D01*
G01*
X3587740Y-6468680D02*
G75*
G03*
X3587740Y-6468680I-40000J0D01*
G01*
X3587740Y-11587480D02*
G75*
G03*
X3587740Y-11587480I-40000J0D01*
G01*
X3587740Y-11841480D02*
G75*
G03*
X3587740Y-11841480I-40000J0D01*
G01*
X3587740Y-12095480D02*
G75*
G03*
X3587740Y-12095480I-40000J0D01*
G01*
X3587740Y-12349480D02*
G75*
G03*
X3587740Y-12349480I-40000J0D01*
G01*
X3587740Y-13873480D02*
G75*
G03*
X3587740Y-13873480I-40000J0D01*
G01*
X3587740Y-14127480D02*
G75*
G03*
X3587740Y-14127480I-40000J0D01*
G01*
X3587740Y-14381480D02*
G75*
G03*
X3587740Y-14381480I-40000J0D01*
G01*
X3587740Y-14635480D02*
G75*
G03*
X3587740Y-14635480I-40000J0D01*
G01*
X3602660Y-4605020D02*
G75*
G03*
X3602660Y-4605020I-40000J0D01*
G01*
X3602660Y-4859020D02*
G75*
G03*
X3602660Y-4859020I-40000J0D01*
G01*
X3602660Y-5113020D02*
G75*
G03*
X3602660Y-5113020I-40000J0D01*
G01*
X3602660Y-5367020D02*
G75*
G03*
X3602660Y-5367020I-40000J0D01*
G01*
X3607740Y-6763320D02*
G75*
G03*
X3607740Y-6763320I-40000J0D01*
G01*
X3607740Y-7017320D02*
G75*
G03*
X3607740Y-7017320I-40000J0D01*
G01*
X3607740Y-7271320D02*
G75*
G03*
X3607740Y-7271320I-40000J0D01*
G01*
X3607740Y-7525320D02*
G75*
G03*
X3607740Y-7525320I-40000J0D01*
G01*
X3607740Y-12730480D02*
G75*
G03*
X3607740Y-12730480I-40000J0D01*
G01*
X3607740Y-12984480D02*
G75*
G03*
X3607740Y-12984480I-40000J0D01*
G01*
X3607740Y-13238480D02*
G75*
G03*
X3607740Y-13238480I-40000J0D01*
G01*
X3607740Y-13492480D02*
G75*
G03*
X3607740Y-13492480I-40000J0D01*
G01*
X3607740Y-15016480D02*
G75*
G03*
X3607740Y-15016480I-40000J0D01*
G01*
X3607740Y-15270480D02*
G75*
G03*
X3607740Y-15270480I-40000J0D01*
G01*
X3607740Y-15524480D02*
G75*
G03*
X3607740Y-15524480I-40000J0D01*
G01*
X3607740Y-15778480D02*
G75*
G03*
X3607740Y-15778480I-40000J0D01*
G01*
X3847540Y-3502560D02*
G75*
G03*
X3847540Y-3502560I-40000J0D01*
G01*
X3847540Y-3756560D02*
G75*
G03*
X3847540Y-3756560I-40000J0D01*
G01*
X3847540Y-4010560D02*
G75*
G03*
X3847540Y-4010560I-40000J0D01*
G01*
X3847540Y-4264560D02*
G75*
G03*
X3847540Y-4264560I-40000J0D01*
G01*
X3863660Y-4598335D02*
G75*
G03*
X3863660Y-4598335I-40000J0D01*
G01*
X3863660Y-4852335D02*
G75*
G03*
X3863660Y-4852335I-40000J0D01*
G01*
X3863660Y-5106335D02*
G75*
G03*
X3863660Y-5106335I-40000J0D01*
G01*
X3863660Y-5360335D02*
G75*
G03*
X3863660Y-5360335I-40000J0D01*
G01*
X3986920Y-5706060D02*
G75*
G03*
X3986920Y-5706060I-40000J0D01*
G01*
X3986920Y-5960060D02*
G75*
G03*
X3986920Y-5960060I-40000J0D01*
G01*
X3986920Y-6214060D02*
G75*
G03*
X3986920Y-6214060I-40000J0D01*
G01*
X3986920Y-6468060D02*
G75*
G03*
X3986920Y-6468060I-40000J0D01*
G01*
X3986920Y-11587480D02*
G75*
G03*
X3986920Y-11587480I-40000J0D01*
G01*
X3986920Y-11841480D02*
G75*
G03*
X3986920Y-11841480I-40000J0D01*
G01*
X3986920Y-12095480D02*
G75*
G03*
X3986920Y-12095480I-40000J0D01*
G01*
X3986920Y-12349480D02*
G75*
G03*
X3986920Y-12349480I-40000J0D01*
G01*
X3986920Y-13873480D02*
G75*
G03*
X3986920Y-13873480I-40000J0D01*
G01*
X3986920Y-14127480D02*
G75*
G03*
X3986920Y-14127480I-40000J0D01*
G01*
X3986920Y-14381480D02*
G75*
G03*
X3986920Y-14381480I-40000J0D01*
G01*
X3986920Y-14635480D02*
G75*
G03*
X3986920Y-14635480I-40000J0D01*
G01*
X3995740Y-12735560D02*
G75*
G03*
X3995740Y-12735560I-40000J0D01*
G01*
X3995740Y-12989560D02*
G75*
G03*
X3995740Y-12989560I-40000J0D01*
G01*
X3995740Y-13243560D02*
G75*
G03*
X3995740Y-13243560I-40000J0D01*
G01*
X3995740Y-13497560D02*
G75*
G03*
X3995740Y-13497560I-40000J0D01*
G01*
X4006920Y-6763320D02*
G75*
G03*
X4006920Y-6763320I-40000J0D01*
G01*
X4006920Y-7017320D02*
G75*
G03*
X4006920Y-7017320I-40000J0D01*
G01*
X4006920Y-7271320D02*
G75*
G03*
X4006920Y-7271320I-40000J0D01*
G01*
X4006920Y-7525320D02*
G75*
G03*
X4006920Y-7525320I-40000J0D01*
G01*
X4006920Y-15016480D02*
G75*
G03*
X4006920Y-15016480I-40000J0D01*
G01*
X4006920Y-15270480D02*
G75*
G03*
X4006920Y-15270480I-40000J0D01*
G01*
X4006920Y-15524480D02*
G75*
G03*
X4006920Y-15524480I-40000J0D01*
G01*
X4006920Y-15778480D02*
G75*
G03*
X4006920Y-15778480I-40000J0D01*
G01*
X5177540Y-3502560D02*
G75*
G03*
X5177540Y-3502560I-40000J0D01*
G01*
X5177540Y-3756560D02*
G75*
G03*
X5177540Y-3756560I-40000J0D01*
G01*
X5177540Y-4010560D02*
G75*
G03*
X5177540Y-4010560I-40000J0D01*
G01*
X5177540Y-4264560D02*
G75*
G03*
X5177540Y-4264560I-40000J0D01*
G01*
X5193660Y-4598335D02*
G75*
G03*
X5193660Y-4598335I-40000J0D01*
G01*
X5193660Y-4852335D02*
G75*
G03*
X5193660Y-4852335I-40000J0D01*
G01*
X5193660Y-5106335D02*
G75*
G03*
X5193660Y-5106335I-40000J0D01*
G01*
X5193660Y-5360335D02*
G75*
G03*
X5193660Y-5360335I-40000J0D01*
G01*
X5316920Y-5706060D02*
G75*
G03*
X5316920Y-5706060I-40000J0D01*
G01*
X5316920Y-5960060D02*
G75*
G03*
X5316920Y-5960060I-40000J0D01*
G01*
X5316920Y-6214060D02*
G75*
G03*
X5316920Y-6214060I-40000J0D01*
G01*
X5316920Y-6468060D02*
G75*
G03*
X5316920Y-6468060I-40000J0D01*
G01*
X5316920Y-11587480D02*
G75*
G03*
X5316920Y-11587480I-40000J0D01*
G01*
X5316920Y-11841480D02*
G75*
G03*
X5316920Y-11841480I-40000J0D01*
G01*
X5316920Y-12095480D02*
G75*
G03*
X5316920Y-12095480I-40000J0D01*
G01*
X5316920Y-12349480D02*
G75*
G03*
X5316920Y-12349480I-40000J0D01*
G01*
X5316920Y-13873480D02*
G75*
G03*
X5316920Y-13873480I-40000J0D01*
G01*
X5316920Y-14127480D02*
G75*
G03*
X5316920Y-14127480I-40000J0D01*
G01*
X5316920Y-14381480D02*
G75*
G03*
X5316920Y-14381480I-40000J0D01*
G01*
X5316920Y-14635480D02*
G75*
G03*
X5316920Y-14635480I-40000J0D01*
G01*
X5325740Y-12735560D02*
G75*
G03*
X5325740Y-12735560I-40000J0D01*
G01*
X5325740Y-12989560D02*
G75*
G03*
X5325740Y-12989560I-40000J0D01*
G01*
X5325740Y-13243560D02*
G75*
G03*
X5325740Y-13243560I-40000J0D01*
G01*
X5325740Y-13497560D02*
G75*
G03*
X5325740Y-13497560I-40000J0D01*
G01*
X5336920Y-6763320D02*
G75*
G03*
X5336920Y-6763320I-40000J0D01*
G01*
X5336920Y-7017320D02*
G75*
G03*
X5336920Y-7017320I-40000J0D01*
G01*
X5336920Y-7271320D02*
G75*
G03*
X5336920Y-7271320I-40000J0D01*
G01*
X5336920Y-7525320D02*
G75*
G03*
X5336920Y-7525320I-40000J0D01*
G01*
X5336920Y-15016480D02*
G75*
G03*
X5336920Y-15016480I-40000J0D01*
G01*
X5336920Y-15270480D02*
G75*
G03*
X5336920Y-15270480I-40000J0D01*
G01*
X5336920Y-15524480D02*
G75*
G03*
X5336920Y-15524480I-40000J0D01*
G01*
X5336920Y-15778480D02*
G75*
G03*
X5336920Y-15778480I-40000J0D01*
G01*
X5440200Y-3502560D02*
G75*
G03*
X5440200Y-3502560I-40000J0D01*
G01*
X5440200Y-3756560D02*
G75*
G03*
X5440200Y-3756560I-40000J0D01*
G01*
X5440200Y-4010560D02*
G75*
G03*
X5440200Y-4010560I-40000J0D01*
G01*
X5440200Y-4264560D02*
G75*
G03*
X5440200Y-4264560I-40000J0D01*
G01*
X5460360Y-4592320D02*
G75*
G03*
X5460360Y-4592320I-40000J0D01*
G01*
X5460360Y-4846320D02*
G75*
G03*
X5460360Y-4846320I-40000J0D01*
G01*
X5460360Y-5100320D02*
G75*
G03*
X5460360Y-5100320I-40000J0D01*
G01*
X5460360Y-5354320D02*
G75*
G03*
X5460360Y-5354320I-40000J0D01*
G01*
X5728620Y-5706680D02*
G75*
G03*
X5728620Y-5706680I-40000J0D01*
G01*
X5728620Y-5960680D02*
G75*
G03*
X5728620Y-5960680I-40000J0D01*
G01*
X5728620Y-6214680D02*
G75*
G03*
X5728620Y-6214680I-40000J0D01*
G01*
X5728620Y-6468680D02*
G75*
G03*
X5728620Y-6468680I-40000J0D01*
G01*
X5728620Y-11587480D02*
G75*
G03*
X5728620Y-11587480I-40000J0D01*
G01*
X5728620Y-11841480D02*
G75*
G03*
X5728620Y-11841480I-40000J0D01*
G01*
X5728620Y-12095480D02*
G75*
G03*
X5728620Y-12095480I-40000J0D01*
G01*
X5728620Y-12349480D02*
G75*
G03*
X5728620Y-12349480I-40000J0D01*
G01*
X5728620Y-13873480D02*
G75*
G03*
X5728620Y-13873480I-40000J0D01*
G01*
X5728620Y-14127480D02*
G75*
G03*
X5728620Y-14127480I-40000J0D01*
G01*
X5728620Y-14381480D02*
G75*
G03*
X5728620Y-14381480I-40000J0D01*
G01*
X5728620Y-14635480D02*
G75*
G03*
X5728620Y-14635480I-40000J0D01*
G01*
X5740160Y-12734575D02*
G75*
G03*
X5740160Y-12734575I-40000J0D01*
G01*
X5740160Y-12988575D02*
G75*
G03*
X5740160Y-12988575I-40000J0D01*
G01*
X5740160Y-13242575D02*
G75*
G03*
X5740160Y-13242575I-40000J0D01*
G01*
X5740160Y-13496575D02*
G75*
G03*
X5740160Y-13496575I-40000J0D01*
G01*
X5748620Y-6763320D02*
G75*
G03*
X5748620Y-6763320I-40000J0D01*
G01*
X5748620Y-7017320D02*
G75*
G03*
X5748620Y-7017320I-40000J0D01*
G01*
X5748620Y-7271320D02*
G75*
G03*
X5748620Y-7271320I-40000J0D01*
G01*
X5748620Y-7525320D02*
G75*
G03*
X5748620Y-7525320I-40000J0D01*
G01*
X5748620Y-15016480D02*
G75*
G03*
X5748620Y-15016480I-40000J0D01*
G01*
X5748620Y-15270480D02*
G75*
G03*
X5748620Y-15270480I-40000J0D01*
G01*
X5748620Y-15524480D02*
G75*
G03*
X5748620Y-15524480I-40000J0D01*
G01*
X5748620Y-15778480D02*
G75*
G03*
X5748620Y-15778480I-40000J0D01*
G01*
X6770200Y-3502560D02*
G75*
G03*
X6770200Y-3502560I-40000J0D01*
G01*
X6770200Y-3756560D02*
G75*
G03*
X6770200Y-3756560I-40000J0D01*
G01*
X6770200Y-4010560D02*
G75*
G03*
X6770200Y-4010560I-40000J0D01*
G01*
X6770200Y-4264560D02*
G75*
G03*
X6770200Y-4264560I-40000J0D01*
G01*
X6790360Y-4592320D02*
G75*
G03*
X6790360Y-4592320I-40000J0D01*
G01*
X6790360Y-4846320D02*
G75*
G03*
X6790360Y-4846320I-40000J0D01*
G01*
X6790360Y-5100320D02*
G75*
G03*
X6790360Y-5100320I-40000J0D01*
G01*
X6790360Y-5354320D02*
G75*
G03*
X6790360Y-5354320I-40000J0D01*
G01*
X7042860Y-3508960D02*
G75*
G03*
X7042860Y-3508960I-40000J0D01*
G01*
X7042860Y-3762960D02*
G75*
G03*
X7042860Y-3762960I-40000J0D01*
G01*
X7042860Y-4016960D02*
G75*
G03*
X7042860Y-4016960I-40000J0D01*
G01*
X7042860Y-4270960D02*
G75*
G03*
X7042860Y-4270960I-40000J0D01*
G01*
X7058420Y-4591335D02*
G75*
G03*
X7058420Y-4591335I-40000J0D01*
G01*
X7058420Y-4845335D02*
G75*
G03*
X7058420Y-4845335I-40000J0D01*
G01*
X7058420Y-5099335D02*
G75*
G03*
X7058420Y-5099335I-40000J0D01*
G01*
X7058420Y-5353335D02*
G75*
G03*
X7058420Y-5353335I-40000J0D01*
G01*
X7058620Y-5706680D02*
G75*
G03*
X7058620Y-5706680I-40000J0D01*
G01*
X7058620Y-5960680D02*
G75*
G03*
X7058620Y-5960680I-40000J0D01*
G01*
X7058620Y-6214680D02*
G75*
G03*
X7058620Y-6214680I-40000J0D01*
G01*
X7058620Y-6468680D02*
G75*
G03*
X7058620Y-6468680I-40000J0D01*
G01*
X7058620Y-11587480D02*
G75*
G03*
X7058620Y-11587480I-40000J0D01*
G01*
X7058620Y-11841480D02*
G75*
G03*
X7058620Y-11841480I-40000J0D01*
G01*
X7058620Y-12095480D02*
G75*
G03*
X7058620Y-12095480I-40000J0D01*
G01*
X7058620Y-12349480D02*
G75*
G03*
X7058620Y-12349480I-40000J0D01*
G01*
X7058620Y-13873480D02*
G75*
G03*
X7058620Y-13873480I-40000J0D01*
G01*
X7058620Y-14127480D02*
G75*
G03*
X7058620Y-14127480I-40000J0D01*
G01*
X7058620Y-14381480D02*
G75*
G03*
X7058620Y-14381480I-40000J0D01*
G01*
X7058620Y-14635480D02*
G75*
G03*
X7058620Y-14635480I-40000J0D01*
G01*
X7070160Y-12734575D02*
G75*
G03*
X7070160Y-12734575I-40000J0D01*
G01*
X7070160Y-12988575D02*
G75*
G03*
X7070160Y-12988575I-40000J0D01*
G01*
X7070160Y-13242575D02*
G75*
G03*
X7070160Y-13242575I-40000J0D01*
G01*
X7070160Y-13496575D02*
G75*
G03*
X7070160Y-13496575I-40000J0D01*
G01*
X7078620Y-6763320D02*
G75*
G03*
X7078620Y-6763320I-40000J0D01*
G01*
X7078620Y-7017320D02*
G75*
G03*
X7078620Y-7017320I-40000J0D01*
G01*
X7078620Y-7271320D02*
G75*
G03*
X7078620Y-7271320I-40000J0D01*
G01*
X7078620Y-7525320D02*
G75*
G03*
X7078620Y-7525320I-40000J0D01*
G01*
X7078620Y-15016480D02*
G75*
G03*
X7078620Y-15016480I-40000J0D01*
G01*
X7078620Y-15270480D02*
G75*
G03*
X7078620Y-15270480I-40000J0D01*
G01*
X7078620Y-15524480D02*
G75*
G03*
X7078620Y-15524480I-40000J0D01*
G01*
X7078620Y-15778480D02*
G75*
G03*
X7078620Y-15778480I-40000J0D01*
G01*
X7464060Y-5706680D02*
G75*
G03*
X7464060Y-5706680I-40000J0D01*
G01*
X7464060Y-5960680D02*
G75*
G03*
X7464060Y-5960680I-40000J0D01*
G01*
X7464060Y-6214680D02*
G75*
G03*
X7464060Y-6214680I-40000J0D01*
G01*
X7464060Y-6468680D02*
G75*
G03*
X7464060Y-6468680I-40000J0D01*
G01*
X7464060Y-11587480D02*
G75*
G03*
X7464060Y-11587480I-40000J0D01*
G01*
X7464060Y-11841480D02*
G75*
G03*
X7464060Y-11841480I-40000J0D01*
G01*
X7464060Y-12095480D02*
G75*
G03*
X7464060Y-12095480I-40000J0D01*
G01*
X7464060Y-12349480D02*
G75*
G03*
X7464060Y-12349480I-40000J0D01*
G01*
X7464060Y-13873480D02*
G75*
G03*
X7464060Y-13873480I-40000J0D01*
G01*
X7464060Y-14127480D02*
G75*
G03*
X7464060Y-14127480I-40000J0D01*
G01*
X7464060Y-14381480D02*
G75*
G03*
X7464060Y-14381480I-40000J0D01*
G01*
X7464060Y-14635480D02*
G75*
G03*
X7464060Y-14635480I-40000J0D01*
G01*
X7484060Y-6763320D02*
G75*
G03*
X7484060Y-6763320I-40000J0D01*
G01*
X7484060Y-7017320D02*
G75*
G03*
X7484060Y-7017320I-40000J0D01*
G01*
X7484060Y-7271320D02*
G75*
G03*
X7484060Y-7271320I-40000J0D01*
G01*
X7484060Y-7525320D02*
G75*
G03*
X7484060Y-7525320I-40000J0D01*
G01*
X7484060Y-12730480D02*
G75*
G03*
X7484060Y-12730480I-40000J0D01*
G01*
X7484060Y-12984480D02*
G75*
G03*
X7484060Y-12984480I-40000J0D01*
G01*
X7484060Y-13238480D02*
G75*
G03*
X7484060Y-13238480I-40000J0D01*
G01*
X7484060Y-13492480D02*
G75*
G03*
X7484060Y-13492480I-40000J0D01*
G01*
X7484060Y-15016480D02*
G75*
G03*
X7484060Y-15016480I-40000J0D01*
G01*
X7484060Y-15270480D02*
G75*
G03*
X7484060Y-15270480I-40000J0D01*
G01*
X7484060Y-15524480D02*
G75*
G03*
X7484060Y-15524480I-40000J0D01*
G01*
X7484060Y-15778480D02*
G75*
G03*
X7484060Y-15778480I-40000J0D01*
G01*
X8372860Y-3508960D02*
G75*
G03*
X8372860Y-3508960I-40000J0D01*
G01*
X8372860Y-3762960D02*
G75*
G03*
X8372860Y-3762960I-40000J0D01*
G01*
X8372860Y-4016960D02*
G75*
G03*
X8372860Y-4016960I-40000J0D01*
G01*
X8372860Y-4270960D02*
G75*
G03*
X8372860Y-4270960I-40000J0D01*
G01*
X8388420Y-4591335D02*
G75*
G03*
X8388420Y-4591335I-40000J0D01*
G01*
X8388420Y-4845335D02*
G75*
G03*
X8388420Y-4845335I-40000J0D01*
G01*
X8388420Y-5099335D02*
G75*
G03*
X8388420Y-5099335I-40000J0D01*
G01*
X8388420Y-5353335D02*
G75*
G03*
X8388420Y-5353335I-40000J0D01*
G01*
X8794060Y-5706680D02*
G75*
G03*
X8794060Y-5706680I-40000J0D01*
G01*
X8794060Y-5960680D02*
G75*
G03*
X8794060Y-5960680I-40000J0D01*
G01*
X8794060Y-6214680D02*
G75*
G03*
X8794060Y-6214680I-40000J0D01*
G01*
X8794060Y-6468680D02*
G75*
G03*
X8794060Y-6468680I-40000J0D01*
G01*
X8794060Y-11587480D02*
G75*
G03*
X8794060Y-11587480I-40000J0D01*
G01*
X8794060Y-11841480D02*
G75*
G03*
X8794060Y-11841480I-40000J0D01*
G01*
X8794060Y-12095480D02*
G75*
G03*
X8794060Y-12095480I-40000J0D01*
G01*
X8794060Y-12349480D02*
G75*
G03*
X8794060Y-12349480I-40000J0D01*
G01*
X8794060Y-13873480D02*
G75*
G03*
X8794060Y-13873480I-40000J0D01*
G01*
X8794060Y-14127480D02*
G75*
G03*
X8794060Y-14127480I-40000J0D01*
G01*
X8794060Y-14381480D02*
G75*
G03*
X8794060Y-14381480I-40000J0D01*
G01*
X8794060Y-14635480D02*
G75*
G03*
X8794060Y-14635480I-40000J0D01*
G01*
X8814060Y-6763320D02*
G75*
G03*
X8814060Y-6763320I-40000J0D01*
G01*
X8814060Y-7017320D02*
G75*
G03*
X8814060Y-7017320I-40000J0D01*
G01*
X8814060Y-7271320D02*
G75*
G03*
X8814060Y-7271320I-40000J0D01*
G01*
X8814060Y-7525320D02*
G75*
G03*
X8814060Y-7525320I-40000J0D01*
G01*
X8814060Y-12730480D02*
G75*
G03*
X8814060Y-12730480I-40000J0D01*
G01*
X8814060Y-12984480D02*
G75*
G03*
X8814060Y-12984480I-40000J0D01*
G01*
X8814060Y-13238480D02*
G75*
G03*
X8814060Y-13238480I-40000J0D01*
G01*
X8814060Y-13492480D02*
G75*
G03*
X8814060Y-13492480I-40000J0D01*
G01*
X8814060Y-15016480D02*
G75*
G03*
X8814060Y-15016480I-40000J0D01*
G01*
X8814060Y-15270480D02*
G75*
G03*
X8814060Y-15270480I-40000J0D01*
G01*
X8814060Y-15524480D02*
G75*
G03*
X8814060Y-15524480I-40000J0D01*
G01*
X8814060Y-15778480D02*
G75*
G03*
X8814060Y-15778480I-40000J0D01*
G01*
D10*
X7256780Y-18532640D02*
X7256780Y-18632640D01*
X7206780Y-18582640D02*
X7306780Y-18582640D01*
X7510780Y-18532640D02*
X7510780Y-18632640D01*
X7460780Y-18582640D02*
X7560780Y-18582640D01*
X7764780Y-18532640D02*
X7764780Y-18632640D01*
X7714780Y-18582640D02*
X7814780Y-18582640D01*
X8018780Y-18532640D02*
X8018780Y-18632640D01*
X7968780Y-18582640D02*
X8068780Y-18582640D01*
X8272780Y-18532640D02*
X8272780Y-18632640D01*
X8222780Y-18582640D02*
X8322780Y-18582640D01*
X8526780Y-18532640D02*
X8526780Y-18632640D01*
X8476780Y-18582640D02*
X8576780Y-18582640D01*
X8780780Y-18532640D02*
X8780780Y-18632640D01*
X8730780Y-18582640D02*
X8830780Y-18582640D01*
X9034780Y-18532640D02*
X9034780Y-18632640D01*
X8984780Y-18582640D02*
X9084780Y-18582640D01*
X9288780Y-18532640D02*
X9288780Y-18632640D01*
X9238780Y-18582640D02*
X9338780Y-18582640D01*
X9542780Y-18532640D02*
X9542780Y-18632640D01*
X9492780Y-18582640D02*
X9592780Y-18582640D01*
D11*
X2345739Y-19319264D02*
X2345739Y-19119264D01*
X2345739Y-19119264D02*
X2393358Y-19119264D01*
X2393358Y-19119264D02*
X2421930Y-19128788D01*
X2421930Y-19128788D02*
X2440977Y-19147835D01*
X2440977Y-19147835D02*
X2450501Y-19166883D01*
X2450501Y-19166883D02*
X2460025Y-19204978D01*
X2460025Y-19204978D02*
X2460025Y-19233550D01*
X2460025Y-19233550D02*
X2450501Y-19271645D01*
X2450501Y-19271645D02*
X2440977Y-19290692D01*
X2440977Y-19290692D02*
X2421930Y-19309740D01*
X2421930Y-19309740D02*
X2393358Y-19319264D01*
X2393358Y-19319264D02*
X2345739Y-19319264D01*
X2545739Y-19319264D02*
X2545739Y-19185930D01*
X2545739Y-19224026D02*
X2555263Y-19204978D01*
X2555263Y-19204978D02*
X2564787Y-19195454D01*
X2564787Y-19195454D02*
X2583834Y-19185930D01*
X2583834Y-19185930D02*
X2602882Y-19185930D01*
X2669549Y-19319264D02*
X2669549Y-19185930D01*
X2669549Y-19119264D02*
X2660025Y-19128788D01*
X2660025Y-19128788D02*
X2669549Y-19138311D01*
X2669549Y-19138311D02*
X2679072Y-19128788D01*
X2679072Y-19128788D02*
X2669549Y-19119264D01*
X2669549Y-19119264D02*
X2669549Y-19138311D01*
X2793358Y-19319264D02*
X2774310Y-19309740D01*
X2774310Y-19309740D02*
X2764787Y-19290692D01*
X2764787Y-19290692D02*
X2764787Y-19119264D01*
X2898120Y-19319264D02*
X2879072Y-19309740D01*
X2879072Y-19309740D02*
X2869548Y-19290692D01*
X2869548Y-19290692D02*
X2869548Y-19119264D01*
X3126691Y-19319264D02*
X3126691Y-19119264D01*
X3126691Y-19119264D02*
X3193358Y-19262121D01*
X3193358Y-19262121D02*
X3260025Y-19119264D01*
X3260025Y-19119264D02*
X3260025Y-19319264D01*
X3440977Y-19319264D02*
X3440977Y-19214502D01*
X3440977Y-19214502D02*
X3431453Y-19195454D01*
X3431453Y-19195454D02*
X3412406Y-19185930D01*
X3412406Y-19185930D02*
X3374310Y-19185930D01*
X3374310Y-19185930D02*
X3355263Y-19195454D01*
X3440977Y-19309740D02*
X3421929Y-19319264D01*
X3421929Y-19319264D02*
X3374310Y-19319264D01*
X3374310Y-19319264D02*
X3355263Y-19309740D01*
X3355263Y-19309740D02*
X3345739Y-19290692D01*
X3345739Y-19290692D02*
X3345739Y-19271645D01*
X3345739Y-19271645D02*
X3355263Y-19252597D01*
X3355263Y-19252597D02*
X3374310Y-19243073D01*
X3374310Y-19243073D02*
X3421929Y-19243073D01*
X3421929Y-19243073D02*
X3440977Y-19233550D01*
X3536215Y-19185930D02*
X3536215Y-19385930D01*
X3536215Y-19195454D02*
X3555263Y-19185930D01*
X3555263Y-19185930D02*
X3593358Y-19185930D01*
X3593358Y-19185930D02*
X3612406Y-19195454D01*
X3612406Y-19195454D02*
X3621929Y-19204978D01*
X3621929Y-19204978D02*
X3631453Y-19224026D01*
X3631453Y-19224026D02*
X3631453Y-19281169D01*
X3631453Y-19281169D02*
X3621929Y-19300216D01*
X3621929Y-19300216D02*
X3612406Y-19309740D01*
X3612406Y-19309740D02*
X3593358Y-19319264D01*
X3593358Y-19319264D02*
X3555263Y-19319264D01*
X3555263Y-19319264D02*
X3536215Y-19309740D01*
X3717168Y-19300216D02*
X3726691Y-19309740D01*
X3726691Y-19309740D02*
X3717168Y-19319264D01*
X3717168Y-19319264D02*
X3707644Y-19309740D01*
X3707644Y-19309740D02*
X3717168Y-19300216D01*
X3717168Y-19300216D02*
X3717168Y-19319264D01*
X3717168Y-19195454D02*
X3726691Y-19204978D01*
X3726691Y-19204978D02*
X3717168Y-19214502D01*
X3717168Y-19214502D02*
X3707644Y-19204978D01*
X3707644Y-19204978D02*
X3717168Y-19195454D01*
X3717168Y-19195454D02*
X3717168Y-19214502D01*
D12*
X2058120Y-19626740D02*
X2098120Y-19666740D01*
X2098120Y-19626740D02*
X2058120Y-19666740D01*
D11*
X2383834Y-19539264D02*
X2402882Y-19539264D01*
X2402882Y-19539264D02*
X2421930Y-19548788D01*
X2421930Y-19548788D02*
X2431453Y-19558311D01*
X2431453Y-19558311D02*
X2440977Y-19577359D01*
X2440977Y-19577359D02*
X2450501Y-19615454D01*
X2450501Y-19615454D02*
X2450501Y-19663073D01*
X2450501Y-19663073D02*
X2440977Y-19701169D01*
X2440977Y-19701169D02*
X2431453Y-19720216D01*
X2431453Y-19720216D02*
X2421930Y-19729740D01*
X2421930Y-19729740D02*
X2402882Y-19739264D01*
X2402882Y-19739264D02*
X2383834Y-19739264D01*
X2383834Y-19739264D02*
X2364787Y-19729740D01*
X2364787Y-19729740D02*
X2355263Y-19720216D01*
X2355263Y-19720216D02*
X2345739Y-19701169D01*
X2345739Y-19701169D02*
X2336215Y-19663073D01*
X2336215Y-19663073D02*
X2336215Y-19615454D01*
X2336215Y-19615454D02*
X2345739Y-19577359D01*
X2345739Y-19577359D02*
X2355263Y-19558311D01*
X2355263Y-19558311D02*
X2364787Y-19548788D01*
X2364787Y-19548788D02*
X2383834Y-19539264D01*
X2536215Y-19720216D02*
X2545739Y-19729740D01*
X2545739Y-19729740D02*
X2536215Y-19739264D01*
X2536215Y-19739264D02*
X2526691Y-19729740D01*
X2526691Y-19729740D02*
X2536215Y-19720216D01*
X2536215Y-19720216D02*
X2536215Y-19739264D01*
X2717168Y-19605930D02*
X2717168Y-19739264D01*
X2669549Y-19529740D02*
X2621930Y-19672597D01*
X2621930Y-19672597D02*
X2745739Y-19672597D01*
X2860025Y-19539264D02*
X2879072Y-19539264D01*
X2879072Y-19539264D02*
X2898120Y-19548788D01*
X2898120Y-19548788D02*
X2907644Y-19558311D01*
X2907644Y-19558311D02*
X2917168Y-19577359D01*
X2917168Y-19577359D02*
X2926691Y-19615454D01*
X2926691Y-19615454D02*
X2926691Y-19663073D01*
X2926691Y-19663073D02*
X2917168Y-19701169D01*
X2917168Y-19701169D02*
X2907644Y-19720216D01*
X2907644Y-19720216D02*
X2898120Y-19729740D01*
X2898120Y-19729740D02*
X2879072Y-19739264D01*
X2879072Y-19739264D02*
X2860025Y-19739264D01*
X2860025Y-19739264D02*
X2840977Y-19729740D01*
X2840977Y-19729740D02*
X2831453Y-19720216D01*
X2831453Y-19720216D02*
X2821929Y-19701169D01*
X2821929Y-19701169D02*
X2812406Y-19663073D01*
X2812406Y-19663073D02*
X2812406Y-19615454D01*
X2812406Y-19615454D02*
X2821929Y-19577359D01*
X2821929Y-19577359D02*
X2831453Y-19558311D01*
X2831453Y-19558311D02*
X2840977Y-19548788D01*
X2840977Y-19548788D02*
X2860025Y-19539264D01*
X3050501Y-19539264D02*
X3069549Y-19539264D01*
X3069549Y-19539264D02*
X3088596Y-19548788D01*
X3088596Y-19548788D02*
X3098120Y-19558311D01*
X3098120Y-19558311D02*
X3107644Y-19577359D01*
X3107644Y-19577359D02*
X3117168Y-19615454D01*
X3117168Y-19615454D02*
X3117168Y-19663073D01*
X3117168Y-19663073D02*
X3107644Y-19701169D01*
X3107644Y-19701169D02*
X3098120Y-19720216D01*
X3098120Y-19720216D02*
X3088596Y-19729740D01*
X3088596Y-19729740D02*
X3069549Y-19739264D01*
X3069549Y-19739264D02*
X3050501Y-19739264D01*
X3050501Y-19739264D02*
X3031453Y-19729740D01*
X3031453Y-19729740D02*
X3021929Y-19720216D01*
X3021929Y-19720216D02*
X3012406Y-19701169D01*
X3012406Y-19701169D02*
X3002882Y-19663073D01*
X3002882Y-19663073D02*
X3002882Y-19615454D01*
X3002882Y-19615454D02*
X3012406Y-19577359D01*
X3012406Y-19577359D02*
X3021929Y-19558311D01*
X3021929Y-19558311D02*
X3031453Y-19548788D01*
X3031453Y-19548788D02*
X3050501Y-19539264D01*
X3202882Y-19739264D02*
X3202882Y-19605930D01*
X3202882Y-19624978D02*
X3212406Y-19615454D01*
X3212406Y-19615454D02*
X3231453Y-19605930D01*
X3231453Y-19605930D02*
X3260025Y-19605930D01*
X3260025Y-19605930D02*
X3279072Y-19615454D01*
X3279072Y-19615454D02*
X3288596Y-19634502D01*
X3288596Y-19634502D02*
X3288596Y-19739264D01*
X3288596Y-19634502D02*
X3298120Y-19615454D01*
X3298120Y-19615454D02*
X3317168Y-19605930D01*
X3317168Y-19605930D02*
X3345739Y-19605930D01*
X3345739Y-19605930D02*
X3364787Y-19615454D01*
X3364787Y-19615454D02*
X3374310Y-19634502D01*
X3374310Y-19634502D02*
X3374310Y-19739264D01*
X3469549Y-19739264D02*
X3469549Y-19605930D01*
X3469549Y-19624978D02*
X3479072Y-19615454D01*
X3479072Y-19615454D02*
X3498120Y-19605930D01*
X3498120Y-19605930D02*
X3526691Y-19605930D01*
X3526691Y-19605930D02*
X3545739Y-19615454D01*
X3545739Y-19615454D02*
X3555263Y-19634502D01*
X3555263Y-19634502D02*
X3555263Y-19739264D01*
X3555263Y-19634502D02*
X3564787Y-19615454D01*
X3564787Y-19615454D02*
X3583834Y-19605930D01*
X3583834Y-19605930D02*
X3612406Y-19605930D01*
X3612406Y-19605930D02*
X3631453Y-19615454D01*
X3631453Y-19615454D02*
X3640977Y-19634502D01*
X3640977Y-19634502D02*
X3640977Y-19739264D01*
X4031453Y-19529740D02*
X3860025Y-19786883D01*
X4288596Y-19539264D02*
X4307644Y-19539264D01*
X4307644Y-19539264D02*
X4326692Y-19548788D01*
X4326692Y-19548788D02*
X4336215Y-19558311D01*
X4336215Y-19558311D02*
X4345739Y-19577359D01*
X4345739Y-19577359D02*
X4355263Y-19615454D01*
X4355263Y-19615454D02*
X4355263Y-19663073D01*
X4355263Y-19663073D02*
X4345739Y-19701169D01*
X4345739Y-19701169D02*
X4336215Y-19720216D01*
X4336215Y-19720216D02*
X4326692Y-19729740D01*
X4326692Y-19729740D02*
X4307644Y-19739264D01*
X4307644Y-19739264D02*
X4288596Y-19739264D01*
X4288596Y-19739264D02*
X4269549Y-19729740D01*
X4269549Y-19729740D02*
X4260025Y-19720216D01*
X4260025Y-19720216D02*
X4250501Y-19701169D01*
X4250501Y-19701169D02*
X4240977Y-19663073D01*
X4240977Y-19663073D02*
X4240977Y-19615454D01*
X4240977Y-19615454D02*
X4250501Y-19577359D01*
X4250501Y-19577359D02*
X4260025Y-19558311D01*
X4260025Y-19558311D02*
X4269549Y-19548788D01*
X4269549Y-19548788D02*
X4288596Y-19539264D01*
X4440977Y-19720216D02*
X4450501Y-19729740D01*
X4450501Y-19729740D02*
X4440977Y-19739264D01*
X4440977Y-19739264D02*
X4431454Y-19729740D01*
X4431454Y-19729740D02*
X4440977Y-19720216D01*
X4440977Y-19720216D02*
X4440977Y-19739264D01*
X4574311Y-19539264D02*
X4593358Y-19539264D01*
X4593358Y-19539264D02*
X4612406Y-19548788D01*
X4612406Y-19548788D02*
X4621930Y-19558311D01*
X4621930Y-19558311D02*
X4631454Y-19577359D01*
X4631454Y-19577359D02*
X4640977Y-19615454D01*
X4640977Y-19615454D02*
X4640977Y-19663073D01*
X4640977Y-19663073D02*
X4631454Y-19701169D01*
X4631454Y-19701169D02*
X4621930Y-19720216D01*
X4621930Y-19720216D02*
X4612406Y-19729740D01*
X4612406Y-19729740D02*
X4593358Y-19739264D01*
X4593358Y-19739264D02*
X4574311Y-19739264D01*
X4574311Y-19739264D02*
X4555263Y-19729740D01*
X4555263Y-19729740D02*
X4545739Y-19720216D01*
X4545739Y-19720216D02*
X4536215Y-19701169D01*
X4536215Y-19701169D02*
X4526692Y-19663073D01*
X4526692Y-19663073D02*
X4526692Y-19615454D01*
X4526692Y-19615454D02*
X4536215Y-19577359D01*
X4536215Y-19577359D02*
X4545739Y-19558311D01*
X4545739Y-19558311D02*
X4555263Y-19548788D01*
X4555263Y-19548788D02*
X4574311Y-19539264D01*
X4831454Y-19739264D02*
X4717168Y-19739264D01*
X4774311Y-19739264D02*
X4774311Y-19539264D01*
X4774311Y-19539264D02*
X4755263Y-19567835D01*
X4755263Y-19567835D02*
X4736215Y-19586883D01*
X4736215Y-19586883D02*
X4717168Y-19596407D01*
X5012406Y-19539264D02*
X4917168Y-19539264D01*
X4917168Y-19539264D02*
X4907644Y-19634502D01*
X4907644Y-19634502D02*
X4917168Y-19624978D01*
X4917168Y-19624978D02*
X4936215Y-19615454D01*
X4936215Y-19615454D02*
X4983835Y-19615454D01*
X4983835Y-19615454D02*
X5002882Y-19624978D01*
X5002882Y-19624978D02*
X5012406Y-19634502D01*
X5012406Y-19634502D02*
X5021930Y-19653550D01*
X5021930Y-19653550D02*
X5021930Y-19701169D01*
X5021930Y-19701169D02*
X5012406Y-19720216D01*
X5012406Y-19720216D02*
X5002882Y-19729740D01*
X5002882Y-19729740D02*
X4983835Y-19739264D01*
X4983835Y-19739264D02*
X4936215Y-19739264D01*
X4936215Y-19739264D02*
X4917168Y-19729740D01*
X4917168Y-19729740D02*
X4907644Y-19720216D01*
X5088596Y-19539264D02*
X5221930Y-19539264D01*
X5221930Y-19539264D02*
X5136215Y-19739264D01*
X5288596Y-19539264D02*
X5288596Y-19577359D01*
X5364787Y-19539264D02*
X5364787Y-19577359D01*
X5660025Y-19815454D02*
X5650501Y-19805930D01*
X5650501Y-19805930D02*
X5631454Y-19777359D01*
X5631454Y-19777359D02*
X5621930Y-19758311D01*
X5621930Y-19758311D02*
X5612406Y-19729740D01*
X5612406Y-19729740D02*
X5602882Y-19682121D01*
X5602882Y-19682121D02*
X5602882Y-19644026D01*
X5602882Y-19644026D02*
X5612406Y-19596407D01*
X5612406Y-19596407D02*
X5621930Y-19567835D01*
X5621930Y-19567835D02*
X5631454Y-19548788D01*
X5631454Y-19548788D02*
X5650501Y-19520216D01*
X5650501Y-19520216D02*
X5660025Y-19510692D01*
X5726692Y-19558311D02*
X5736215Y-19548788D01*
X5736215Y-19548788D02*
X5755263Y-19539264D01*
X5755263Y-19539264D02*
X5802882Y-19539264D01*
X5802882Y-19539264D02*
X5821930Y-19548788D01*
X5821930Y-19548788D02*
X5831454Y-19558311D01*
X5831454Y-19558311D02*
X5840977Y-19577359D01*
X5840977Y-19577359D02*
X5840977Y-19596407D01*
X5840977Y-19596407D02*
X5831454Y-19624978D01*
X5831454Y-19624978D02*
X5717168Y-19739264D01*
X5717168Y-19739264D02*
X5840977Y-19739264D01*
X6031454Y-19739264D02*
X5917168Y-19739264D01*
X5974311Y-19739264D02*
X5974311Y-19539264D01*
X5974311Y-19539264D02*
X5955263Y-19567835D01*
X5955263Y-19567835D02*
X5936215Y-19586883D01*
X5936215Y-19586883D02*
X5917168Y-19596407D01*
X6126692Y-19739264D02*
X6164787Y-19739264D01*
X6164787Y-19739264D02*
X6183835Y-19729740D01*
X6183835Y-19729740D02*
X6193358Y-19720216D01*
X6193358Y-19720216D02*
X6212406Y-19691645D01*
X6212406Y-19691645D02*
X6221930Y-19653550D01*
X6221930Y-19653550D02*
X6221930Y-19577359D01*
X6221930Y-19577359D02*
X6212406Y-19558311D01*
X6212406Y-19558311D02*
X6202882Y-19548788D01*
X6202882Y-19548788D02*
X6183835Y-19539264D01*
X6183835Y-19539264D02*
X6145739Y-19539264D01*
X6145739Y-19539264D02*
X6126692Y-19548788D01*
X6126692Y-19548788D02*
X6117168Y-19558311D01*
X6117168Y-19558311D02*
X6107644Y-19577359D01*
X6107644Y-19577359D02*
X6107644Y-19624978D01*
X6107644Y-19624978D02*
X6117168Y-19644026D01*
X6117168Y-19644026D02*
X6126692Y-19653550D01*
X6126692Y-19653550D02*
X6145739Y-19663073D01*
X6145739Y-19663073D02*
X6183835Y-19663073D01*
X6183835Y-19663073D02*
X6202882Y-19653550D01*
X6202882Y-19653550D02*
X6212406Y-19644026D01*
X6212406Y-19644026D02*
X6221930Y-19624978D01*
X6460025Y-19739264D02*
X6460025Y-19539264D01*
X6545739Y-19739264D02*
X6545739Y-19634502D01*
X6545739Y-19634502D02*
X6536216Y-19615454D01*
X6536216Y-19615454D02*
X6517168Y-19605930D01*
X6517168Y-19605930D02*
X6488596Y-19605930D01*
X6488596Y-19605930D02*
X6469549Y-19615454D01*
X6469549Y-19615454D02*
X6460025Y-19624978D01*
X6669549Y-19739264D02*
X6650501Y-19729740D01*
X6650501Y-19729740D02*
X6640977Y-19720216D01*
X6640977Y-19720216D02*
X6631454Y-19701169D01*
X6631454Y-19701169D02*
X6631454Y-19644026D01*
X6631454Y-19644026D02*
X6640977Y-19624978D01*
X6640977Y-19624978D02*
X6650501Y-19615454D01*
X6650501Y-19615454D02*
X6669549Y-19605930D01*
X6669549Y-19605930D02*
X6698120Y-19605930D01*
X6698120Y-19605930D02*
X6717168Y-19615454D01*
X6717168Y-19615454D02*
X6726692Y-19624978D01*
X6726692Y-19624978D02*
X6736216Y-19644026D01*
X6736216Y-19644026D02*
X6736216Y-19701169D01*
X6736216Y-19701169D02*
X6726692Y-19720216D01*
X6726692Y-19720216D02*
X6717168Y-19729740D01*
X6717168Y-19729740D02*
X6698120Y-19739264D01*
X6698120Y-19739264D02*
X6669549Y-19739264D01*
X6850501Y-19739264D02*
X6831454Y-19729740D01*
X6831454Y-19729740D02*
X6821930Y-19710692D01*
X6821930Y-19710692D02*
X6821930Y-19539264D01*
X7002882Y-19729740D02*
X6983835Y-19739264D01*
X6983835Y-19739264D02*
X6945739Y-19739264D01*
X6945739Y-19739264D02*
X6926692Y-19729740D01*
X6926692Y-19729740D02*
X6917168Y-19710692D01*
X6917168Y-19710692D02*
X6917168Y-19634502D01*
X6917168Y-19634502D02*
X6926692Y-19615454D01*
X6926692Y-19615454D02*
X6945739Y-19605930D01*
X6945739Y-19605930D02*
X6983835Y-19605930D01*
X6983835Y-19605930D02*
X7002882Y-19615454D01*
X7002882Y-19615454D02*
X7012406Y-19634502D01*
X7012406Y-19634502D02*
X7012406Y-19653550D01*
X7012406Y-19653550D02*
X6917168Y-19672597D01*
X7088597Y-19729740D02*
X7107644Y-19739264D01*
X7107644Y-19739264D02*
X7145739Y-19739264D01*
X7145739Y-19739264D02*
X7164787Y-19729740D01*
X7164787Y-19729740D02*
X7174311Y-19710692D01*
X7174311Y-19710692D02*
X7174311Y-19701169D01*
X7174311Y-19701169D02*
X7164787Y-19682121D01*
X7164787Y-19682121D02*
X7145739Y-19672597D01*
X7145739Y-19672597D02*
X7117168Y-19672597D01*
X7117168Y-19672597D02*
X7098120Y-19663073D01*
X7098120Y-19663073D02*
X7088597Y-19644026D01*
X7088597Y-19644026D02*
X7088597Y-19634502D01*
X7088597Y-19634502D02*
X7098120Y-19615454D01*
X7098120Y-19615454D02*
X7117168Y-19605930D01*
X7117168Y-19605930D02*
X7145739Y-19605930D01*
X7145739Y-19605930D02*
X7164787Y-19615454D01*
X7240978Y-19815454D02*
X7250501Y-19805930D01*
X7250501Y-19805930D02*
X7269549Y-19777359D01*
X7269549Y-19777359D02*
X7279073Y-19758311D01*
X7279073Y-19758311D02*
X7288597Y-19729740D01*
X7288597Y-19729740D02*
X7298120Y-19682121D01*
X7298120Y-19682121D02*
X7298120Y-19644026D01*
X7298120Y-19644026D02*
X7288597Y-19596407D01*
X7288597Y-19596407D02*
X7279073Y-19567835D01*
X7279073Y-19567835D02*
X7269549Y-19548788D01*
X7269549Y-19548788D02*
X7250501Y-19520216D01*
X7250501Y-19520216D02*
X7240978Y-19510692D01*
D13*
X2098120Y-19910740D02*
G75*
G03*
X2098120Y-19910740I-40000J0D01*
G01*
D11*
X2383834Y-19803264D02*
X2402882Y-19803264D01*
X2402882Y-19803264D02*
X2421930Y-19812788D01*
X2421930Y-19812788D02*
X2431453Y-19822311D01*
X2431453Y-19822311D02*
X2440977Y-19841359D01*
X2440977Y-19841359D02*
X2450501Y-19879454D01*
X2450501Y-19879454D02*
X2450501Y-19927073D01*
X2450501Y-19927073D02*
X2440977Y-19965169D01*
X2440977Y-19965169D02*
X2431453Y-19984216D01*
X2431453Y-19984216D02*
X2421930Y-19993740D01*
X2421930Y-19993740D02*
X2402882Y-20003264D01*
X2402882Y-20003264D02*
X2383834Y-20003264D01*
X2383834Y-20003264D02*
X2364787Y-19993740D01*
X2364787Y-19993740D02*
X2355263Y-19984216D01*
X2355263Y-19984216D02*
X2345739Y-19965169D01*
X2345739Y-19965169D02*
X2336215Y-19927073D01*
X2336215Y-19927073D02*
X2336215Y-19879454D01*
X2336215Y-19879454D02*
X2345739Y-19841359D01*
X2345739Y-19841359D02*
X2355263Y-19822311D01*
X2355263Y-19822311D02*
X2364787Y-19812788D01*
X2364787Y-19812788D02*
X2383834Y-19803264D01*
X2536215Y-19984216D02*
X2545739Y-19993740D01*
X2545739Y-19993740D02*
X2536215Y-20003264D01*
X2536215Y-20003264D02*
X2526691Y-19993740D01*
X2526691Y-19993740D02*
X2536215Y-19984216D01*
X2536215Y-19984216D02*
X2536215Y-20003264D01*
X2660025Y-19888978D02*
X2640977Y-19879454D01*
X2640977Y-19879454D02*
X2631453Y-19869930D01*
X2631453Y-19869930D02*
X2621930Y-19850883D01*
X2621930Y-19850883D02*
X2621930Y-19841359D01*
X2621930Y-19841359D02*
X2631453Y-19822311D01*
X2631453Y-19822311D02*
X2640977Y-19812788D01*
X2640977Y-19812788D02*
X2660025Y-19803264D01*
X2660025Y-19803264D02*
X2698120Y-19803264D01*
X2698120Y-19803264D02*
X2717168Y-19812788D01*
X2717168Y-19812788D02*
X2726691Y-19822311D01*
X2726691Y-19822311D02*
X2736215Y-19841359D01*
X2736215Y-19841359D02*
X2736215Y-19850883D01*
X2736215Y-19850883D02*
X2726691Y-19869930D01*
X2726691Y-19869930D02*
X2717168Y-19879454D01*
X2717168Y-19879454D02*
X2698120Y-19888978D01*
X2698120Y-19888978D02*
X2660025Y-19888978D01*
X2660025Y-19888978D02*
X2640977Y-19898502D01*
X2640977Y-19898502D02*
X2631453Y-19908026D01*
X2631453Y-19908026D02*
X2621930Y-19927073D01*
X2621930Y-19927073D02*
X2621930Y-19965169D01*
X2621930Y-19965169D02*
X2631453Y-19984216D01*
X2631453Y-19984216D02*
X2640977Y-19993740D01*
X2640977Y-19993740D02*
X2660025Y-20003264D01*
X2660025Y-20003264D02*
X2698120Y-20003264D01*
X2698120Y-20003264D02*
X2717168Y-19993740D01*
X2717168Y-19993740D02*
X2726691Y-19984216D01*
X2726691Y-19984216D02*
X2736215Y-19965169D01*
X2736215Y-19965169D02*
X2736215Y-19927073D01*
X2736215Y-19927073D02*
X2726691Y-19908026D01*
X2726691Y-19908026D02*
X2717168Y-19898502D01*
X2717168Y-19898502D02*
X2698120Y-19888978D01*
X2860025Y-19803264D02*
X2879072Y-19803264D01*
X2879072Y-19803264D02*
X2898120Y-19812788D01*
X2898120Y-19812788D02*
X2907644Y-19822311D01*
X2907644Y-19822311D02*
X2917168Y-19841359D01*
X2917168Y-19841359D02*
X2926691Y-19879454D01*
X2926691Y-19879454D02*
X2926691Y-19927073D01*
X2926691Y-19927073D02*
X2917168Y-19965169D01*
X2917168Y-19965169D02*
X2907644Y-19984216D01*
X2907644Y-19984216D02*
X2898120Y-19993740D01*
X2898120Y-19993740D02*
X2879072Y-20003264D01*
X2879072Y-20003264D02*
X2860025Y-20003264D01*
X2860025Y-20003264D02*
X2840977Y-19993740D01*
X2840977Y-19993740D02*
X2831453Y-19984216D01*
X2831453Y-19984216D02*
X2821929Y-19965169D01*
X2821929Y-19965169D02*
X2812406Y-19927073D01*
X2812406Y-19927073D02*
X2812406Y-19879454D01*
X2812406Y-19879454D02*
X2821929Y-19841359D01*
X2821929Y-19841359D02*
X2831453Y-19822311D01*
X2831453Y-19822311D02*
X2840977Y-19812788D01*
X2840977Y-19812788D02*
X2860025Y-19803264D01*
X3050501Y-19803264D02*
X3069549Y-19803264D01*
X3069549Y-19803264D02*
X3088596Y-19812788D01*
X3088596Y-19812788D02*
X3098120Y-19822311D01*
X3098120Y-19822311D02*
X3107644Y-19841359D01*
X3107644Y-19841359D02*
X3117168Y-19879454D01*
X3117168Y-19879454D02*
X3117168Y-19927073D01*
X3117168Y-19927073D02*
X3107644Y-19965169D01*
X3107644Y-19965169D02*
X3098120Y-19984216D01*
X3098120Y-19984216D02*
X3088596Y-19993740D01*
X3088596Y-19993740D02*
X3069549Y-20003264D01*
X3069549Y-20003264D02*
X3050501Y-20003264D01*
X3050501Y-20003264D02*
X3031453Y-19993740D01*
X3031453Y-19993740D02*
X3021929Y-19984216D01*
X3021929Y-19984216D02*
X3012406Y-19965169D01*
X3012406Y-19965169D02*
X3002882Y-19927073D01*
X3002882Y-19927073D02*
X3002882Y-19879454D01*
X3002882Y-19879454D02*
X3012406Y-19841359D01*
X3012406Y-19841359D02*
X3021929Y-19822311D01*
X3021929Y-19822311D02*
X3031453Y-19812788D01*
X3031453Y-19812788D02*
X3050501Y-19803264D01*
X3202882Y-20003264D02*
X3202882Y-19869930D01*
X3202882Y-19888978D02*
X3212406Y-19879454D01*
X3212406Y-19879454D02*
X3231453Y-19869930D01*
X3231453Y-19869930D02*
X3260025Y-19869930D01*
X3260025Y-19869930D02*
X3279072Y-19879454D01*
X3279072Y-19879454D02*
X3288596Y-19898502D01*
X3288596Y-19898502D02*
X3288596Y-20003264D01*
X3288596Y-19898502D02*
X3298120Y-19879454D01*
X3298120Y-19879454D02*
X3317168Y-19869930D01*
X3317168Y-19869930D02*
X3345739Y-19869930D01*
X3345739Y-19869930D02*
X3364787Y-19879454D01*
X3364787Y-19879454D02*
X3374310Y-19898502D01*
X3374310Y-19898502D02*
X3374310Y-20003264D01*
X3469549Y-20003264D02*
X3469549Y-19869930D01*
X3469549Y-19888978D02*
X3479072Y-19879454D01*
X3479072Y-19879454D02*
X3498120Y-19869930D01*
X3498120Y-19869930D02*
X3526691Y-19869930D01*
X3526691Y-19869930D02*
X3545739Y-19879454D01*
X3545739Y-19879454D02*
X3555263Y-19898502D01*
X3555263Y-19898502D02*
X3555263Y-20003264D01*
X3555263Y-19898502D02*
X3564787Y-19879454D01*
X3564787Y-19879454D02*
X3583834Y-19869930D01*
X3583834Y-19869930D02*
X3612406Y-19869930D01*
X3612406Y-19869930D02*
X3631453Y-19879454D01*
X3631453Y-19879454D02*
X3640977Y-19898502D01*
X3640977Y-19898502D02*
X3640977Y-20003264D01*
X4031453Y-19793740D02*
X3860025Y-20050883D01*
X4288596Y-19803264D02*
X4307644Y-19803264D01*
X4307644Y-19803264D02*
X4326692Y-19812788D01*
X4326692Y-19812788D02*
X4336215Y-19822311D01*
X4336215Y-19822311D02*
X4345739Y-19841359D01*
X4345739Y-19841359D02*
X4355263Y-19879454D01*
X4355263Y-19879454D02*
X4355263Y-19927073D01*
X4355263Y-19927073D02*
X4345739Y-19965169D01*
X4345739Y-19965169D02*
X4336215Y-19984216D01*
X4336215Y-19984216D02*
X4326692Y-19993740D01*
X4326692Y-19993740D02*
X4307644Y-20003264D01*
X4307644Y-20003264D02*
X4288596Y-20003264D01*
X4288596Y-20003264D02*
X4269549Y-19993740D01*
X4269549Y-19993740D02*
X4260025Y-19984216D01*
X4260025Y-19984216D02*
X4250501Y-19965169D01*
X4250501Y-19965169D02*
X4240977Y-19927073D01*
X4240977Y-19927073D02*
X4240977Y-19879454D01*
X4240977Y-19879454D02*
X4250501Y-19841359D01*
X4250501Y-19841359D02*
X4260025Y-19822311D01*
X4260025Y-19822311D02*
X4269549Y-19812788D01*
X4269549Y-19812788D02*
X4288596Y-19803264D01*
X4440977Y-19984216D02*
X4450501Y-19993740D01*
X4450501Y-19993740D02*
X4440977Y-20003264D01*
X4440977Y-20003264D02*
X4431454Y-19993740D01*
X4431454Y-19993740D02*
X4440977Y-19984216D01*
X4440977Y-19984216D02*
X4440977Y-20003264D01*
X4574311Y-19803264D02*
X4593358Y-19803264D01*
X4593358Y-19803264D02*
X4612406Y-19812788D01*
X4612406Y-19812788D02*
X4621930Y-19822311D01*
X4621930Y-19822311D02*
X4631454Y-19841359D01*
X4631454Y-19841359D02*
X4640977Y-19879454D01*
X4640977Y-19879454D02*
X4640977Y-19927073D01*
X4640977Y-19927073D02*
X4631454Y-19965169D01*
X4631454Y-19965169D02*
X4621930Y-19984216D01*
X4621930Y-19984216D02*
X4612406Y-19993740D01*
X4612406Y-19993740D02*
X4593358Y-20003264D01*
X4593358Y-20003264D02*
X4574311Y-20003264D01*
X4574311Y-20003264D02*
X4555263Y-19993740D01*
X4555263Y-19993740D02*
X4545739Y-19984216D01*
X4545739Y-19984216D02*
X4536215Y-19965169D01*
X4536215Y-19965169D02*
X4526692Y-19927073D01*
X4526692Y-19927073D02*
X4526692Y-19879454D01*
X4526692Y-19879454D02*
X4536215Y-19841359D01*
X4536215Y-19841359D02*
X4545739Y-19822311D01*
X4545739Y-19822311D02*
X4555263Y-19812788D01*
X4555263Y-19812788D02*
X4574311Y-19803264D01*
X4707644Y-19803264D02*
X4831454Y-19803264D01*
X4831454Y-19803264D02*
X4764787Y-19879454D01*
X4764787Y-19879454D02*
X4793358Y-19879454D01*
X4793358Y-19879454D02*
X4812406Y-19888978D01*
X4812406Y-19888978D02*
X4821930Y-19898502D01*
X4821930Y-19898502D02*
X4831454Y-19917550D01*
X4831454Y-19917550D02*
X4831454Y-19965169D01*
X4831454Y-19965169D02*
X4821930Y-19984216D01*
X4821930Y-19984216D02*
X4812406Y-19993740D01*
X4812406Y-19993740D02*
X4793358Y-20003264D01*
X4793358Y-20003264D02*
X4736215Y-20003264D01*
X4736215Y-20003264D02*
X4717168Y-19993740D01*
X4717168Y-19993740D02*
X4707644Y-19984216D01*
X5021930Y-20003264D02*
X4907644Y-20003264D01*
X4964787Y-20003264D02*
X4964787Y-19803264D01*
X4964787Y-19803264D02*
X4945739Y-19831835D01*
X4945739Y-19831835D02*
X4926692Y-19850883D01*
X4926692Y-19850883D02*
X4907644Y-19860407D01*
X5202882Y-19803264D02*
X5107644Y-19803264D01*
X5107644Y-19803264D02*
X5098120Y-19898502D01*
X5098120Y-19898502D02*
X5107644Y-19888978D01*
X5107644Y-19888978D02*
X5126692Y-19879454D01*
X5126692Y-19879454D02*
X5174311Y-19879454D01*
X5174311Y-19879454D02*
X5193358Y-19888978D01*
X5193358Y-19888978D02*
X5202882Y-19898502D01*
X5202882Y-19898502D02*
X5212406Y-19917550D01*
X5212406Y-19917550D02*
X5212406Y-19965169D01*
X5212406Y-19965169D02*
X5202882Y-19984216D01*
X5202882Y-19984216D02*
X5193358Y-19993740D01*
X5193358Y-19993740D02*
X5174311Y-20003264D01*
X5174311Y-20003264D02*
X5126692Y-20003264D01*
X5126692Y-20003264D02*
X5107644Y-19993740D01*
X5107644Y-19993740D02*
X5098120Y-19984216D01*
X5288596Y-19803264D02*
X5288596Y-19841359D01*
X5364787Y-19803264D02*
X5364787Y-19841359D01*
X5660025Y-20079454D02*
X5650501Y-20069930D01*
X5650501Y-20069930D02*
X5631454Y-20041359D01*
X5631454Y-20041359D02*
X5621930Y-20022311D01*
X5621930Y-20022311D02*
X5612406Y-19993740D01*
X5612406Y-19993740D02*
X5602882Y-19946121D01*
X5602882Y-19946121D02*
X5602882Y-19908026D01*
X5602882Y-19908026D02*
X5612406Y-19860407D01*
X5612406Y-19860407D02*
X5621930Y-19831835D01*
X5621930Y-19831835D02*
X5631454Y-19812788D01*
X5631454Y-19812788D02*
X5650501Y-19784216D01*
X5650501Y-19784216D02*
X5660025Y-19774692D01*
X5726692Y-19822311D02*
X5736215Y-19812788D01*
X5736215Y-19812788D02*
X5755263Y-19803264D01*
X5755263Y-19803264D02*
X5802882Y-19803264D01*
X5802882Y-19803264D02*
X5821930Y-19812788D01*
X5821930Y-19812788D02*
X5831454Y-19822311D01*
X5831454Y-19822311D02*
X5840977Y-19841359D01*
X5840977Y-19841359D02*
X5840977Y-19860407D01*
X5840977Y-19860407D02*
X5831454Y-19888978D01*
X5831454Y-19888978D02*
X5717168Y-20003264D01*
X5717168Y-20003264D02*
X5840977Y-20003264D01*
X6021930Y-19803264D02*
X5926692Y-19803264D01*
X5926692Y-19803264D02*
X5917168Y-19898502D01*
X5917168Y-19898502D02*
X5926692Y-19888978D01*
X5926692Y-19888978D02*
X5945739Y-19879454D01*
X5945739Y-19879454D02*
X5993358Y-19879454D01*
X5993358Y-19879454D02*
X6012406Y-19888978D01*
X6012406Y-19888978D02*
X6021930Y-19898502D01*
X6021930Y-19898502D02*
X6031454Y-19917550D01*
X6031454Y-19917550D02*
X6031454Y-19965169D01*
X6031454Y-19965169D02*
X6021930Y-19984216D01*
X6021930Y-19984216D02*
X6012406Y-19993740D01*
X6012406Y-19993740D02*
X5993358Y-20003264D01*
X5993358Y-20003264D02*
X5945739Y-20003264D01*
X5945739Y-20003264D02*
X5926692Y-19993740D01*
X5926692Y-19993740D02*
X5917168Y-19984216D01*
X6202882Y-19803264D02*
X6164787Y-19803264D01*
X6164787Y-19803264D02*
X6145739Y-19812788D01*
X6145739Y-19812788D02*
X6136215Y-19822311D01*
X6136215Y-19822311D02*
X6117168Y-19850883D01*
X6117168Y-19850883D02*
X6107644Y-19888978D01*
X6107644Y-19888978D02*
X6107644Y-19965169D01*
X6107644Y-19965169D02*
X6117168Y-19984216D01*
X6117168Y-19984216D02*
X6126692Y-19993740D01*
X6126692Y-19993740D02*
X6145739Y-20003264D01*
X6145739Y-20003264D02*
X6183835Y-20003264D01*
X6183835Y-20003264D02*
X6202882Y-19993740D01*
X6202882Y-19993740D02*
X6212406Y-19984216D01*
X6212406Y-19984216D02*
X6221930Y-19965169D01*
X6221930Y-19965169D02*
X6221930Y-19917550D01*
X6221930Y-19917550D02*
X6212406Y-19898502D01*
X6212406Y-19898502D02*
X6202882Y-19888978D01*
X6202882Y-19888978D02*
X6183835Y-19879454D01*
X6183835Y-19879454D02*
X6145739Y-19879454D01*
X6145739Y-19879454D02*
X6126692Y-19888978D01*
X6126692Y-19888978D02*
X6117168Y-19898502D01*
X6117168Y-19898502D02*
X6107644Y-19917550D01*
X6460025Y-20003264D02*
X6460025Y-19803264D01*
X6545739Y-20003264D02*
X6545739Y-19898502D01*
X6545739Y-19898502D02*
X6536216Y-19879454D01*
X6536216Y-19879454D02*
X6517168Y-19869930D01*
X6517168Y-19869930D02*
X6488596Y-19869930D01*
X6488596Y-19869930D02*
X6469549Y-19879454D01*
X6469549Y-19879454D02*
X6460025Y-19888978D01*
X6669549Y-20003264D02*
X6650501Y-19993740D01*
X6650501Y-19993740D02*
X6640977Y-19984216D01*
X6640977Y-19984216D02*
X6631454Y-19965169D01*
X6631454Y-19965169D02*
X6631454Y-19908026D01*
X6631454Y-19908026D02*
X6640977Y-19888978D01*
X6640977Y-19888978D02*
X6650501Y-19879454D01*
X6650501Y-19879454D02*
X6669549Y-19869930D01*
X6669549Y-19869930D02*
X6698120Y-19869930D01*
X6698120Y-19869930D02*
X6717168Y-19879454D01*
X6717168Y-19879454D02*
X6726692Y-19888978D01*
X6726692Y-19888978D02*
X6736216Y-19908026D01*
X6736216Y-19908026D02*
X6736216Y-19965169D01*
X6736216Y-19965169D02*
X6726692Y-19984216D01*
X6726692Y-19984216D02*
X6717168Y-19993740D01*
X6717168Y-19993740D02*
X6698120Y-20003264D01*
X6698120Y-20003264D02*
X6669549Y-20003264D01*
X6850501Y-20003264D02*
X6831454Y-19993740D01*
X6831454Y-19993740D02*
X6821930Y-19974692D01*
X6821930Y-19974692D02*
X6821930Y-19803264D01*
X7002882Y-19993740D02*
X6983835Y-20003264D01*
X6983835Y-20003264D02*
X6945739Y-20003264D01*
X6945739Y-20003264D02*
X6926692Y-19993740D01*
X6926692Y-19993740D02*
X6917168Y-19974692D01*
X6917168Y-19974692D02*
X6917168Y-19898502D01*
X6917168Y-19898502D02*
X6926692Y-19879454D01*
X6926692Y-19879454D02*
X6945739Y-19869930D01*
X6945739Y-19869930D02*
X6983835Y-19869930D01*
X6983835Y-19869930D02*
X7002882Y-19879454D01*
X7002882Y-19879454D02*
X7012406Y-19898502D01*
X7012406Y-19898502D02*
X7012406Y-19917550D01*
X7012406Y-19917550D02*
X6917168Y-19936597D01*
X7088597Y-19993740D02*
X7107644Y-20003264D01*
X7107644Y-20003264D02*
X7145739Y-20003264D01*
X7145739Y-20003264D02*
X7164787Y-19993740D01*
X7164787Y-19993740D02*
X7174311Y-19974692D01*
X7174311Y-19974692D02*
X7174311Y-19965169D01*
X7174311Y-19965169D02*
X7164787Y-19946121D01*
X7164787Y-19946121D02*
X7145739Y-19936597D01*
X7145739Y-19936597D02*
X7117168Y-19936597D01*
X7117168Y-19936597D02*
X7098120Y-19927073D01*
X7098120Y-19927073D02*
X7088597Y-19908026D01*
X7088597Y-19908026D02*
X7088597Y-19898502D01*
X7088597Y-19898502D02*
X7098120Y-19879454D01*
X7098120Y-19879454D02*
X7117168Y-19869930D01*
X7117168Y-19869930D02*
X7145739Y-19869930D01*
X7145739Y-19869930D02*
X7164787Y-19879454D01*
X7240978Y-20079454D02*
X7250501Y-20069930D01*
X7250501Y-20069930D02*
X7269549Y-20041359D01*
X7269549Y-20041359D02*
X7279073Y-20022311D01*
X7279073Y-20022311D02*
X7288597Y-19993740D01*
X7288597Y-19993740D02*
X7298120Y-19946121D01*
X7298120Y-19946121D02*
X7298120Y-19908026D01*
X7298120Y-19908026D02*
X7288597Y-19860407D01*
X7288597Y-19860407D02*
X7279073Y-19831835D01*
X7279073Y-19831835D02*
X7269549Y-19812788D01*
X7269549Y-19812788D02*
X7250501Y-19784216D01*
X7250501Y-19784216D02*
X7240978Y-19774692D01*
D10*
X2048120Y-20124740D02*
X2048120Y-20224740D01*
X1998120Y-20174740D02*
X2098120Y-20174740D01*
D11*
X2450501Y-20267264D02*
X2336215Y-20267264D01*
X2393358Y-20267264D02*
X2393358Y-20067264D01*
X2393358Y-20067264D02*
X2374310Y-20095835D01*
X2374310Y-20095835D02*
X2355263Y-20114883D01*
X2355263Y-20114883D02*
X2336215Y-20124407D01*
X2536215Y-20248216D02*
X2545739Y-20257740D01*
X2545739Y-20257740D02*
X2536215Y-20267264D01*
X2536215Y-20267264D02*
X2526691Y-20257740D01*
X2526691Y-20257740D02*
X2536215Y-20248216D01*
X2536215Y-20248216D02*
X2536215Y-20267264D01*
X2669549Y-20067264D02*
X2688596Y-20067264D01*
X2688596Y-20067264D02*
X2707644Y-20076788D01*
X2707644Y-20076788D02*
X2717168Y-20086311D01*
X2717168Y-20086311D02*
X2726691Y-20105359D01*
X2726691Y-20105359D02*
X2736215Y-20143454D01*
X2736215Y-20143454D02*
X2736215Y-20191073D01*
X2736215Y-20191073D02*
X2726691Y-20229169D01*
X2726691Y-20229169D02*
X2717168Y-20248216D01*
X2717168Y-20248216D02*
X2707644Y-20257740D01*
X2707644Y-20257740D02*
X2688596Y-20267264D01*
X2688596Y-20267264D02*
X2669549Y-20267264D01*
X2669549Y-20267264D02*
X2650501Y-20257740D01*
X2650501Y-20257740D02*
X2640977Y-20248216D01*
X2640977Y-20248216D02*
X2631453Y-20229169D01*
X2631453Y-20229169D02*
X2621930Y-20191073D01*
X2621930Y-20191073D02*
X2621930Y-20143454D01*
X2621930Y-20143454D02*
X2631453Y-20105359D01*
X2631453Y-20105359D02*
X2640977Y-20086311D01*
X2640977Y-20086311D02*
X2650501Y-20076788D01*
X2650501Y-20076788D02*
X2669549Y-20067264D01*
X2860025Y-20067264D02*
X2879072Y-20067264D01*
X2879072Y-20067264D02*
X2898120Y-20076788D01*
X2898120Y-20076788D02*
X2907644Y-20086311D01*
X2907644Y-20086311D02*
X2917168Y-20105359D01*
X2917168Y-20105359D02*
X2926691Y-20143454D01*
X2926691Y-20143454D02*
X2926691Y-20191073D01*
X2926691Y-20191073D02*
X2917168Y-20229169D01*
X2917168Y-20229169D02*
X2907644Y-20248216D01*
X2907644Y-20248216D02*
X2898120Y-20257740D01*
X2898120Y-20257740D02*
X2879072Y-20267264D01*
X2879072Y-20267264D02*
X2860025Y-20267264D01*
X2860025Y-20267264D02*
X2840977Y-20257740D01*
X2840977Y-20257740D02*
X2831453Y-20248216D01*
X2831453Y-20248216D02*
X2821929Y-20229169D01*
X2821929Y-20229169D02*
X2812406Y-20191073D01*
X2812406Y-20191073D02*
X2812406Y-20143454D01*
X2812406Y-20143454D02*
X2821929Y-20105359D01*
X2821929Y-20105359D02*
X2831453Y-20086311D01*
X2831453Y-20086311D02*
X2840977Y-20076788D01*
X2840977Y-20076788D02*
X2860025Y-20067264D01*
X3050501Y-20067264D02*
X3069549Y-20067264D01*
X3069549Y-20067264D02*
X3088596Y-20076788D01*
X3088596Y-20076788D02*
X3098120Y-20086311D01*
X3098120Y-20086311D02*
X3107644Y-20105359D01*
X3107644Y-20105359D02*
X3117168Y-20143454D01*
X3117168Y-20143454D02*
X3117168Y-20191073D01*
X3117168Y-20191073D02*
X3107644Y-20229169D01*
X3107644Y-20229169D02*
X3098120Y-20248216D01*
X3098120Y-20248216D02*
X3088596Y-20257740D01*
X3088596Y-20257740D02*
X3069549Y-20267264D01*
X3069549Y-20267264D02*
X3050501Y-20267264D01*
X3050501Y-20267264D02*
X3031453Y-20257740D01*
X3031453Y-20257740D02*
X3021929Y-20248216D01*
X3021929Y-20248216D02*
X3012406Y-20229169D01*
X3012406Y-20229169D02*
X3002882Y-20191073D01*
X3002882Y-20191073D02*
X3002882Y-20143454D01*
X3002882Y-20143454D02*
X3012406Y-20105359D01*
X3012406Y-20105359D02*
X3021929Y-20086311D01*
X3021929Y-20086311D02*
X3031453Y-20076788D01*
X3031453Y-20076788D02*
X3050501Y-20067264D01*
X3202882Y-20267264D02*
X3202882Y-20133930D01*
X3202882Y-20152978D02*
X3212406Y-20143454D01*
X3212406Y-20143454D02*
X3231453Y-20133930D01*
X3231453Y-20133930D02*
X3260025Y-20133930D01*
X3260025Y-20133930D02*
X3279072Y-20143454D01*
X3279072Y-20143454D02*
X3288596Y-20162502D01*
X3288596Y-20162502D02*
X3288596Y-20267264D01*
X3288596Y-20162502D02*
X3298120Y-20143454D01*
X3298120Y-20143454D02*
X3317168Y-20133930D01*
X3317168Y-20133930D02*
X3345739Y-20133930D01*
X3345739Y-20133930D02*
X3364787Y-20143454D01*
X3364787Y-20143454D02*
X3374310Y-20162502D01*
X3374310Y-20162502D02*
X3374310Y-20267264D01*
X3469549Y-20267264D02*
X3469549Y-20133930D01*
X3469549Y-20152978D02*
X3479072Y-20143454D01*
X3479072Y-20143454D02*
X3498120Y-20133930D01*
X3498120Y-20133930D02*
X3526691Y-20133930D01*
X3526691Y-20133930D02*
X3545739Y-20143454D01*
X3545739Y-20143454D02*
X3555263Y-20162502D01*
X3555263Y-20162502D02*
X3555263Y-20267264D01*
X3555263Y-20162502D02*
X3564787Y-20143454D01*
X3564787Y-20143454D02*
X3583834Y-20133930D01*
X3583834Y-20133930D02*
X3612406Y-20133930D01*
X3612406Y-20133930D02*
X3631453Y-20143454D01*
X3631453Y-20143454D02*
X3640977Y-20162502D01*
X3640977Y-20162502D02*
X3640977Y-20267264D01*
X4031453Y-20057740D02*
X3860025Y-20314883D01*
X4288596Y-20067264D02*
X4307644Y-20067264D01*
X4307644Y-20067264D02*
X4326692Y-20076788D01*
X4326692Y-20076788D02*
X4336215Y-20086311D01*
X4336215Y-20086311D02*
X4345739Y-20105359D01*
X4345739Y-20105359D02*
X4355263Y-20143454D01*
X4355263Y-20143454D02*
X4355263Y-20191073D01*
X4355263Y-20191073D02*
X4345739Y-20229169D01*
X4345739Y-20229169D02*
X4336215Y-20248216D01*
X4336215Y-20248216D02*
X4326692Y-20257740D01*
X4326692Y-20257740D02*
X4307644Y-20267264D01*
X4307644Y-20267264D02*
X4288596Y-20267264D01*
X4288596Y-20267264D02*
X4269549Y-20257740D01*
X4269549Y-20257740D02*
X4260025Y-20248216D01*
X4260025Y-20248216D02*
X4250501Y-20229169D01*
X4250501Y-20229169D02*
X4240977Y-20191073D01*
X4240977Y-20191073D02*
X4240977Y-20143454D01*
X4240977Y-20143454D02*
X4250501Y-20105359D01*
X4250501Y-20105359D02*
X4260025Y-20086311D01*
X4260025Y-20086311D02*
X4269549Y-20076788D01*
X4269549Y-20076788D02*
X4288596Y-20067264D01*
X4440977Y-20248216D02*
X4450501Y-20257740D01*
X4450501Y-20257740D02*
X4440977Y-20267264D01*
X4440977Y-20267264D02*
X4431454Y-20257740D01*
X4431454Y-20257740D02*
X4440977Y-20248216D01*
X4440977Y-20248216D02*
X4440977Y-20267264D01*
X4574311Y-20067264D02*
X4593358Y-20067264D01*
X4593358Y-20067264D02*
X4612406Y-20076788D01*
X4612406Y-20076788D02*
X4621930Y-20086311D01*
X4621930Y-20086311D02*
X4631454Y-20105359D01*
X4631454Y-20105359D02*
X4640977Y-20143454D01*
X4640977Y-20143454D02*
X4640977Y-20191073D01*
X4640977Y-20191073D02*
X4631454Y-20229169D01*
X4631454Y-20229169D02*
X4621930Y-20248216D01*
X4621930Y-20248216D02*
X4612406Y-20257740D01*
X4612406Y-20257740D02*
X4593358Y-20267264D01*
X4593358Y-20267264D02*
X4574311Y-20267264D01*
X4574311Y-20267264D02*
X4555263Y-20257740D01*
X4555263Y-20257740D02*
X4545739Y-20248216D01*
X4545739Y-20248216D02*
X4536215Y-20229169D01*
X4536215Y-20229169D02*
X4526692Y-20191073D01*
X4526692Y-20191073D02*
X4526692Y-20143454D01*
X4526692Y-20143454D02*
X4536215Y-20105359D01*
X4536215Y-20105359D02*
X4545739Y-20086311D01*
X4545739Y-20086311D02*
X4555263Y-20076788D01*
X4555263Y-20076788D02*
X4574311Y-20067264D01*
X4707644Y-20067264D02*
X4831454Y-20067264D01*
X4831454Y-20067264D02*
X4764787Y-20143454D01*
X4764787Y-20143454D02*
X4793358Y-20143454D01*
X4793358Y-20143454D02*
X4812406Y-20152978D01*
X4812406Y-20152978D02*
X4821930Y-20162502D01*
X4821930Y-20162502D02*
X4831454Y-20181550D01*
X4831454Y-20181550D02*
X4831454Y-20229169D01*
X4831454Y-20229169D02*
X4821930Y-20248216D01*
X4821930Y-20248216D02*
X4812406Y-20257740D01*
X4812406Y-20257740D02*
X4793358Y-20267264D01*
X4793358Y-20267264D02*
X4736215Y-20267264D01*
X4736215Y-20267264D02*
X4717168Y-20257740D01*
X4717168Y-20257740D02*
X4707644Y-20248216D01*
X4926692Y-20267264D02*
X4964787Y-20267264D01*
X4964787Y-20267264D02*
X4983835Y-20257740D01*
X4983835Y-20257740D02*
X4993358Y-20248216D01*
X4993358Y-20248216D02*
X5012406Y-20219645D01*
X5012406Y-20219645D02*
X5021930Y-20181550D01*
X5021930Y-20181550D02*
X5021930Y-20105359D01*
X5021930Y-20105359D02*
X5012406Y-20086311D01*
X5012406Y-20086311D02*
X5002882Y-20076788D01*
X5002882Y-20076788D02*
X4983835Y-20067264D01*
X4983835Y-20067264D02*
X4945739Y-20067264D01*
X4945739Y-20067264D02*
X4926692Y-20076788D01*
X4926692Y-20076788D02*
X4917168Y-20086311D01*
X4917168Y-20086311D02*
X4907644Y-20105359D01*
X4907644Y-20105359D02*
X4907644Y-20152978D01*
X4907644Y-20152978D02*
X4917168Y-20172026D01*
X4917168Y-20172026D02*
X4926692Y-20181550D01*
X4926692Y-20181550D02*
X4945739Y-20191073D01*
X4945739Y-20191073D02*
X4983835Y-20191073D01*
X4983835Y-20191073D02*
X5002882Y-20181550D01*
X5002882Y-20181550D02*
X5012406Y-20172026D01*
X5012406Y-20172026D02*
X5021930Y-20152978D01*
X5193358Y-20133930D02*
X5193358Y-20267264D01*
X5145739Y-20057740D02*
X5098120Y-20200597D01*
X5098120Y-20200597D02*
X5221930Y-20200597D01*
X5288596Y-20067264D02*
X5288596Y-20105359D01*
X5364787Y-20067264D02*
X5364787Y-20105359D01*
X5660025Y-20343454D02*
X5650501Y-20333930D01*
X5650501Y-20333930D02*
X5631454Y-20305359D01*
X5631454Y-20305359D02*
X5621930Y-20286311D01*
X5621930Y-20286311D02*
X5612406Y-20257740D01*
X5612406Y-20257740D02*
X5602882Y-20210121D01*
X5602882Y-20210121D02*
X5602882Y-20172026D01*
X5602882Y-20172026D02*
X5612406Y-20124407D01*
X5612406Y-20124407D02*
X5621930Y-20095835D01*
X5621930Y-20095835D02*
X5631454Y-20076788D01*
X5631454Y-20076788D02*
X5650501Y-20048216D01*
X5650501Y-20048216D02*
X5660025Y-20038692D01*
X5840977Y-20267264D02*
X5726692Y-20267264D01*
X5783834Y-20267264D02*
X5783834Y-20067264D01*
X5783834Y-20067264D02*
X5764787Y-20095835D01*
X5764787Y-20095835D02*
X5745739Y-20114883D01*
X5745739Y-20114883D02*
X5726692Y-20124407D01*
X5964787Y-20067264D02*
X5983835Y-20067264D01*
X5983835Y-20067264D02*
X6002882Y-20076788D01*
X6002882Y-20076788D02*
X6012406Y-20086311D01*
X6012406Y-20086311D02*
X6021930Y-20105359D01*
X6021930Y-20105359D02*
X6031454Y-20143454D01*
X6031454Y-20143454D02*
X6031454Y-20191073D01*
X6031454Y-20191073D02*
X6021930Y-20229169D01*
X6021930Y-20229169D02*
X6012406Y-20248216D01*
X6012406Y-20248216D02*
X6002882Y-20257740D01*
X6002882Y-20257740D02*
X5983835Y-20267264D01*
X5983835Y-20267264D02*
X5964787Y-20267264D01*
X5964787Y-20267264D02*
X5945739Y-20257740D01*
X5945739Y-20257740D02*
X5936215Y-20248216D01*
X5936215Y-20248216D02*
X5926692Y-20229169D01*
X5926692Y-20229169D02*
X5917168Y-20191073D01*
X5917168Y-20191073D02*
X5917168Y-20143454D01*
X5917168Y-20143454D02*
X5926692Y-20105359D01*
X5926692Y-20105359D02*
X5936215Y-20086311D01*
X5936215Y-20086311D02*
X5945739Y-20076788D01*
X5945739Y-20076788D02*
X5964787Y-20067264D01*
X6269549Y-20267264D02*
X6269549Y-20067264D01*
X6355263Y-20267264D02*
X6355263Y-20162502D01*
X6355263Y-20162502D02*
X6345739Y-20143454D01*
X6345739Y-20143454D02*
X6326692Y-20133930D01*
X6326692Y-20133930D02*
X6298120Y-20133930D01*
X6298120Y-20133930D02*
X6279073Y-20143454D01*
X6279073Y-20143454D02*
X6269549Y-20152978D01*
X6479073Y-20267264D02*
X6460025Y-20257740D01*
X6460025Y-20257740D02*
X6450501Y-20248216D01*
X6450501Y-20248216D02*
X6440977Y-20229169D01*
X6440977Y-20229169D02*
X6440977Y-20172026D01*
X6440977Y-20172026D02*
X6450501Y-20152978D01*
X6450501Y-20152978D02*
X6460025Y-20143454D01*
X6460025Y-20143454D02*
X6479073Y-20133930D01*
X6479073Y-20133930D02*
X6507644Y-20133930D01*
X6507644Y-20133930D02*
X6526692Y-20143454D01*
X6526692Y-20143454D02*
X6536216Y-20152978D01*
X6536216Y-20152978D02*
X6545739Y-20172026D01*
X6545739Y-20172026D02*
X6545739Y-20229169D01*
X6545739Y-20229169D02*
X6536216Y-20248216D01*
X6536216Y-20248216D02*
X6526692Y-20257740D01*
X6526692Y-20257740D02*
X6507644Y-20267264D01*
X6507644Y-20267264D02*
X6479073Y-20267264D01*
X6660025Y-20267264D02*
X6640977Y-20257740D01*
X6640977Y-20257740D02*
X6631454Y-20238692D01*
X6631454Y-20238692D02*
X6631454Y-20067264D01*
X6812406Y-20257740D02*
X6793358Y-20267264D01*
X6793358Y-20267264D02*
X6755263Y-20267264D01*
X6755263Y-20267264D02*
X6736216Y-20257740D01*
X6736216Y-20257740D02*
X6726692Y-20238692D01*
X6726692Y-20238692D02*
X6726692Y-20162502D01*
X6726692Y-20162502D02*
X6736216Y-20143454D01*
X6736216Y-20143454D02*
X6755263Y-20133930D01*
X6755263Y-20133930D02*
X6793358Y-20133930D01*
X6793358Y-20133930D02*
X6812406Y-20143454D01*
X6812406Y-20143454D02*
X6821930Y-20162502D01*
X6821930Y-20162502D02*
X6821930Y-20181550D01*
X6821930Y-20181550D02*
X6726692Y-20200597D01*
X6898120Y-20257740D02*
X6917168Y-20267264D01*
X6917168Y-20267264D02*
X6955263Y-20267264D01*
X6955263Y-20267264D02*
X6974311Y-20257740D01*
X6974311Y-20257740D02*
X6983835Y-20238692D01*
X6983835Y-20238692D02*
X6983835Y-20229169D01*
X6983835Y-20229169D02*
X6974311Y-20210121D01*
X6974311Y-20210121D02*
X6955263Y-20200597D01*
X6955263Y-20200597D02*
X6926692Y-20200597D01*
X6926692Y-20200597D02*
X6907644Y-20191073D01*
X6907644Y-20191073D02*
X6898120Y-20172026D01*
X6898120Y-20172026D02*
X6898120Y-20162502D01*
X6898120Y-20162502D02*
X6907644Y-20143454D01*
X6907644Y-20143454D02*
X6926692Y-20133930D01*
X6926692Y-20133930D02*
X6955263Y-20133930D01*
X6955263Y-20133930D02*
X6974311Y-20143454D01*
X7050501Y-20343454D02*
X7060025Y-20333930D01*
X7060025Y-20333930D02*
X7079073Y-20305359D01*
X7079073Y-20305359D02*
X7088597Y-20286311D01*
X7088597Y-20286311D02*
X7098120Y-20257740D01*
X7098120Y-20257740D02*
X7107644Y-20210121D01*
X7107644Y-20210121D02*
X7107644Y-20172026D01*
X7107644Y-20172026D02*
X7098120Y-20124407D01*
X7098120Y-20124407D02*
X7088597Y-20095835D01*
X7088597Y-20095835D02*
X7079073Y-20076788D01*
X7079073Y-20076788D02*
X7060025Y-20048216D01*
X7060025Y-20048216D02*
X7050501Y-20038692D01*
M02*
