M48
; DRILL file {KiCad 7.0.1} date Fri Jul 12 16:59:57 2024
; FORMAT={-:-/ absolute / metric / decimal}
; #@! TF.CreationDate,2024-07-12T16:59:57-07:00
; #@! TF.GenerationSoftware,Kicad,Pcbnew,7.0.1
; #@! TF.FileFunction,Plated,1,4,PTH
FMAT,2
METRIC
; #@! TA.AperFunction,Plated,PTH,ViaDrill
T1C0.400
; #@! TA.AperFunction,Plated,PTH,ComponentDrill
T2C0.800
; #@! TA.AperFunction,Plated,PTH,ComponentDrill
T3C1.000
%
G90
G05
T1
X24.333Y-45.085
X24.587Y-59.639
X24.613Y-57.175
X25.629Y-37.389
X25.705Y-35.484
X26.187Y-117.602
X26.746Y-121.082
X27.254Y-157.912
X27.432Y-52.756
X27.838Y-141.478
X27.991Y-134.366
X28.296Y-67.412
X28.524Y-62.586
X28.726Y-59.868
X28.778Y-37.77
X28.931Y-34.798
X28.931Y-173.685
X29.159Y-120.955
X29.515Y-138.176
X29.693Y-117.653
X30.099Y-133.68
X30.556Y-157.429
X30.81Y-52.654
X31.293Y-141.63
X31.877Y-129.489
X31.877Y-138.227
X31.902Y-67.843
X33.706Y-114.249
X35.712Y-77.927
X35.789Y-78.969
X36.83Y-79.604
X40.081Y-79.527
X40.742Y-38.43
X40.996Y-35.255
X41.91Y-60.02
X42.012Y-57.506
X42.824Y-121.666
X42.875Y-117.754
X43.536Y-52.756
X44.323Y-157.912
X44.552Y-37.287
X44.653Y-34.468
X44.856Y-67.361
X45.568Y-142.545
X45.744Y-61.214
X45.747Y-58.649
X45.974Y-134.264
X46.152Y-158.09
X46.482Y-121.641
X46.558Y-117.881
X46.838Y-53.518
X47.142Y-156.032
X47.168Y-138.405
X47.777Y-157.455
X48.057Y-115.265
X48.184Y-67.335
X48.463Y-134.391
X48.92Y-142.367
X49.784Y-76.149
X49.962Y-138.659
X50.597Y-77.775
X50.8Y-108.179
X50.825Y-109.474
X52.172Y-85.115
X52.324Y-111.481
X52.349Y-113.69
X52.4Y-87.579
X54.61Y-64.922
X54.737Y-119.456
X55.651Y-80.772
X55.728Y-109.106
X55.778Y-119.405
X55.905Y-81.89
X56.159Y-76.708
X56.312Y-77.699
X56.845Y-109.068
X56.896Y-34.925
X56.896Y-37.49
X56.972Y-84.811
X57.201Y-110.16
X58.039Y-79.604
X58.09Y-84.912
X58.191Y-112.243
X58.395Y-81.001
X58.42Y-109.855
X58.725Y-165.913
X59.106Y-78.562
X59.334Y-167.208
X59.741Y-52.756
X59.817Y-60.554
X59.893Y-57.937
X60.046Y-35.103
X60.046Y-37.694
X60.63Y-157.937
X60.706Y-117.958
X60.808Y-121.31
X61.189Y-86.843
X61.316Y-105.588
X61.443Y-113.411
X61.57Y-108.356
X61.951Y-52.4
X61.951Y-67.412
X62.357Y-73.33
X62.433Y-86.182
X62.433Y-107.925
X62.459Y-138.582
X62.586Y-134.645
X62.662Y-116.103
X62.789Y-142.545
X63.03Y-61.697
X63.056Y-58.953
X63.119Y-105.283
X63.83Y-158.064
X64.11Y-118.034
X64.313Y-105.181
X64.532Y-113.223
X64.541Y-134.849
X64.694Y-73.736
X64.821Y-121.107
X65.1Y-105.943
X65.684Y-67.158
X66.167Y-142.57
X66.281Y-154.953
X66.294Y-105.639
X66.396Y-138.354
X66.726Y-77.368
X67.564Y-157.734
X68.072Y-76.632
X68.656Y-169.52
X68.758Y-163.678
X69.012Y-162.509
X70.333Y-80.543
X71.323Y-81.204
X71.526Y-171.12
X71.882Y-168.859
X72.009Y-120.04
X72.212Y-166.726
X72.263Y-163.805
X72.314Y-43.917
X72.314Y-165.303
X72.644Y-161.341
X72.822Y-162.535
X73.076Y-37.186
X73.076Y-45.161
X73.203Y-34.671
X73.457Y-39.878
X73.457Y-170.485
X74.397Y-46.99
X74.6Y-168.021
X74.854Y-168.91
X75.438Y-174.244
X76.2Y-51.46
X76.632Y-115.037
X76.657Y-37.414
X76.708Y-34.595
X77.292Y-60.528
X77.318Y-161.315
X77.368Y-57.556
X77.572Y-116.764
X78.156Y-162.992
X78.384Y-168.25
X78.435Y-161.925
X78.486Y-67.056
X78.511Y-157.81
X79.146Y-51.359
X79.273Y-45.974
X79.527Y-142.088
X79.934Y-133.782
X80.568Y-59.284
X80.568Y-62.052
X81.026Y-116.84
X81.153Y-104.089
X81.839Y-102.87
X82.093Y-138.786
X82.321Y-67.208
X82.728Y-157.836
X82.855Y-114.833
X82.906Y-142.265
X83.007Y-166.878
X83.109Y-165.887
X83.337Y-133.604
X83.782Y-109.029
X83.795Y-138.709
X83.998Y-174.041
X84.125Y-176.759
X84.379Y-86.538
X84.785Y-168.554
X85.268Y-106.528
X85.547Y-108.89
X86.208Y-43.434
X87.579Y-39.726
X87.681Y-40.919
X87.859Y-45.085
X88.062Y-51.74
X88.062Y-52.883
X88.163Y-38.506
X88.316Y-87.224
X88.9Y-108.61
X89.179Y-44.044
X90.043Y-44.348
X91.415Y-39.853
X91.948Y-40.716
X92.354Y-36.881
X92.443Y-46.215
X92.619Y-39.294
X92.812Y-50.267
X92.84Y-44.936
X93.421Y-111.379
X93.447Y-46.355
X93.624Y-89.992
X93.726Y-86.614
X93.777Y-108.102
X93.853Y-36.83
X94.259Y-47.041
X94.539Y-53.797
X94.615Y-38.329
X95.123Y-40.767
X95.174Y-44.475
X95.402Y-50.19
T2
X22.15Y-35.013
X22.15Y-37.553
X22.15Y-40.093
X22.15Y-42.633
X22.177Y-57.067
X22.177Y-59.607
X22.177Y-62.147
X22.177Y-64.687
X22.177Y-115.875
X22.177Y-118.415
X22.177Y-120.955
X22.177Y-123.495
X22.177Y-138.735
X22.177Y-141.275
X22.177Y-143.815
X22.177Y-146.355
X22.327Y-46.05
X22.327Y-48.59
X22.327Y-51.13
X22.327Y-53.67
X22.377Y-67.633
X22.377Y-70.173
X22.377Y-72.713
X22.377Y-75.253
X22.377Y-127.305
X22.377Y-129.845
X22.377Y-132.385
X22.377Y-134.925
X22.377Y-150.165
X22.377Y-152.705
X22.377Y-155.245
X22.377Y-157.785
X35.45Y-35.013
X35.45Y-37.553
X35.45Y-40.093
X35.45Y-42.633
X35.477Y-57.067
X35.477Y-59.607
X35.477Y-62.147
X35.477Y-64.687
X35.477Y-115.875
X35.477Y-118.415
X35.477Y-120.955
X35.477Y-123.495
X35.477Y-138.735
X35.477Y-141.275
X35.477Y-143.815
X35.477Y-146.355
X35.627Y-46.05
X35.627Y-48.59
X35.627Y-51.13
X35.627Y-53.67
X35.677Y-67.633
X35.677Y-70.173
X35.677Y-72.713
X35.677Y-75.253
X35.677Y-127.305
X35.677Y-129.845
X35.677Y-132.385
X35.677Y-134.925
X35.677Y-150.165
X35.677Y-152.705
X35.677Y-155.245
X35.677Y-157.785
X38.075Y-35.026
X38.075Y-37.566
X38.075Y-40.106
X38.075Y-42.646
X38.237Y-45.983
X38.237Y-48.523
X38.237Y-51.063
X38.237Y-53.603
X39.469Y-57.061
X39.469Y-59.601
X39.469Y-62.141
X39.469Y-64.681
X39.469Y-115.875
X39.469Y-118.415
X39.469Y-120.955
X39.469Y-123.495
X39.469Y-138.735
X39.469Y-141.275
X39.469Y-143.815
X39.469Y-146.355
X39.557Y-127.356
X39.557Y-129.896
X39.557Y-132.436
X39.557Y-134.976
X39.669Y-67.633
X39.669Y-70.173
X39.669Y-72.713
X39.669Y-75.253
X39.669Y-150.165
X39.669Y-152.705
X39.669Y-155.245
X39.669Y-157.785
X51.375Y-35.026
X51.375Y-37.566
X51.375Y-40.106
X51.375Y-42.646
X51.537Y-45.983
X51.537Y-48.523
X51.537Y-51.063
X51.537Y-53.603
X52.769Y-57.061
X52.769Y-59.601
X52.769Y-62.141
X52.769Y-64.681
X52.769Y-115.875
X52.769Y-118.415
X52.769Y-120.955
X52.769Y-123.495
X52.769Y-138.735
X52.769Y-141.275
X52.769Y-143.815
X52.769Y-146.355
X52.857Y-127.356
X52.857Y-129.896
X52.857Y-132.436
X52.857Y-134.976
X52.969Y-67.633
X52.969Y-70.173
X52.969Y-72.713
X52.969Y-75.253
X52.969Y-150.165
X52.969Y-152.705
X52.969Y-155.245
X52.969Y-157.785
X54.002Y-35.026
X54.002Y-37.566
X54.002Y-40.106
X54.002Y-42.646
X54.204Y-45.923
X54.204Y-48.463
X54.204Y-51.003
X54.204Y-53.543
X56.886Y-57.067
X56.886Y-59.607
X56.886Y-62.147
X56.886Y-64.687
X56.886Y-115.875
X56.886Y-118.415
X56.886Y-120.955
X56.886Y-123.495
X56.886Y-138.735
X56.886Y-141.275
X56.886Y-143.815
X56.886Y-146.355
X57.002Y-127.346
X57.002Y-129.886
X57.002Y-132.426
X57.002Y-134.966
X57.086Y-67.633
X57.086Y-70.173
X57.086Y-72.713
X57.086Y-75.253
X57.086Y-150.165
X57.086Y-152.705
X57.086Y-155.245
X57.086Y-157.785
X67.302Y-35.026
X67.302Y-37.566
X67.302Y-40.106
X67.302Y-42.646
X67.504Y-45.923
X67.504Y-48.463
X67.504Y-51.003
X67.504Y-53.543
X70.029Y-35.09
X70.029Y-37.63
X70.029Y-40.17
X70.029Y-42.71
X70.184Y-45.913
X70.184Y-48.453
X70.184Y-50.993
X70.184Y-53.533
X70.186Y-57.067
X70.186Y-59.607
X70.186Y-62.147
X70.186Y-64.687
X70.186Y-115.875
X70.186Y-118.415
X70.186Y-120.955
X70.186Y-123.495
X70.186Y-138.735
X70.186Y-141.275
X70.186Y-143.815
X70.186Y-146.355
X70.302Y-127.346
X70.302Y-129.886
X70.302Y-132.426
X70.302Y-134.966
X70.386Y-67.633
X70.386Y-70.173
X70.386Y-72.713
X70.386Y-75.253
X70.386Y-150.165
X70.386Y-152.705
X70.386Y-155.245
X70.386Y-157.785
X74.241Y-57.067
X74.241Y-59.607
X74.241Y-62.147
X74.241Y-64.687
X74.241Y-115.875
X74.241Y-118.415
X74.241Y-120.955
X74.241Y-123.495
X74.241Y-138.735
X74.241Y-141.275
X74.241Y-143.815
X74.241Y-146.355
X74.441Y-67.633
X74.441Y-70.173
X74.441Y-72.713
X74.441Y-75.253
X74.441Y-127.305
X74.441Y-129.845
X74.441Y-132.385
X74.441Y-134.925
X74.441Y-150.165
X74.441Y-152.705
X74.441Y-155.245
X74.441Y-157.785
X83.329Y-35.09
X83.329Y-37.63
X83.329Y-40.17
X83.329Y-42.71
X83.484Y-45.913
X83.484Y-48.453
X83.484Y-50.993
X83.484Y-53.533
X87.541Y-57.067
X87.541Y-59.607
X87.541Y-62.147
X87.541Y-64.687
X87.541Y-115.875
X87.541Y-118.415
X87.541Y-120.955
X87.541Y-123.495
X87.541Y-138.735
X87.541Y-141.275
X87.541Y-143.815
X87.541Y-146.355
X87.741Y-67.633
X87.741Y-70.173
X87.741Y-72.713
X87.741Y-75.253
X87.741Y-127.305
X87.741Y-129.845
X87.741Y-132.385
X87.741Y-134.925
X87.741Y-150.165
X87.741Y-152.705
X87.741Y-155.245
X87.741Y-157.785
T3
X72.568Y-185.826
X75.108Y-185.826
X77.648Y-185.826
X80.188Y-185.826
X82.728Y-185.826
X85.268Y-185.826
X87.808Y-185.826
X90.348Y-185.826
X92.888Y-185.826
X95.428Y-185.826
T0
M30
