%TF.GenerationSoftware,KiCad,Pcbnew,7.0.1*%
%TF.CreationDate,2024-07-12T17:00:14-07:00*%
%TF.ProjectId,air_foil_pcb,6169725f-666f-4696-9c5f-7063622e6b69,rev?*%
%TF.SameCoordinates,Original*%
%TF.FileFunction,Drillmap*%
%TF.FilePolarity,Positive*%
%FSLAX45Y45*%
G04 Gerber Fmt 4.5, Leading zero omitted, Abs format (unit mm)*
G04 Created by KiCad (PCBNEW 7.0.1) date 2024-07-12 17:00:14*
%MOMM*%
%LPD*%
G01*
G04 APERTURE LIST*
%ADD10C,0.100000*%
%ADD11C,0.200000*%
%ADD12C,0.254000*%
%ADD13C,0.317500*%
G04 APERTURE END LIST*
D10*
X9723120Y-1983740D02*
X2103120Y-1983740D01*
X2103120Y-19001740D01*
X9723120Y-19001740D01*
X9723120Y-1983740D01*
D11*
D12*
X3827540Y-8209230D02*
X4081540Y-8463230D01*
X4081540Y-8209230D02*
X3827540Y-8463230D01*
D11*
X3192540Y-8463230D02*
X4716540Y-8463230D01*
X4716540Y-8463230D02*
G75*
G03*
X4716540Y-8209230I0J127000D01*
G01*
X4716540Y-8209230D02*
X3192540Y-8209230D01*
X3192540Y-8209230D02*
G75*
G03*
X3192540Y-8463230I0J-127000D01*
G01*
D12*
X3827540Y-11009230D02*
X4081540Y-11263230D01*
X4081540Y-11009230D02*
X3827540Y-11263230D01*
D11*
X3192540Y-11263230D02*
X4716540Y-11263230D01*
X4716540Y-11263230D02*
G75*
G03*
X4716540Y-11009230I0J127000D01*
G01*
X4716540Y-11009230D02*
X3192540Y-11009230D01*
X3192540Y-11009230D02*
G75*
G03*
X3192540Y-11263230I0J-127000D01*
G01*
D12*
X7427540Y-8209230D02*
X7681540Y-8463230D01*
X7681540Y-8209230D02*
X7427540Y-8463230D01*
D11*
X6792540Y-8463230D02*
X8316540Y-8463230D01*
X8316540Y-8463230D02*
G75*
G03*
X8316540Y-8209230I0J127000D01*
G01*
X8316540Y-8209230D02*
X6792540Y-8209230D01*
X6792540Y-8209230D02*
G75*
G03*
X6792540Y-8463230I0J-127000D01*
G01*
D12*
X7427540Y-11009230D02*
X7681540Y-11263230D01*
X7681540Y-11009230D02*
X7427540Y-11263230D01*
D11*
X6792540Y-11263230D02*
X8316540Y-11263230D01*
X8316540Y-11263230D02*
G75*
G03*
X8316540Y-11009230I0J127000D01*
G01*
X8316540Y-11009230D02*
X6792540Y-11009230D01*
X6792540Y-11009230D02*
G75*
G03*
X6792540Y-11263230I0J-127000D01*
G01*
D13*
X2726730Y-18592800D02*
G75*
G03*
X2726730Y-18592800I-158750J0D01*
G01*
X2977830Y-2786380D02*
G75*
G03*
X2977830Y-2786380I-158750J0D01*
G01*
X4227830Y-2786380D02*
G75*
G03*
X4227830Y-2786380I-158750J0D01*
G01*
X5497830Y-2787630D02*
G75*
G03*
X5497830Y-2787630I-158750J0D01*
G01*
X6602730Y-18592800D02*
G75*
G03*
X6602730Y-18592800I-158750J0D01*
G01*
X6767830Y-2787630D02*
G75*
G03*
X6767830Y-2787630I-158750J0D01*
G01*
X8037830Y-2786380D02*
G75*
G03*
X8037830Y-2786380I-158750J0D01*
G01*
X9287830Y-2786380D02*
G75*
G03*
X9287830Y-2786380I-158750J0D01*
G01*
D11*
X2345739Y-19319264D02*
X2345739Y-19119264D01*
X2345739Y-19119264D02*
X2393358Y-19119264D01*
X2393358Y-19119264D02*
X2421930Y-19128788D01*
X2421930Y-19128788D02*
X2440977Y-19147835D01*
X2440977Y-19147835D02*
X2450501Y-19166883D01*
X2450501Y-19166883D02*
X2460025Y-19204978D01*
X2460025Y-19204978D02*
X2460025Y-19233550D01*
X2460025Y-19233550D02*
X2450501Y-19271645D01*
X2450501Y-19271645D02*
X2440977Y-19290692D01*
X2440977Y-19290692D02*
X2421930Y-19309740D01*
X2421930Y-19309740D02*
X2393358Y-19319264D01*
X2393358Y-19319264D02*
X2345739Y-19319264D01*
X2545739Y-19319264D02*
X2545739Y-19185930D01*
X2545739Y-19224026D02*
X2555263Y-19204978D01*
X2555263Y-19204978D02*
X2564787Y-19195454D01*
X2564787Y-19195454D02*
X2583834Y-19185930D01*
X2583834Y-19185930D02*
X2602882Y-19185930D01*
X2669549Y-19319264D02*
X2669549Y-19185930D01*
X2669549Y-19119264D02*
X2660025Y-19128788D01*
X2660025Y-19128788D02*
X2669549Y-19138311D01*
X2669549Y-19138311D02*
X2679072Y-19128788D01*
X2679072Y-19128788D02*
X2669549Y-19119264D01*
X2669549Y-19119264D02*
X2669549Y-19138311D01*
X2793358Y-19319264D02*
X2774310Y-19309740D01*
X2774310Y-19309740D02*
X2764787Y-19290692D01*
X2764787Y-19290692D02*
X2764787Y-19119264D01*
X2898120Y-19319264D02*
X2879072Y-19309740D01*
X2879072Y-19309740D02*
X2869548Y-19290692D01*
X2869548Y-19290692D02*
X2869548Y-19119264D01*
X3126691Y-19319264D02*
X3126691Y-19119264D01*
X3126691Y-19119264D02*
X3193358Y-19262121D01*
X3193358Y-19262121D02*
X3260025Y-19119264D01*
X3260025Y-19119264D02*
X3260025Y-19319264D01*
X3440977Y-19319264D02*
X3440977Y-19214502D01*
X3440977Y-19214502D02*
X3431453Y-19195454D01*
X3431453Y-19195454D02*
X3412406Y-19185930D01*
X3412406Y-19185930D02*
X3374310Y-19185930D01*
X3374310Y-19185930D02*
X3355263Y-19195454D01*
X3440977Y-19309740D02*
X3421929Y-19319264D01*
X3421929Y-19319264D02*
X3374310Y-19319264D01*
X3374310Y-19319264D02*
X3355263Y-19309740D01*
X3355263Y-19309740D02*
X3345739Y-19290692D01*
X3345739Y-19290692D02*
X3345739Y-19271645D01*
X3345739Y-19271645D02*
X3355263Y-19252597D01*
X3355263Y-19252597D02*
X3374310Y-19243073D01*
X3374310Y-19243073D02*
X3421929Y-19243073D01*
X3421929Y-19243073D02*
X3440977Y-19233550D01*
X3536215Y-19185930D02*
X3536215Y-19385930D01*
X3536215Y-19195454D02*
X3555263Y-19185930D01*
X3555263Y-19185930D02*
X3593358Y-19185930D01*
X3593358Y-19185930D02*
X3612406Y-19195454D01*
X3612406Y-19195454D02*
X3621929Y-19204978D01*
X3621929Y-19204978D02*
X3631453Y-19224026D01*
X3631453Y-19224026D02*
X3631453Y-19281169D01*
X3631453Y-19281169D02*
X3621929Y-19300216D01*
X3621929Y-19300216D02*
X3612406Y-19309740D01*
X3612406Y-19309740D02*
X3593358Y-19319264D01*
X3593358Y-19319264D02*
X3555263Y-19319264D01*
X3555263Y-19319264D02*
X3536215Y-19309740D01*
X3717168Y-19300216D02*
X3726691Y-19309740D01*
X3726691Y-19309740D02*
X3717168Y-19319264D01*
X3717168Y-19319264D02*
X3707644Y-19309740D01*
X3707644Y-19309740D02*
X3717168Y-19300216D01*
X3717168Y-19300216D02*
X3717168Y-19319264D01*
X3717168Y-19195454D02*
X3726691Y-19204978D01*
X3726691Y-19204978D02*
X3717168Y-19214502D01*
X3717168Y-19214502D02*
X3707644Y-19204978D01*
X3707644Y-19204978D02*
X3717168Y-19195454D01*
X3717168Y-19195454D02*
X3717168Y-19214502D01*
X1898120Y-19546740D02*
X2098120Y-19746740D01*
X2098120Y-19546740D02*
X1898120Y-19746740D01*
X2336215Y-19558311D02*
X2345739Y-19548788D01*
X2345739Y-19548788D02*
X2364787Y-19539264D01*
X2364787Y-19539264D02*
X2412406Y-19539264D01*
X2412406Y-19539264D02*
X2431453Y-19548788D01*
X2431453Y-19548788D02*
X2440977Y-19558311D01*
X2440977Y-19558311D02*
X2450501Y-19577359D01*
X2450501Y-19577359D02*
X2450501Y-19596407D01*
X2450501Y-19596407D02*
X2440977Y-19624978D01*
X2440977Y-19624978D02*
X2326691Y-19739264D01*
X2326691Y-19739264D02*
X2450501Y-19739264D01*
X2536215Y-19720216D02*
X2545739Y-19729740D01*
X2545739Y-19729740D02*
X2536215Y-19739264D01*
X2536215Y-19739264D02*
X2526691Y-19729740D01*
X2526691Y-19729740D02*
X2536215Y-19720216D01*
X2536215Y-19720216D02*
X2536215Y-19739264D01*
X2726691Y-19539264D02*
X2631453Y-19539264D01*
X2631453Y-19539264D02*
X2621930Y-19634502D01*
X2621930Y-19634502D02*
X2631453Y-19624978D01*
X2631453Y-19624978D02*
X2650501Y-19615454D01*
X2650501Y-19615454D02*
X2698120Y-19615454D01*
X2698120Y-19615454D02*
X2717168Y-19624978D01*
X2717168Y-19624978D02*
X2726691Y-19634502D01*
X2726691Y-19634502D02*
X2736215Y-19653550D01*
X2736215Y-19653550D02*
X2736215Y-19701169D01*
X2736215Y-19701169D02*
X2726691Y-19720216D01*
X2726691Y-19720216D02*
X2717168Y-19729740D01*
X2717168Y-19729740D02*
X2698120Y-19739264D01*
X2698120Y-19739264D02*
X2650501Y-19739264D01*
X2650501Y-19739264D02*
X2631453Y-19729740D01*
X2631453Y-19729740D02*
X2621930Y-19720216D01*
X2907644Y-19605930D02*
X2907644Y-19739264D01*
X2860025Y-19529740D02*
X2812406Y-19672597D01*
X2812406Y-19672597D02*
X2936215Y-19672597D01*
X3050501Y-19539264D02*
X3069549Y-19539264D01*
X3069549Y-19539264D02*
X3088596Y-19548788D01*
X3088596Y-19548788D02*
X3098120Y-19558311D01*
X3098120Y-19558311D02*
X3107644Y-19577359D01*
X3107644Y-19577359D02*
X3117168Y-19615454D01*
X3117168Y-19615454D02*
X3117168Y-19663073D01*
X3117168Y-19663073D02*
X3107644Y-19701169D01*
X3107644Y-19701169D02*
X3098120Y-19720216D01*
X3098120Y-19720216D02*
X3088596Y-19729740D01*
X3088596Y-19729740D02*
X3069549Y-19739264D01*
X3069549Y-19739264D02*
X3050501Y-19739264D01*
X3050501Y-19739264D02*
X3031453Y-19729740D01*
X3031453Y-19729740D02*
X3021929Y-19720216D01*
X3021929Y-19720216D02*
X3012406Y-19701169D01*
X3012406Y-19701169D02*
X3002882Y-19663073D01*
X3002882Y-19663073D02*
X3002882Y-19615454D01*
X3002882Y-19615454D02*
X3012406Y-19577359D01*
X3012406Y-19577359D02*
X3021929Y-19558311D01*
X3021929Y-19558311D02*
X3031453Y-19548788D01*
X3031453Y-19548788D02*
X3050501Y-19539264D01*
X3202882Y-19739264D02*
X3202882Y-19605930D01*
X3202882Y-19624978D02*
X3212406Y-19615454D01*
X3212406Y-19615454D02*
X3231453Y-19605930D01*
X3231453Y-19605930D02*
X3260025Y-19605930D01*
X3260025Y-19605930D02*
X3279072Y-19615454D01*
X3279072Y-19615454D02*
X3288596Y-19634502D01*
X3288596Y-19634502D02*
X3288596Y-19739264D01*
X3288596Y-19634502D02*
X3298120Y-19615454D01*
X3298120Y-19615454D02*
X3317168Y-19605930D01*
X3317168Y-19605930D02*
X3345739Y-19605930D01*
X3345739Y-19605930D02*
X3364787Y-19615454D01*
X3364787Y-19615454D02*
X3374310Y-19634502D01*
X3374310Y-19634502D02*
X3374310Y-19739264D01*
X3469549Y-19739264D02*
X3469549Y-19605930D01*
X3469549Y-19624978D02*
X3479072Y-19615454D01*
X3479072Y-19615454D02*
X3498120Y-19605930D01*
X3498120Y-19605930D02*
X3526691Y-19605930D01*
X3526691Y-19605930D02*
X3545739Y-19615454D01*
X3545739Y-19615454D02*
X3555263Y-19634502D01*
X3555263Y-19634502D02*
X3555263Y-19739264D01*
X3555263Y-19634502D02*
X3564787Y-19615454D01*
X3564787Y-19615454D02*
X3583834Y-19605930D01*
X3583834Y-19605930D02*
X3612406Y-19605930D01*
X3612406Y-19605930D02*
X3631453Y-19615454D01*
X3631453Y-19615454D02*
X3640977Y-19634502D01*
X3640977Y-19634502D02*
X3640977Y-19739264D01*
X4031453Y-19529740D02*
X3860025Y-19786883D01*
X4288596Y-19539264D02*
X4307644Y-19539264D01*
X4307644Y-19539264D02*
X4326692Y-19548788D01*
X4326692Y-19548788D02*
X4336215Y-19558311D01*
X4336215Y-19558311D02*
X4345739Y-19577359D01*
X4345739Y-19577359D02*
X4355263Y-19615454D01*
X4355263Y-19615454D02*
X4355263Y-19663073D01*
X4355263Y-19663073D02*
X4345739Y-19701169D01*
X4345739Y-19701169D02*
X4336215Y-19720216D01*
X4336215Y-19720216D02*
X4326692Y-19729740D01*
X4326692Y-19729740D02*
X4307644Y-19739264D01*
X4307644Y-19739264D02*
X4288596Y-19739264D01*
X4288596Y-19739264D02*
X4269549Y-19729740D01*
X4269549Y-19729740D02*
X4260025Y-19720216D01*
X4260025Y-19720216D02*
X4250501Y-19701169D01*
X4250501Y-19701169D02*
X4240977Y-19663073D01*
X4240977Y-19663073D02*
X4240977Y-19615454D01*
X4240977Y-19615454D02*
X4250501Y-19577359D01*
X4250501Y-19577359D02*
X4260025Y-19558311D01*
X4260025Y-19558311D02*
X4269549Y-19548788D01*
X4269549Y-19548788D02*
X4288596Y-19539264D01*
X4440977Y-19720216D02*
X4450501Y-19729740D01*
X4450501Y-19729740D02*
X4440977Y-19739264D01*
X4440977Y-19739264D02*
X4431454Y-19729740D01*
X4431454Y-19729740D02*
X4440977Y-19720216D01*
X4440977Y-19720216D02*
X4440977Y-19739264D01*
X4640977Y-19739264D02*
X4526692Y-19739264D01*
X4583834Y-19739264D02*
X4583834Y-19539264D01*
X4583834Y-19539264D02*
X4564787Y-19567835D01*
X4564787Y-19567835D02*
X4545739Y-19586883D01*
X4545739Y-19586883D02*
X4526692Y-19596407D01*
X4764787Y-19539264D02*
X4783835Y-19539264D01*
X4783835Y-19539264D02*
X4802882Y-19548788D01*
X4802882Y-19548788D02*
X4812406Y-19558311D01*
X4812406Y-19558311D02*
X4821930Y-19577359D01*
X4821930Y-19577359D02*
X4831454Y-19615454D01*
X4831454Y-19615454D02*
X4831454Y-19663073D01*
X4831454Y-19663073D02*
X4821930Y-19701169D01*
X4821930Y-19701169D02*
X4812406Y-19720216D01*
X4812406Y-19720216D02*
X4802882Y-19729740D01*
X4802882Y-19729740D02*
X4783835Y-19739264D01*
X4783835Y-19739264D02*
X4764787Y-19739264D01*
X4764787Y-19739264D02*
X4745739Y-19729740D01*
X4745739Y-19729740D02*
X4736215Y-19720216D01*
X4736215Y-19720216D02*
X4726692Y-19701169D01*
X4726692Y-19701169D02*
X4717168Y-19663073D01*
X4717168Y-19663073D02*
X4717168Y-19615454D01*
X4717168Y-19615454D02*
X4726692Y-19577359D01*
X4726692Y-19577359D02*
X4736215Y-19558311D01*
X4736215Y-19558311D02*
X4745739Y-19548788D01*
X4745739Y-19548788D02*
X4764787Y-19539264D01*
X4955263Y-19539264D02*
X4974311Y-19539264D01*
X4974311Y-19539264D02*
X4993358Y-19548788D01*
X4993358Y-19548788D02*
X5002882Y-19558311D01*
X5002882Y-19558311D02*
X5012406Y-19577359D01*
X5012406Y-19577359D02*
X5021930Y-19615454D01*
X5021930Y-19615454D02*
X5021930Y-19663073D01*
X5021930Y-19663073D02*
X5012406Y-19701169D01*
X5012406Y-19701169D02*
X5002882Y-19720216D01*
X5002882Y-19720216D02*
X4993358Y-19729740D01*
X4993358Y-19729740D02*
X4974311Y-19739264D01*
X4974311Y-19739264D02*
X4955263Y-19739264D01*
X4955263Y-19739264D02*
X4936215Y-19729740D01*
X4936215Y-19729740D02*
X4926692Y-19720216D01*
X4926692Y-19720216D02*
X4917168Y-19701169D01*
X4917168Y-19701169D02*
X4907644Y-19663073D01*
X4907644Y-19663073D02*
X4907644Y-19615454D01*
X4907644Y-19615454D02*
X4917168Y-19577359D01*
X4917168Y-19577359D02*
X4926692Y-19558311D01*
X4926692Y-19558311D02*
X4936215Y-19548788D01*
X4936215Y-19548788D02*
X4955263Y-19539264D01*
X5145739Y-19539264D02*
X5164787Y-19539264D01*
X5164787Y-19539264D02*
X5183835Y-19548788D01*
X5183835Y-19548788D02*
X5193358Y-19558311D01*
X5193358Y-19558311D02*
X5202882Y-19577359D01*
X5202882Y-19577359D02*
X5212406Y-19615454D01*
X5212406Y-19615454D02*
X5212406Y-19663073D01*
X5212406Y-19663073D02*
X5202882Y-19701169D01*
X5202882Y-19701169D02*
X5193358Y-19720216D01*
X5193358Y-19720216D02*
X5183835Y-19729740D01*
X5183835Y-19729740D02*
X5164787Y-19739264D01*
X5164787Y-19739264D02*
X5145739Y-19739264D01*
X5145739Y-19739264D02*
X5126692Y-19729740D01*
X5126692Y-19729740D02*
X5117168Y-19720216D01*
X5117168Y-19720216D02*
X5107644Y-19701169D01*
X5107644Y-19701169D02*
X5098120Y-19663073D01*
X5098120Y-19663073D02*
X5098120Y-19615454D01*
X5098120Y-19615454D02*
X5107644Y-19577359D01*
X5107644Y-19577359D02*
X5117168Y-19558311D01*
X5117168Y-19558311D02*
X5126692Y-19548788D01*
X5126692Y-19548788D02*
X5145739Y-19539264D01*
X5288596Y-19539264D02*
X5288596Y-19577359D01*
X5364787Y-19539264D02*
X5364787Y-19577359D01*
X5660025Y-19815454D02*
X5650501Y-19805930D01*
X5650501Y-19805930D02*
X5631454Y-19777359D01*
X5631454Y-19777359D02*
X5621930Y-19758311D01*
X5621930Y-19758311D02*
X5612406Y-19729740D01*
X5612406Y-19729740D02*
X5602882Y-19682121D01*
X5602882Y-19682121D02*
X5602882Y-19644026D01*
X5602882Y-19644026D02*
X5612406Y-19596407D01*
X5612406Y-19596407D02*
X5621930Y-19567835D01*
X5621930Y-19567835D02*
X5631454Y-19548788D01*
X5631454Y-19548788D02*
X5650501Y-19520216D01*
X5650501Y-19520216D02*
X5660025Y-19510692D01*
X5774311Y-19539264D02*
X5793358Y-19539264D01*
X5793358Y-19539264D02*
X5812406Y-19548788D01*
X5812406Y-19548788D02*
X5821930Y-19558311D01*
X5821930Y-19558311D02*
X5831454Y-19577359D01*
X5831454Y-19577359D02*
X5840977Y-19615454D01*
X5840977Y-19615454D02*
X5840977Y-19663073D01*
X5840977Y-19663073D02*
X5831454Y-19701169D01*
X5831454Y-19701169D02*
X5821930Y-19720216D01*
X5821930Y-19720216D02*
X5812406Y-19729740D01*
X5812406Y-19729740D02*
X5793358Y-19739264D01*
X5793358Y-19739264D02*
X5774311Y-19739264D01*
X5774311Y-19739264D02*
X5755263Y-19729740D01*
X5755263Y-19729740D02*
X5745739Y-19720216D01*
X5745739Y-19720216D02*
X5736215Y-19701169D01*
X5736215Y-19701169D02*
X5726692Y-19663073D01*
X5726692Y-19663073D02*
X5726692Y-19615454D01*
X5726692Y-19615454D02*
X5736215Y-19577359D01*
X5736215Y-19577359D02*
X5745739Y-19558311D01*
X5745739Y-19558311D02*
X5755263Y-19548788D01*
X5755263Y-19548788D02*
X5774311Y-19539264D01*
X6079073Y-19739264D02*
X6079073Y-19539264D01*
X6164787Y-19739264D02*
X6164787Y-19634502D01*
X6164787Y-19634502D02*
X6155263Y-19615454D01*
X6155263Y-19615454D02*
X6136216Y-19605930D01*
X6136216Y-19605930D02*
X6107644Y-19605930D01*
X6107644Y-19605930D02*
X6088596Y-19615454D01*
X6088596Y-19615454D02*
X6079073Y-19624978D01*
X6288596Y-19739264D02*
X6269549Y-19729740D01*
X6269549Y-19729740D02*
X6260025Y-19720216D01*
X6260025Y-19720216D02*
X6250501Y-19701169D01*
X6250501Y-19701169D02*
X6250501Y-19644026D01*
X6250501Y-19644026D02*
X6260025Y-19624978D01*
X6260025Y-19624978D02*
X6269549Y-19615454D01*
X6269549Y-19615454D02*
X6288596Y-19605930D01*
X6288596Y-19605930D02*
X6317168Y-19605930D01*
X6317168Y-19605930D02*
X6336216Y-19615454D01*
X6336216Y-19615454D02*
X6345739Y-19624978D01*
X6345739Y-19624978D02*
X6355263Y-19644026D01*
X6355263Y-19644026D02*
X6355263Y-19701169D01*
X6355263Y-19701169D02*
X6345739Y-19720216D01*
X6345739Y-19720216D02*
X6336216Y-19729740D01*
X6336216Y-19729740D02*
X6317168Y-19739264D01*
X6317168Y-19739264D02*
X6288596Y-19739264D01*
X6469549Y-19739264D02*
X6450501Y-19729740D01*
X6450501Y-19729740D02*
X6440977Y-19710692D01*
X6440977Y-19710692D02*
X6440977Y-19539264D01*
X6621930Y-19729740D02*
X6602882Y-19739264D01*
X6602882Y-19739264D02*
X6564787Y-19739264D01*
X6564787Y-19739264D02*
X6545739Y-19729740D01*
X6545739Y-19729740D02*
X6536216Y-19710692D01*
X6536216Y-19710692D02*
X6536216Y-19634502D01*
X6536216Y-19634502D02*
X6545739Y-19615454D01*
X6545739Y-19615454D02*
X6564787Y-19605930D01*
X6564787Y-19605930D02*
X6602882Y-19605930D01*
X6602882Y-19605930D02*
X6621930Y-19615454D01*
X6621930Y-19615454D02*
X6631454Y-19634502D01*
X6631454Y-19634502D02*
X6631454Y-19653550D01*
X6631454Y-19653550D02*
X6536216Y-19672597D01*
X6707644Y-19729740D02*
X6726692Y-19739264D01*
X6726692Y-19739264D02*
X6764787Y-19739264D01*
X6764787Y-19739264D02*
X6783835Y-19729740D01*
X6783835Y-19729740D02*
X6793358Y-19710692D01*
X6793358Y-19710692D02*
X6793358Y-19701169D01*
X6793358Y-19701169D02*
X6783835Y-19682121D01*
X6783835Y-19682121D02*
X6764787Y-19672597D01*
X6764787Y-19672597D02*
X6736216Y-19672597D01*
X6736216Y-19672597D02*
X6717168Y-19663073D01*
X6717168Y-19663073D02*
X6707644Y-19644026D01*
X6707644Y-19644026D02*
X6707644Y-19634502D01*
X6707644Y-19634502D02*
X6717168Y-19615454D01*
X6717168Y-19615454D02*
X6736216Y-19605930D01*
X6736216Y-19605930D02*
X6764787Y-19605930D01*
X6764787Y-19605930D02*
X6783835Y-19615454D01*
X7031454Y-19663073D02*
X7183835Y-19663073D01*
X7107644Y-19739264D02*
X7107644Y-19586883D01*
X7517168Y-19605930D02*
X7517168Y-19739264D01*
X7469549Y-19529740D02*
X7421930Y-19672597D01*
X7421930Y-19672597D02*
X7545739Y-19672597D01*
X7764787Y-19729740D02*
X7783835Y-19739264D01*
X7783835Y-19739264D02*
X7821930Y-19739264D01*
X7821930Y-19739264D02*
X7840978Y-19729740D01*
X7840978Y-19729740D02*
X7850501Y-19710692D01*
X7850501Y-19710692D02*
X7850501Y-19701169D01*
X7850501Y-19701169D02*
X7840978Y-19682121D01*
X7840978Y-19682121D02*
X7821930Y-19672597D01*
X7821930Y-19672597D02*
X7793359Y-19672597D01*
X7793359Y-19672597D02*
X7774311Y-19663073D01*
X7774311Y-19663073D02*
X7764787Y-19644026D01*
X7764787Y-19644026D02*
X7764787Y-19634502D01*
X7764787Y-19634502D02*
X7774311Y-19615454D01*
X7774311Y-19615454D02*
X7793359Y-19605930D01*
X7793359Y-19605930D02*
X7821930Y-19605930D01*
X7821930Y-19605930D02*
X7840978Y-19615454D01*
X7964787Y-19739264D02*
X7945740Y-19729740D01*
X7945740Y-19729740D02*
X7936216Y-19710692D01*
X7936216Y-19710692D02*
X7936216Y-19539264D01*
X8069549Y-19739264D02*
X8050501Y-19729740D01*
X8050501Y-19729740D02*
X8040978Y-19720216D01*
X8040978Y-19720216D02*
X8031454Y-19701169D01*
X8031454Y-19701169D02*
X8031454Y-19644026D01*
X8031454Y-19644026D02*
X8040978Y-19624978D01*
X8040978Y-19624978D02*
X8050501Y-19615454D01*
X8050501Y-19615454D02*
X8069549Y-19605930D01*
X8069549Y-19605930D02*
X8098121Y-19605930D01*
X8098121Y-19605930D02*
X8117168Y-19615454D01*
X8117168Y-19615454D02*
X8126692Y-19624978D01*
X8126692Y-19624978D02*
X8136216Y-19644026D01*
X8136216Y-19644026D02*
X8136216Y-19701169D01*
X8136216Y-19701169D02*
X8126692Y-19720216D01*
X8126692Y-19720216D02*
X8117168Y-19729740D01*
X8117168Y-19729740D02*
X8098121Y-19739264D01*
X8098121Y-19739264D02*
X8069549Y-19739264D01*
X8193359Y-19605930D02*
X8269549Y-19605930D01*
X8221930Y-19539264D02*
X8221930Y-19710692D01*
X8221930Y-19710692D02*
X8231454Y-19729740D01*
X8231454Y-19729740D02*
X8250501Y-19739264D01*
X8250501Y-19739264D02*
X8269549Y-19739264D01*
X8326692Y-19729740D02*
X8345740Y-19739264D01*
X8345740Y-19739264D02*
X8383835Y-19739264D01*
X8383835Y-19739264D02*
X8402883Y-19729740D01*
X8402883Y-19729740D02*
X8412406Y-19710692D01*
X8412406Y-19710692D02*
X8412406Y-19701169D01*
X8412406Y-19701169D02*
X8402883Y-19682121D01*
X8402883Y-19682121D02*
X8383835Y-19672597D01*
X8383835Y-19672597D02*
X8355263Y-19672597D01*
X8355263Y-19672597D02*
X8336216Y-19663073D01*
X8336216Y-19663073D02*
X8326692Y-19644026D01*
X8326692Y-19644026D02*
X8326692Y-19634502D01*
X8326692Y-19634502D02*
X8336216Y-19615454D01*
X8336216Y-19615454D02*
X8355263Y-19605930D01*
X8355263Y-19605930D02*
X8383835Y-19605930D01*
X8383835Y-19605930D02*
X8402883Y-19615454D01*
X8479073Y-19815454D02*
X8488597Y-19805930D01*
X8488597Y-19805930D02*
X8507644Y-19777359D01*
X8507644Y-19777359D02*
X8517168Y-19758311D01*
X8517168Y-19758311D02*
X8526692Y-19729740D01*
X8526692Y-19729740D02*
X8536216Y-19682121D01*
X8536216Y-19682121D02*
X8536216Y-19644026D01*
X8536216Y-19644026D02*
X8526692Y-19596407D01*
X8526692Y-19596407D02*
X8517168Y-19567835D01*
X8517168Y-19567835D02*
X8507644Y-19548788D01*
X8507644Y-19548788D02*
X8488597Y-19520216D01*
X8488597Y-19520216D02*
X8479073Y-19510692D01*
X8840978Y-19815454D02*
X8831454Y-19805930D01*
X8831454Y-19805930D02*
X8812406Y-19777359D01*
X8812406Y-19777359D02*
X8802883Y-19758311D01*
X8802883Y-19758311D02*
X8793359Y-19729740D01*
X8793359Y-19729740D02*
X8783835Y-19682121D01*
X8783835Y-19682121D02*
X8783835Y-19644026D01*
X8783835Y-19644026D02*
X8793359Y-19596407D01*
X8793359Y-19596407D02*
X8802883Y-19567835D01*
X8802883Y-19567835D02*
X8812406Y-19548788D01*
X8812406Y-19548788D02*
X8831454Y-19520216D01*
X8831454Y-19520216D02*
X8840978Y-19510692D01*
X8917168Y-19605930D02*
X8917168Y-19739264D01*
X8917168Y-19624978D02*
X8926692Y-19615454D01*
X8926692Y-19615454D02*
X8945740Y-19605930D01*
X8945740Y-19605930D02*
X8974311Y-19605930D01*
X8974311Y-19605930D02*
X8993359Y-19615454D01*
X8993359Y-19615454D02*
X9002883Y-19634502D01*
X9002883Y-19634502D02*
X9002883Y-19739264D01*
X9126692Y-19739264D02*
X9107644Y-19729740D01*
X9107644Y-19729740D02*
X9098121Y-19720216D01*
X9098121Y-19720216D02*
X9088597Y-19701169D01*
X9088597Y-19701169D02*
X9088597Y-19644026D01*
X9088597Y-19644026D02*
X9098121Y-19624978D01*
X9098121Y-19624978D02*
X9107644Y-19615454D01*
X9107644Y-19615454D02*
X9126692Y-19605930D01*
X9126692Y-19605930D02*
X9155264Y-19605930D01*
X9155264Y-19605930D02*
X9174311Y-19615454D01*
X9174311Y-19615454D02*
X9183835Y-19624978D01*
X9183835Y-19624978D02*
X9193359Y-19644026D01*
X9193359Y-19644026D02*
X9193359Y-19701169D01*
X9193359Y-19701169D02*
X9183835Y-19720216D01*
X9183835Y-19720216D02*
X9174311Y-19729740D01*
X9174311Y-19729740D02*
X9155264Y-19739264D01*
X9155264Y-19739264D02*
X9126692Y-19739264D01*
X9250502Y-19605930D02*
X9326692Y-19605930D01*
X9279073Y-19539264D02*
X9279073Y-19710692D01*
X9279073Y-19710692D02*
X9288597Y-19729740D01*
X9288597Y-19729740D02*
X9307644Y-19739264D01*
X9307644Y-19739264D02*
X9326692Y-19739264D01*
X9545740Y-19605930D02*
X9545740Y-19805930D01*
X9545740Y-19615454D02*
X9564787Y-19605930D01*
X9564787Y-19605930D02*
X9602883Y-19605930D01*
X9602883Y-19605930D02*
X9621930Y-19615454D01*
X9621930Y-19615454D02*
X9631454Y-19624978D01*
X9631454Y-19624978D02*
X9640978Y-19644026D01*
X9640978Y-19644026D02*
X9640978Y-19701169D01*
X9640978Y-19701169D02*
X9631454Y-19720216D01*
X9631454Y-19720216D02*
X9621930Y-19729740D01*
X9621930Y-19729740D02*
X9602883Y-19739264D01*
X9602883Y-19739264D02*
X9564787Y-19739264D01*
X9564787Y-19739264D02*
X9545740Y-19729740D01*
X9755264Y-19739264D02*
X9736216Y-19729740D01*
X9736216Y-19729740D02*
X9726692Y-19710692D01*
X9726692Y-19710692D02*
X9726692Y-19539264D01*
X9917168Y-19739264D02*
X9917168Y-19634502D01*
X9917168Y-19634502D02*
X9907645Y-19615454D01*
X9907645Y-19615454D02*
X9888597Y-19605930D01*
X9888597Y-19605930D02*
X9850502Y-19605930D01*
X9850502Y-19605930D02*
X9831454Y-19615454D01*
X9917168Y-19729740D02*
X9898121Y-19739264D01*
X9898121Y-19739264D02*
X9850502Y-19739264D01*
X9850502Y-19739264D02*
X9831454Y-19729740D01*
X9831454Y-19729740D02*
X9821930Y-19710692D01*
X9821930Y-19710692D02*
X9821930Y-19691645D01*
X9821930Y-19691645D02*
X9831454Y-19672597D01*
X9831454Y-19672597D02*
X9850502Y-19663073D01*
X9850502Y-19663073D02*
X9898121Y-19663073D01*
X9898121Y-19663073D02*
X9917168Y-19653550D01*
X9983835Y-19605930D02*
X10060025Y-19605930D01*
X10012406Y-19539264D02*
X10012406Y-19710692D01*
X10012406Y-19710692D02*
X10021930Y-19729740D01*
X10021930Y-19729740D02*
X10040978Y-19739264D01*
X10040978Y-19739264D02*
X10060025Y-19739264D01*
X10202883Y-19729740D02*
X10183835Y-19739264D01*
X10183835Y-19739264D02*
X10145740Y-19739264D01*
X10145740Y-19739264D02*
X10126692Y-19729740D01*
X10126692Y-19729740D02*
X10117168Y-19710692D01*
X10117168Y-19710692D02*
X10117168Y-19634502D01*
X10117168Y-19634502D02*
X10126692Y-19615454D01*
X10126692Y-19615454D02*
X10145740Y-19605930D01*
X10145740Y-19605930D02*
X10183835Y-19605930D01*
X10183835Y-19605930D02*
X10202883Y-19615454D01*
X10202883Y-19615454D02*
X10212406Y-19634502D01*
X10212406Y-19634502D02*
X10212406Y-19653550D01*
X10212406Y-19653550D02*
X10117168Y-19672597D01*
X10383835Y-19739264D02*
X10383835Y-19539264D01*
X10383835Y-19729740D02*
X10364787Y-19739264D01*
X10364787Y-19739264D02*
X10326692Y-19739264D01*
X10326692Y-19739264D02*
X10307645Y-19729740D01*
X10307645Y-19729740D02*
X10298121Y-19720216D01*
X10298121Y-19720216D02*
X10288597Y-19701169D01*
X10288597Y-19701169D02*
X10288597Y-19644026D01*
X10288597Y-19644026D02*
X10298121Y-19624978D01*
X10298121Y-19624978D02*
X10307645Y-19615454D01*
X10307645Y-19615454D02*
X10326692Y-19605930D01*
X10326692Y-19605930D02*
X10364787Y-19605930D01*
X10364787Y-19605930D02*
X10383835Y-19615454D01*
X10460026Y-19815454D02*
X10469549Y-19805930D01*
X10469549Y-19805930D02*
X10488597Y-19777359D01*
X10488597Y-19777359D02*
X10498121Y-19758311D01*
X10498121Y-19758311D02*
X10507645Y-19729740D01*
X10507645Y-19729740D02*
X10517168Y-19682121D01*
X10517168Y-19682121D02*
X10517168Y-19644026D01*
X10517168Y-19644026D02*
X10507645Y-19596407D01*
X10507645Y-19596407D02*
X10498121Y-19567835D01*
X10498121Y-19567835D02*
X10488597Y-19548788D01*
X10488597Y-19548788D02*
X10469549Y-19520216D01*
X10469549Y-19520216D02*
X10460026Y-19510692D01*
X2098120Y-19966740D02*
G75*
G03*
X2098120Y-19966740I-100000J0D01*
G01*
X2326691Y-19859264D02*
X2450501Y-19859264D01*
X2450501Y-19859264D02*
X2383834Y-19935454D01*
X2383834Y-19935454D02*
X2412406Y-19935454D01*
X2412406Y-19935454D02*
X2431453Y-19944978D01*
X2431453Y-19944978D02*
X2440977Y-19954502D01*
X2440977Y-19954502D02*
X2450501Y-19973550D01*
X2450501Y-19973550D02*
X2450501Y-20021169D01*
X2450501Y-20021169D02*
X2440977Y-20040216D01*
X2440977Y-20040216D02*
X2431453Y-20049740D01*
X2431453Y-20049740D02*
X2412406Y-20059264D01*
X2412406Y-20059264D02*
X2355263Y-20059264D01*
X2355263Y-20059264D02*
X2336215Y-20049740D01*
X2336215Y-20049740D02*
X2326691Y-20040216D01*
X2536215Y-20040216D02*
X2545739Y-20049740D01*
X2545739Y-20049740D02*
X2536215Y-20059264D01*
X2536215Y-20059264D02*
X2526691Y-20049740D01*
X2526691Y-20049740D02*
X2536215Y-20040216D01*
X2536215Y-20040216D02*
X2536215Y-20059264D01*
X2736215Y-20059264D02*
X2621930Y-20059264D01*
X2679072Y-20059264D02*
X2679072Y-19859264D01*
X2679072Y-19859264D02*
X2660025Y-19887835D01*
X2660025Y-19887835D02*
X2640977Y-19906883D01*
X2640977Y-19906883D02*
X2621930Y-19916407D01*
X2802882Y-19859264D02*
X2936215Y-19859264D01*
X2936215Y-19859264D02*
X2850501Y-20059264D01*
X3107644Y-19859264D02*
X3012406Y-19859264D01*
X3012406Y-19859264D02*
X3002882Y-19954502D01*
X3002882Y-19954502D02*
X3012406Y-19944978D01*
X3012406Y-19944978D02*
X3031453Y-19935454D01*
X3031453Y-19935454D02*
X3079072Y-19935454D01*
X3079072Y-19935454D02*
X3098120Y-19944978D01*
X3098120Y-19944978D02*
X3107644Y-19954502D01*
X3107644Y-19954502D02*
X3117168Y-19973550D01*
X3117168Y-19973550D02*
X3117168Y-20021169D01*
X3117168Y-20021169D02*
X3107644Y-20040216D01*
X3107644Y-20040216D02*
X3098120Y-20049740D01*
X3098120Y-20049740D02*
X3079072Y-20059264D01*
X3079072Y-20059264D02*
X3031453Y-20059264D01*
X3031453Y-20059264D02*
X3012406Y-20049740D01*
X3012406Y-20049740D02*
X3002882Y-20040216D01*
X3202882Y-20059264D02*
X3202882Y-19925930D01*
X3202882Y-19944978D02*
X3212406Y-19935454D01*
X3212406Y-19935454D02*
X3231453Y-19925930D01*
X3231453Y-19925930D02*
X3260025Y-19925930D01*
X3260025Y-19925930D02*
X3279072Y-19935454D01*
X3279072Y-19935454D02*
X3288596Y-19954502D01*
X3288596Y-19954502D02*
X3288596Y-20059264D01*
X3288596Y-19954502D02*
X3298120Y-19935454D01*
X3298120Y-19935454D02*
X3317168Y-19925930D01*
X3317168Y-19925930D02*
X3345739Y-19925930D01*
X3345739Y-19925930D02*
X3364787Y-19935454D01*
X3364787Y-19935454D02*
X3374310Y-19954502D01*
X3374310Y-19954502D02*
X3374310Y-20059264D01*
X3469549Y-20059264D02*
X3469549Y-19925930D01*
X3469549Y-19944978D02*
X3479072Y-19935454D01*
X3479072Y-19935454D02*
X3498120Y-19925930D01*
X3498120Y-19925930D02*
X3526691Y-19925930D01*
X3526691Y-19925930D02*
X3545739Y-19935454D01*
X3545739Y-19935454D02*
X3555263Y-19954502D01*
X3555263Y-19954502D02*
X3555263Y-20059264D01*
X3555263Y-19954502D02*
X3564787Y-19935454D01*
X3564787Y-19935454D02*
X3583834Y-19925930D01*
X3583834Y-19925930D02*
X3612406Y-19925930D01*
X3612406Y-19925930D02*
X3631453Y-19935454D01*
X3631453Y-19935454D02*
X3640977Y-19954502D01*
X3640977Y-19954502D02*
X3640977Y-20059264D01*
X4031453Y-19849740D02*
X3860025Y-20106883D01*
X4288596Y-19859264D02*
X4307644Y-19859264D01*
X4307644Y-19859264D02*
X4326692Y-19868788D01*
X4326692Y-19868788D02*
X4336215Y-19878311D01*
X4336215Y-19878311D02*
X4345739Y-19897359D01*
X4345739Y-19897359D02*
X4355263Y-19935454D01*
X4355263Y-19935454D02*
X4355263Y-19983073D01*
X4355263Y-19983073D02*
X4345739Y-20021169D01*
X4345739Y-20021169D02*
X4336215Y-20040216D01*
X4336215Y-20040216D02*
X4326692Y-20049740D01*
X4326692Y-20049740D02*
X4307644Y-20059264D01*
X4307644Y-20059264D02*
X4288596Y-20059264D01*
X4288596Y-20059264D02*
X4269549Y-20049740D01*
X4269549Y-20049740D02*
X4260025Y-20040216D01*
X4260025Y-20040216D02*
X4250501Y-20021169D01*
X4250501Y-20021169D02*
X4240977Y-19983073D01*
X4240977Y-19983073D02*
X4240977Y-19935454D01*
X4240977Y-19935454D02*
X4250501Y-19897359D01*
X4250501Y-19897359D02*
X4260025Y-19878311D01*
X4260025Y-19878311D02*
X4269549Y-19868788D01*
X4269549Y-19868788D02*
X4288596Y-19859264D01*
X4440977Y-20040216D02*
X4450501Y-20049740D01*
X4450501Y-20049740D02*
X4440977Y-20059264D01*
X4440977Y-20059264D02*
X4431454Y-20049740D01*
X4431454Y-20049740D02*
X4440977Y-20040216D01*
X4440977Y-20040216D02*
X4440977Y-20059264D01*
X4640977Y-20059264D02*
X4526692Y-20059264D01*
X4583834Y-20059264D02*
X4583834Y-19859264D01*
X4583834Y-19859264D02*
X4564787Y-19887835D01*
X4564787Y-19887835D02*
X4545739Y-19906883D01*
X4545739Y-19906883D02*
X4526692Y-19916407D01*
X4717168Y-19878311D02*
X4726692Y-19868788D01*
X4726692Y-19868788D02*
X4745739Y-19859264D01*
X4745739Y-19859264D02*
X4793358Y-19859264D01*
X4793358Y-19859264D02*
X4812406Y-19868788D01*
X4812406Y-19868788D02*
X4821930Y-19878311D01*
X4821930Y-19878311D02*
X4831454Y-19897359D01*
X4831454Y-19897359D02*
X4831454Y-19916407D01*
X4831454Y-19916407D02*
X4821930Y-19944978D01*
X4821930Y-19944978D02*
X4707644Y-20059264D01*
X4707644Y-20059264D02*
X4831454Y-20059264D01*
X5012406Y-19859264D02*
X4917168Y-19859264D01*
X4917168Y-19859264D02*
X4907644Y-19954502D01*
X4907644Y-19954502D02*
X4917168Y-19944978D01*
X4917168Y-19944978D02*
X4936215Y-19935454D01*
X4936215Y-19935454D02*
X4983835Y-19935454D01*
X4983835Y-19935454D02*
X5002882Y-19944978D01*
X5002882Y-19944978D02*
X5012406Y-19954502D01*
X5012406Y-19954502D02*
X5021930Y-19973550D01*
X5021930Y-19973550D02*
X5021930Y-20021169D01*
X5021930Y-20021169D02*
X5012406Y-20040216D01*
X5012406Y-20040216D02*
X5002882Y-20049740D01*
X5002882Y-20049740D02*
X4983835Y-20059264D01*
X4983835Y-20059264D02*
X4936215Y-20059264D01*
X4936215Y-20059264D02*
X4917168Y-20049740D01*
X4917168Y-20049740D02*
X4907644Y-20040216D01*
X5145739Y-19859264D02*
X5164787Y-19859264D01*
X5164787Y-19859264D02*
X5183835Y-19868788D01*
X5183835Y-19868788D02*
X5193358Y-19878311D01*
X5193358Y-19878311D02*
X5202882Y-19897359D01*
X5202882Y-19897359D02*
X5212406Y-19935454D01*
X5212406Y-19935454D02*
X5212406Y-19983073D01*
X5212406Y-19983073D02*
X5202882Y-20021169D01*
X5202882Y-20021169D02*
X5193358Y-20040216D01*
X5193358Y-20040216D02*
X5183835Y-20049740D01*
X5183835Y-20049740D02*
X5164787Y-20059264D01*
X5164787Y-20059264D02*
X5145739Y-20059264D01*
X5145739Y-20059264D02*
X5126692Y-20049740D01*
X5126692Y-20049740D02*
X5117168Y-20040216D01*
X5117168Y-20040216D02*
X5107644Y-20021169D01*
X5107644Y-20021169D02*
X5098120Y-19983073D01*
X5098120Y-19983073D02*
X5098120Y-19935454D01*
X5098120Y-19935454D02*
X5107644Y-19897359D01*
X5107644Y-19897359D02*
X5117168Y-19878311D01*
X5117168Y-19878311D02*
X5126692Y-19868788D01*
X5126692Y-19868788D02*
X5145739Y-19859264D01*
X5288596Y-19859264D02*
X5288596Y-19897359D01*
X5364787Y-19859264D02*
X5364787Y-19897359D01*
X5660025Y-20135454D02*
X5650501Y-20125930D01*
X5650501Y-20125930D02*
X5631454Y-20097359D01*
X5631454Y-20097359D02*
X5621930Y-20078311D01*
X5621930Y-20078311D02*
X5612406Y-20049740D01*
X5612406Y-20049740D02*
X5602882Y-20002121D01*
X5602882Y-20002121D02*
X5602882Y-19964026D01*
X5602882Y-19964026D02*
X5612406Y-19916407D01*
X5612406Y-19916407D02*
X5621930Y-19887835D01*
X5621930Y-19887835D02*
X5631454Y-19868788D01*
X5631454Y-19868788D02*
X5650501Y-19840216D01*
X5650501Y-19840216D02*
X5660025Y-19830692D01*
X5764787Y-19944978D02*
X5745739Y-19935454D01*
X5745739Y-19935454D02*
X5736215Y-19925930D01*
X5736215Y-19925930D02*
X5726692Y-19906883D01*
X5726692Y-19906883D02*
X5726692Y-19897359D01*
X5726692Y-19897359D02*
X5736215Y-19878311D01*
X5736215Y-19878311D02*
X5745739Y-19868788D01*
X5745739Y-19868788D02*
X5764787Y-19859264D01*
X5764787Y-19859264D02*
X5802882Y-19859264D01*
X5802882Y-19859264D02*
X5821930Y-19868788D01*
X5821930Y-19868788D02*
X5831454Y-19878311D01*
X5831454Y-19878311D02*
X5840977Y-19897359D01*
X5840977Y-19897359D02*
X5840977Y-19906883D01*
X5840977Y-19906883D02*
X5831454Y-19925930D01*
X5831454Y-19925930D02*
X5821930Y-19935454D01*
X5821930Y-19935454D02*
X5802882Y-19944978D01*
X5802882Y-19944978D02*
X5764787Y-19944978D01*
X5764787Y-19944978D02*
X5745739Y-19954502D01*
X5745739Y-19954502D02*
X5736215Y-19964026D01*
X5736215Y-19964026D02*
X5726692Y-19983073D01*
X5726692Y-19983073D02*
X5726692Y-20021169D01*
X5726692Y-20021169D02*
X5736215Y-20040216D01*
X5736215Y-20040216D02*
X5745739Y-20049740D01*
X5745739Y-20049740D02*
X5764787Y-20059264D01*
X5764787Y-20059264D02*
X5802882Y-20059264D01*
X5802882Y-20059264D02*
X5821930Y-20049740D01*
X5821930Y-20049740D02*
X5831454Y-20040216D01*
X5831454Y-20040216D02*
X5840977Y-20021169D01*
X5840977Y-20021169D02*
X5840977Y-19983073D01*
X5840977Y-19983073D02*
X5831454Y-19964026D01*
X5831454Y-19964026D02*
X5821930Y-19954502D01*
X5821930Y-19954502D02*
X5802882Y-19944978D01*
X6079073Y-20059264D02*
X6079073Y-19859264D01*
X6164787Y-20059264D02*
X6164787Y-19954502D01*
X6164787Y-19954502D02*
X6155263Y-19935454D01*
X6155263Y-19935454D02*
X6136216Y-19925930D01*
X6136216Y-19925930D02*
X6107644Y-19925930D01*
X6107644Y-19925930D02*
X6088596Y-19935454D01*
X6088596Y-19935454D02*
X6079073Y-19944978D01*
X6288596Y-20059264D02*
X6269549Y-20049740D01*
X6269549Y-20049740D02*
X6260025Y-20040216D01*
X6260025Y-20040216D02*
X6250501Y-20021169D01*
X6250501Y-20021169D02*
X6250501Y-19964026D01*
X6250501Y-19964026D02*
X6260025Y-19944978D01*
X6260025Y-19944978D02*
X6269549Y-19935454D01*
X6269549Y-19935454D02*
X6288596Y-19925930D01*
X6288596Y-19925930D02*
X6317168Y-19925930D01*
X6317168Y-19925930D02*
X6336216Y-19935454D01*
X6336216Y-19935454D02*
X6345739Y-19944978D01*
X6345739Y-19944978D02*
X6355263Y-19964026D01*
X6355263Y-19964026D02*
X6355263Y-20021169D01*
X6355263Y-20021169D02*
X6345739Y-20040216D01*
X6345739Y-20040216D02*
X6336216Y-20049740D01*
X6336216Y-20049740D02*
X6317168Y-20059264D01*
X6317168Y-20059264D02*
X6288596Y-20059264D01*
X6469549Y-20059264D02*
X6450501Y-20049740D01*
X6450501Y-20049740D02*
X6440977Y-20030692D01*
X6440977Y-20030692D02*
X6440977Y-19859264D01*
X6621930Y-20049740D02*
X6602882Y-20059264D01*
X6602882Y-20059264D02*
X6564787Y-20059264D01*
X6564787Y-20059264D02*
X6545739Y-20049740D01*
X6545739Y-20049740D02*
X6536216Y-20030692D01*
X6536216Y-20030692D02*
X6536216Y-19954502D01*
X6536216Y-19954502D02*
X6545739Y-19935454D01*
X6545739Y-19935454D02*
X6564787Y-19925930D01*
X6564787Y-19925930D02*
X6602882Y-19925930D01*
X6602882Y-19925930D02*
X6621930Y-19935454D01*
X6621930Y-19935454D02*
X6631454Y-19954502D01*
X6631454Y-19954502D02*
X6631454Y-19973550D01*
X6631454Y-19973550D02*
X6536216Y-19992597D01*
X6707644Y-20049740D02*
X6726692Y-20059264D01*
X6726692Y-20059264D02*
X6764787Y-20059264D01*
X6764787Y-20059264D02*
X6783835Y-20049740D01*
X6783835Y-20049740D02*
X6793358Y-20030692D01*
X6793358Y-20030692D02*
X6793358Y-20021169D01*
X6793358Y-20021169D02*
X6783835Y-20002121D01*
X6783835Y-20002121D02*
X6764787Y-19992597D01*
X6764787Y-19992597D02*
X6736216Y-19992597D01*
X6736216Y-19992597D02*
X6717168Y-19983073D01*
X6717168Y-19983073D02*
X6707644Y-19964026D01*
X6707644Y-19964026D02*
X6707644Y-19954502D01*
X6707644Y-19954502D02*
X6717168Y-19935454D01*
X6717168Y-19935454D02*
X6736216Y-19925930D01*
X6736216Y-19925930D02*
X6764787Y-19925930D01*
X6764787Y-19925930D02*
X6783835Y-19935454D01*
X6860025Y-20135454D02*
X6869549Y-20125930D01*
X6869549Y-20125930D02*
X6888597Y-20097359D01*
X6888597Y-20097359D02*
X6898120Y-20078311D01*
X6898120Y-20078311D02*
X6907644Y-20049740D01*
X6907644Y-20049740D02*
X6917168Y-20002121D01*
X6917168Y-20002121D02*
X6917168Y-19964026D01*
X6917168Y-19964026D02*
X6907644Y-19916407D01*
X6907644Y-19916407D02*
X6898120Y-19887835D01*
X6898120Y-19887835D02*
X6888597Y-19868788D01*
X6888597Y-19868788D02*
X6869549Y-19840216D01*
X6869549Y-19840216D02*
X6860025Y-19830692D01*
X7221930Y-20135454D02*
X7212406Y-20125930D01*
X7212406Y-20125930D02*
X7193358Y-20097359D01*
X7193358Y-20097359D02*
X7183835Y-20078311D01*
X7183835Y-20078311D02*
X7174311Y-20049740D01*
X7174311Y-20049740D02*
X7164787Y-20002121D01*
X7164787Y-20002121D02*
X7164787Y-19964026D01*
X7164787Y-19964026D02*
X7174311Y-19916407D01*
X7174311Y-19916407D02*
X7183835Y-19887835D01*
X7183835Y-19887835D02*
X7193358Y-19868788D01*
X7193358Y-19868788D02*
X7212406Y-19840216D01*
X7212406Y-19840216D02*
X7221930Y-19830692D01*
X7298120Y-19925930D02*
X7298120Y-20059264D01*
X7298120Y-19944978D02*
X7307644Y-19935454D01*
X7307644Y-19935454D02*
X7326692Y-19925930D01*
X7326692Y-19925930D02*
X7355263Y-19925930D01*
X7355263Y-19925930D02*
X7374311Y-19935454D01*
X7374311Y-19935454D02*
X7383835Y-19954502D01*
X7383835Y-19954502D02*
X7383835Y-20059264D01*
X7507644Y-20059264D02*
X7488597Y-20049740D01*
X7488597Y-20049740D02*
X7479073Y-20040216D01*
X7479073Y-20040216D02*
X7469549Y-20021169D01*
X7469549Y-20021169D02*
X7469549Y-19964026D01*
X7469549Y-19964026D02*
X7479073Y-19944978D01*
X7479073Y-19944978D02*
X7488597Y-19935454D01*
X7488597Y-19935454D02*
X7507644Y-19925930D01*
X7507644Y-19925930D02*
X7536216Y-19925930D01*
X7536216Y-19925930D02*
X7555263Y-19935454D01*
X7555263Y-19935454D02*
X7564787Y-19944978D01*
X7564787Y-19944978D02*
X7574311Y-19964026D01*
X7574311Y-19964026D02*
X7574311Y-20021169D01*
X7574311Y-20021169D02*
X7564787Y-20040216D01*
X7564787Y-20040216D02*
X7555263Y-20049740D01*
X7555263Y-20049740D02*
X7536216Y-20059264D01*
X7536216Y-20059264D02*
X7507644Y-20059264D01*
X7631454Y-19925930D02*
X7707644Y-19925930D01*
X7660025Y-19859264D02*
X7660025Y-20030692D01*
X7660025Y-20030692D02*
X7669549Y-20049740D01*
X7669549Y-20049740D02*
X7688597Y-20059264D01*
X7688597Y-20059264D02*
X7707644Y-20059264D01*
X7926692Y-19925930D02*
X7926692Y-20125930D01*
X7926692Y-19935454D02*
X7945739Y-19925930D01*
X7945739Y-19925930D02*
X7983835Y-19925930D01*
X7983835Y-19925930D02*
X8002882Y-19935454D01*
X8002882Y-19935454D02*
X8012406Y-19944978D01*
X8012406Y-19944978D02*
X8021930Y-19964026D01*
X8021930Y-19964026D02*
X8021930Y-20021169D01*
X8021930Y-20021169D02*
X8012406Y-20040216D01*
X8012406Y-20040216D02*
X8002882Y-20049740D01*
X8002882Y-20049740D02*
X7983835Y-20059264D01*
X7983835Y-20059264D02*
X7945739Y-20059264D01*
X7945739Y-20059264D02*
X7926692Y-20049740D01*
X8136216Y-20059264D02*
X8117168Y-20049740D01*
X8117168Y-20049740D02*
X8107644Y-20030692D01*
X8107644Y-20030692D02*
X8107644Y-19859264D01*
X8298120Y-20059264D02*
X8298120Y-19954502D01*
X8298120Y-19954502D02*
X8288597Y-19935454D01*
X8288597Y-19935454D02*
X8269549Y-19925930D01*
X8269549Y-19925930D02*
X8231454Y-19925930D01*
X8231454Y-19925930D02*
X8212406Y-19935454D01*
X8298120Y-20049740D02*
X8279073Y-20059264D01*
X8279073Y-20059264D02*
X8231454Y-20059264D01*
X8231454Y-20059264D02*
X8212406Y-20049740D01*
X8212406Y-20049740D02*
X8202882Y-20030692D01*
X8202882Y-20030692D02*
X8202882Y-20011645D01*
X8202882Y-20011645D02*
X8212406Y-19992597D01*
X8212406Y-19992597D02*
X8231454Y-19983073D01*
X8231454Y-19983073D02*
X8279073Y-19983073D01*
X8279073Y-19983073D02*
X8298120Y-19973550D01*
X8364787Y-19925930D02*
X8440978Y-19925930D01*
X8393359Y-19859264D02*
X8393359Y-20030692D01*
X8393359Y-20030692D02*
X8402882Y-20049740D01*
X8402882Y-20049740D02*
X8421930Y-20059264D01*
X8421930Y-20059264D02*
X8440978Y-20059264D01*
X8583835Y-20049740D02*
X8564787Y-20059264D01*
X8564787Y-20059264D02*
X8526692Y-20059264D01*
X8526692Y-20059264D02*
X8507644Y-20049740D01*
X8507644Y-20049740D02*
X8498121Y-20030692D01*
X8498121Y-20030692D02*
X8498121Y-19954502D01*
X8498121Y-19954502D02*
X8507644Y-19935454D01*
X8507644Y-19935454D02*
X8526692Y-19925930D01*
X8526692Y-19925930D02*
X8564787Y-19925930D01*
X8564787Y-19925930D02*
X8583835Y-19935454D01*
X8583835Y-19935454D02*
X8593359Y-19954502D01*
X8593359Y-19954502D02*
X8593359Y-19973550D01*
X8593359Y-19973550D02*
X8498121Y-19992597D01*
X8764787Y-20059264D02*
X8764787Y-19859264D01*
X8764787Y-20049740D02*
X8745740Y-20059264D01*
X8745740Y-20059264D02*
X8707644Y-20059264D01*
X8707644Y-20059264D02*
X8688597Y-20049740D01*
X8688597Y-20049740D02*
X8679073Y-20040216D01*
X8679073Y-20040216D02*
X8669549Y-20021169D01*
X8669549Y-20021169D02*
X8669549Y-19964026D01*
X8669549Y-19964026D02*
X8679073Y-19944978D01*
X8679073Y-19944978D02*
X8688597Y-19935454D01*
X8688597Y-19935454D02*
X8707644Y-19925930D01*
X8707644Y-19925930D02*
X8745740Y-19925930D01*
X8745740Y-19925930D02*
X8764787Y-19935454D01*
X8840978Y-20135454D02*
X8850502Y-20125930D01*
X8850502Y-20125930D02*
X8869549Y-20097359D01*
X8869549Y-20097359D02*
X8879073Y-20078311D01*
X8879073Y-20078311D02*
X8888597Y-20049740D01*
X8888597Y-20049740D02*
X8898121Y-20002121D01*
X8898121Y-20002121D02*
X8898121Y-19964026D01*
X8898121Y-19964026D02*
X8888597Y-19916407D01*
X8888597Y-19916407D02*
X8879073Y-19887835D01*
X8879073Y-19887835D02*
X8869549Y-19868788D01*
X8869549Y-19868788D02*
X8850502Y-19840216D01*
X8850502Y-19840216D02*
X8840978Y-19830692D01*
M02*
