M48
; DRILL file {KiCad 7.0.1} date Fri Jul 12 18:32:01 2024
; FORMAT={-:-/ absolute / inch / decimal}
; #@! TF.CreationDate,2024-07-12T18:32:01-07:00
; #@! TF.GenerationSoftware,Kicad,Pcbnew,7.0.1
; #@! TF.FileFunction,Plated,1,4,PTH
FMAT,2
INCH
; #@! TA.AperFunction,Plated,PTH,ViaDrill
T1C0.0157
; #@! TA.AperFunction,Plated,PTH,ComponentDrill
T2C0.0315
; #@! TA.AperFunction,Plated,PTH,ComponentDrill
T3C0.0394
%
G90
G05
T1
X0.958Y-1.775
X0.968Y-2.348
X0.969Y-2.251
X1.009Y-1.472
X1.012Y-1.397
X1.031Y-4.63
X1.053Y-4.767
X1.073Y-6.217
X1.08Y-2.077
X1.096Y-5.57
X1.102Y-5.29
X1.114Y-2.654
X1.123Y-2.464
X1.131Y-2.357
X1.133Y-1.487
X1.139Y-1.37
X1.139Y-6.838
X1.148Y-4.762
X1.162Y-5.44
X1.169Y-4.632
X1.185Y-5.263
X1.203Y-6.198
X1.213Y-2.073
X1.232Y-5.576
X1.255Y-5.098
X1.255Y-5.442
X1.256Y-2.671
X1.327Y-4.498
X1.406Y-3.068
X1.409Y-3.109
X1.45Y-3.134
X1.578Y-3.131
X1.604Y-1.513
X1.614Y-1.388
X1.65Y-2.363
X1.654Y-2.264
X1.686Y-4.79
X1.688Y-4.636
X1.714Y-2.077
X1.745Y-6.217
X1.754Y-1.468
X1.758Y-1.357
X1.766Y-2.652
X1.794Y-5.612
X1.801Y-2.41
X1.8011Y-2.309
X1.81Y-5.286
X1.817Y-6.224
X1.83Y-4.789
X1.833Y-4.641
X1.844Y-2.107
X1.856Y-6.143
X1.857Y-5.449
X1.881Y-6.199
X1.892Y-4.538
X1.897Y-2.651
X1.908Y-5.291
X1.926Y-5.605
X1.96Y-2.998
X1.967Y-5.459
X1.992Y-3.062
X2.0Y-4.259
X2.001Y-4.31
X2.054Y-3.351
X2.06Y-4.389
X2.061Y-4.476
X2.063Y-3.448
X2.15Y-2.556
X2.155Y-4.703
X2.191Y-3.18
X2.194Y-4.2955
X2.196Y-4.701
X2.201Y-3.224
X2.211Y-3.02
X2.217Y-3.059
X2.238Y-4.294
X2.24Y-1.375
X2.24Y-1.476
X2.243Y-3.339
X2.252Y-4.337
X2.285Y-3.134
X2.287Y-3.343
X2.291Y-4.419
X2.299Y-3.189
X2.3Y-4.325
X2.312Y-6.532
X2.327Y-3.093
X2.336Y-6.583
X2.352Y-2.077
X2.355Y-2.384
X2.358Y-2.281
X2.364Y-1.382
X2.364Y-1.484
X2.387Y-6.218
X2.39Y-4.644
X2.394Y-4.776
X2.409Y-3.419
X2.414Y-4.157
X2.419Y-4.465
X2.424Y-4.266
X2.439Y-2.063
X2.439Y-2.654
X2.455Y-2.887
X2.458Y-3.393
X2.458Y-4.249
X2.459Y-5.456
X2.464Y-5.301
X2.467Y-4.571
X2.472Y-5.612
X2.4815Y-2.429
X2.4825Y-2.321
X2.485Y-4.145
X2.513Y-6.223
X2.524Y-4.647
X2.532Y-4.141
X2.5406Y-4.4576
X2.541Y-5.309
X2.547Y-2.903
X2.552Y-4.768
X2.563Y-4.171
X2.586Y-2.644
X2.605Y-5.613
X2.6095Y-6.1005
X2.61Y-4.159
X2.614Y-5.447
X2.627Y-3.046
X2.66Y-6.21
X2.68Y-3.017
X2.703Y-6.674
X2.707Y-6.444
X2.717Y-6.398
X2.769Y-3.171
X2.808Y-3.197
X2.816Y-6.737
X2.83Y-6.648
X2.835Y-4.726
X2.843Y-6.564
X2.845Y-6.449
X2.847Y-1.729
X2.847Y-6.508
X2.86Y-6.352
X2.867Y-6.399
X2.877Y-1.464
X2.877Y-1.778
X2.882Y-1.365
X2.892Y-1.57
X2.892Y-6.712
X2.929Y-1.85
X2.937Y-6.615
X2.947Y-6.65
X2.97Y-6.86
X3.0Y-2.026
X3.017Y-4.529
X3.018Y-1.473
X3.02Y-1.362
X3.043Y-2.383
X3.044Y-6.351
X3.046Y-2.266
X3.054Y-4.597
X3.077Y-6.417
X3.086Y-6.624
X3.088Y-6.375
X3.09Y-2.64
X3.091Y-6.213
X3.116Y-2.022
X3.121Y-1.81
X3.131Y-5.594
X3.147Y-5.267
X3.172Y-2.334
X3.172Y-2.443
X3.19Y-4.6
X3.195Y-4.098
X3.222Y-4.05
X3.232Y-5.464
X3.241Y-2.646
X3.257Y-6.214
X3.262Y-4.521
X3.264Y-5.601
X3.268Y-6.57
X3.272Y-6.531
X3.281Y-5.26
X3.2985Y-4.2925
X3.299Y-5.461
X3.307Y-6.852
X3.312Y-6.959
X3.322Y-3.407
X3.338Y-6.636
X3.357Y-4.194
X3.368Y-4.287
X3.394Y-1.71
X3.448Y-1.564
X3.452Y-1.611
X3.459Y-1.775
X3.467Y-2.037
X3.467Y-2.082
X3.471Y-1.516
X3.477Y-3.434
X3.5Y-4.276
X3.511Y-1.734
X3.545Y-1.746
X3.599Y-1.569
X3.62Y-1.603
X3.636Y-1.452
X3.6395Y-1.8195
X3.6464Y-1.547
X3.654Y-1.979
X3.6551Y-1.7691
X3.678Y-4.385
X3.679Y-1.825
X3.686Y-3.543
X3.69Y-3.41
X3.692Y-4.256
X3.695Y-1.45
X3.711Y-1.852
X3.722Y-2.118
X3.725Y-1.509
X3.745Y-1.605
X3.747Y-1.751
X3.756Y-1.976
T2
X0.872Y-1.3785
X0.872Y-1.4785
X0.872Y-1.5785
X0.872Y-1.6785
X0.8731Y-2.2467
X0.8731Y-2.3467
X0.8731Y-2.4467
X0.8731Y-2.5467
X0.8731Y-4.562
X0.8731Y-4.662
X0.8731Y-4.762
X0.8731Y-4.862
X0.8731Y-5.462
X0.8731Y-5.562
X0.8731Y-5.662
X0.8731Y-5.762
X0.879Y-1.813
X0.879Y-1.913
X0.879Y-2.013
X0.879Y-2.113
X0.881Y-2.6627
X0.881Y-2.7627
X0.881Y-2.8627
X0.881Y-2.9627
X0.881Y-5.012
X0.881Y-5.112
X0.881Y-5.212
X0.881Y-5.312
X0.881Y-5.912
X0.881Y-6.012
X0.881Y-6.112
X0.881Y-6.212
X1.3957Y-1.3785
X1.3957Y-1.4785
X1.3957Y-1.5785
X1.3957Y-1.6785
X1.3967Y-2.2467
X1.3967Y-2.3467
X1.3967Y-2.4467
X1.3967Y-2.5467
X1.3967Y-4.562
X1.3967Y-4.662
X1.3967Y-4.762
X1.3967Y-4.862
X1.3967Y-5.462
X1.3967Y-5.562
X1.3967Y-5.662
X1.3967Y-5.762
X1.4026Y-1.813
X1.4026Y-1.913
X1.4026Y-2.013
X1.4026Y-2.113
X1.4046Y-2.6627
X1.4046Y-2.7627
X1.4046Y-2.8627
X1.4046Y-2.9627
X1.4046Y-5.012
X1.4046Y-5.112
X1.4046Y-5.212
X1.4046Y-5.312
X1.4046Y-5.912
X1.4046Y-6.012
X1.4046Y-6.112
X1.4046Y-6.212
X1.499Y-1.379
X1.499Y-1.479
X1.499Y-1.579
X1.499Y-1.679
X1.5054Y-1.8104
X1.5054Y-1.9104
X1.5054Y-2.0104
X1.5054Y-2.1104
X1.5539Y-2.2465
X1.5539Y-2.3465
X1.5539Y-2.4465
X1.5539Y-2.5465
X1.5539Y-4.562
X1.5539Y-4.662
X1.5539Y-4.762
X1.5539Y-4.862
X1.5539Y-5.462
X1.5539Y-5.562
X1.5539Y-5.662
X1.5539Y-5.762
X1.5574Y-5.014
X1.5574Y-5.114
X1.5574Y-5.214
X1.5574Y-5.314
X1.5618Y-2.6627
X1.5618Y-2.7627
X1.5618Y-2.8627
X1.5618Y-2.9627
X1.5618Y-5.912
X1.5618Y-6.012
X1.5618Y-6.112
X1.5618Y-6.212
X2.0227Y-1.379
X2.0227Y-1.479
X2.0227Y-1.579
X2.0227Y-1.679
X2.029Y-1.8104
X2.029Y-1.9104
X2.029Y-2.0104
X2.029Y-2.1104
X2.0775Y-2.2465
X2.0775Y-2.3465
X2.0775Y-2.4465
X2.0775Y-2.5465
X2.0775Y-4.562
X2.0775Y-4.662
X2.0775Y-4.762
X2.0775Y-4.862
X2.0775Y-5.462
X2.0775Y-5.562
X2.0775Y-5.662
X2.0775Y-5.762
X2.081Y-5.014
X2.081Y-5.114
X2.081Y-5.214
X2.081Y-5.314
X2.0854Y-2.6627
X2.0854Y-2.7627
X2.0854Y-2.8627
X2.0854Y-2.9627
X2.0854Y-5.912
X2.0854Y-6.012
X2.0854Y-6.112
X2.0854Y-6.212
X2.1261Y-1.379
X2.1261Y-1.479
X2.1261Y-1.579
X2.1261Y-1.679
X2.134Y-1.808
X2.134Y-1.908
X2.134Y-2.008
X2.134Y-2.108
X2.2396Y-2.2467
X2.2396Y-2.3467
X2.2396Y-2.4467
X2.2396Y-2.5467
X2.2396Y-4.562
X2.2396Y-4.662
X2.2396Y-4.762
X2.2396Y-4.862
X2.2396Y-5.462
X2.2396Y-5.562
X2.2396Y-5.662
X2.2396Y-5.762
X2.2442Y-5.0136
X2.2442Y-5.1136
X2.2442Y-5.2136
X2.2442Y-5.3136
X2.2475Y-2.6627
X2.2475Y-2.7627
X2.2475Y-2.8627
X2.2475Y-2.9627
X2.2475Y-5.912
X2.2475Y-6.012
X2.2475Y-6.112
X2.2475Y-6.212
X2.6497Y-1.379
X2.6497Y-1.479
X2.6497Y-1.579
X2.6497Y-1.679
X2.6576Y-1.808
X2.6576Y-1.908
X2.6576Y-2.008
X2.6576Y-2.108
X2.757Y-1.3815
X2.757Y-1.4815
X2.757Y-1.5815
X2.757Y-1.6815
X2.7632Y-1.8076
X2.7632Y-1.9076
X2.7632Y-2.0076
X2.7632Y-2.1076
X2.7632Y-2.2467
X2.7632Y-2.3467
X2.7632Y-2.4467
X2.7632Y-2.5467
X2.7632Y-4.562
X2.7632Y-4.662
X2.7632Y-4.762
X2.7632Y-4.862
X2.7632Y-5.462
X2.7632Y-5.562
X2.7632Y-5.662
X2.7632Y-5.762
X2.7678Y-5.0136
X2.7678Y-5.1136
X2.7678Y-5.2136
X2.7678Y-5.3136
X2.7711Y-2.6627
X2.7711Y-2.7627
X2.7711Y-2.8627
X2.7711Y-2.9627
X2.7711Y-5.912
X2.7711Y-6.012
X2.7711Y-6.112
X2.7711Y-6.212
X2.9229Y-2.2467
X2.9229Y-2.3467
X2.9229Y-2.4467
X2.9229Y-2.5467
X2.9229Y-4.562
X2.9229Y-4.662
X2.9229Y-4.762
X2.9229Y-4.862
X2.9229Y-5.462
X2.9229Y-5.562
X2.9229Y-5.662
X2.9229Y-5.762
X2.9307Y-2.6627
X2.9307Y-2.7627
X2.9307Y-2.8627
X2.9307Y-2.9627
X2.9307Y-5.012
X2.9307Y-5.112
X2.9307Y-5.212
X2.9307Y-5.312
X2.9307Y-5.912
X2.9307Y-6.012
X2.9307Y-6.112
X2.9307Y-6.212
X3.2807Y-1.3815
X3.2807Y-1.4815
X3.2807Y-1.5815
X3.2807Y-1.6815
X3.2868Y-1.8076
X3.2868Y-1.9076
X3.2868Y-2.0076
X3.2868Y-2.1076
X3.4465Y-2.2467
X3.4465Y-2.3467
X3.4465Y-2.4467
X3.4465Y-2.5467
X3.4465Y-4.562
X3.4465Y-4.662
X3.4465Y-4.762
X3.4465Y-4.862
X3.4465Y-5.462
X3.4465Y-5.562
X3.4465Y-5.662
X3.4465Y-5.762
X3.4544Y-2.6627
X3.4544Y-2.7627
X3.4544Y-2.8627
X3.4544Y-2.9627
X3.4544Y-5.012
X3.4544Y-5.112
X3.4544Y-5.212
X3.4544Y-5.312
X3.4544Y-5.912
X3.4544Y-6.012
X3.4544Y-6.112
X3.4544Y-6.212
T3
X2.857Y-7.316
X2.957Y-7.316
X3.057Y-7.316
X3.157Y-7.316
X3.257Y-7.316
X3.357Y-7.316
X3.457Y-7.316
X3.557Y-7.316
X3.657Y-7.316
X3.757Y-7.316
T0
M30
