%TF.GenerationSoftware,KiCad,Pcbnew,7.0.1*%
%TF.CreationDate,2024-07-12T18:32:01-07:00*%
%TF.ProjectId,air_foil_pcb,6169725f-666f-4696-9c5f-7063622e6b69,rev?*%
%TF.SameCoordinates,Original*%
%TF.FileFunction,Soldermask,Bot*%
%TF.FilePolarity,Negative*%
%FSLAX46Y46*%
G04 Gerber Fmt 4.6, Leading zero omitted, Abs format (unit mm)*
G04 Created by KiCad (PCBNEW 7.0.1) date 2024-07-12 18:32:01*
%MOMM*%
%LPD*%
G01*
G04 APERTURE LIST*
G04 Aperture macros list*
%AMRoundRect*
0 Rectangle with rounded corners*
0 $1 Rounding radius*
0 $2 $3 $4 $5 $6 $7 $8 $9 X,Y pos of 4 corners*
0 Add a 4 corners polygon primitive as box body*
4,1,4,$2,$3,$4,$5,$6,$7,$8,$9,$2,$3,0*
0 Add four circle primitives for the rounded corners*
1,1,$1+$1,$2,$3*
1,1,$1+$1,$4,$5*
1,1,$1+$1,$6,$7*
1,1,$1+$1,$8,$9*
0 Add four rect primitives between the rounded corners*
20,1,$1+$1,$2,$3,$4,$5,0*
20,1,$1+$1,$4,$5,$6,$7,0*
20,1,$1+$1,$6,$7,$8,$9,0*
20,1,$1+$1,$8,$9,$2,$3,0*%
%AMFreePoly0*
4,1,6,1.000000,0.000000,0.500000,-0.750000,-0.500000,-0.750000,-0.500000,0.750000,0.500000,0.750000,1.000000,0.000000,1.000000,0.000000,$1*%
%AMFreePoly1*
4,1,6,0.500000,-0.750000,-0.650000,-0.750000,-0.150000,0.000000,-0.650000,0.750000,0.500000,0.750000,0.500000,-0.750000,0.500000,-0.750000,$1*%
G04 Aperture macros list end*
%ADD10C,3.379000*%
%ADD11O,17.780000X2.540000*%
%ADD12C,3.175000*%
%ADD13RoundRect,0.102000X0.750000X0.750000X-0.750000X0.750000X-0.750000X-0.750000X0.750000X-0.750000X0*%
%ADD14C,1.704000*%
%ADD15RoundRect,0.102000X-0.750000X-0.750000X0.750000X-0.750000X0.750000X0.750000X-0.750000X0.750000X0*%
%ADD16FreePoly0,180.000000*%
%ADD17FreePoly1,180.000000*%
%ADD18O,1.700000X1.700000*%
%ADD19R,1.700000X1.700000*%
G04 APERTURE END LIST*
D10*
%TO.C,J2*%
X25679800Y-185928000D03*
X64439800Y-185928000D03*
%TD*%
D11*
%TO.C,J3*%
X75545400Y-111362300D03*
X75545400Y-83362300D03*
X39545400Y-111362300D03*
X39545400Y-83362300D03*
%TD*%
D12*
%TO.C,J4*%
X28190800Y-27863800D03*
X40690800Y-27863800D03*
X53390800Y-27876300D03*
X66090800Y-27876300D03*
X78790800Y-27863800D03*
X91290800Y-27863800D03*
%TD*%
D13*
%TO.C,U36*%
X83328600Y-42709600D03*
D14*
X83328600Y-40169600D03*
X83328600Y-37629600D03*
X83328600Y-35089600D03*
X70028600Y-35089600D03*
X70028600Y-37629600D03*
X70028600Y-40169600D03*
X70028600Y-42709600D03*
%TD*%
D13*
%TO.C,U35*%
X35449600Y-42633400D03*
D14*
X35449600Y-40093400D03*
X35449600Y-37553400D03*
X35449600Y-35013400D03*
X22149600Y-35013400D03*
X22149600Y-37553400D03*
X22149600Y-40093400D03*
X22149600Y-42633400D03*
%TD*%
%TO.C,U34*%
X38075400Y-42645600D03*
X38075400Y-40105600D03*
X38075400Y-37565600D03*
X38075400Y-35025600D03*
X51375400Y-35025600D03*
X51375400Y-37565600D03*
X51375400Y-40105600D03*
D13*
X51375400Y-42645600D03*
%TD*%
%TO.C,U33*%
X67302000Y-42645600D03*
D14*
X67302000Y-40105600D03*
X67302000Y-37565600D03*
X67302000Y-35025600D03*
X54002000Y-35025600D03*
X54002000Y-37565600D03*
X54002000Y-40105600D03*
X54002000Y-42645600D03*
%TD*%
D15*
%TO.C,U31*%
X38236600Y-53603350D03*
D14*
X38236600Y-51063350D03*
X38236600Y-48523350D03*
X38236600Y-45983350D03*
X51536600Y-45983350D03*
X51536600Y-48523350D03*
X51536600Y-51063350D03*
X51536600Y-53603350D03*
%TD*%
D15*
%TO.C,U30*%
X54203600Y-53543200D03*
D14*
X54203600Y-51003200D03*
X54203600Y-48463200D03*
X54203600Y-45923200D03*
X67503600Y-45923200D03*
X67503600Y-48463200D03*
X67503600Y-51003200D03*
X67503600Y-53543200D03*
%TD*%
D15*
%TO.C,U29*%
X70184200Y-53533350D03*
D14*
X70184200Y-50993350D03*
X70184200Y-48453350D03*
X70184200Y-45913350D03*
X83484200Y-45913350D03*
X83484200Y-48453350D03*
X83484200Y-50993350D03*
X83484200Y-53533350D03*
%TD*%
D15*
%TO.C,U28*%
X22326600Y-53670200D03*
D14*
X22326600Y-51130200D03*
X22326600Y-48590200D03*
X22326600Y-46050200D03*
X35626600Y-46050200D03*
X35626600Y-48590200D03*
X35626600Y-51130200D03*
X35626600Y-53670200D03*
%TD*%
D13*
%TO.C,U27*%
X87540600Y-64686800D03*
D14*
X87540600Y-62146800D03*
X87540600Y-59606800D03*
X87540600Y-57066800D03*
X74240600Y-57066800D03*
X74240600Y-59606800D03*
X74240600Y-62146800D03*
X74240600Y-64686800D03*
%TD*%
%TO.C,U26*%
X22177400Y-64686800D03*
X22177400Y-62146800D03*
X22177400Y-59606800D03*
X22177400Y-57066800D03*
X35477400Y-57066800D03*
X35477400Y-59606800D03*
X35477400Y-62146800D03*
D13*
X35477400Y-64686800D03*
%TD*%
D14*
%TO.C,U25*%
X39469200Y-64680600D03*
X39469200Y-62140600D03*
X39469200Y-59600600D03*
X39469200Y-57060600D03*
X52769200Y-57060600D03*
X52769200Y-59600600D03*
X52769200Y-62140600D03*
D13*
X52769200Y-64680600D03*
%TD*%
%TO.C,U24*%
X70186200Y-64686800D03*
D14*
X70186200Y-62146800D03*
X70186200Y-59606800D03*
X70186200Y-57066800D03*
X56886200Y-57066800D03*
X56886200Y-59606800D03*
X56886200Y-62146800D03*
X56886200Y-64686800D03*
%TD*%
D15*
%TO.C,U22*%
X39669200Y-75253200D03*
D14*
X39669200Y-72713200D03*
X39669200Y-70173200D03*
X39669200Y-67633200D03*
X52969200Y-67633200D03*
X52969200Y-70173200D03*
X52969200Y-72713200D03*
X52969200Y-75253200D03*
%TD*%
D15*
%TO.C,U21*%
X57086200Y-75253200D03*
D14*
X57086200Y-72713200D03*
X57086200Y-70173200D03*
X57086200Y-67633200D03*
X70386200Y-67633200D03*
X70386200Y-70173200D03*
X70386200Y-72713200D03*
X70386200Y-75253200D03*
%TD*%
D15*
%TO.C,U20*%
X74440600Y-75253200D03*
D14*
X74440600Y-72713200D03*
X74440600Y-70173200D03*
X74440600Y-67633200D03*
X87740600Y-67633200D03*
X87740600Y-70173200D03*
X87740600Y-72713200D03*
X87740600Y-75253200D03*
%TD*%
D15*
%TO.C,U19*%
X22377400Y-75253200D03*
D14*
X22377400Y-72713200D03*
X22377400Y-70173200D03*
X22377400Y-67633200D03*
X35677400Y-67633200D03*
X35677400Y-70173200D03*
X35677400Y-72713200D03*
X35677400Y-75253200D03*
%TD*%
D13*
%TO.C,U18*%
X87540600Y-123494800D03*
D14*
X87540600Y-120954800D03*
X87540600Y-118414800D03*
X87540600Y-115874800D03*
X74240600Y-115874800D03*
X74240600Y-118414800D03*
X74240600Y-120954800D03*
X74240600Y-123494800D03*
%TD*%
D13*
%TO.C,U17*%
X35477400Y-123494800D03*
D14*
X35477400Y-120954800D03*
X35477400Y-118414800D03*
X35477400Y-115874800D03*
X22177400Y-115874800D03*
X22177400Y-118414800D03*
X22177400Y-120954800D03*
X22177400Y-123494800D03*
%TD*%
%TO.C,U16*%
X39469200Y-123494800D03*
X39469200Y-120954800D03*
X39469200Y-118414800D03*
X39469200Y-115874800D03*
X52769200Y-115874800D03*
X52769200Y-118414800D03*
X52769200Y-120954800D03*
D13*
X52769200Y-123494800D03*
%TD*%
%TO.C,U15*%
X70186200Y-123494800D03*
D14*
X70186200Y-120954800D03*
X70186200Y-118414800D03*
X70186200Y-115874800D03*
X56886200Y-115874800D03*
X56886200Y-118414800D03*
X56886200Y-120954800D03*
X56886200Y-123494800D03*
%TD*%
D15*
%TO.C,U13*%
X39557400Y-134975600D03*
D14*
X39557400Y-132435600D03*
X39557400Y-129895600D03*
X39557400Y-127355600D03*
X52857400Y-127355600D03*
X52857400Y-129895600D03*
X52857400Y-132435600D03*
X52857400Y-134975600D03*
%TD*%
D15*
%TO.C,U12*%
X57001600Y-134965750D03*
D14*
X57001600Y-132425750D03*
X57001600Y-129885750D03*
X57001600Y-127345750D03*
X70301600Y-127345750D03*
X70301600Y-129885750D03*
X70301600Y-132425750D03*
X70301600Y-134965750D03*
%TD*%
%TO.C,U11*%
X87740600Y-134924800D03*
X87740600Y-132384800D03*
X87740600Y-129844800D03*
X87740600Y-127304800D03*
X74440600Y-127304800D03*
X74440600Y-129844800D03*
X74440600Y-132384800D03*
D15*
X74440600Y-134924800D03*
%TD*%
%TO.C,U10*%
X22377400Y-134924800D03*
D14*
X22377400Y-132384800D03*
X22377400Y-129844800D03*
X22377400Y-127304800D03*
X35677400Y-127304800D03*
X35677400Y-129844800D03*
X35677400Y-132384800D03*
X35677400Y-134924800D03*
%TD*%
D13*
%TO.C,U9*%
X35477400Y-146354800D03*
D14*
X35477400Y-143814800D03*
X35477400Y-141274800D03*
X35477400Y-138734800D03*
X22177400Y-138734800D03*
X22177400Y-141274800D03*
X22177400Y-143814800D03*
X22177400Y-146354800D03*
%TD*%
D13*
%TO.C,U8*%
X52769200Y-146354800D03*
D14*
X52769200Y-143814800D03*
X52769200Y-141274800D03*
X52769200Y-138734800D03*
X39469200Y-138734800D03*
X39469200Y-141274800D03*
X39469200Y-143814800D03*
X39469200Y-146354800D03*
%TD*%
D13*
%TO.C,U7*%
X70186200Y-146354800D03*
D14*
X70186200Y-143814800D03*
X70186200Y-141274800D03*
X70186200Y-138734800D03*
X56886200Y-138734800D03*
X56886200Y-141274800D03*
X56886200Y-143814800D03*
X56886200Y-146354800D03*
%TD*%
D13*
%TO.C,U6*%
X87540600Y-146354800D03*
D14*
X87540600Y-143814800D03*
X87540600Y-141274800D03*
X87540600Y-138734800D03*
X74240600Y-138734800D03*
X74240600Y-141274800D03*
X74240600Y-143814800D03*
X74240600Y-146354800D03*
%TD*%
D15*
%TO.C,U5*%
X22377400Y-157784800D03*
D14*
X22377400Y-155244800D03*
X22377400Y-152704800D03*
X22377400Y-150164800D03*
X35677400Y-150164800D03*
X35677400Y-152704800D03*
X35677400Y-155244800D03*
X35677400Y-157784800D03*
%TD*%
D15*
%TO.C,U4*%
X39669200Y-157784800D03*
D14*
X39669200Y-155244800D03*
X39669200Y-152704800D03*
X39669200Y-150164800D03*
X52969200Y-150164800D03*
X52969200Y-152704800D03*
X52969200Y-155244800D03*
X52969200Y-157784800D03*
%TD*%
D15*
%TO.C,U3*%
X57086200Y-157784800D03*
D14*
X57086200Y-155244800D03*
X57086200Y-152704800D03*
X57086200Y-150164800D03*
X70386200Y-150164800D03*
X70386200Y-152704800D03*
X70386200Y-155244800D03*
X70386200Y-157784800D03*
%TD*%
D15*
%TO.C,U2*%
X74440600Y-157784800D03*
D14*
X74440600Y-155244800D03*
X74440600Y-152704800D03*
X74440600Y-150164800D03*
X87740600Y-150164800D03*
X87740600Y-152704800D03*
X87740600Y-155244800D03*
X87740600Y-157784800D03*
%TD*%
D16*
%TO.C,JP70*%
X78169600Y-34925000D03*
D17*
X76719600Y-34925000D03*
%TD*%
D16*
%TO.C,JP69*%
X30607000Y-35001200D03*
D17*
X29157000Y-35001200D03*
%TD*%
D16*
%TO.C,JP68*%
X46075600Y-34975800D03*
D17*
X44625600Y-34975800D03*
%TD*%
D16*
%TO.C,JP67*%
X61620400Y-35026600D03*
D17*
X60170400Y-35026600D03*
%TD*%
D16*
%TO.C,JP66*%
X78181200Y-37566600D03*
D17*
X76731200Y-37566600D03*
%TD*%
D16*
%TO.C,JP65*%
X30632400Y-37668200D03*
D17*
X29182400Y-37668200D03*
%TD*%
D16*
%TO.C,JP64*%
X46064000Y-37719000D03*
D17*
X44614000Y-37719000D03*
%TD*%
D16*
%TO.C,JP63*%
X61622600Y-37719000D03*
D17*
X60172600Y-37719000D03*
%TD*%
D16*
%TO.C,JP54*%
X82067400Y-59283600D03*
D17*
X80617400Y-59283600D03*
%TD*%
D16*
%TO.C,JP53*%
X30226000Y-59867800D03*
D17*
X28776000Y-59867800D03*
%TD*%
D16*
%TO.C,JP52*%
X47246200Y-58648600D03*
D17*
X45796200Y-58648600D03*
%TD*%
D16*
%TO.C,JP51*%
X64555200Y-58953400D03*
D17*
X63105200Y-58953400D03*
%TD*%
D16*
%TO.C,JP50*%
X82067400Y-62052200D03*
D17*
X80617400Y-62052200D03*
%TD*%
D16*
%TO.C,JP49*%
X30200600Y-62433200D03*
D17*
X28750600Y-62433200D03*
%TD*%
D16*
%TO.C,JP48*%
X47244000Y-61214000D03*
D17*
X45794000Y-61214000D03*
%TD*%
D16*
%TO.C,JP47*%
X64529800Y-61696600D03*
D17*
X63079800Y-61696600D03*
%TD*%
%TO.C,JP38*%
X77814000Y-116890800D03*
D16*
X79264000Y-116890800D03*
%TD*%
D17*
%TO.C,JP37*%
X26365200Y-117500400D03*
D16*
X27815200Y-117500400D03*
%TD*%
D17*
%TO.C,JP36*%
X43203200Y-117652800D03*
D16*
X44653200Y-117652800D03*
%TD*%
D17*
%TO.C,JP35*%
X60870000Y-117944200D03*
D16*
X62320000Y-117944200D03*
%TD*%
D17*
%TO.C,JP34*%
X81229200Y-116890800D03*
D16*
X82679200Y-116890800D03*
%TD*%
D17*
%TO.C,JP33*%
X29907400Y-117551200D03*
D16*
X31357400Y-117551200D03*
%TD*%
D17*
%TO.C,JP32*%
X46630000Y-117621400D03*
D16*
X48080000Y-117621400D03*
%TD*%
D17*
%TO.C,JP31*%
X64273600Y-117957600D03*
D16*
X65723600Y-117957600D03*
%TD*%
%TO.C,JP22*%
X29408800Y-141873800D03*
D17*
X27958800Y-141873800D03*
%TD*%
D16*
%TO.C,JP21*%
X32844400Y-141859000D03*
D17*
X31394400Y-141859000D03*
%TD*%
D16*
%TO.C,JP20*%
X47144600Y-142443200D03*
D17*
X45694600Y-142443200D03*
%TD*%
D16*
%TO.C,JP19*%
X50522800Y-142417800D03*
D17*
X49072800Y-142417800D03*
%TD*%
D16*
%TO.C,JP18*%
X64439800Y-142417800D03*
D17*
X62989800Y-142417800D03*
%TD*%
D16*
%TO.C,JP17*%
X67845600Y-142392400D03*
D17*
X66395600Y-142392400D03*
%TD*%
D16*
%TO.C,JP16*%
X81229200Y-142214600D03*
D17*
X79779200Y-142214600D03*
%TD*%
D16*
%TO.C,JP15*%
X84672000Y-142214600D03*
D17*
X83222000Y-142214600D03*
%TD*%
D18*
%TO.C,J5*%
X72567800Y-185826400D03*
X75107800Y-185826400D03*
X77647800Y-185826400D03*
X80187800Y-185826400D03*
X82727800Y-185826400D03*
X85267800Y-185826400D03*
X87807800Y-185826400D03*
X90347800Y-185826400D03*
X92887800Y-185826400D03*
D19*
X95427800Y-185826400D03*
%TD*%
M02*
