%TF.GenerationSoftware,KiCad,Pcbnew,7.0.1*%
%TF.CreationDate,2024-07-12T18:32:01-07:00*%
%TF.ProjectId,air_foil_pcb,6169725f-666f-4696-9c5f-7063622e6b69,rev?*%
%TF.SameCoordinates,Original*%
%TF.FileFunction,Paste,Top*%
%TF.FilePolarity,Positive*%
%FSLAX46Y46*%
G04 Gerber Fmt 4.6, Leading zero omitted, Abs format (unit mm)*
G04 Created by KiCad (PCBNEW 7.0.1) date 2024-07-12 18:32:01*
%MOMM*%
%LPD*%
G01*
G04 APERTURE LIST*
G04 Aperture macros list*
%AMRoundRect*
0 Rectangle with rounded corners*
0 $1 Rounding radius*
0 $2 $3 $4 $5 $6 $7 $8 $9 X,Y pos of 4 corners*
0 Add a 4 corners polygon primitive as box body*
4,1,4,$2,$3,$4,$5,$6,$7,$8,$9,$2,$3,0*
0 Add four circle primitives for the rounded corners*
1,1,$1+$1,$2,$3*
1,1,$1+$1,$4,$5*
1,1,$1+$1,$6,$7*
1,1,$1+$1,$8,$9*
0 Add four rect primitives between the rounded corners*
20,1,$1+$1,$2,$3,$4,$5,0*
20,1,$1+$1,$4,$5,$6,$7,0*
20,1,$1+$1,$6,$7,$8,$9,0*
20,1,$1+$1,$8,$9,$2,$3,0*%
G04 Aperture macros list end*
%ADD10RoundRect,0.067500X-0.067500X-0.067500X0.067500X-0.067500X0.067500X0.067500X-0.067500X0.067500X0*%
%ADD11RoundRect,0.067500X0.067500X-0.067500X0.067500X0.067500X-0.067500X0.067500X-0.067500X-0.067500X0*%
%ADD12RoundRect,0.067500X-0.067500X0.067500X-0.067500X-0.067500X0.067500X-0.067500X0.067500X0.067500X0*%
%ADD13RoundRect,0.067500X0.067500X0.067500X-0.067500X0.067500X-0.067500X-0.067500X0.067500X-0.067500X0*%
%ADD14RoundRect,0.079500X-0.100500X0.079500X-0.100500X-0.079500X0.100500X-0.079500X0.100500X0.079500X0*%
%ADD15RoundRect,0.079500X0.100500X-0.079500X0.100500X0.079500X-0.100500X0.079500X-0.100500X-0.079500X0*%
%ADD16RoundRect,0.079500X0.079500X0.100500X-0.079500X0.100500X-0.079500X-0.100500X0.079500X-0.100500X0*%
%ADD17RoundRect,0.079500X-0.079500X-0.100500X0.079500X-0.100500X0.079500X0.100500X-0.079500X0.100500X0*%
%ADD18RoundRect,0.100000X0.637500X0.100000X-0.637500X0.100000X-0.637500X-0.100000X0.637500X-0.100000X0*%
%ADD19RoundRect,0.100000X-0.100000X0.637500X-0.100000X-0.637500X0.100000X-0.637500X0.100000X0.637500X0*%
G04 APERTURE END LIST*
D10*
%TO.C,R66*%
X74976400Y-35077400D03*
X74426400Y-35077400D03*
%TD*%
%TO.C,R65*%
X27406600Y-35687000D03*
X26856600Y-35687000D03*
%TD*%
%TO.C,R64*%
X42693000Y-35229800D03*
X42143000Y-35229800D03*
%TD*%
%TO.C,R63*%
X58496200Y-35229800D03*
X57946200Y-35229800D03*
%TD*%
%TO.C,R62*%
X74874800Y-37769800D03*
X74324800Y-37769800D03*
%TD*%
%TO.C,R61*%
X27431600Y-37820600D03*
X26881600Y-37820600D03*
%TD*%
%TO.C,R60*%
X42570400Y-38125400D03*
X42020400Y-38125400D03*
%TD*%
%TO.C,R59*%
X58695000Y-37947600D03*
X58145000Y-37947600D03*
%TD*%
D11*
%TO.C,R58*%
X46384800Y-51312400D03*
X46384800Y-51862400D03*
%TD*%
%TO.C,R57*%
X61544200Y-51083800D03*
X61544200Y-51633800D03*
%TD*%
%TO.C,R56*%
X77876400Y-51414000D03*
X77876400Y-51964000D03*
%TD*%
%TO.C,R55*%
X30480000Y-51083800D03*
X30480000Y-51633800D03*
%TD*%
%TO.C,R54*%
X42748200Y-51079400D03*
X42748200Y-51629400D03*
%TD*%
%TO.C,R53*%
X58521600Y-51160000D03*
X58521600Y-51710000D03*
%TD*%
%TO.C,R52*%
X75006200Y-51308000D03*
X75006200Y-51858000D03*
%TD*%
%TO.C,R51*%
X26873200Y-50880600D03*
X26873200Y-51430600D03*
%TD*%
D10*
%TO.C,R50*%
X79264600Y-57937400D03*
X78714600Y-57937400D03*
%TD*%
%TO.C,R49*%
X26110800Y-57124600D03*
X25560800Y-57124600D03*
%TD*%
%TO.C,R48*%
X43738800Y-57277000D03*
X43188800Y-57277000D03*
%TD*%
%TO.C,R47*%
X61722000Y-57708800D03*
X61172000Y-57708800D03*
%TD*%
%TO.C,R46*%
X78994000Y-60299600D03*
X78444000Y-60299600D03*
%TD*%
%TO.C,R45*%
X26259200Y-59867800D03*
X25709200Y-59867800D03*
%TD*%
%TO.C,R44*%
X43713400Y-59867800D03*
X43163400Y-59867800D03*
%TD*%
%TO.C,R43*%
X61645800Y-60325000D03*
X61095800Y-60325000D03*
%TD*%
D12*
%TO.C,R42*%
X47853600Y-68851000D03*
X47853600Y-68301000D03*
%TD*%
%TO.C,R41*%
X65176400Y-68829600D03*
X65176400Y-68279600D03*
%TD*%
%TO.C,R40*%
X82067400Y-68880400D03*
X82067400Y-68330400D03*
%TD*%
%TO.C,R39*%
X31957600Y-69413800D03*
X31957600Y-68863800D03*
%TD*%
%TO.C,R38*%
X44348400Y-68880400D03*
X44348400Y-68330400D03*
%TD*%
%TO.C,R37*%
X61468000Y-68880400D03*
X61468000Y-68330400D03*
%TD*%
%TO.C,R36*%
X78460600Y-68550200D03*
X78460600Y-68000200D03*
%TD*%
%TO.C,R35*%
X28117800Y-68884400D03*
X28117800Y-68334400D03*
%TD*%
%TO.C,R34*%
X77825600Y-114930600D03*
X77825600Y-114380600D03*
%TD*%
D11*
%TO.C,R33*%
X26441400Y-119359000D03*
X26441400Y-119909000D03*
%TD*%
%TO.C,R32*%
X43641200Y-119638400D03*
X43641200Y-120188400D03*
%TD*%
D10*
%TO.C,R31*%
X61747400Y-120192800D03*
X61197400Y-120192800D03*
%TD*%
D12*
%TO.C,R30*%
X81102200Y-115027800D03*
X81102200Y-114477800D03*
%TD*%
D11*
%TO.C,R29*%
X29667200Y-119312600D03*
X29667200Y-119862600D03*
%TD*%
%TO.C,R28*%
X46761400Y-119710600D03*
X46761400Y-120260600D03*
%TD*%
D13*
%TO.C,R27*%
X64063200Y-119811800D03*
X64613200Y-119811800D03*
%TD*%
D11*
%TO.C,R26*%
X48412400Y-132313000D03*
X48412400Y-132863000D03*
%TD*%
%TO.C,R25*%
X65582800Y-133151200D03*
X65582800Y-133701200D03*
%TD*%
%TO.C,R24*%
X82727800Y-132084400D03*
X82727800Y-132634400D03*
%TD*%
%TO.C,R23*%
X29845000Y-132156600D03*
X29845000Y-132706600D03*
%TD*%
%TO.C,R22*%
X45339000Y-132414600D03*
X45339000Y-132964600D03*
%TD*%
%TO.C,R21*%
X62026800Y-133125800D03*
X62026800Y-133675800D03*
%TD*%
%TO.C,R20*%
X79324200Y-132135200D03*
X79324200Y-132685200D03*
%TD*%
%TO.C,R19*%
X27207800Y-132059000D03*
X27207800Y-132609000D03*
%TD*%
D12*
%TO.C,R18*%
X28981400Y-139894400D03*
X28981400Y-139344400D03*
%TD*%
%TO.C,R17*%
X31318200Y-139437200D03*
X31318200Y-138887200D03*
%TD*%
%TO.C,R16*%
X46761400Y-139996000D03*
X46761400Y-139446000D03*
%TD*%
%TO.C,R15*%
X49123600Y-140178200D03*
X49123600Y-139628200D03*
%TD*%
%TO.C,R14*%
X63195200Y-140207600D03*
X63195200Y-139657600D03*
%TD*%
%TO.C,R13*%
X65303400Y-140258800D03*
X65303400Y-139708800D03*
%TD*%
%TO.C,R12*%
X80873600Y-140275800D03*
X80873600Y-139725800D03*
%TD*%
%TO.C,R11*%
X84226400Y-140157200D03*
X84226400Y-139607200D03*
%TD*%
D11*
%TO.C,R10*%
X29362400Y-156464000D03*
X29362400Y-157014000D03*
%TD*%
%TO.C,R9*%
X27712400Y-156464000D03*
X27712400Y-157014000D03*
%TD*%
%TO.C,R8*%
X46228000Y-155981400D03*
X46228000Y-156531400D03*
%TD*%
%TO.C,R7*%
X44578000Y-155981400D03*
X44578000Y-156531400D03*
%TD*%
%TO.C,R6*%
X64693800Y-156387800D03*
X64693800Y-156937800D03*
%TD*%
%TO.C,R5*%
X61239400Y-156413200D03*
X61239400Y-156963200D03*
%TD*%
%TO.C,R4*%
X83261200Y-156591000D03*
X83261200Y-157141000D03*
%TD*%
%TO.C,R3*%
X79100000Y-156544600D03*
X79100000Y-157094600D03*
%TD*%
D13*
%TO.C,R2*%
X82300400Y-176758600D03*
X82850400Y-176758600D03*
%TD*%
%TO.C,R1*%
X82279000Y-174015400D03*
X82829000Y-174015400D03*
%TD*%
D14*
%TO.C,C72*%
X95732600Y-51790600D03*
X95732600Y-52480600D03*
%TD*%
%TO.C,C71*%
X63601600Y-86080600D03*
X63601600Y-86770600D03*
%TD*%
D15*
%TO.C,C70*%
X62611000Y-113538000D03*
X62611000Y-112848000D03*
%TD*%
D16*
%TO.C,C69*%
X70372800Y-170027600D03*
X69682800Y-170027600D03*
%TD*%
D14*
%TO.C,C68*%
X33020000Y-40980800D03*
X33020000Y-41670800D03*
%TD*%
%TO.C,C67*%
X49631600Y-40945200D03*
X49631600Y-41635200D03*
%TD*%
%TO.C,C66*%
X65709800Y-40904600D03*
X65709800Y-41594600D03*
%TD*%
%TO.C,C65*%
X81686400Y-41021000D03*
X81686400Y-41711000D03*
%TD*%
%TO.C,C64*%
X24028400Y-51968800D03*
X24028400Y-52658800D03*
%TD*%
%TO.C,C63*%
X39954200Y-51902800D03*
X39954200Y-52592800D03*
%TD*%
%TO.C,C62*%
X55905400Y-51917600D03*
X55905400Y-52607600D03*
%TD*%
%TO.C,C61*%
X72034400Y-51892200D03*
X72034400Y-52582200D03*
%TD*%
%TO.C,C60*%
X33418600Y-62966600D03*
X33418600Y-63656600D03*
%TD*%
%TO.C,C59*%
X50596800Y-63064000D03*
X50596800Y-63754000D03*
%TD*%
%TO.C,C58*%
X68503800Y-63028000D03*
X68503800Y-63718000D03*
%TD*%
%TO.C,C57*%
X85420200Y-63053400D03*
X85420200Y-63743400D03*
%TD*%
%TO.C,C56*%
X76022200Y-73716200D03*
X76022200Y-74406200D03*
%TD*%
%TO.C,C55*%
X59486800Y-73859000D03*
X59486800Y-74549000D03*
%TD*%
%TO.C,C54*%
X41270600Y-73721400D03*
X41270600Y-74411400D03*
%TD*%
%TO.C,C53*%
X23749000Y-73736200D03*
X23749000Y-74426200D03*
%TD*%
%TO.C,C52*%
X75890000Y-133436400D03*
X75890000Y-134126400D03*
%TD*%
%TO.C,C51*%
X58597800Y-133259000D03*
X58597800Y-133949000D03*
%TD*%
%TO.C,C50*%
X41148000Y-133070600D03*
X41148000Y-133760600D03*
%TD*%
%TO.C,C49*%
X23926800Y-133294600D03*
X23926800Y-133984600D03*
%TD*%
%TO.C,C48*%
X85725000Y-121818800D03*
X85725000Y-122508800D03*
%TD*%
%TO.C,C47*%
X68447800Y-122512600D03*
X68447800Y-121822600D03*
%TD*%
%TO.C,C46*%
X50774600Y-121843800D03*
X50774600Y-122533800D03*
%TD*%
%TO.C,C45*%
X32890600Y-121828650D03*
X32890600Y-122518650D03*
%TD*%
%TO.C,C44*%
X33477200Y-144653000D03*
X33477200Y-145343000D03*
%TD*%
%TO.C,C43*%
X51358800Y-144627600D03*
X51358800Y-145317600D03*
%TD*%
%TO.C,C42*%
X68554600Y-144653400D03*
X68554600Y-145343400D03*
%TD*%
%TO.C,C41*%
X85877400Y-144648800D03*
X85877400Y-145338800D03*
%TD*%
%TO.C,C40*%
X24079200Y-156129200D03*
X24079200Y-156819200D03*
%TD*%
%TO.C,C39*%
X41122600Y-156159600D03*
X41122600Y-156849600D03*
%TD*%
%TO.C,C38*%
X58572400Y-156322200D03*
X58572400Y-157012200D03*
%TD*%
%TO.C,C37*%
X75844400Y-156464000D03*
X75844400Y-157154000D03*
%TD*%
%TO.C,C36*%
X31927800Y-40940600D03*
X31927800Y-41630600D03*
%TD*%
%TO.C,C35*%
X48590200Y-40940600D03*
X48590200Y-41630600D03*
%TD*%
%TO.C,C34*%
X64795400Y-40915200D03*
X64795400Y-41605200D03*
%TD*%
%TO.C,C33*%
X80543400Y-41006200D03*
X80543400Y-41696200D03*
%TD*%
%TO.C,C32*%
X24942800Y-51938800D03*
X24942800Y-52628800D03*
%TD*%
%TO.C,C31*%
X40919400Y-51877400D03*
X40919400Y-52567400D03*
%TD*%
%TO.C,C30*%
X56718200Y-51917600D03*
X56718200Y-52607600D03*
%TD*%
%TO.C,C29*%
X72872600Y-51892200D03*
X72872600Y-52582200D03*
%TD*%
%TO.C,C28*%
X32512000Y-62962400D03*
X32512000Y-63652400D03*
%TD*%
%TO.C,C27*%
X49707800Y-63064000D03*
X49707800Y-63754000D03*
%TD*%
%TO.C,C26*%
X67614800Y-63017400D03*
X67614800Y-63707400D03*
%TD*%
%TO.C,C25*%
X84455000Y-63048800D03*
X84455000Y-63738800D03*
%TD*%
%TO.C,C24*%
X77089000Y-73685800D03*
X77089000Y-74375800D03*
%TD*%
%TO.C,C23*%
X60530000Y-73884400D03*
X60530000Y-74574400D03*
%TD*%
%TO.C,C22*%
X42113200Y-73746800D03*
X42113200Y-74436800D03*
%TD*%
%TO.C,C21*%
X24638000Y-73630400D03*
X24638000Y-74320400D03*
%TD*%
%TO.C,C20*%
X76733400Y-133421600D03*
X76733400Y-134111600D03*
%TD*%
%TO.C,C19*%
X59441200Y-133244200D03*
X59441200Y-133934200D03*
%TD*%
%TO.C,C18*%
X41991400Y-133055800D03*
X41991400Y-133745800D03*
%TD*%
%TO.C,C17*%
X24770200Y-133279800D03*
X24770200Y-133969800D03*
%TD*%
%TO.C,C16*%
X84886800Y-121804000D03*
X84886800Y-122494000D03*
%TD*%
%TO.C,C15*%
X67589400Y-121818400D03*
X67589400Y-122508400D03*
%TD*%
%TO.C,C14*%
X49890800Y-121854400D03*
X49890800Y-122544400D03*
%TD*%
%TO.C,C13*%
X33756600Y-121818400D03*
X33756600Y-122508400D03*
%TD*%
%TO.C,C12*%
X32562800Y-144663600D03*
X32562800Y-145353600D03*
%TD*%
%TO.C,C11*%
X50419000Y-144653000D03*
X50419000Y-145343000D03*
%TD*%
%TO.C,C10*%
X67538600Y-144653000D03*
X67538600Y-145343000D03*
%TD*%
%TO.C,C9*%
X84480400Y-144653000D03*
X84480400Y-145343000D03*
%TD*%
%TO.C,C8*%
X25171400Y-156220600D03*
X25171400Y-156910600D03*
%TD*%
%TO.C,C7*%
X42164000Y-156159200D03*
X42164000Y-156849200D03*
%TD*%
%TO.C,C6*%
X59385200Y-156296800D03*
X59385200Y-156986800D03*
%TD*%
%TO.C,C5*%
X76835000Y-156464000D03*
X76835000Y-157154000D03*
%TD*%
%TO.C,C4*%
X94894400Y-51775800D03*
X94894400Y-52465800D03*
%TD*%
%TO.C,C3*%
X64820800Y-86106000D03*
X64820800Y-86796000D03*
%TD*%
D15*
%TO.C,C2*%
X63601600Y-113563400D03*
X63601600Y-112873400D03*
%TD*%
D17*
%TO.C,C1*%
X71628000Y-170103800D03*
X72318000Y-170103800D03*
%TD*%
D18*
%TO.C,U14*%
X59776200Y-113411000D03*
X59776200Y-112761000D03*
X59776200Y-112111000D03*
X59776200Y-111461000D03*
X59776200Y-110811000D03*
X59776200Y-110161000D03*
X59776200Y-109511000D03*
X59776200Y-108861000D03*
X59776200Y-108211000D03*
X59776200Y-107561000D03*
X59776200Y-106911000D03*
X59776200Y-106261000D03*
X54051200Y-106261000D03*
X54051200Y-106911000D03*
X54051200Y-107561000D03*
X54051200Y-108211000D03*
X54051200Y-108861000D03*
X54051200Y-109511000D03*
X54051200Y-110161000D03*
X54051200Y-110811000D03*
X54051200Y-111461000D03*
X54051200Y-112111000D03*
X54051200Y-112761000D03*
X54051200Y-113411000D03*
%TD*%
%TO.C,U1*%
X76268500Y-168852800D03*
X76268500Y-168202800D03*
X76268500Y-167552800D03*
X76268500Y-166902800D03*
X76268500Y-166252800D03*
X76268500Y-165602800D03*
X76268500Y-164952800D03*
X76268500Y-164302800D03*
X76268500Y-163652800D03*
X76268500Y-163002800D03*
X76268500Y-162352800D03*
X76268500Y-161702800D03*
X70543500Y-161702800D03*
X70543500Y-162352800D03*
X70543500Y-163002800D03*
X70543500Y-163652800D03*
X70543500Y-164302800D03*
X70543500Y-164952800D03*
X70543500Y-165602800D03*
X70543500Y-166252800D03*
X70543500Y-166902800D03*
X70543500Y-167552800D03*
X70543500Y-168202800D03*
X70543500Y-168852800D03*
%TD*%
%TO.C,U23*%
X59740800Y-86527400D03*
X59740800Y-85877400D03*
X59740800Y-85227400D03*
X59740800Y-84577400D03*
X59740800Y-83927400D03*
X59740800Y-83277400D03*
X59740800Y-82627400D03*
X59740800Y-81977400D03*
X59740800Y-81327400D03*
X59740800Y-80677400D03*
X59740800Y-80027400D03*
X59740800Y-79377400D03*
X54015800Y-79377400D03*
X54015800Y-80027400D03*
X54015800Y-80677400D03*
X54015800Y-81327400D03*
X54015800Y-81977400D03*
X54015800Y-82627400D03*
X54015800Y-83277400D03*
X54015800Y-83927400D03*
X54015800Y-84577400D03*
X54015800Y-85227400D03*
X54015800Y-85877400D03*
X54015800Y-86527400D03*
%TD*%
D19*
%TO.C,U32*%
X95021400Y-42646600D03*
X94371400Y-42646600D03*
X93721400Y-42646600D03*
X93071400Y-42646600D03*
X92421400Y-42646600D03*
X91771400Y-42646600D03*
X91121400Y-42646600D03*
X90471400Y-42646600D03*
X89821400Y-42646600D03*
X89171400Y-42646600D03*
X88521400Y-42646600D03*
X87871400Y-42646600D03*
X87871400Y-48371600D03*
X88521400Y-48371600D03*
X89171400Y-48371600D03*
X89821400Y-48371600D03*
X90471400Y-48371600D03*
X91121400Y-48371600D03*
X91771400Y-48371600D03*
X92421400Y-48371600D03*
X93071400Y-48371600D03*
X93721400Y-48371600D03*
X94371400Y-48371600D03*
X95021400Y-48371600D03*
%TD*%
M02*
