%TF.GenerationSoftware,KiCad,Pcbnew,7.0.1*%
%TF.CreationDate,2024-07-12T18:32:01-07:00*%
%TF.ProjectId,air_foil_pcb,6169725f-666f-4696-9c5f-7063622e6b69,rev?*%
%TF.SameCoordinates,Original*%
%TF.FileFunction,Copper,L4,Bot*%
%TF.FilePolarity,Positive*%
%FSLAX46Y46*%
G04 Gerber Fmt 4.6, Leading zero omitted, Abs format (unit mm)*
G04 Created by KiCad (PCBNEW 7.0.1) date 2024-07-12 18:32:01*
%MOMM*%
%LPD*%
G01*
G04 APERTURE LIST*
G04 Aperture macros list*
%AMFreePoly0*
4,1,6,1.000000,0.000000,0.500000,-0.750000,-0.500000,-0.750000,-0.500000,0.750000,0.500000,0.750000,1.000000,0.000000,1.000000,0.000000,$1*%
%AMFreePoly1*
4,1,6,0.500000,-0.750000,-0.650000,-0.750000,-0.150000,0.000000,-0.650000,0.750000,0.500000,0.750000,0.500000,-0.750000,0.500000,-0.750000,$1*%
G04 Aperture macros list end*
%TA.AperFunction,ComponentPad*%
%ADD10R,1.500000X1.500000*%
%TD*%
%TA.AperFunction,ComponentPad*%
%ADD11C,1.500000*%
%TD*%
%TA.AperFunction,SMDPad,CuDef*%
%ADD12FreePoly0,180.000000*%
%TD*%
%TA.AperFunction,SMDPad,CuDef*%
%ADD13FreePoly1,180.000000*%
%TD*%
%TA.AperFunction,ComponentPad*%
%ADD14O,1.700000X1.700000*%
%TD*%
%TA.AperFunction,ComponentPad*%
%ADD15R,1.700000X1.700000*%
%TD*%
%TA.AperFunction,ViaPad*%
%ADD16C,0.800000*%
%TD*%
%TA.AperFunction,Conductor*%
%ADD17C,0.250000*%
%TD*%
G04 APERTURE END LIST*
D10*
%TO.P,U36,1,GND*%
%TO.N,GND*%
X83328600Y-42709600D03*
D11*
%TO.P,U36,2,VIN*%
%TO.N,+3V3*%
X83328600Y-40169600D03*
%TO.P,U36,3,SDA*%
%TO.N,/D34*%
X83328600Y-37629600D03*
%TO.P,U36,4,SCL*%
%TO.N,/C34*%
X83328600Y-35089600D03*
%TO.P,U36,5,NC*%
%TO.N,unconnected-(U36-NC-Pad5)*%
X70028600Y-35089600D03*
%TO.P,U36,6,NC*%
%TO.N,unconnected-(U36-NC-Pad6)*%
X70028600Y-37629600D03*
%TO.P,U36,7,NC*%
%TO.N,unconnected-(U36-NC-Pad7)*%
X70028600Y-40169600D03*
%TO.P,U36,8,NC*%
%TO.N,unconnected-(U36-NC-Pad8)*%
X70028600Y-42709600D03*
%TD*%
D10*
%TO.P,U35,1,GND*%
%TO.N,GND*%
X35449600Y-42633400D03*
D11*
%TO.P,U35,2,VIN*%
%TO.N,+3V3*%
X35449600Y-40093400D03*
%TO.P,U35,3,SDA*%
%TO.N,/D37*%
X35449600Y-37553400D03*
%TO.P,U35,4,SCL*%
%TO.N,/C37*%
X35449600Y-35013400D03*
%TO.P,U35,5,NC*%
%TO.N,unconnected-(U35-NC-Pad5)*%
X22149600Y-35013400D03*
%TO.P,U35,6,NC*%
%TO.N,unconnected-(U35-NC-Pad6)*%
X22149600Y-37553400D03*
%TO.P,U35,7,NC*%
%TO.N,unconnected-(U35-NC-Pad7)*%
X22149600Y-40093400D03*
%TO.P,U35,8,NC*%
%TO.N,unconnected-(U35-NC-Pad8)*%
X22149600Y-42633400D03*
%TD*%
%TO.P,U34,8,NC*%
%TO.N,unconnected-(U34-NC-Pad8)*%
X38075400Y-42645600D03*
%TO.P,U34,7,NC*%
%TO.N,unconnected-(U34-NC-Pad7)*%
X38075400Y-40105600D03*
%TO.P,U34,6,NC*%
%TO.N,unconnected-(U34-NC-Pad6)*%
X38075400Y-37565600D03*
%TO.P,U34,5,NC*%
%TO.N,unconnected-(U34-NC-Pad5)*%
X38075400Y-35025600D03*
%TO.P,U34,4,SCL*%
%TO.N,/C36*%
X51375400Y-35025600D03*
%TO.P,U34,3,SDA*%
%TO.N,/D36*%
X51375400Y-37565600D03*
%TO.P,U34,2,VIN*%
%TO.N,+3V3*%
X51375400Y-40105600D03*
D10*
%TO.P,U34,1,GND*%
%TO.N,GND*%
X51375400Y-42645600D03*
%TD*%
%TO.P,U33,1,GND*%
%TO.N,GND*%
X67302000Y-42645600D03*
D11*
%TO.P,U33,2,VIN*%
%TO.N,+3V3*%
X67302000Y-40105600D03*
%TO.P,U33,3,SDA*%
%TO.N,/D35*%
X67302000Y-37565600D03*
%TO.P,U33,4,SCL*%
%TO.N,/C35*%
X67302000Y-35025600D03*
%TO.P,U33,5,NC*%
%TO.N,unconnected-(U33-NC-Pad5)*%
X54002000Y-35025600D03*
%TO.P,U33,6,NC*%
%TO.N,unconnected-(U33-NC-Pad6)*%
X54002000Y-37565600D03*
%TO.P,U33,7,NC*%
%TO.N,unconnected-(U33-NC-Pad7)*%
X54002000Y-40105600D03*
%TO.P,U33,8,NC*%
%TO.N,unconnected-(U33-NC-Pad8)*%
X54002000Y-42645600D03*
%TD*%
D10*
%TO.P,U31,1,GND*%
%TO.N,GND*%
X38236600Y-53603350D03*
D11*
%TO.P,U31,2,VIN*%
%TO.N,+3V3*%
X38236600Y-51063350D03*
%TO.P,U31,3,SDA*%
%TO.N,/D32*%
X38236600Y-48523350D03*
%TO.P,U31,4,SCL*%
%TO.N,/C32*%
X38236600Y-45983350D03*
%TO.P,U31,5,NC*%
%TO.N,unconnected-(U31-NC-Pad5)*%
X51536600Y-45983350D03*
%TO.P,U31,6,NC*%
%TO.N,unconnected-(U31-NC-Pad6)*%
X51536600Y-48523350D03*
%TO.P,U31,7,NC*%
%TO.N,unconnected-(U31-NC-Pad7)*%
X51536600Y-51063350D03*
%TO.P,U31,8,NC*%
%TO.N,unconnected-(U31-NC-Pad8)*%
X51536600Y-53603350D03*
%TD*%
D10*
%TO.P,U30,1,GND*%
%TO.N,GND*%
X54203600Y-53543200D03*
D11*
%TO.P,U30,2,VIN*%
%TO.N,+3V3*%
X54203600Y-51003200D03*
%TO.P,U30,3,SDA*%
%TO.N,/D31*%
X54203600Y-48463200D03*
%TO.P,U30,4,SCL*%
%TO.N,/C31*%
X54203600Y-45923200D03*
%TO.P,U30,5,NC*%
%TO.N,unconnected-(U30-NC-Pad5)*%
X67503600Y-45923200D03*
%TO.P,U30,6,NC*%
%TO.N,unconnected-(U30-NC-Pad6)*%
X67503600Y-48463200D03*
%TO.P,U30,7,NC*%
%TO.N,unconnected-(U30-NC-Pad7)*%
X67503600Y-51003200D03*
%TO.P,U30,8,NC*%
%TO.N,unconnected-(U30-NC-Pad8)*%
X67503600Y-53543200D03*
%TD*%
D10*
%TO.P,U29,1,GND*%
%TO.N,GND*%
X70184200Y-53533350D03*
D11*
%TO.P,U29,2,VIN*%
%TO.N,+3V3*%
X70184200Y-50993350D03*
%TO.P,U29,3,SDA*%
%TO.N,/D30*%
X70184200Y-48453350D03*
%TO.P,U29,4,SCL*%
%TO.N,/C30*%
X70184200Y-45913350D03*
%TO.P,U29,5,NC*%
%TO.N,unconnected-(U29-NC-Pad5)*%
X83484200Y-45913350D03*
%TO.P,U29,6,NC*%
%TO.N,unconnected-(U29-NC-Pad6)*%
X83484200Y-48453350D03*
%TO.P,U29,7,NC*%
%TO.N,unconnected-(U29-NC-Pad7)*%
X83484200Y-50993350D03*
%TO.P,U29,8,NC*%
%TO.N,unconnected-(U29-NC-Pad8)*%
X83484200Y-53533350D03*
%TD*%
D10*
%TO.P,U28,1,GND*%
%TO.N,GND*%
X22326600Y-53670200D03*
D11*
%TO.P,U28,2,VIN*%
%TO.N,+3V3*%
X22326600Y-51130200D03*
%TO.P,U28,3,SDA*%
%TO.N,/D33*%
X22326600Y-48590200D03*
%TO.P,U28,4,SCL*%
%TO.N,/C33*%
X22326600Y-46050200D03*
%TO.P,U28,5,NC*%
%TO.N,unconnected-(U28-NC-Pad5)*%
X35626600Y-46050200D03*
%TO.P,U28,6,NC*%
%TO.N,unconnected-(U28-NC-Pad6)*%
X35626600Y-48590200D03*
%TO.P,U28,7,NC*%
%TO.N,unconnected-(U28-NC-Pad7)*%
X35626600Y-51130200D03*
%TO.P,U28,8,NC*%
%TO.N,unconnected-(U28-NC-Pad8)*%
X35626600Y-53670200D03*
%TD*%
D10*
%TO.P,U27,1,GND*%
%TO.N,GND*%
X87540600Y-64686800D03*
D11*
%TO.P,U27,2,VIN*%
%TO.N,+3V3*%
X87540600Y-62146800D03*
%TO.P,U27,3,SDA*%
%TO.N,/D24*%
X87540600Y-59606800D03*
%TO.P,U27,4,SCL*%
%TO.N,/C24*%
X87540600Y-57066800D03*
%TO.P,U27,5,NC*%
%TO.N,unconnected-(U27-NC-Pad5)*%
X74240600Y-57066800D03*
%TO.P,U27,6,NC*%
%TO.N,unconnected-(U27-NC-Pad6)*%
X74240600Y-59606800D03*
%TO.P,U27,7,NC*%
%TO.N,unconnected-(U27-NC-Pad7)*%
X74240600Y-62146800D03*
%TO.P,U27,8,NC*%
%TO.N,unconnected-(U27-NC-Pad8)*%
X74240600Y-64686800D03*
%TD*%
%TO.P,U26,8,NC*%
%TO.N,unconnected-(U26-NC-Pad8)*%
X22177400Y-64686800D03*
%TO.P,U26,7,NC*%
%TO.N,unconnected-(U26-NC-Pad7)*%
X22177400Y-62146800D03*
%TO.P,U26,6,NC*%
%TO.N,unconnected-(U26-NC-Pad6)*%
X22177400Y-59606800D03*
%TO.P,U26,5,NC*%
%TO.N,unconnected-(U26-NC-Pad5)*%
X22177400Y-57066800D03*
%TO.P,U26,4,SCL*%
%TO.N,/C27*%
X35477400Y-57066800D03*
%TO.P,U26,3,SDA*%
%TO.N,/D27*%
X35477400Y-59606800D03*
%TO.P,U26,2,VIN*%
%TO.N,+3V3*%
X35477400Y-62146800D03*
D10*
%TO.P,U26,1,GND*%
%TO.N,GND*%
X35477400Y-64686800D03*
%TD*%
D11*
%TO.P,U25,8,NC*%
%TO.N,unconnected-(U25-NC-Pad8)*%
X39469200Y-64680600D03*
%TO.P,U25,7,NC*%
%TO.N,unconnected-(U25-NC-Pad7)*%
X39469200Y-62140600D03*
%TO.P,U25,6,NC*%
%TO.N,unconnected-(U25-NC-Pad6)*%
X39469200Y-59600600D03*
%TO.P,U25,5,NC*%
%TO.N,unconnected-(U25-NC-Pad5)*%
X39469200Y-57060600D03*
%TO.P,U25,4,SCL*%
%TO.N,/C26*%
X52769200Y-57060600D03*
%TO.P,U25,3,SDA*%
%TO.N,/D26*%
X52769200Y-59600600D03*
%TO.P,U25,2,VIN*%
%TO.N,+3V3*%
X52769200Y-62140600D03*
D10*
%TO.P,U25,1,GND*%
%TO.N,GND*%
X52769200Y-64680600D03*
%TD*%
%TO.P,U24,1,GND*%
%TO.N,GND*%
X70186200Y-64686800D03*
D11*
%TO.P,U24,2,VIN*%
%TO.N,+3V3*%
X70186200Y-62146800D03*
%TO.P,U24,3,SDA*%
%TO.N,/D25*%
X70186200Y-59606800D03*
%TO.P,U24,4,SCL*%
%TO.N,/C25*%
X70186200Y-57066800D03*
%TO.P,U24,5,NC*%
%TO.N,unconnected-(U24-NC-Pad5)*%
X56886200Y-57066800D03*
%TO.P,U24,6,NC*%
%TO.N,unconnected-(U24-NC-Pad6)*%
X56886200Y-59606800D03*
%TO.P,U24,7,NC*%
%TO.N,unconnected-(U24-NC-Pad7)*%
X56886200Y-62146800D03*
%TO.P,U24,8,NC*%
%TO.N,unconnected-(U24-NC-Pad8)*%
X56886200Y-64686800D03*
%TD*%
D10*
%TO.P,U22,1,GND*%
%TO.N,GND*%
X39669200Y-75253200D03*
D11*
%TO.P,U22,2,VIN*%
%TO.N,+3V3*%
X39669200Y-72713200D03*
%TO.P,U22,3,SDA*%
%TO.N,/D22*%
X39669200Y-70173200D03*
%TO.P,U22,4,SCL*%
%TO.N,/C22*%
X39669200Y-67633200D03*
%TO.P,U22,5,NC*%
%TO.N,unconnected-(U22-NC-Pad5)*%
X52969200Y-67633200D03*
%TO.P,U22,6,NC*%
%TO.N,unconnected-(U22-NC-Pad6)*%
X52969200Y-70173200D03*
%TO.P,U22,7,NC*%
%TO.N,unconnected-(U22-NC-Pad7)*%
X52969200Y-72713200D03*
%TO.P,U22,8,NC*%
%TO.N,unconnected-(U22-NC-Pad8)*%
X52969200Y-75253200D03*
%TD*%
D10*
%TO.P,U21,1,GND*%
%TO.N,GND*%
X57086200Y-75253200D03*
D11*
%TO.P,U21,2,VIN*%
%TO.N,+3V3*%
X57086200Y-72713200D03*
%TO.P,U21,3,SDA*%
%TO.N,/D21*%
X57086200Y-70173200D03*
%TO.P,U21,4,SCL*%
%TO.N,/C21*%
X57086200Y-67633200D03*
%TO.P,U21,5,NC*%
%TO.N,unconnected-(U21-NC-Pad5)*%
X70386200Y-67633200D03*
%TO.P,U21,6,NC*%
%TO.N,unconnected-(U21-NC-Pad6)*%
X70386200Y-70173200D03*
%TO.P,U21,7,NC*%
%TO.N,unconnected-(U21-NC-Pad7)*%
X70386200Y-72713200D03*
%TO.P,U21,8,NC*%
%TO.N,unconnected-(U21-NC-Pad8)*%
X70386200Y-75253200D03*
%TD*%
D10*
%TO.P,U20,1,GND*%
%TO.N,GND*%
X74440600Y-75253200D03*
D11*
%TO.P,U20,2,VIN*%
%TO.N,+3V3*%
X74440600Y-72713200D03*
%TO.P,U20,3,SDA*%
%TO.N,/D20*%
X74440600Y-70173200D03*
%TO.P,U20,4,SCL*%
%TO.N,/C20*%
X74440600Y-67633200D03*
%TO.P,U20,5,NC*%
%TO.N,unconnected-(U20-NC-Pad5)*%
X87740600Y-67633200D03*
%TO.P,U20,6,NC*%
%TO.N,unconnected-(U20-NC-Pad6)*%
X87740600Y-70173200D03*
%TO.P,U20,7,NC*%
%TO.N,unconnected-(U20-NC-Pad7)*%
X87740600Y-72713200D03*
%TO.P,U20,8,NC*%
%TO.N,unconnected-(U20-NC-Pad8)*%
X87740600Y-75253200D03*
%TD*%
D10*
%TO.P,U19,1,GND*%
%TO.N,GND*%
X22377400Y-75253200D03*
D11*
%TO.P,U19,2,VIN*%
%TO.N,+3V3*%
X22377400Y-72713200D03*
%TO.P,U19,3,SDA*%
%TO.N,/D23*%
X22377400Y-70173200D03*
%TO.P,U19,4,SCL*%
%TO.N,/C23*%
X22377400Y-67633200D03*
%TO.P,U19,5,NC*%
%TO.N,unconnected-(U19-NC-Pad5)*%
X35677400Y-67633200D03*
%TO.P,U19,6,NC*%
%TO.N,unconnected-(U19-NC-Pad6)*%
X35677400Y-70173200D03*
%TO.P,U19,7,NC*%
%TO.N,unconnected-(U19-NC-Pad7)*%
X35677400Y-72713200D03*
%TO.P,U19,8,NC*%
%TO.N,unconnected-(U19-NC-Pad8)*%
X35677400Y-75253200D03*
%TD*%
D10*
%TO.P,U18,1,GND*%
%TO.N,GND*%
X87540600Y-123494800D03*
D11*
%TO.P,U18,2,VIN*%
%TO.N,+3V3*%
X87540600Y-120954800D03*
%TO.P,U18,3,SDA*%
%TO.N,/D14*%
X87540600Y-118414800D03*
%TO.P,U18,4,SCL*%
%TO.N,/C14*%
X87540600Y-115874800D03*
%TO.P,U18,5,NC*%
%TO.N,unconnected-(U18-NC-Pad5)*%
X74240600Y-115874800D03*
%TO.P,U18,6,NC*%
%TO.N,unconnected-(U18-NC-Pad6)*%
X74240600Y-118414800D03*
%TO.P,U18,7,NC*%
%TO.N,unconnected-(U18-NC-Pad7)*%
X74240600Y-120954800D03*
%TO.P,U18,8,NC*%
%TO.N,unconnected-(U18-NC-Pad8)*%
X74240600Y-123494800D03*
%TD*%
D10*
%TO.P,U17,1,GND*%
%TO.N,GND*%
X35477400Y-123494800D03*
D11*
%TO.P,U17,2,VIN*%
%TO.N,+3V3*%
X35477400Y-120954800D03*
%TO.P,U17,3,SDA*%
%TO.N,/D17*%
X35477400Y-118414800D03*
%TO.P,U17,4,SCL*%
%TO.N,/C17*%
X35477400Y-115874800D03*
%TO.P,U17,5,NC*%
%TO.N,unconnected-(U17-NC-Pad5)*%
X22177400Y-115874800D03*
%TO.P,U17,6,NC*%
%TO.N,unconnected-(U17-NC-Pad6)*%
X22177400Y-118414800D03*
%TO.P,U17,7,NC*%
%TO.N,unconnected-(U17-NC-Pad7)*%
X22177400Y-120954800D03*
%TO.P,U17,8,NC*%
%TO.N,unconnected-(U17-NC-Pad8)*%
X22177400Y-123494800D03*
%TD*%
%TO.P,U16,8,NC*%
%TO.N,unconnected-(U16-NC-Pad8)*%
X39469200Y-123494800D03*
%TO.P,U16,7,NC*%
%TO.N,unconnected-(U16-NC-Pad7)*%
X39469200Y-120954800D03*
%TO.P,U16,6,NC*%
%TO.N,unconnected-(U16-NC-Pad6)*%
X39469200Y-118414800D03*
%TO.P,U16,5,NC*%
%TO.N,unconnected-(U16-NC-Pad5)*%
X39469200Y-115874800D03*
%TO.P,U16,4,SCL*%
%TO.N,/C16*%
X52769200Y-115874800D03*
%TO.P,U16,3,SDA*%
%TO.N,/D16*%
X52769200Y-118414800D03*
%TO.P,U16,2,VIN*%
%TO.N,+3V3*%
X52769200Y-120954800D03*
D10*
%TO.P,U16,1,GND*%
%TO.N,GND*%
X52769200Y-123494800D03*
%TD*%
%TO.P,U15,1,GND*%
%TO.N,GND*%
X70186200Y-123494800D03*
D11*
%TO.P,U15,2,VIN*%
%TO.N,+3V3*%
X70186200Y-120954800D03*
%TO.P,U15,3,SDA*%
%TO.N,/D15*%
X70186200Y-118414800D03*
%TO.P,U15,4,SCL*%
%TO.N,/C15*%
X70186200Y-115874800D03*
%TO.P,U15,5,NC*%
%TO.N,unconnected-(U15-NC-Pad5)*%
X56886200Y-115874800D03*
%TO.P,U15,6,NC*%
%TO.N,unconnected-(U15-NC-Pad6)*%
X56886200Y-118414800D03*
%TO.P,U15,7,NC*%
%TO.N,unconnected-(U15-NC-Pad7)*%
X56886200Y-120954800D03*
%TO.P,U15,8,NC*%
%TO.N,unconnected-(U15-NC-Pad8)*%
X56886200Y-123494800D03*
%TD*%
D10*
%TO.P,U13,1,GND*%
%TO.N,GND*%
X39557400Y-134975600D03*
D11*
%TO.P,U13,2,VIN*%
%TO.N,+3V3*%
X39557400Y-132435600D03*
%TO.P,U13,3,SDA*%
%TO.N,/D12*%
X39557400Y-129895600D03*
%TO.P,U13,4,SCL*%
%TO.N,/C12*%
X39557400Y-127355600D03*
%TO.P,U13,5,NC*%
%TO.N,unconnected-(U13-NC-Pad5)*%
X52857400Y-127355600D03*
%TO.P,U13,6,NC*%
%TO.N,unconnected-(U13-NC-Pad6)*%
X52857400Y-129895600D03*
%TO.P,U13,7,NC*%
%TO.N,unconnected-(U13-NC-Pad7)*%
X52857400Y-132435600D03*
%TO.P,U13,8,NC*%
%TO.N,unconnected-(U13-NC-Pad8)*%
X52857400Y-134975600D03*
%TD*%
D10*
%TO.P,U12,1,GND*%
%TO.N,GND*%
X57001600Y-134965750D03*
D11*
%TO.P,U12,2,VIN*%
%TO.N,+3V3*%
X57001600Y-132425750D03*
%TO.P,U12,3,SDA*%
%TO.N,/D11*%
X57001600Y-129885750D03*
%TO.P,U12,4,SCL*%
%TO.N,/C11*%
X57001600Y-127345750D03*
%TO.P,U12,5,NC*%
%TO.N,unconnected-(U12-NC-Pad5)*%
X70301600Y-127345750D03*
%TO.P,U12,6,NC*%
%TO.N,unconnected-(U12-NC-Pad6)*%
X70301600Y-129885750D03*
%TO.P,U12,7,NC*%
%TO.N,unconnected-(U12-NC-Pad7)*%
X70301600Y-132425750D03*
%TO.P,U12,8,NC*%
%TO.N,unconnected-(U12-NC-Pad8)*%
X70301600Y-134965750D03*
%TD*%
%TO.P,U11,8,NC*%
%TO.N,unconnected-(U11-NC-Pad8)*%
X87740600Y-134924800D03*
%TO.P,U11,7,NC*%
%TO.N,unconnected-(U11-NC-Pad7)*%
X87740600Y-132384800D03*
%TO.P,U11,6,NC*%
%TO.N,unconnected-(U11-NC-Pad6)*%
X87740600Y-129844800D03*
%TO.P,U11,5,NC*%
%TO.N,unconnected-(U11-NC-Pad5)*%
X87740600Y-127304800D03*
%TO.P,U11,4,SCL*%
%TO.N,/C10*%
X74440600Y-127304800D03*
%TO.P,U11,3,SDA*%
%TO.N,/D10*%
X74440600Y-129844800D03*
%TO.P,U11,2,VIN*%
%TO.N,+3V3*%
X74440600Y-132384800D03*
D10*
%TO.P,U11,1,GND*%
%TO.N,GND*%
X74440600Y-134924800D03*
%TD*%
%TO.P,U10,1,GND*%
%TO.N,GND*%
X22377400Y-134924800D03*
D11*
%TO.P,U10,2,VIN*%
%TO.N,+3V3*%
X22377400Y-132384800D03*
%TO.P,U10,3,SDA*%
%TO.N,/D13*%
X22377400Y-129844800D03*
%TO.P,U10,4,SCL*%
%TO.N,/C13*%
X22377400Y-127304800D03*
%TO.P,U10,5,NC*%
%TO.N,unconnected-(U10-NC-Pad5)*%
X35677400Y-127304800D03*
%TO.P,U10,6,NC*%
%TO.N,unconnected-(U10-NC-Pad6)*%
X35677400Y-129844800D03*
%TO.P,U10,7,NC*%
%TO.N,unconnected-(U10-NC-Pad7)*%
X35677400Y-132384800D03*
%TO.P,U10,8,NC*%
%TO.N,unconnected-(U10-NC-Pad8)*%
X35677400Y-134924800D03*
%TD*%
D10*
%TO.P,U9,1,GND*%
%TO.N,GND*%
X35477400Y-146354800D03*
D11*
%TO.P,U9,2,VIN*%
%TO.N,+3V3*%
X35477400Y-143814800D03*
%TO.P,U9,3,SDA*%
%TO.N,/D07*%
X35477400Y-141274800D03*
%TO.P,U9,4,SCL*%
%TO.N,/C07*%
X35477400Y-138734800D03*
%TO.P,U9,5,NC*%
%TO.N,unconnected-(U9-NC-Pad5)*%
X22177400Y-138734800D03*
%TO.P,U9,6,NC*%
%TO.N,unconnected-(U9-NC-Pad6)*%
X22177400Y-141274800D03*
%TO.P,U9,7,NC*%
%TO.N,unconnected-(U9-NC-Pad7)*%
X22177400Y-143814800D03*
%TO.P,U9,8,NC*%
%TO.N,unconnected-(U9-NC-Pad8)*%
X22177400Y-146354800D03*
%TD*%
D10*
%TO.P,U8,1,GND*%
%TO.N,GND*%
X52769200Y-146354800D03*
D11*
%TO.P,U8,2,VIN*%
%TO.N,+3V3*%
X52769200Y-143814800D03*
%TO.P,U8,3,SDA*%
%TO.N,/D06*%
X52769200Y-141274800D03*
%TO.P,U8,4,SCL*%
%TO.N,/C06*%
X52769200Y-138734800D03*
%TO.P,U8,5,NC*%
%TO.N,unconnected-(U8-NC-Pad5)*%
X39469200Y-138734800D03*
%TO.P,U8,6,NC*%
%TO.N,unconnected-(U8-NC-Pad6)*%
X39469200Y-141274800D03*
%TO.P,U8,7,NC*%
%TO.N,unconnected-(U8-NC-Pad7)*%
X39469200Y-143814800D03*
%TO.P,U8,8,NC*%
%TO.N,unconnected-(U8-NC-Pad8)*%
X39469200Y-146354800D03*
%TD*%
D10*
%TO.P,U7,1,GND*%
%TO.N,GND*%
X70186200Y-146354800D03*
D11*
%TO.P,U7,2,VIN*%
%TO.N,+3V3*%
X70186200Y-143814800D03*
%TO.P,U7,3,SDA*%
%TO.N,/D05*%
X70186200Y-141274800D03*
%TO.P,U7,4,SCL*%
%TO.N,/C05*%
X70186200Y-138734800D03*
%TO.P,U7,5,NC*%
%TO.N,unconnected-(U7-NC-Pad5)*%
X56886200Y-138734800D03*
%TO.P,U7,6,NC*%
%TO.N,unconnected-(U7-NC-Pad6)*%
X56886200Y-141274800D03*
%TO.P,U7,7,NC*%
%TO.N,unconnected-(U7-NC-Pad7)*%
X56886200Y-143814800D03*
%TO.P,U7,8,NC*%
%TO.N,unconnected-(U7-NC-Pad8)*%
X56886200Y-146354800D03*
%TD*%
D10*
%TO.P,U6,1,GND*%
%TO.N,GND*%
X87540600Y-146354800D03*
D11*
%TO.P,U6,2,VIN*%
%TO.N,+3V3*%
X87540600Y-143814800D03*
%TO.P,U6,3,SDA*%
%TO.N,/D04*%
X87540600Y-141274800D03*
%TO.P,U6,4,SCL*%
%TO.N,/C04*%
X87540600Y-138734800D03*
%TO.P,U6,5,NC*%
%TO.N,unconnected-(U6-NC-Pad5)*%
X74240600Y-138734800D03*
%TO.P,U6,6,NC*%
%TO.N,unconnected-(U6-NC-Pad6)*%
X74240600Y-141274800D03*
%TO.P,U6,7,NC*%
%TO.N,unconnected-(U6-NC-Pad7)*%
X74240600Y-143814800D03*
%TO.P,U6,8,NC*%
%TO.N,unconnected-(U6-NC-Pad8)*%
X74240600Y-146354800D03*
%TD*%
D10*
%TO.P,U5,1,GND*%
%TO.N,GND*%
X22377400Y-157784800D03*
D11*
%TO.P,U5,2,VIN*%
%TO.N,+3V3*%
X22377400Y-155244800D03*
%TO.P,U5,3,SDA*%
%TO.N,/D03*%
X22377400Y-152704800D03*
%TO.P,U5,4,SCL*%
%TO.N,/C03*%
X22377400Y-150164800D03*
%TO.P,U5,5,NC*%
%TO.N,unconnected-(U5-NC-Pad5)*%
X35677400Y-150164800D03*
%TO.P,U5,6,NC*%
%TO.N,unconnected-(U5-NC-Pad6)*%
X35677400Y-152704800D03*
%TO.P,U5,7,NC*%
%TO.N,unconnected-(U5-NC-Pad7)*%
X35677400Y-155244800D03*
%TO.P,U5,8,NC*%
%TO.N,unconnected-(U5-NC-Pad8)*%
X35677400Y-157784800D03*
%TD*%
D10*
%TO.P,U4,1,GND*%
%TO.N,GND*%
X39669200Y-157784800D03*
D11*
%TO.P,U4,2,VIN*%
%TO.N,+3V3*%
X39669200Y-155244800D03*
%TO.P,U4,3,SDA*%
%TO.N,/D02*%
X39669200Y-152704800D03*
%TO.P,U4,4,SCL*%
%TO.N,/C02*%
X39669200Y-150164800D03*
%TO.P,U4,5,NC*%
%TO.N,unconnected-(U4-NC-Pad5)*%
X52969200Y-150164800D03*
%TO.P,U4,6,NC*%
%TO.N,unconnected-(U4-NC-Pad6)*%
X52969200Y-152704800D03*
%TO.P,U4,7,NC*%
%TO.N,unconnected-(U4-NC-Pad7)*%
X52969200Y-155244800D03*
%TO.P,U4,8,NC*%
%TO.N,unconnected-(U4-NC-Pad8)*%
X52969200Y-157784800D03*
%TD*%
D10*
%TO.P,U3,1,GND*%
%TO.N,GND*%
X57086200Y-157784800D03*
D11*
%TO.P,U3,2,VIN*%
%TO.N,+3V3*%
X57086200Y-155244800D03*
%TO.P,U3,3,SDA*%
%TO.N,/D01*%
X57086200Y-152704800D03*
%TO.P,U3,4,SCL*%
%TO.N,/C01*%
X57086200Y-150164800D03*
%TO.P,U3,5,NC*%
%TO.N,unconnected-(U3-NC-Pad5)*%
X70386200Y-150164800D03*
%TO.P,U3,6,NC*%
%TO.N,unconnected-(U3-NC-Pad6)*%
X70386200Y-152704800D03*
%TO.P,U3,7,NC*%
%TO.N,unconnected-(U3-NC-Pad7)*%
X70386200Y-155244800D03*
%TO.P,U3,8,NC*%
%TO.N,unconnected-(U3-NC-Pad8)*%
X70386200Y-157784800D03*
%TD*%
D10*
%TO.P,U2,1,GND*%
%TO.N,GND*%
X74440600Y-157784800D03*
D11*
%TO.P,U2,2,VIN*%
%TO.N,+3V3*%
X74440600Y-155244800D03*
%TO.P,U2,3,SDA*%
%TO.N,/D00*%
X74440600Y-152704800D03*
%TO.P,U2,4,SCL*%
%TO.N,/C00*%
X74440600Y-150164800D03*
%TO.P,U2,5,NC*%
%TO.N,unconnected-(U2-NC-Pad5)*%
X87740600Y-150164800D03*
%TO.P,U2,6,NC*%
%TO.N,unconnected-(U2-NC-Pad6)*%
X87740600Y-152704800D03*
%TO.P,U2,7,NC*%
%TO.N,unconnected-(U2-NC-Pad7)*%
X87740600Y-155244800D03*
%TO.P,U2,8,NC*%
%TO.N,unconnected-(U2-NC-Pad8)*%
X87740600Y-157784800D03*
%TD*%
D12*
%TO.P,JP70,1,A*%
%TO.N,/C34*%
X78169600Y-34925000D03*
D13*
%TO.P,JP70,2,B*%
%TO.N,Net-(JP70-B)*%
X76719600Y-34925000D03*
%TD*%
D12*
%TO.P,JP69,1,A*%
%TO.N,/C37*%
X30607000Y-35001200D03*
D13*
%TO.P,JP69,2,B*%
%TO.N,Net-(JP69-B)*%
X29157000Y-35001200D03*
%TD*%
D12*
%TO.P,JP68,1,A*%
%TO.N,/C36*%
X46075600Y-34975800D03*
D13*
%TO.P,JP68,2,B*%
%TO.N,Net-(JP68-B)*%
X44625600Y-34975800D03*
%TD*%
D12*
%TO.P,JP67,1,A*%
%TO.N,/C35*%
X61620400Y-35026600D03*
D13*
%TO.P,JP67,2,B*%
%TO.N,Net-(JP67-B)*%
X60170400Y-35026600D03*
%TD*%
D12*
%TO.P,JP66,1,A*%
%TO.N,/D34*%
X78181200Y-37566600D03*
D13*
%TO.P,JP66,2,B*%
%TO.N,Net-(JP66-B)*%
X76731200Y-37566600D03*
%TD*%
D12*
%TO.P,JP65,1,A*%
%TO.N,/D37*%
X30632400Y-37668200D03*
D13*
%TO.P,JP65,2,B*%
%TO.N,Net-(JP65-B)*%
X29182400Y-37668200D03*
%TD*%
D12*
%TO.P,JP64,1,A*%
%TO.N,/D36*%
X46064000Y-37719000D03*
D13*
%TO.P,JP64,2,B*%
%TO.N,Net-(JP64-B)*%
X44614000Y-37719000D03*
%TD*%
D12*
%TO.P,JP63,1,A*%
%TO.N,/D35*%
X61622600Y-37719000D03*
D13*
%TO.P,JP63,2,B*%
%TO.N,Net-(JP63-B)*%
X60172600Y-37719000D03*
%TD*%
D12*
%TO.P,JP54,1,A*%
%TO.N,/C24*%
X82067400Y-59283600D03*
D13*
%TO.P,JP54,2,B*%
%TO.N,Net-(JP54-B)*%
X80617400Y-59283600D03*
%TD*%
D12*
%TO.P,JP53,1,A*%
%TO.N,/C27*%
X30226000Y-59867800D03*
D13*
%TO.P,JP53,2,B*%
%TO.N,Net-(JP53-B)*%
X28776000Y-59867800D03*
%TD*%
D12*
%TO.P,JP52,1,A*%
%TO.N,/C26*%
X47246200Y-58648600D03*
D13*
%TO.P,JP52,2,B*%
%TO.N,Net-(JP52-B)*%
X45796200Y-58648600D03*
%TD*%
D12*
%TO.P,JP51,1,A*%
%TO.N,/C25*%
X64555200Y-58953400D03*
D13*
%TO.P,JP51,2,B*%
%TO.N,Net-(JP51-B)*%
X63105200Y-58953400D03*
%TD*%
D12*
%TO.P,JP50,1,A*%
%TO.N,/D24*%
X82067400Y-62052200D03*
D13*
%TO.P,JP50,2,B*%
%TO.N,Net-(JP50-B)*%
X80617400Y-62052200D03*
%TD*%
D12*
%TO.P,JP49,1,A*%
%TO.N,/D27*%
X30200600Y-62433200D03*
D13*
%TO.P,JP49,2,B*%
%TO.N,Net-(JP49-B)*%
X28750600Y-62433200D03*
%TD*%
D12*
%TO.P,JP48,1,A*%
%TO.N,/D26*%
X47244000Y-61214000D03*
D13*
%TO.P,JP48,2,B*%
%TO.N,Net-(JP48-B)*%
X45794000Y-61214000D03*
%TD*%
D12*
%TO.P,JP47,1,A*%
%TO.N,/D25*%
X64529800Y-61696600D03*
D13*
%TO.P,JP47,2,B*%
%TO.N,Net-(JP47-B)*%
X63079800Y-61696600D03*
%TD*%
%TO.P,JP38,2,B*%
%TO.N,Net-(JP38-B)*%
X77814000Y-116890800D03*
D12*
%TO.P,JP38,1,A*%
%TO.N,/C14*%
X79264000Y-116890800D03*
%TD*%
D13*
%TO.P,JP37,2,B*%
%TO.N,Net-(JP37-B)*%
X26365200Y-117500400D03*
D12*
%TO.P,JP37,1,A*%
%TO.N,/C17*%
X27815200Y-117500400D03*
%TD*%
D13*
%TO.P,JP36,2,B*%
%TO.N,Net-(JP36-B)*%
X43203200Y-117652800D03*
D12*
%TO.P,JP36,1,A*%
%TO.N,/C16*%
X44653200Y-117652800D03*
%TD*%
D13*
%TO.P,JP35,2,B*%
%TO.N,Net-(JP35-B)*%
X60870000Y-117944200D03*
D12*
%TO.P,JP35,1,A*%
%TO.N,/C15*%
X62320000Y-117944200D03*
%TD*%
D13*
%TO.P,JP34,2,B*%
%TO.N,Net-(JP34-B)*%
X81229200Y-116890800D03*
D12*
%TO.P,JP34,1,A*%
%TO.N,/D14*%
X82679200Y-116890800D03*
%TD*%
D13*
%TO.P,JP33,2,B*%
%TO.N,Net-(JP33-B)*%
X29907400Y-117551200D03*
D12*
%TO.P,JP33,1,A*%
%TO.N,/D17*%
X31357400Y-117551200D03*
%TD*%
D13*
%TO.P,JP32,2,B*%
%TO.N,Net-(JP32-B)*%
X46630000Y-117621400D03*
D12*
%TO.P,JP32,1,A*%
%TO.N,/D16*%
X48080000Y-117621400D03*
%TD*%
D13*
%TO.P,JP31,2,B*%
%TO.N,Net-(JP31-B)*%
X64273600Y-117957600D03*
D12*
%TO.P,JP31,1,A*%
%TO.N,/D15*%
X65723600Y-117957600D03*
%TD*%
%TO.P,JP22,1,A*%
%TO.N,/C07*%
X29408800Y-141873800D03*
D13*
%TO.P,JP22,2,B*%
%TO.N,Net-(JP22-B)*%
X27958800Y-141873800D03*
%TD*%
D12*
%TO.P,JP21,1,A*%
%TO.N,/D07*%
X32844400Y-141859000D03*
D13*
%TO.P,JP21,2,B*%
%TO.N,Net-(JP21-B)*%
X31394400Y-141859000D03*
%TD*%
D12*
%TO.P,JP20,1,A*%
%TO.N,/C06*%
X47144600Y-142443200D03*
D13*
%TO.P,JP20,2,B*%
%TO.N,Net-(JP20-B)*%
X45694600Y-142443200D03*
%TD*%
D12*
%TO.P,JP19,1,A*%
%TO.N,/D06*%
X50522800Y-142417800D03*
D13*
%TO.P,JP19,2,B*%
%TO.N,Net-(JP19-B)*%
X49072800Y-142417800D03*
%TD*%
D12*
%TO.P,JP18,1,A*%
%TO.N,/C05*%
X64439800Y-142417800D03*
D13*
%TO.P,JP18,2,B*%
%TO.N,Net-(JP18-B)*%
X62989800Y-142417800D03*
%TD*%
D12*
%TO.P,JP17,1,A*%
%TO.N,/D05*%
X67845600Y-142392400D03*
D13*
%TO.P,JP17,2,B*%
%TO.N,Net-(JP17-B)*%
X66395600Y-142392400D03*
%TD*%
D12*
%TO.P,JP16,1,A*%
%TO.N,/C04*%
X81229200Y-142214600D03*
D13*
%TO.P,JP16,2,B*%
%TO.N,Net-(JP16-B)*%
X79779200Y-142214600D03*
%TD*%
D12*
%TO.P,JP15,1,A*%
%TO.N,/D04*%
X84672000Y-142214600D03*
D13*
%TO.P,JP15,2,B*%
%TO.N,Net-(JP15-B)*%
X83222000Y-142214600D03*
%TD*%
D14*
%TO.P,J5,10,Pin_10*%
%TO.N,GND*%
X72567800Y-185826400D03*
%TO.P,J5,9,Pin_9*%
X75107800Y-185826400D03*
%TO.P,J5,8,Pin_8*%
%TO.N,/SCL*%
X77647800Y-185826400D03*
%TO.P,J5,7,Pin_7*%
%TO.N,/SDA*%
X80187800Y-185826400D03*
%TO.P,J5,6,Pin_6*%
%TO.N,/RES_0*%
X82727800Y-185826400D03*
%TO.P,J5,5,Pin_5*%
%TO.N,/RES_1*%
X85267800Y-185826400D03*
%TO.P,J5,4,Pin_4*%
%TO.N,/RES_2*%
X87807800Y-185826400D03*
%TO.P,J5,3,Pin_3*%
%TO.N,/RES_3*%
X90347800Y-185826400D03*
%TO.P,J5,2,Pin_2*%
%TO.N,+3V3*%
X92887800Y-185826400D03*
D15*
%TO.P,J5,1,Pin_1*%
X95427800Y-185826400D03*
%TD*%
D16*
%TO.N,GND*%
X94538800Y-53797200D03*
%TO.N,/D31*%
X88061800Y-52882800D03*
%TO.N,/C31*%
X88061800Y-51739800D03*
X91414600Y-39852600D03*
%TO.N,/D31*%
X91948000Y-40716200D03*
%TO.N,/C32*%
X89179400Y-44043600D03*
%TO.N,/D32*%
X90043000Y-44348400D03*
%TO.N,/D33*%
X24333200Y-45085000D03*
%TO.N,/C33*%
X73075800Y-45161200D03*
%TO.N,/D33*%
X72313800Y-43916600D03*
%TO.N,/C33*%
X87579200Y-39725600D03*
%TO.N,/D33*%
X88163400Y-38506400D03*
%TO.N,/C36*%
X92354400Y-36880800D03*
%TO.N,/D37*%
X93853000Y-36830000D03*
%TO.N,/C37*%
X94615000Y-38328600D03*
%TO.N,/D36*%
X92618900Y-39293800D03*
%TO.N,/C36*%
X92443300Y-46215300D03*
%TO.N,/D37*%
X93446600Y-46355000D03*
%TO.N,/C37*%
X94259400Y-47040800D03*
%TO.N,/D36*%
X92839911Y-44935511D03*
%TO.N,/C30*%
X79273400Y-45974000D03*
%TO.N,/D30*%
X74396600Y-46990000D03*
X87858600Y-45085000D03*
%TO.N,/C30*%
X86207600Y-43434000D03*
%TO.N,/C35*%
X73456800Y-39878000D03*
%TO.N,+3V3*%
X27432000Y-52755800D03*
X30810200Y-52654200D03*
X43535600Y-52755800D03*
X46837600Y-53517800D03*
X61950600Y-52400200D03*
X59740800Y-52755800D03*
X79146400Y-51358800D03*
X76200000Y-51460400D03*
X73202800Y-34671000D03*
X73075800Y-37185600D03*
%TO.N,Net-(JP66-B)*%
X76657200Y-37414200D03*
%TO.N,Net-(JP70-B)*%
X76708000Y-34594800D03*
%TO.N,Net-(JP67-B)*%
X60045600Y-35102800D03*
%TO.N,Net-(JP63-B)*%
X60045600Y-37693600D03*
%TO.N,+3V3*%
X56896000Y-37490400D03*
X56896000Y-34925000D03*
X40995600Y-35255200D03*
X40741600Y-38430200D03*
%TO.N,Net-(JP64-B)*%
X44551600Y-37287200D03*
%TO.N,Net-(JP68-B)*%
X44653200Y-34467800D03*
%TO.N,Net-(JP69-B)*%
X28930600Y-34798000D03*
%TO.N,Net-(JP65-B)*%
X28778200Y-37769800D03*
%TO.N,+3V3*%
X25628600Y-37388800D03*
X25704800Y-35483800D03*
%TO.N,Net-(JP49-B)*%
X28524200Y-62585600D03*
%TO.N,Net-(JP53-B)*%
X28726500Y-59867800D03*
%TO.N,Net-(JP48-B)*%
X45744500Y-61214000D03*
%TO.N,Net-(JP52-B)*%
X45746700Y-58648600D03*
%TO.N,Net-(JP47-B)*%
X63030300Y-61696600D03*
%TO.N,Net-(JP51-B)*%
X63055700Y-58953400D03*
%TO.N,Net-(JP50-B)*%
X80567900Y-62052200D03*
%TO.N,Net-(JP54-B)*%
X80567900Y-59283600D03*
%TO.N,/C16*%
X48056800Y-115265200D03*
%TO.N,Net-(JP36-B)*%
X42875200Y-117754400D03*
%TO.N,Net-(JP32-B)*%
X46558200Y-117881400D03*
%TO.N,/C10*%
X72009000Y-120040400D03*
%TO.N,/D10*%
X66294000Y-105638600D03*
%TO.N,/C10*%
X65100200Y-105943400D03*
%TO.N,Net-(JP34-B)*%
X81026000Y-116840000D03*
%TO.N,Net-(JP38-B)*%
X77571600Y-116763800D03*
%TO.N,Net-(JP35-B)*%
X60706000Y-117957600D03*
%TO.N,Net-(JP31-B)*%
X64109600Y-118033800D03*
%TO.N,Net-(JP33-B)*%
X29692600Y-117652800D03*
%TO.N,Net-(JP37-B)*%
X26187400Y-117602000D03*
%TO.N,GND*%
X87680800Y-40919400D03*
X95123000Y-40767000D03*
X95173800Y-44475400D03*
%TO.N,+3V3*%
X92811600Y-50266600D03*
X95402400Y-50190400D03*
%TO.N,/C23*%
X35712400Y-77927200D03*
%TO.N,/D23*%
X35788600Y-78968600D03*
%TO.N,/C23*%
X58039000Y-79603600D03*
%TO.N,/D23*%
X58394600Y-81000600D03*
%TO.N,/D22*%
X49784000Y-76149200D03*
%TO.N,/C22*%
X50596800Y-77774800D03*
X56311800Y-77698600D03*
%TO.N,/D22*%
X56159400Y-76708000D03*
%TO.N,/D27*%
X36830000Y-79603600D03*
X40081200Y-79527400D03*
%TO.N,/C26*%
X54610000Y-64922400D03*
%TO.N,/C25*%
X68072000Y-76631800D03*
%TO.N,/D25*%
X66725800Y-77368400D03*
%TO.N,/C25*%
X55905400Y-81889600D03*
%TO.N,/D25*%
X55651400Y-80772000D03*
%TO.N,/D21*%
X62357000Y-73329800D03*
X64693800Y-73736200D03*
%TO.N,/D24*%
X70332600Y-80543400D03*
%TO.N,/C24*%
X71323200Y-81203800D03*
X56972200Y-84810600D03*
%TO.N,/D24*%
X58089800Y-84912200D03*
%TO.N,+3V3*%
X77292200Y-60528200D03*
X77368400Y-57556400D03*
X59817000Y-60553600D03*
X59893200Y-57937400D03*
X41910000Y-60020200D03*
X42011600Y-57505600D03*
X24587200Y-59639200D03*
X24612600Y-57175400D03*
X28295600Y-67411600D03*
X31902400Y-67843400D03*
X48183800Y-67335400D03*
X44856400Y-67360800D03*
X82321400Y-67208400D03*
X78486000Y-67056000D03*
X65684400Y-67157600D03*
X61950600Y-67411600D03*
%TO.N,/D16*%
X50800000Y-108178600D03*
%TO.N,/C16*%
X50825400Y-109474000D03*
%TO.N,/D17*%
X33705800Y-114249200D03*
%TO.N,/D13*%
X31877000Y-129489200D03*
X55778400Y-119405400D03*
%TO.N,/C13*%
X54737000Y-119456200D03*
%TO.N,/D13*%
X56845200Y-109067600D03*
%TO.N,/C13*%
X55727600Y-109105700D03*
%TO.N,/D12*%
X58420000Y-109855000D03*
%TO.N,/C12*%
X57200800Y-110159800D03*
%TO.N,+3V3*%
X45974000Y-134264400D03*
X48463200Y-134391400D03*
X42824400Y-121666000D03*
X46482000Y-121640600D03*
X26746200Y-121081800D03*
X29159200Y-120954800D03*
X27990800Y-134366000D03*
X30099000Y-133680200D03*
%TO.N,/C11*%
X61569600Y-108356400D03*
%TO.N,/D11*%
X62433200Y-107924600D03*
%TO.N,+3V3*%
X64541400Y-134848600D03*
X62585600Y-134645400D03*
X64820800Y-121107200D03*
X60807600Y-121310400D03*
%TO.N,/C15*%
X62661800Y-116103400D03*
%TO.N,/D15*%
X64312800Y-105181400D03*
%TO.N,/C15*%
X63119000Y-105283000D03*
%TO.N,+3V3*%
X62458600Y-138582400D03*
X66395600Y-138353800D03*
%TO.N,GND*%
X58191400Y-112242600D03*
%TO.N,+3V3*%
X79933800Y-133781800D03*
X83337400Y-133604000D03*
X82854800Y-114833400D03*
X76631800Y-115036600D03*
%TO.N,/C14*%
X83781900Y-109029500D03*
%TO.N,/D14*%
X85547200Y-108889800D03*
X81838800Y-102870000D03*
%TO.N,/C14*%
X81153000Y-104089200D03*
%TO.N,GND*%
X52171600Y-85115400D03*
%TO.N,+3V3*%
X52400200Y-87579200D03*
%TO.N,GND*%
X61188600Y-86842600D03*
%TO.N,+3V3*%
X62433200Y-86182200D03*
%TO.N,GND*%
X59105800Y-78562200D03*
%TO.N,/RES_2*%
X84378800Y-86537800D03*
X93624400Y-89992200D03*
%TO.N,/SDA*%
X88315800Y-87223600D03*
X93726000Y-86614000D03*
%TO.N,/RES_1*%
X85267800Y-106527600D03*
X93421200Y-111379000D03*
%TO.N,/SDA*%
X88900000Y-108610400D03*
X93776800Y-108102400D03*
%TO.N,/SCL*%
X84785200Y-168554400D03*
%TO.N,/RES_0*%
X78384400Y-168249600D03*
X75438000Y-174244000D03*
%TO.N,+3V3*%
X61442600Y-113411000D03*
%TO.N,GND*%
X64532228Y-113222795D03*
%TO.N,+3V3*%
X52349400Y-113690400D03*
%TO.N,GND*%
X52324000Y-111480600D03*
X61315600Y-105587800D03*
%TO.N,/D07*%
X58724800Y-165912800D03*
%TO.N,/C07*%
X59334400Y-167208200D03*
%TO.N,+3V3*%
X46151800Y-158089600D03*
X44323000Y-157911800D03*
X30556200Y-157429200D03*
X27254200Y-157911800D03*
X31877000Y-138226800D03*
X29514800Y-138176000D03*
%TO.N,Net-(JP22-B)*%
X27838400Y-141478000D03*
%TO.N,Net-(JP21-B)*%
X31292800Y-141630400D03*
%TO.N,GND*%
X68656200Y-169519600D03*
X73456800Y-170484800D03*
X72212200Y-166725600D03*
%TO.N,+3V3*%
X47167800Y-138404600D03*
X49961800Y-138658600D03*
%TO.N,Net-(JP20-B)*%
X45567600Y-142544800D03*
%TO.N,Net-(JP19-B)*%
X48920400Y-142367000D03*
%TO.N,/D06*%
X72263000Y-163804600D03*
%TO.N,/C06*%
X72313800Y-165303200D03*
%TO.N,Net-(JP18-B)*%
X62788800Y-142544800D03*
%TO.N,Net-(JP17-B)*%
X66167000Y-142570200D03*
%TO.N,/D05*%
X69011800Y-162509200D03*
%TO.N,/C05*%
X68757800Y-163677600D03*
%TO.N,/C04*%
X72821800Y-162534600D03*
%TO.N,/D04*%
X72644000Y-161340800D03*
%TO.N,+3V3*%
X83794600Y-138709400D03*
X82092800Y-138785600D03*
%TO.N,Net-(JP15-B)*%
X82905600Y-142265400D03*
%TO.N,Net-(JP16-B)*%
X79527400Y-142087600D03*
%TO.N,/C03*%
X28930600Y-173685200D03*
%TO.N,/D03*%
X78155800Y-162991800D03*
%TO.N,/C03*%
X78435200Y-161925000D03*
%TO.N,GND*%
X77317600Y-161315400D03*
%TO.N,/C02*%
X47777400Y-157454600D03*
%TO.N,/D02*%
X47142400Y-156032200D03*
%TO.N,/D01*%
X66281300Y-154952700D03*
%TO.N,/C01*%
X67564000Y-157734000D03*
%TO.N,/D00*%
X83007200Y-166878000D03*
%TO.N,/C00*%
X83108800Y-165887400D03*
%TO.N,+3V3*%
X63830200Y-158064200D03*
X60629800Y-157937200D03*
X82727800Y-157835600D03*
X78511400Y-157810200D03*
X83997800Y-174040800D03*
X84124800Y-176758600D03*
%TO.N,GND*%
X74599800Y-168021000D03*
X74853800Y-168910000D03*
%TO.N,+3V3*%
X71526400Y-171119800D03*
X71882000Y-168859200D03*
%TD*%
D17*
%TO.N,/D32*%
X41081150Y-48523350D02*
X38236600Y-48523350D01*
X45237400Y-52679600D02*
X41081150Y-48523350D01*
X45237400Y-54889400D02*
X45237400Y-52679600D01*
X47325316Y-54889400D02*
X45237400Y-54889400D01*
X47884116Y-55448200D02*
X47325316Y-54889400D01*
X82448400Y-55448200D02*
X47884116Y-55448200D01*
X82448400Y-55448200D02*
X82397600Y-55448200D01*
X84531200Y-55448200D02*
X82448400Y-55448200D01*
%TO.N,/C32*%
X42383250Y-45983350D02*
X38236600Y-45983350D01*
X42595800Y-45770800D02*
X42383250Y-45983350D01*
X47802800Y-46939200D02*
X43764200Y-46939200D01*
X47802800Y-52628800D02*
X47802800Y-46939200D01*
X84328000Y-54762400D02*
X49936400Y-54762400D01*
X43764200Y-46939200D02*
X42595800Y-45770800D01*
X85445600Y-52950809D02*
X85394800Y-53001609D01*
X85445600Y-48818800D02*
X85445600Y-52950809D01*
X85394800Y-53695600D02*
X84328000Y-54762400D01*
X49936400Y-54762400D02*
X47802800Y-52628800D01*
X85394800Y-53001609D02*
X85394800Y-53695600D01*
X89179400Y-44043600D02*
X89179400Y-45085000D01*
X89179400Y-45085000D02*
X85445600Y-48818800D01*
%TO.N,/D32*%
X82423000Y-55727600D02*
X82346800Y-55499000D01*
X85953600Y-54025800D02*
X84531200Y-55448200D01*
X85953600Y-49149000D02*
X85953600Y-54025800D01*
X90043000Y-45059600D02*
X85953600Y-49149000D01*
X82397600Y-55448200D02*
X82423000Y-55727600D01*
X90043000Y-44348400D02*
X90043000Y-45059600D01*
%TO.N,/D31*%
X91897200Y-40767000D02*
X91948000Y-40716200D01*
X91424600Y-45532200D02*
X91897200Y-45059600D01*
X91897200Y-45059600D02*
X91897200Y-40767000D01*
X89484200Y-52882800D02*
X91424600Y-50942400D01*
X91424600Y-50942400D02*
X91424600Y-45532200D01*
X88061800Y-52882800D02*
X89484200Y-52882800D01*
%TO.N,/C31*%
X90668000Y-46507400D02*
X90668000Y-49260600D01*
X90881200Y-46294200D02*
X90668000Y-46507400D01*
X90668000Y-43500200D02*
X90881200Y-43713400D01*
X90881200Y-43713400D02*
X90881200Y-46294200D01*
X90668000Y-49260600D02*
X88061800Y-51739800D01*
X90668000Y-40599200D02*
X90668000Y-43500200D01*
X90668000Y-40599200D02*
X91414600Y-39852600D01*
%TO.N,/C36*%
X92786200Y-37363400D02*
X92354400Y-36880800D01*
X93243400Y-38354000D02*
X93192600Y-38354000D01*
X93192600Y-38354000D02*
X92786200Y-37947600D01*
X93624400Y-44399200D02*
X93624400Y-40995600D01*
X93726000Y-44500800D02*
X93624400Y-44399200D01*
X93624400Y-40995600D02*
X93243400Y-40614600D01*
X93726000Y-44932600D02*
X93726000Y-44500800D01*
X92443300Y-46215300D02*
X93726000Y-44932600D01*
X93243400Y-40614600D02*
X93243400Y-38354000D01*
X92786200Y-37947600D02*
X92786200Y-37363400D01*
%TO.N,/D36*%
X92618900Y-44714500D02*
X92618900Y-39293800D01*
X92839911Y-44935511D02*
X92618900Y-44714500D01*
%TO.N,/D33*%
X24333200Y-46583600D02*
X22326600Y-48590200D01*
X24333200Y-45085000D02*
X24333200Y-46583600D01*
%TO.N,/C33*%
X78968600Y-41452800D02*
X85852000Y-41452800D01*
X75260200Y-45161200D02*
X78968600Y-41452800D01*
X73075800Y-45161200D02*
X75260200Y-45161200D01*
X85852000Y-41452800D02*
X87579200Y-39725600D01*
%TO.N,/D33*%
X74549000Y-43916600D02*
X72313800Y-43916600D01*
X85902800Y-39065200D02*
X79400400Y-39065200D01*
X86363400Y-38604600D02*
X85902800Y-39065200D01*
X88163400Y-38506400D02*
X88065200Y-38604600D01*
X88065200Y-38604600D02*
X86363400Y-38604600D01*
X79400400Y-39065200D02*
X74549000Y-43916600D01*
%TO.N,/D30*%
X84556600Y-44780200D02*
X83058000Y-44780200D01*
X84861400Y-45085000D02*
X84556600Y-44780200D01*
X83058000Y-44780200D02*
X80848200Y-46990000D01*
X80848200Y-46990000D02*
X74396600Y-46990000D01*
X87858600Y-45085000D02*
X84861400Y-45085000D01*
%TO.N,/C30*%
X80619600Y-46126400D02*
X79375000Y-46126400D01*
X85394800Y-44246800D02*
X82499200Y-44246800D01*
X79375000Y-46126400D02*
X79273400Y-45974000D01*
X82499200Y-44246800D02*
X80619600Y-46126400D01*
X86207600Y-43434000D02*
X85394800Y-44246800D01*
%TO.N,/C37*%
X96151700Y-39865300D02*
X96151700Y-45021500D01*
X96151700Y-45021500D02*
X96215200Y-45085000D01*
X96215200Y-45085000D02*
X94259400Y-47040800D01*
X94615000Y-38328600D02*
X96151700Y-39865300D01*
%TO.N,/D37*%
X93853000Y-39979600D02*
X93853000Y-36830000D01*
X94386400Y-40513000D02*
X93853000Y-39979600D01*
X94386400Y-45415200D02*
X94386400Y-40513000D01*
X93446600Y-46355000D02*
X94386400Y-45415200D01*
%TO.N,/C30*%
X79273400Y-45974000D02*
X79349600Y-46151800D01*
%TO.N,/C35*%
X71094600Y-33426400D02*
X68901200Y-33426400D01*
X71755000Y-34086800D02*
X71094600Y-33426400D01*
X71755000Y-38176200D02*
X71755000Y-34086800D01*
X73456800Y-39878000D02*
X71755000Y-38176200D01*
X68901200Y-33426400D02*
X67302000Y-35025600D01*
%TO.N,/D37*%
X30747200Y-37553400D02*
X35449600Y-37553400D01*
%TO.N,/C37*%
X30619200Y-35013400D02*
X35449600Y-35013400D01*
%TO.N,/D36*%
X46217400Y-37565600D02*
X51375400Y-37565600D01*
%TO.N,/C36*%
X46125400Y-35025600D02*
X51375400Y-35025600D01*
%TO.N,/D35*%
X61776000Y-37565600D02*
X67302000Y-37565600D01*
%TO.N,/C35*%
X61621400Y-35025600D02*
X67302000Y-35025600D01*
%TO.N,/D34*%
X78244200Y-37629600D02*
X83328600Y-37629600D01*
%TO.N,/C34*%
X78334200Y-35089600D02*
X83328600Y-35089600D01*
%TO.N,/D27*%
X32651000Y-62433200D02*
X35477400Y-59606800D01*
X30200600Y-62433200D02*
X32651000Y-62433200D01*
%TO.N,/C27*%
X34098800Y-58445400D02*
X35477400Y-57066800D01*
X32562800Y-59867800D02*
X33985200Y-58445400D01*
X30226000Y-59867800D02*
X32562800Y-59867800D01*
X33985200Y-58445400D02*
X34098800Y-58445400D01*
%TO.N,/D24*%
X86011400Y-59606800D02*
X87540600Y-59606800D01*
X83566000Y-62052200D02*
X86011400Y-59606800D01*
X82067400Y-62052200D02*
X83566000Y-62052200D01*
%TO.N,/C24*%
X86113000Y-57066800D02*
X87540600Y-57066800D01*
X83896200Y-59283600D02*
X86113000Y-57066800D01*
X82067400Y-59283600D02*
X83896200Y-59283600D01*
%TO.N,/C25*%
X68299600Y-58953400D02*
X70186200Y-57066800D01*
X64555200Y-58953400D02*
X68299600Y-58953400D01*
%TO.N,/D25*%
X66319400Y-61696600D02*
X68409200Y-59606800D01*
X64529800Y-61696600D02*
X66319400Y-61696600D01*
X68409200Y-59606800D02*
X70186200Y-59606800D01*
%TO.N,/D26*%
X51270400Y-59600600D02*
X52769200Y-59600600D01*
X49657000Y-61214000D02*
X51270400Y-59600600D01*
X47244000Y-61214000D02*
X49657000Y-61214000D01*
%TO.N,/C26*%
X48828000Y-57066800D02*
X52769200Y-57066800D01*
X47246200Y-58648600D02*
X48828000Y-57066800D01*
%TO.N,/C16*%
X48031400Y-115290600D02*
X48056800Y-115265200D01*
X46101000Y-115290600D02*
X48031400Y-115290600D01*
X44653200Y-117652800D02*
X44653200Y-116738400D01*
X44653200Y-116738400D02*
X46101000Y-115290600D01*
%TO.N,/D16*%
X51975800Y-117621400D02*
X52769200Y-118414800D01*
X48080000Y-117621400D02*
X51975800Y-117621400D01*
%TO.N,/C10*%
X67081400Y-114655600D02*
X71323200Y-114655600D01*
X72009000Y-115341400D02*
X72009000Y-120040400D01*
X65100200Y-112674400D02*
X67081400Y-114655600D01*
X71323200Y-114655600D02*
X72009000Y-115341400D01*
X65100200Y-105943400D02*
X65100200Y-112674400D01*
%TO.N,/D10*%
X71958200Y-113944400D02*
X72821800Y-114808000D01*
X67995800Y-113944400D02*
X71958200Y-113944400D01*
X66280400Y-112229000D02*
X67995800Y-113944400D01*
X72821800Y-114808000D02*
X72821800Y-128226000D01*
X72821800Y-128226000D02*
X74440600Y-129844800D01*
X66280400Y-105652200D02*
X66280400Y-112229000D01*
X66294000Y-105638600D02*
X66280400Y-105652200D01*
%TO.N,/C14*%
X85813900Y-114261900D02*
X85927700Y-114261900D01*
X85927700Y-114261900D02*
X87540600Y-115874800D01*
X85064600Y-113512600D02*
X85813900Y-114261900D01*
X80086200Y-113944400D02*
X80518000Y-113512600D01*
X80518000Y-113512600D02*
X85064600Y-113512600D01*
X80086200Y-116068600D02*
X80086200Y-113944400D01*
X79264000Y-116890800D02*
X80086200Y-116068600D01*
%TO.N,/D14*%
X82679200Y-116890800D02*
X84203200Y-118414800D01*
X84203200Y-118414800D02*
X87540600Y-118414800D01*
%TO.N,/C15*%
X62320000Y-117944200D02*
X62320000Y-116445200D01*
X62320000Y-116445200D02*
X62661800Y-116103400D01*
%TO.N,/D15*%
X66180800Y-118414800D02*
X65723600Y-117957600D01*
X70186200Y-118414800D02*
X66180800Y-118414800D01*
X65723600Y-117957600D02*
X65723600Y-115298052D01*
X63907228Y-113481679D02*
X65723600Y-115298052D01*
%TO.N,/C17*%
X35477400Y-114456000D02*
X35477400Y-115874800D01*
X32915700Y-113007300D02*
X34876900Y-113007300D01*
X35052000Y-113182400D02*
X35052000Y-114030600D01*
X30530800Y-115392200D02*
X32915700Y-113007300D01*
X34876900Y-113007300D02*
X35052000Y-113182400D01*
X27815200Y-116406000D02*
X28829000Y-115392200D01*
X27815200Y-117500400D02*
X27815200Y-116406000D01*
X28829000Y-115392200D02*
X30530800Y-115392200D01*
X35052000Y-114030600D02*
X35477400Y-114456000D01*
%TO.N,/D17*%
X34613800Y-117551200D02*
X35477400Y-118414800D01*
X31357400Y-117551200D02*
X34613800Y-117551200D01*
%TO.N,/D23*%
X36042600Y-78714600D02*
X35788600Y-78968600D01*
X41097200Y-78714600D02*
X36042600Y-78714600D01*
X57429400Y-80035400D02*
X42418000Y-80035400D01*
X58394600Y-81000600D02*
X57429400Y-80035400D01*
X42418000Y-80035400D02*
X41097200Y-78714600D01*
%TO.N,/C23*%
X41706800Y-78130400D02*
X35712400Y-77927200D01*
X43180000Y-79603600D02*
X41706800Y-78130400D01*
X58039000Y-79603600D02*
X43180000Y-79603600D01*
%TO.N,/C22*%
X50673000Y-77698600D02*
X56311800Y-77698600D01*
X50596800Y-77774800D02*
X50673000Y-77698600D01*
%TO.N,/D22*%
X50896484Y-76708000D02*
X56159400Y-76708000D01*
X49784000Y-76149200D02*
X50337684Y-76149200D01*
X50337684Y-76149200D02*
X50896484Y-76708000D01*
%TO.N,/D27*%
X40081200Y-79527400D02*
X36830000Y-79603600D01*
%TO.N,/C26*%
X54559200Y-64871600D02*
X54610000Y-64922400D01*
X54559200Y-58856800D02*
X54559200Y-64871600D01*
X52769200Y-57066800D02*
X54559200Y-58856800D01*
%TO.N,/C25*%
X68072000Y-76631800D02*
X67995800Y-76784200D01*
%TO.N,/D25*%
X66751200Y-77393800D02*
X66725800Y-77368400D01*
X66751200Y-78892400D02*
X66751200Y-77393800D01*
X62560200Y-83083400D02*
X66751200Y-78892400D01*
X58572400Y-83083400D02*
X62560200Y-83083400D01*
X56261000Y-80772000D02*
X58572400Y-83083400D01*
X55651400Y-80772000D02*
X56261000Y-80772000D01*
%TO.N,/C25*%
X67919600Y-76860400D02*
X68072000Y-76631800D01*
X62636400Y-83820000D02*
X67919600Y-78536800D01*
X57835800Y-83820000D02*
X62636400Y-83820000D01*
X67919600Y-78536800D02*
X67919600Y-76860400D01*
X55905400Y-81889600D02*
X57835800Y-83820000D01*
%TO.N,/D21*%
X62738000Y-73736200D02*
X62357000Y-73329800D01*
X64693800Y-73736200D02*
X62738000Y-73736200D01*
%TO.N,/D24*%
X70332600Y-80543400D02*
X70205600Y-80822800D01*
%TO.N,/C24*%
X71272400Y-81432400D02*
X71043800Y-81432400D01*
X71323200Y-81203800D02*
X71272400Y-81432400D01*
X70815200Y-81432400D02*
X71323200Y-81203800D01*
X63068200Y-85547200D02*
X67183000Y-81432400D01*
X67183000Y-81432400D02*
X70815200Y-81432400D01*
X57708800Y-85547200D02*
X63068200Y-85547200D01*
X56972200Y-84810600D02*
X57708800Y-85547200D01*
%TO.N,/D24*%
X70180200Y-80848200D02*
X70332600Y-80543400D01*
X66802000Y-80848200D02*
X70180200Y-80848200D01*
X62738000Y-84912200D02*
X66802000Y-80848200D01*
X58089800Y-84912200D02*
X62738000Y-84912200D01*
%TO.N,/D16*%
X49631600Y-115277200D02*
X52769200Y-118414800D01*
X49631600Y-109347000D02*
X49631600Y-115277200D01*
X50800000Y-108178600D02*
X49631600Y-109347000D01*
%TO.N,/C16*%
X50825400Y-113931000D02*
X52769200Y-115874800D01*
X50825400Y-109474000D02*
X50825400Y-113931000D01*
%TO.N,/D17*%
X33705800Y-116643200D02*
X35477400Y-118414800D01*
X33705800Y-114249200D02*
X33705800Y-116643200D01*
%TO.N,/D13*%
X31521400Y-129844800D02*
X22377400Y-129844800D01*
X31877000Y-129489200D02*
X31521400Y-129844800D01*
%TO.N,/C13*%
X55092600Y-119024400D02*
X54737000Y-119380000D01*
X55727600Y-109397800D02*
X55092600Y-110032800D01*
X55727600Y-109105700D02*
X55727600Y-109397800D01*
X55092600Y-110032800D02*
X55092600Y-119024400D01*
X54737000Y-119380000D02*
X54737000Y-119456200D01*
%TO.N,/D13*%
X55702200Y-110210600D02*
X55778400Y-119405400D01*
X56845200Y-109067600D02*
X55702200Y-110210600D01*
%TO.N,/C12*%
X58115200Y-123825000D02*
X58115200Y-113690400D01*
X56896000Y-125044200D02*
X58115200Y-123825000D01*
X41868800Y-125044200D02*
X56896000Y-125044200D01*
X57200800Y-112776000D02*
X57200800Y-110159800D01*
X39557400Y-127355600D02*
X41868800Y-125044200D01*
X58115200Y-113690400D02*
X57200800Y-112776000D01*
%TO.N,/D12*%
X58420000Y-110820200D02*
X58420000Y-109855000D01*
X58572400Y-112745484D02*
X59004200Y-112313684D01*
X59004200Y-112313684D02*
X59004200Y-111404400D01*
X43723000Y-125730000D02*
X57226200Y-125730000D01*
X57226200Y-125730000D02*
X58572400Y-124383800D01*
X59004200Y-111404400D02*
X58420000Y-110820200D01*
X39557400Y-129895600D02*
X43723000Y-125730000D01*
X58572400Y-124383800D02*
X58572400Y-112745484D01*
%TO.N,/C11*%
X59029600Y-125317750D02*
X57001600Y-127345750D01*
X61569600Y-111760000D02*
X59029600Y-114300000D01*
X59029600Y-114300000D02*
X59029600Y-125317750D01*
X61569600Y-108356400D02*
X61569600Y-111760000D01*
%TO.N,/D11*%
X58162741Y-129885750D02*
X57001600Y-129885750D01*
X59766200Y-128282291D02*
X58162741Y-129885750D01*
X59766200Y-116636800D02*
X59766200Y-128282291D01*
X62255400Y-108554484D02*
X62255400Y-114147600D01*
X62433200Y-108376684D02*
X62255400Y-108554484D01*
X62255400Y-114147600D02*
X59766200Y-116636800D01*
X62433200Y-107924600D02*
X62433200Y-108376684D01*
%TO.N,/D15*%
X64008000Y-105486200D02*
X64312800Y-105181400D01*
X64008000Y-111302800D02*
X64008000Y-105486200D01*
X63907228Y-111403572D02*
X64008000Y-111302800D01*
X63907228Y-113481679D02*
X63907228Y-111403572D01*
%TO.N,/C15*%
X63119000Y-115646200D02*
X62661800Y-116103400D01*
X63119000Y-105283000D02*
X63119000Y-115646200D01*
%TO.N,/C14*%
X81153000Y-106400600D02*
X83781900Y-109029500D01*
%TO.N,/D14*%
X82473800Y-103505000D02*
X81838800Y-102870000D01*
X82473800Y-105816400D02*
X82473800Y-103505000D01*
X85547200Y-108889800D02*
X82473800Y-105816400D01*
%TO.N,/C14*%
X81153000Y-106400600D02*
X81153000Y-104089200D01*
%TO.N,/RES_2*%
X87833200Y-89992200D02*
X84378800Y-86537800D01*
X93624400Y-89992200D02*
X87833200Y-89992200D01*
%TO.N,/SDA*%
X88925400Y-86614000D02*
X88315800Y-87223600D01*
X93726000Y-86614000D02*
X88925400Y-86614000D01*
%TO.N,/RES_1*%
X87528400Y-108788200D02*
X85267800Y-106527600D01*
X90378316Y-110972600D02*
X87528400Y-110972600D01*
X87528400Y-110972600D02*
X87528400Y-108788200D01*
X90784716Y-111379000D02*
X90378316Y-110972600D01*
X93421200Y-111379000D02*
X90784716Y-111379000D01*
%TO.N,/SDA*%
X89408000Y-108102400D02*
X93776800Y-108102400D01*
X88900000Y-108610400D02*
X89408000Y-108102400D01*
%TO.N,/SCL*%
X84709000Y-168554400D02*
X84785200Y-168554400D01*
X83108800Y-170154600D02*
X84709000Y-168554400D01*
X83108800Y-170180000D02*
X83108800Y-170154600D01*
X77647800Y-175641000D02*
X83108800Y-170180000D01*
X77647800Y-185826400D02*
X77647800Y-175641000D01*
%TO.N,/RES_0*%
X78384400Y-168249600D02*
X78384400Y-171297600D01*
X78384400Y-171297600D02*
X75438000Y-174244000D01*
%TO.N,/C07*%
X29337000Y-143713200D02*
X29337000Y-141945600D01*
X33528000Y-147904200D02*
X29337000Y-143713200D01*
X36525200Y-147904200D02*
X33528000Y-147904200D01*
X37211000Y-148590000D02*
X36525200Y-147904200D01*
X37211000Y-161417000D02*
X37211000Y-148590000D01*
X38150800Y-162356800D02*
X37211000Y-161417000D01*
X53390800Y-162356800D02*
X38150800Y-162356800D01*
X58242200Y-167208200D02*
X53390800Y-162356800D01*
X59334400Y-167208200D02*
X58242200Y-167208200D01*
%TO.N,/D07*%
X37795200Y-160324800D02*
X37795200Y-143592600D01*
X54305200Y-161493200D02*
X38963600Y-161493200D01*
X58724800Y-165912800D02*
X54305200Y-161493200D01*
X38963600Y-161493200D02*
X37795200Y-160324800D01*
X37795200Y-143592600D02*
X35477400Y-141274800D01*
%TO.N,/C03*%
X33172400Y-177546000D02*
X75209400Y-177546000D01*
X81534000Y-165049200D02*
X81534000Y-171221400D01*
%TO.N,/C07*%
X32547800Y-138734800D02*
X35477400Y-138734800D01*
X29408800Y-141873800D02*
X32547800Y-138734800D01*
%TO.N,/D07*%
X33428600Y-141274800D02*
X35477400Y-141274800D01*
X32844400Y-141859000D02*
X33428600Y-141274800D01*
%TO.N,/D06*%
X51665800Y-141274800D02*
X50522800Y-142417800D01*
X52769200Y-141274800D02*
X51665800Y-141274800D01*
%TO.N,/C06*%
X50762600Y-140741400D02*
X52769200Y-138734800D01*
X47144600Y-142443200D02*
X47144600Y-141806000D01*
X47144600Y-141806000D02*
X48209200Y-140741400D01*
X48209200Y-140741400D02*
X50762600Y-140741400D01*
X47144600Y-144375800D02*
X47144600Y-142443200D01*
X50774600Y-148005800D02*
X47144600Y-144375800D01*
X54025800Y-148005800D02*
X50774600Y-148005800D01*
X54686200Y-148666200D02*
X54025800Y-148005800D01*
X54686200Y-158877000D02*
X54686200Y-148666200D01*
X60858400Y-165049200D02*
X54686200Y-158877000D01*
X71932800Y-165049200D02*
X60858400Y-165049200D01*
X72186800Y-165303200D02*
X71932800Y-165049200D01*
X72313800Y-165303200D02*
X72186800Y-165303200D01*
%TO.N,/D06*%
X55321200Y-158648400D02*
X55321200Y-143826800D01*
X61163200Y-164490400D02*
X55321200Y-158648400D01*
X55321200Y-143826800D02*
X52769200Y-141274800D01*
X72212200Y-163804600D02*
X71526400Y-164490400D01*
X71526400Y-164490400D02*
X61163200Y-164490400D01*
X72263000Y-163804600D02*
X72212200Y-163804600D01*
%TO.N,/C05*%
X68122800Y-138734800D02*
X70186200Y-138734800D01*
X64439800Y-142417800D02*
X68122800Y-138734800D01*
%TO.N,/D05*%
X68963200Y-141274800D02*
X70186200Y-141274800D01*
X67845600Y-142392400D02*
X68963200Y-141274800D01*
%TO.N,/C05*%
X68326000Y-161645600D02*
X68122800Y-161848800D01*
X68122800Y-163042600D02*
X68757800Y-163677600D01*
X68326000Y-146304000D02*
X68326000Y-161645600D01*
X67094100Y-145072100D02*
X68326000Y-146304000D01*
X66078100Y-145072100D02*
X67094100Y-145072100D01*
X68122800Y-161848800D02*
X68122800Y-163042600D01*
X64439800Y-143433800D02*
X66078100Y-145072100D01*
X64439800Y-142417800D02*
X64439800Y-143433800D01*
%TO.N,/D05*%
X69011800Y-143558600D02*
X67845600Y-142392400D01*
X69011800Y-162509200D02*
X69011800Y-143558600D01*
%TO.N,/C04*%
X77934299Y-145777699D02*
X81229200Y-142482798D01*
X77934299Y-145992101D02*
X77934299Y-145777699D01*
X76377800Y-147548600D02*
X77934299Y-145992101D01*
X73619000Y-147548600D02*
X76377800Y-147548600D01*
X71755000Y-149412600D02*
X73619000Y-147548600D01*
X71755000Y-161467800D02*
X71755000Y-149412600D01*
X72821800Y-162534600D02*
X71755000Y-161467800D01*
%TO.N,/D04*%
X76962000Y-148031200D02*
X80721200Y-144272000D01*
X83769200Y-144272000D02*
X84672000Y-143369200D01*
X84672000Y-143369200D02*
X84672000Y-142214600D01*
X74523600Y-148031200D02*
X76962000Y-148031200D01*
X74523600Y-148056600D02*
X74523600Y-148031200D01*
X80721200Y-144272000D02*
X83769200Y-144272000D01*
X72644000Y-149936200D02*
X74523600Y-148056600D01*
X72644000Y-161340800D02*
X72644000Y-149936200D01*
%TO.N,/C04*%
X84709000Y-138734800D02*
X87540600Y-138734800D01*
X81229200Y-142214600D02*
X84709000Y-138734800D01*
%TO.N,/D04*%
X85611800Y-141274800D02*
X84672000Y-142214600D01*
X87540600Y-141274800D02*
X85611800Y-141274800D01*
%TO.N,/C03*%
X33172400Y-177546000D02*
X28930600Y-173685200D01*
X81534000Y-171221400D02*
X75209400Y-177546000D01*
X81483200Y-164998400D02*
X81534000Y-165049200D01*
X81325200Y-164840400D02*
X81483200Y-164998400D01*
X81325200Y-164815000D02*
X81325200Y-164840400D01*
X78435200Y-161925000D02*
X81325200Y-164815000D01*
%TO.N,/D03*%
X80975200Y-165811200D02*
X78155800Y-162991800D01*
X80975200Y-170891200D02*
X80975200Y-165811200D01*
X75031600Y-176834800D02*
X80975200Y-170891200D01*
X24384000Y-167208200D02*
X34010600Y-176834800D01*
X24384000Y-154711400D02*
X24384000Y-167208200D01*
X22377400Y-152704800D02*
X24384000Y-154711400D01*
X34010600Y-176834800D02*
X75031600Y-176834800D01*
%TO.N,/D02*%
X43815000Y-152704800D02*
X39669200Y-152704800D01*
X47142400Y-156032200D02*
X43815000Y-152704800D01*
%TO.N,/C02*%
X45745400Y-150164800D02*
X39669200Y-150164800D01*
X48514000Y-152933400D02*
X45745400Y-150164800D01*
X48514000Y-156667200D02*
X48514000Y-152933400D01*
X47777400Y-157403800D02*
X48514000Y-156667200D01*
X47777400Y-157454600D02*
X47777400Y-157403800D01*
%TO.N,/C01*%
X62585600Y-150164800D02*
X57086200Y-150164800D01*
X67564000Y-155143200D02*
X62585600Y-150164800D01*
X67564000Y-157734000D02*
X67564000Y-155143200D01*
%TO.N,/D01*%
X66281300Y-154952700D02*
X64033400Y-152704800D01*
X64033400Y-152704800D02*
X57086200Y-152704800D01*
%TO.N,/D00*%
X80365600Y-152704800D02*
X74440600Y-152704800D01*
X82102800Y-166131400D02*
X82102800Y-154442000D01*
X82092800Y-166141400D02*
X82102800Y-166131400D01*
X82102800Y-154442000D02*
X80365600Y-152704800D01*
X82829400Y-166878000D02*
X82092800Y-166141400D01*
X83007200Y-166878000D02*
X82829400Y-166878000D01*
%TO.N,/C00*%
X80518000Y-150164800D02*
X74440600Y-150164800D01*
X83352800Y-152999600D02*
X80518000Y-150164800D01*
X83352800Y-165643400D02*
X83352800Y-152999600D01*
X83108800Y-165887400D02*
X83352800Y-165643400D01*
%TD*%
M02*
